# Blender v2.78 (sub 0) OBJ File: 'mexicanBallooner.blend'
# www.blender.org
o Cylinder
v 0.020229 2.040476 0.017856
v -0.018776 2.040476 0.043456
v -0.021814 2.040476 -0.002979
v 0.708584 2.972286 0.514644
v -0.291411 2.972286 0.839568
v -0.909449 2.972292 -0.011081
v -0.291411 2.972286 -0.861730
v 0.708584 2.972286 -0.536807
v 0.261365 4.355594 0.839568
v -0.738630 4.355594 0.514644
v -0.738630 4.355594 -0.536807
v 0.261365 4.355594 -0.861730
v 0.879403 4.355588 -0.011081
v -0.015023 5.210505 -0.011081
v -0.177479 2.348348 0.488914
v 0.410300 2.348348 0.297930
v 0.247846 2.850853 0.797930
v 0.835625 2.850855 -0.011081
v 0.410300 2.348348 -0.320093
v -0.540753 2.348352 -0.011081
v -0.703212 2.850855 0.488916
v -0.177479 2.348348 -0.511077
v -0.703212 2.850855 -0.511078
v 0.247846 2.850853 -0.820093
v 0.936035 3.663940 0.297931
v 0.936035 3.663940 -0.320094
v -0.015023 3.663940 0.988919
v 0.572763 3.663940 0.797935
v -0.966081 3.663940 0.297931
v -0.602809 3.663940 0.797935
v -0.602809 3.663940 -0.820098
v -0.966081 3.663940 -0.320094
v 0.572763 3.663940 -0.820098
v -0.015023 3.663940 -1.011081
v 0.673166 4.477025 0.488916
v -0.277892 4.477027 0.797930
v -0.865671 4.477025 -0.011081
v -0.277892 4.477027 -0.820093
v 0.673166 4.477025 -0.511078
v 0.147433 4.979532 0.488914
v 0.510707 4.979527 -0.011081
v -0.440346 4.979532 0.297930
v -0.440346 4.979532 -0.320093
v 0.147433 4.979532 -0.511077
v -0.011166 0.060134 0.002627
v 0.015219 0.060134 0.048328
v -0.037552 0.060134 0.048328
vt 0.2551 0.0086
vt 0.2375 0.1169
vt 0.2464 0.0042
vt 0.2387 0.2190
vt 0.3044 0.1923
vt 0.1314 0.0638
vt 0.2598 0.0001
vt 0.3302 0.0953
vt 0.8324 0.0005
vt 0.8274 0.1064
vt 0.7293 0.0598
vt 0.2905 0.2999
vt 0.0559 0.2035
vt 0.1600 0.1989
vt 0.1163 0.3349
vt 0.8237 0.2154
vt 0.9046 0.1902
vt 0.8675 0.3193
vt 0.6502 0.1716
vt 0.7447 0.1848
vt 0.6657 0.3141
vt 0.3750 0.1864
vt 0.4359 0.1329
vt 0.4444 0.2609
vt 0.2106 0.3170
vt 0.0001 0.3570
vt 0.7731 0.3161
vt 0.5304 0.0897
vt 0.6499 0.2009
vt 0.5365 0.2340
vt 0.3655 0.2819
vt 0.1992 0.4299
vt 0.2828 0.4160
vt 0.2734 0.5499
vt 0.8979 0.4303
vt 0.9747 0.4890
vt 0.8590 0.5315
vt 0.7353 0.4248
vt 0.8163 0.4362
vt 0.7672 0.5283
vt 0.5059 0.3562
vt 0.6110 0.3840
vt 0.4943 0.4968
vt 0.3487 0.3769
vt 0.4252 0.3818
vt 0.3734 0.4796
vt 0.3999 0.5898
vt 0.6995 0.6090
vt 0.8102 0.6165
vt 0.6546 0.4781
vt 0.9211 0.6165
vt 0.1182 0.5025
vt 0.9748 0.3245
vt 0.9999 0.1835
vt 0.3998 0.0001
vt 0.9285 0.0665
vt 0.8415 0.0001
vt 0.1411 0.5924
vt 0.1344 0.9181
vt 0.1324 0.5923
vt 0.1380 0.9430
vt 0.1342 0.9363
vt 0.1419 0.9363
vt 0.1267 0.9181
vt 0.1238 0.5923
vt 0.1497 0.9181
vt 0.1498 0.5923
vt 0.1386 0.5654
vt 0.1430 0.5729
vt 0.1343 0.5729
vt 0.1421 0.9181
vn 0.3107 -0.8243 0.4734
vn 0.8111 -0.4956 0.3105
vn 0.1962 -0.7726 0.6039
vn 0.2411 -0.8397 -0.4866
vn -0.4749 -0.8096 -0.3450
vn 0.9352 -0.2208 0.2770
vn 0.0256 -0.2208 0.9750
vn -0.9194 -0.2208 0.3256
vn -0.5938 -0.2208 -0.7738
vn 0.5524 -0.2208 -0.8038
vn 0.8063 -0.0816 0.5858
vn -0.3080 -0.0816 0.9479
vn -0.9967 -0.0816 0.0000
vn -0.3080 -0.0816 -0.9479
vn 0.8063 -0.0816 -0.5858
vn 0.4737 0.4956 0.7280
vn -0.5460 0.4956 0.6755
vn -0.8111 0.4956 -0.3105
vn 0.0446 0.4956 -0.8674
vn 0.8387 0.4956 -0.2256
vn 0.3861 0.8788 -0.2805
vn 0.6175 0.6461 -0.4487
vn 0.4737 0.4956 -0.7280
vn -0.1475 0.8788 -0.4539
vn -0.2359 0.6461 -0.7259
vn -0.5460 0.4956 -0.6755
vn -0.4772 0.8788 0.0000
vn -0.7633 0.6461 0.0000
vn -0.8111 0.4956 0.3105
vn -0.1475 0.8788 0.4539
vn -0.2359 0.6461 0.7259
vn 0.0446 0.4956 0.8674
vn 0.3861 0.8788 0.2805
vn 0.6175 0.6461 0.4487
vn 0.8387 0.4956 0.2256
vn 0.9194 0.2208 -0.3256
vn 0.8029 0.1226 -0.5834
vn 0.5938 0.2208 -0.7738
vn -0.0256 0.2208 -0.9750
vn -0.3067 0.1226 -0.9439
vn -0.5524 0.2208 -0.8038
vn -0.9352 0.2208 -0.2770
vn -0.9925 0.1226 0.0000
vn -0.9352 0.2208 0.2770
vn -0.5524 0.2208 0.8038
vn -0.3067 0.1226 0.9439
vn -0.0256 0.2208 0.9750
vn 0.5938 0.2208 0.7738
vn 0.8029 0.1226 0.5834
vn 0.9194 0.2208 0.3256
vn 0.3080 0.0816 -0.9479
vn 0.3067 -0.1226 -0.9439
vn 0.0256 -0.2208 -0.9750
vn -0.8063 0.0816 -0.5858
vn -0.8029 -0.1226 -0.5834
vn -0.9194 -0.2208 -0.3256
vn -0.8063 0.0816 0.5858
vn -0.8029 -0.1226 0.5834
vn -0.5938 -0.2208 0.7738
vn 0.3080 0.0816 0.9479
vn 0.3067 -0.1226 0.9439
vn 0.5524 -0.2208 0.8038
vn 0.9967 0.0816 0.0000
vn 0.9925 -0.1226 0.0000
vn 0.9352 -0.2208 -0.2770
vn 0.5460 -0.4956 -0.6755
vn 0.2359 -0.6461 -0.7259
vn -0.0446 -0.4956 -0.8674
vn -0.4737 -0.4956 -0.7280
vn -0.6175 -0.6461 -0.4487
vn -0.8387 -0.4956 -0.2256
vn -0.8387 -0.4956 0.2256
vn -0.6175 -0.6461 0.4487
vn -0.4737 -0.4956 0.7280
vn 0.8111 -0.4956 -0.3105
vn 0.7633 -0.6461 0.0000
vn -0.5103 -0.8593 0.0334
vn -0.0446 -0.4956 0.8674
vn 0.2359 -0.6461 0.7259
vn 0.5460 -0.4956 0.6755
vn 0.8660 -0.0099 -0.5000
vn 0.0000 -1.0000 -0.0000
vn 0.0000 0.0025 1.0000
vn -0.8660 0.0070 -0.5000
vn 0.6195 -0.7850 0.0000
vn 0.1785 -0.8163 -0.5493
vn -0.5011 -0.7851 0.3641
vn 0.4440 -0.0001 -0.8960
vn 0.5487 0.0115 0.8360
vn -0.9979 -0.0052 0.0653
s off
f 1/1/1 16/2/1 2/3/1
f 4/4/2 16/2/2 18/5/2
f 2/3/3 16/2/3 15/6/3
f 3/7/4 19/8/4 1/1/4
f 3/9/5 20/10/5 22/11/5
f 4/4/6 18/5/6 25/12/6
f 5/13/7 17/14/7 27/15/7
f 6/16/8 21/17/8 29/18/8
f 7/19/9 23/20/9 31/21/9
f 8/22/10 24/23/10 33/24/10
f 4/4/11 25/12/11 28/25/11
f 5/13/12 27/15/12 30/26/12
f 6/16/13 29/18/13 32/27/13
f 7/28/14 31/29/14 34/30/14
f 8/22/15 33/24/15 26/31/15
f 9/32/16 35/33/16 40/34/16
f 10/35/17 36/36/17 42/37/17
f 11/38/18 37/39/18 43/40/18
f 12/41/19 38/42/19 44/43/19
f 13/44/20 39/45/20 41/46/20
f 41/46/21 44/43/21 14/47/21
f 41/46/22 39/45/22 44/43/22
f 39/45/23 12/41/23 44/43/23
f 44/48/24 43/40/24 14/49/24
f 44/48/25 38/50/25 43/40/25
f 38/50/26 11/38/26 43/40/26
f 43/40/27 42/37/27 14/49/27
f 43/40/28 37/39/28 42/37/28
f 37/39/29 10/35/29 42/37/29
f 42/37/30 40/51/30 14/49/30
f 42/37/31 36/36/31 40/51/31
f 36/52/32 9/32/32 40/34/32
f 40/34/33 41/46/33 14/47/33
f 40/34/34 35/33/34 41/46/34
f 35/33/35 13/44/35 41/46/35
f 26/31/36 39/45/36 13/44/36
f 26/31/37 33/24/37 39/45/37
f 33/24/38 12/41/38 39/45/38
f 34/30/39 38/42/39 12/41/39
f 34/30/40 31/29/40 38/42/40
f 31/21/41 11/38/41 38/50/41
f 32/27/42 37/39/42 11/38/42
f 32/27/43 29/18/43 37/39/43
f 29/18/44 10/35/44 37/39/44
f 30/53/45 36/36/45 10/35/45
f 30/26/46 27/15/46 36/52/46
f 27/15/47 9/32/47 36/52/47
f 28/25/48 35/33/48 9/32/48
f 28/25/49 25/12/49 35/33/49
f 25/12/50 13/44/50 35/33/50
f 33/24/51 34/30/51 12/41/51
f 33/24/52 24/23/52 34/30/52
f 24/23/53 7/28/53 34/30/53
f 31/21/54 32/27/54 11/38/54
f 31/21/55 23/20/55 32/27/55
f 23/20/56 6/16/56 32/27/56
f 29/18/57 30/53/57 10/35/57
f 29/18/58 21/17/58 30/53/58
f 21/17/59 5/54/59 30/53/59
f 27/15/60 28/25/60 9/32/60
f 27/15/61 17/14/61 28/25/61
f 17/14/62 4/4/62 28/25/62
f 25/12/63 26/31/63 13/44/63
f 25/12/64 18/5/64 26/31/64
f 18/5/65 8/22/65 26/31/65
f 19/8/66 24/23/66 8/22/66
f 19/8/67 22/55/67 24/23/67
f 22/55/68 7/28/68 24/23/68
f 22/11/69 23/20/69 7/19/69
f 22/11/70 20/10/70 23/20/70
f 20/10/71 6/16/71 23/20/71
f 20/10/72 21/17/72 6/16/72
f 20/10/73 15/56/73 21/17/73
f 15/56/74 5/54/74 21/17/74
f 18/5/75 19/8/75 8/22/75
f 18/5/76 16/2/76 19/8/76
f 2/57/77 20/10/77 3/9/77
f 15/6/78 17/14/78 5/13/78
f 15/6/79 16/2/79 17/14/79
f 16/2/80 4/4/80 17/14/80
f 45/58/81 1/59/81 46/60/81
f 1/61/82 2/62/82 3/63/82
f 46/60/83 2/64/83 47/65/83
f 2/66/84 45/58/84 47/67/84
f 45/68/82 46/69/82 47/70/82
f 1/1/85 19/8/85 16/2/85
f 3/7/86 22/55/86 19/8/86
f 2/57/87 15/56/87 20/10/87
f 45/58/88 3/71/88 1/59/88
f 46/60/89 1/59/89 2/64/89
f 2/66/90 3/71/90 45/58/90
