# Blender v2.78 (sub 0) OBJ File: 'Builder.blend'
# www.blender.org
o Icosphere_Icosphere.001
v 0.023137 0.022874 -0.098061
v 0.518319 0.446746 0.199961
v -0.154760 0.424703 0.411519
v -0.585854 0.406632 -0.089748
v -0.179198 0.417502 -0.611104
v 0.503216 0.442295 -0.432049
v 0.215362 1.092484 0.392466
v -0.467052 1.067690 0.213411
v -0.482155 1.063240 -0.418599
v 0.190924 1.085283 -0.630157
v 0.622018 1.103354 -0.128889
v -0.080540 0.130524 0.203437
v 0.315083 0.143481 0.079087
v 0.210519 0.379671 0.378612
v 0.597266 0.390012 -0.117225
v 0.306206 0.140865 -0.292396
v -0.333931 0.119903 -0.091198
v -0.438499 0.356091 0.208324
v -0.094904 0.126292 -0.397641
v -0.452862 0.351859 -0.392756
v 0.187278 0.372822 -0.593956
v 0.667099 0.778573 0.060968
v 0.658222 0.775957 -0.310518
v 0.032446 0.759226 0.491765
v 0.428074 0.772182 0.367416
v -0.622059 0.734029 0.091880
v -0.368669 0.744652 0.386521
v -0.391910 0.737804 -0.586053
v -0.630936 0.731413 -0.279605
v 0.404833 0.765334 -0.605158
v 0.003718 0.750760 -0.710403
v 0.489026 1.158127 0.174118
v -0.151115 1.137164 0.375318
v -0.561102 1.119973 -0.101413
v -0.174356 1.130315 -0.597250
v 0.474662 1.153894 -0.426962
v 0.128203 1.435499 0.130349
v 0.299262 1.439462 -0.187043
v -0.262821 1.421110 -0.001522
v -0.296923 1.417851 -0.335634
v 0.105355 1.430791 -0.499771
v 0.134418 1.594281 0.160078
v -0.281301 1.579060 0.032243
v -0.288269 1.576116 -0.402962
v 0.123147 1.589515 -0.544094
v 0.384379 1.600742 -0.196114
v -0.095670 1.799299 0.160479
v -0.356901 1.788071 -0.187501
v -0.106940 1.794533 -0.543694
v 0.308779 1.809754 -0.415858
v 0.315746 1.812698 0.019347
v -0.088734 1.565790 0.146749
v 0.302541 1.578535 0.012524
v -0.337184 1.555112 -0.184199
v -0.099456 1.561258 -0.522960
v 0.295918 1.575733 -0.401377
v 0.262111 1.716280 0.138967
v 0.409034 1.720078 -0.070397
v -0.224068 1.699457 0.146783
v 0.020286 1.708404 0.221925
v -0.381711 1.691127 -0.313563
v -0.377617 1.692858 -0.057754
v 0.007037 1.702801 -0.605884
v -0.234788 1.694924 -0.522927
v 0.404940 1.718347 -0.326205
v 0.251391 1.711747 -0.530743
v 0.126933 1.827556 0.139344
v -0.268440 1.813081 0.017762
v -0.275064 1.810279 -0.396139
v 0.116212 1.823024 -0.530365
v 0.364661 1.833702 -0.199417
v -0.364280 1.188628 0.135824
v -0.215679 1.204769 0.265532
v 0.184588 1.184572 0.303693
v 0.362863 1.247915 0.193738
v 0.322035 1.077051 0.324528
v 0.368867 1.043643 0.481499
v 0.408148 1.082126 0.530529
v 0.474900 1.111641 0.378434
v -0.476374 1.148656 0.293639
v -0.642475 1.108725 0.230705
v -0.554355 1.086238 0.379086
v -0.496878 1.150741 0.195645
v 0.117493 1.856404 -0.562005
v -0.096780 1.844423 -0.560172
v 0.164877 1.859133 -0.545313
v -0.135201 1.842338 -0.546489
v -0.040340 1.827946 0.267966
v -0.006105 1.829131 0.267540
v 0.075852 1.831969 0.266518
v 0.043299 1.830842 0.266924
v 0.141148 1.827861 0.177925
v -0.112973 1.795603 0.202052
v -0.310204 1.811336 0.039128
v -0.411190 1.782786 -0.195197
v -0.317766 1.808138 -0.433376
v -0.125839 1.790162 -0.601822
v 0.128908 1.822687 -0.586606
v 0.348740 1.807538 -0.455887
v 0.412535 1.834876 -0.208800
v 0.356694 1.810899 0.040937
v 0.045495 2.144152 -0.393009
v 0.009299 2.142736 -0.418646
v -0.238226 2.135294 -0.233911
v -0.139177 2.140550 0.058768
v 0.169564 2.151240 0.054923
v 0.261331 2.152591 -0.240137
v -0.389250 2.028109 -0.017754
v -0.383595 1.815620 0.147263
v -0.240774 2.030296 -0.495170
v -0.390880 1.811716 -0.440481
v 0.018541 2.044056 0.271082
v 0.419064 1.809106 -0.450551
v 0.167031 1.799251 -0.629064
v 0.382631 1.875665 -0.461881
v 0.258786 2.047593 -0.501396
v -0.034277 2.141427 -0.386124
v 0.516475 1.844959 -0.157871
v -0.482644 1.810364 -0.145417
v 0.419052 2.056097 -0.027826
v -0.141713 1.788560 -0.625217
v 0.424710 1.843608 0.137193
v -0.028045 2.178270 -0.099259
v 0.057043 2.180348 -0.096304
v 0.280560 2.027776 0.204678
v -0.443808 1.810936 -0.270294
v 0.436681 2.030074 -0.297311
v -0.030291 2.182324 -0.169668
v 0.518113 1.814361 -0.246853
v -0.244707 2.009588 0.211220
v -0.005005 2.206626 -0.169668
v 0.007898 2.013309 -0.601012
v -0.114240 1.847116 -0.620634
v -0.413219 2.000647 -0.286719
v 0.011251 2.176040 0.022687
v 0.014172 2.153248 0.022687
v 0.177182 1.836165 0.321929
v 0.423242 1.878184 -0.409564
v 0.363148 1.752750 0.246093
v 0.419064 1.809106 -0.539533
v 0.479201 1.844410 -0.038018
v -0.118000 1.777222 0.433121
v -0.131563 1.825475 0.325776
v -0.158101 1.844736 -0.605013
v 0.190745 1.787912 0.429274
v -0.294355 1.729984 0.254284
v 0.190908 1.764334 0.429637
v 0.363311 1.729173 0.246455
v -0.117837 1.753644 0.433484
v -0.294192 1.706407 0.254646
v -0.305378 1.724280 0.178203
v -0.129023 1.771518 0.357041
v 0.352125 1.747046 0.170012
v 0.179722 1.782208 0.353194
v 0.082834 1.832899 0.323105
v 0.130371 1.860793 -0.622726
v 0.130802 1.852743 -0.646137
v 0.184464 1.863909 -0.603671
v 0.185018 1.853579 -0.633712
v 0.186103 1.833312 -0.692653
v 0.167031 1.799251 -0.718046
v -0.141713 1.788560 -0.714199
v -0.389242 1.781118 -0.529464
v 0.132010 1.830195 -0.711708
v -0.112602 1.816519 -0.709616
v 0.424880 1.847587 -0.498546
v 0.384269 1.845068 -0.550863
v -0.156462 1.814139 -0.693995
v -0.113778 1.838486 -0.645732
v -0.157552 1.834492 -0.634804
v -0.422265 1.811254 -0.339564
v -0.416922 1.860100 -0.335634
v -0.438036 1.859083 -0.268048
v -0.437576 1.813311 -0.344316
v -0.459119 1.812994 -0.275047
v -0.432233 1.862157 -0.340387
v -0.453347 1.861141 -0.272800
v 0.460627 1.844136 0.021704
v 0.446636 1.895596 0.022161
v 0.465602 1.895039 -0.038103
v 0.476983 1.845012 0.027009
v 0.495556 1.845286 -0.032714
v 0.462992 1.896471 0.027466
v 0.481958 1.895915 -0.032798
v -0.049809 1.828306 0.324757
v -0.010727 1.829659 0.324270
v -0.052150 1.855012 0.318155
v -0.013588 1.855278 0.317940
v -0.047436 1.819215 0.344969
v -0.008862 1.820472 0.344662
v 0.081022 1.855022 0.317635
v 0.047504 1.854443 0.317909
v -0.048671 1.842271 0.331376
v -0.010096 1.843528 0.331068
v 0.045672 1.831612 0.323568
v 0.046227 1.821046 0.346918
v 0.084773 1.823197 0.344635
v 0.126961 1.896249 -0.609436
v 0.045001 1.843944 0.333325
v 0.083547 1.846096 0.331042
v 0.180291 1.897636 -0.590946
v -0.146549 1.877788 -0.595410
v 0.180291 1.897636 -0.605008
v 0.126961 1.896249 -0.623499
v -0.111467 1.882590 -0.607183
v 0.024985 2.201580 -0.096304
v -0.111467 1.882590 -0.622753
v -0.146549 1.877788 -0.610980
v 0.052244 2.185620 -0.169960
v 0.023155 2.207011 -0.169960
v 0.022302 2.165858 -0.393009
v 0.009952 2.165720 -0.418646
v 0.009224 2.214728 -0.156531
v -0.004930 2.165946 -0.386124
v -0.004092 2.202501 -0.099259
v -0.626090 1.185714 0.355865
v -0.598020 1.090348 0.402322
v -0.696855 1.166144 0.279688
v -0.739322 1.074203 0.347074
v -0.867135 1.014320 0.447663
v -0.925224 1.031706 0.387262
v -0.976300 1.113391 0.320200
v -0.893378 1.096211 0.412545
v -0.620264 1.206699 0.366000
v -0.577231 1.060500 0.437220
v -0.728749 1.176697 0.249219
v -0.759794 1.067587 0.298995
v 0.574194 0.961381 0.526437
v 0.520379 0.901603 0.480205
v 0.472569 0.925640 0.592648
v 0.492416 0.962093 0.631002
v 0.634684 0.722708 0.539657
v 0.575075 0.785261 0.670874
v 0.566756 0.838687 0.718213
v 0.653030 0.820408 0.599690
v 0.596247 0.959025 0.515053
v 0.521259 0.875728 0.450632
v 0.454639 0.909222 0.607313
v 0.482294 0.960018 0.660756
vt 0.1249 0.0751
vt 0.2244 0.1081
vt 0.1462 0.1684
vt 0.2993 0.1586
vt 0.3421 0.0726
vt 0.0360 0.1621
vt 0.5511 0.0497
vt 0.6498 0.0003
vt 0.6251 0.1008
vt 0.5289 0.1560
vt 0.3860 0.1911
vt 0.1756 0.2413
vt 0.2321 0.1955
vt 0.2406 0.2791
vt 0.0112 0.2866
vt 0.1002 0.2542
vt 0.0916 0.3578
vt 0.6896 0.1515
vt 0.7212 0.0788
vt 0.7717 0.1644
vt 0.5655 0.2549
vt 0.6246 0.1961
vt 0.6457 0.2931
vt 0.3112 0.2382
vt 0.1689 0.3175
vt 0.0003 0.4098
vt 0.7110 0.2306
vt 0.5681 0.3604
vt 0.7928 0.9781
vt 0.7792 0.8994
vt 0.8309 0.9251
vt 0.8571 0.1916
vt 0.9431 0.1584
vt 0.9108 0.2914
vt 0.7317 0.3152
vt 0.8035 0.2636
vt 0.8129 0.3780
vt 0.6233 0.4579
vt 0.6849 0.3891
vt 0.7594 0.4738
vt 0.2040 0.5321
vt 0.1227 0.4757
vt 0.2545 0.4951
vt 0.2027 0.4306
vt 0.2426 0.4000
vt 0.3589 0.4224
vt 0.2487 0.3669
vt 0.3211 0.3435
vt 0.3739 0.3350
vt 0.4752 0.4075
vt 0.3886 0.2982
vt 0.4748 0.2557
vt 0.8367 0.0856
vt 0.1730 0.3996
vt 0.3084 0.3172
vt 0.7631 0.0003
vt 0.4752 0.1301
vt 0.4758 0.2698
vt 0.2212 0.0003
vt 0.1994 0.7751
vt 0.1972 0.7331
vt 0.2547 0.7662
vt 0.2296 0.8043
vt 0.0880 0.7726
vt 0.1444 0.7707
vt 0.1158 0.8050
vt 0.1300 0.6620
vt 0.0727 0.6794
vt 0.0964 0.6360
vt 0.2398 0.6503
vt 0.1856 0.6588
vt 0.2114 0.6213
vt 0.3527 0.6590
vt 0.2943 0.6568
vt 0.3261 0.6228
vt 0.1729 0.8057
vt 0.0523 0.8029
vt 0.1544 0.6270
vt 0.2680 0.6199
vt 0.3917 0.6287
vt 0.3575 0.5919
vt 0.4211 0.5946
vt 0.2981 0.5951
vt 0.2395 0.5880
vt 0.1812 0.5979
vt 0.1219 0.5983
vt 0.0631 0.6126
vt 0.0305 0.6447
vt 0.0003 0.6044
vt 0.0872 0.8371
vt 0.1448 0.8312
vt 0.2025 0.8371
vt 0.2601 0.8291
vt 0.0300 0.7560
vt 0.2929 0.8015
vt 0.3139 0.7584
vt 0.3372 0.7073
vt 0.2382 0.6941
vt 0.1230 0.7073
vt 0.0003 0.7079
vt 0.0889 0.7292
vt 0.2917 0.7137
vt 0.8315 0.5724
vt 0.8318 0.5570
vt 0.8315 0.5529
vt 0.9160 0.5784
vt 0.9290 0.6001
vt 0.7563 0.9781
vt 0.7450 0.9249
vt 0.8752 0.9131
vt 0.8176 0.8806
vt 0.9290 0.4745
vt 0.9115 0.4809
vt 0.4737 0.8175
vt 0.4580 0.8514
vt 0.4463 0.8099
vt 0.8292 0.5574
vt 0.3624 0.7361
vt 0.3905 0.7986
vt 0.3900 0.8024
vt 0.4587 0.8024
vt 0.4737 0.8093
vt 0.3986 0.7312
vt 0.3555 0.7391
vt 0.4024 0.7268
vt 0.2409 0.9243
vt 0.2510 0.9030
vt 0.2842 0.9243
vt 0.3482 0.8780
vt 0.2612 0.8766
vt 0.2516 0.8449
vt 0.3263 0.9041
vt 0.9322 0.6819
vt 0.9082 0.7230
vt 0.8864 0.6847
vt 0.6097 0.8546
vt 0.6688 0.8733
vt 0.6587 0.8835
vt 0.6851 0.9362
vt 0.6729 0.9386
vt 0.4345 0.6112
vt 0.4217 0.5957
vt 0.4363 0.5955
vt 0.5527 0.8512
vt 0.4995 0.8797
vt 0.5478 0.8365
vt 0.6129 0.8403
vt 0.4896 0.9422
vt 0.5024 0.9997
vt 0.4758 0.9403
vt 0.5104 0.8891
vt 0.4720 0.6031
vt 0.4584 0.6117
vt 0.4575 0.6018
vt 0.3564 0.9784
vt 0.4168 0.9824
vt 0.3520 0.9889
vt 0.3127 0.9420
vt 0.3021 0.9474
vt 0.4610 0.9420
vt 0.4132 0.9727
vt 0.4362 0.6213
vt 0.4228 0.6119
vt 0.4371 0.6131
vt 0.4399 0.5888
vt 0.4546 0.6012
vt 0.4388 0.5991
vt 0.6708 0.9997
vt 0.6604 0.9942
vt 0.4558 0.5895
vt 0.4624 0.5995
vt 0.7523 0.6691
vt 0.7432 0.7032
vt 0.7176 0.6872
vt 0.6724 0.6100
vt 0.7312 0.5843
vt 0.7233 0.6384
vt 0.7585 0.6280
vt 0.6322 0.8081
vt 0.5064 0.7725
vt 0.6134 0.7338
vt 0.6733 0.7563
vt 0.7186 0.6801
vt 0.6898 0.6565
vt 0.5638 0.6727
vt 0.7814 0.6570
vt 0.7909 0.6584
vt 0.7908 0.6681
vt 0.6715 0.7107
vt 0.6681 0.6630
vt 0.6795 0.6706
vt 0.6286 0.6642
vt 0.5980 0.5923
vt 0.4758 0.6011
vt 0.5907 0.4745
vt 0.6703 0.5494
vt 0.7246 0.7893
vt 0.7162 0.7314
vt 0.6567 0.6421
vt 0.5297 0.5145
vt 0.5429 0.5032
vt 0.6760 0.6534
vt 0.6797 0.6467
vt 0.7958 0.5915
vt 0.7542 0.4903
vt 0.7824 0.6456
vt 0.7948 0.6197
vt 0.7762 0.7019
vt 0.7682 0.7364
vt 0.7602 0.7344
vt 0.7173 0.7933
vt 0.7158 0.7933
vt 0.8027 0.6519
vt 0.7587 0.5378
vt 0.8087 0.5351
vt 0.7099 0.6916
vt 0.4242 0.5880
vt 0.4382 0.5896
vt 0.1486 0.9623
vt 0.1864 0.9431
vt 0.1245 0.9883
vt 0.1975 0.9644
vt 0.2533 0.9758
vt 0.2732 0.9420
vt 0.1133 0.9616
vt 0.0593 0.9764
vt 0.1943 0.9944
vt 0.1234 0.9938
vt 0.2549 0.9814
vt 0.0509 0.9414
vt 0.1266 0.9214
vt 0.0487 0.9215
vt 0.1773 0.8986
vt 0.1749 0.8786
vt 0.0023 0.8992
vt 0.0385 0.9737
vt 0.0320 0.9420
vt 0.2727 0.9727
vt 0.5366 0.8359
vt 0.6522 0.8359
vt 0.7179 0.7953
vt 0.7385 0.7944
vt 0.7765 0.7529
vt 0.7814 0.7548
vt 0.8056 0.7060
vt 0.8143 0.7136
vt 0.8110 0.6620
vt 0.8219 0.5996
vt 0.7815 0.5365
vt 0.8116 0.5052
vt 0.1176 0.8752
vt 0.1735 0.8420
vt 0.3015 0.9522
vt 0.0526 0.8821
vt 0.0003 0.8791
vt 0.0050 0.8378
vt 0.0003 0.9545
vt 0.7697 0.7411
vt 0.7652 0.7406
vt 0.7891 0.7059
vt 0.7525 0.7403
vt 0.7521 0.7354
vt 0.7577 0.7402
vt 0.7718 0.7020
vt 0.7583 0.7308
vt 0.7768 0.6902
vt 0.7705 0.6982
vt 0.7761 0.7018
vt 0.7482 0.7638
vt 0.7976 0.6642
vt 0.7852 0.7012
vt 0.7831 0.7075
vt 0.7803 0.6949
vt 0.7578 0.7403
vt 0.7147 0.7947
vt 0.6741 0.8067
vt 0.7169 0.7938
vt 0.7172 0.7949
vt 0.7159 0.7936
vt 0.7934 0.5409
vt 0.7658 0.5360
vt 0.7869 0.5365
vt 0.7672 0.5389
vt 0.7446 0.5433
vt 0.7894 0.5389
vt 0.1477 0.9513
vt 0.1390 0.9542
vt 0.1388 0.9499
vt 0.4728 0.5950
vt 0.4635 0.5880
vt 0.4734 0.5883
vt 0.1508 0.9565
vt 0.1476 0.9554
vt 0.1355 0.9555
vt 0.1375 0.9613
vt 0.1836 0.9401
vt 0.1756 0.9514
vt 0.1785 0.9372
vt 0.4669 0.6123
vt 0.4582 0.6183
vt 0.4575 0.6123
vt 0.1891 0.9366
vt 0.1937 0.9514
vt 0.1833 0.9468
vt 0.1865 0.9431
vt 0.7801 0.6949
vt 0.7727 0.6914
vt 0.7717 0.6895
vt 0.7679 0.6981
vt 0.7601 0.7344
vt 0.7547 0.7317
vt 0.7529 0.7294
vt 0.7115 0.6860
vt 0.6826 0.6620
vt 0.7150 0.6853
vt 0.7499 0.7354
vt 0.7146 0.6826
vt 0.6625 0.6464
vt 0.6858 0.6613
vt 0.6828 0.6654
vt 0.6731 0.6582
vt 0.2116 0.8904
vt 0.2061 0.8690
vt 0.2257 0.8549
vt 0.2431 0.8378
vt 0.8969 0.7286
vt 0.8609 0.7146
vt 0.8651 0.5101
vt 0.8409 0.5276
vt 0.8657 0.5247
vt 0.8225 0.5562
vt 0.6857 0.9003
vt 0.6949 0.8884
vt 0.7170 0.8586
vt 0.3650 0.8471
vt 0.3650 0.8156
vt 0.7296 0.8365
vt 0.3811 0.7596
vt 0.3920 0.7636
vt 0.3593 0.7358
vt 0.3676 0.7500
vt 0.7463 0.9486
vt 0.4674 0.8540
vt 1.0109 0.7286
vt 0.4217 0.6113
vt 0.5129 0.9942
vt 0.4728 0.6117
vt 0.4714 0.9474
vt 0.4217 0.6213
vt 0.4624 0.5880
vt 0.4986 0.5650
vt 0.4870 0.5544
vt 0.5145 0.5283
vt 0.5094 0.5210
vt 0.5240 0.5090
vt 0.5395 0.4907
vt 0.1935 0.9887
vt 0.0577 0.9825
vt 0.1291 0.9414
vt 0.7891 0.5637
vt 0.4630 0.5950
vt 0.4667 0.6181
vt 0.1779 0.8754
vn 0.1486 -0.9140 0.3774
vn 0.7364 -0.6101 0.2924
vn -0.2496 -0.9360 0.2484
vn -0.2597 -0.9398 -0.2221
vn 0.1303 -0.9203 -0.3690
vn 0.9143 -0.2927 0.2799
vn 0.0546 -0.2617 0.9636
vn -0.8728 -0.3070 0.3794
vn -0.5487 -0.3035 -0.7790
vn 0.4863 -0.2930 -0.8232
vn 0.7858 -0.0964 0.6109
vn -0.2496 -0.0916 0.9640
vn -0.9921 -0.1233 0.0246
vn -0.2940 -0.1211 -0.9481
vn 0.7551 -0.1158 -0.6452
vn 0.0595 0.8202 0.5690
vn -0.8179 0.4956 -0.2922
vn -0.0422 0.3436 -0.9382
vn 0.7200 0.6489 -0.2459
vn 0.6002 0.6975 -0.3915
vn 0.4630 0.4110 -0.7853
vn -0.3296 0.5547 -0.7640
vn -0.5203 0.4427 -0.7303
vn -0.7199 0.6909 0.0667
vn -0.7094 0.5614 0.4261
vn -0.2415 0.7327 0.6362
vn 0.0909 0.5798 0.8097
vn 0.5438 0.7826 0.3029
vn 0.6941 0.6974 0.1786
vn 0.8728 0.3070 -0.3794
vn 0.7452 0.1627 -0.6467
vn 0.5133 0.2798 -0.8113
vn -0.0546 0.2617 -0.9636
vn -0.3011 0.1400 -0.9433
vn -0.5267 0.2689 -0.8064
vn -0.9143 0.2927 -0.2799
vn -0.9857 0.1669 0.0224
vn -0.8987 0.3015 0.3185
vn -0.4863 0.2930 0.8232
vn -0.2559 0.1690 0.9518
vn -0.0094 0.2903 0.9569
vn 0.5487 0.3035 0.7790
vn 0.7735 0.1819 0.6071
vn 0.8881 0.3176 0.3324
vn 0.2496 0.0916 -0.9640
vn 0.2559 -0.1690 -0.9518
vn 0.0094 -0.2903 -0.9569
vn -0.7858 0.0964 -0.6109
vn -0.7735 -0.1819 -0.6071
vn -0.8881 -0.3176 -0.3324
vn -0.7551 0.1158 0.6452
vn -0.7452 -0.1627 0.6467
vn -0.5133 -0.2798 0.8113
vn 0.2940 0.1211 0.9481
vn 0.3011 -0.1400 0.9433
vn 0.5267 -0.2689 0.8064
vn 0.9921 0.1233 -0.0246
vn 0.9857 -0.1669 -0.0224
vn 0.8987 -0.3015 -0.3185
vn 0.4647 -0.6038 -0.6477
vn 0.1961 -0.7383 -0.6453
vn -0.0354 -0.5975 -0.8011
vn -0.3966 -0.6146 -0.6819
vn -0.4925 -0.7728 -0.4002
vn -0.7356 -0.6453 -0.2062
vn -0.7266 -0.6397 0.2507
vn -0.4754 -0.7639 0.4364
vn -0.3666 -0.5971 0.7135
vn 0.7197 -0.6175 -0.3175
vn 0.6538 -0.7566 -0.0103
vn 0.3832 -0.9237 -0.0027
vn 0.0024 -0.5771 0.8167
vn 0.2283 -0.7242 0.6507
vn 0.4981 -0.5879 0.6374
vn 0.6418 -0.1653 0.7489
vn 0.5586 -0.4659 0.6862
vn -0.4728 -0.4789 0.7397
vn -0.8357 -0.4966 -0.2345
vn -0.0198 -0.4943 -0.8691
vn 0.8276 -0.4752 -0.2988
vn 0.3245 -0.1789 0.9288
vn -0.7818 -0.1926 0.5931
vn -0.7985 -0.2102 -0.5641
vn 0.2945 -0.2071 -0.9330
vn 0.9821 -0.1877 -0.0144
vn 0.7884 0.5702 0.2310
vn 0.9379 0.3466 -0.0174
vn 0.7824 0.5638 -0.2644
vn 0.4536 0.5534 -0.6986
vn 0.2668 0.3272 -0.9065
vn -0.0194 0.5444 -0.8386
vn -0.5266 0.5388 -0.6575
vn -0.7777 0.3219 -0.5399
vn -0.8018 0.5395 -0.2571
vn -0.7914 0.5462 0.2745
vn -0.7579 0.3377 0.5581
vn -0.5027 0.5556 0.6622
vn 0.0065 0.5657 0.8246
vn 0.2933 0.3532 0.8884
vn 0.4719 0.5710 0.6718
vn 0.7733 0.2367 -0.5882
vn 0.7701 -0.2889 -0.5688
vn 0.5339 -0.4844 -0.6931
vn -0.3228 0.2226 -0.9199
vn -0.3003 -0.3038 -0.9042
vn -0.4926 -0.4985 -0.7133
vn -0.9729 0.2308 0.0140
vn -0.9550 -0.2962 0.0173
vn -0.8295 -0.4898 0.2684
vn -0.2929 0.2501 0.9228
vn -0.2732 -0.2768 0.9213
vn 0.0074 -0.4707 0.8823
vn 0.7896 0.2539 0.5587
vn 0.7899 -0.2725 0.5494
vn 0.8388 -0.4675 0.2792
vn 0.8353 -0.4580 -0.3042
vn 0.6767 -0.6165 -0.4025
vn 0.5987 -0.2770 -0.7515
vn -0.0581 -0.2625 -0.9632
vn -0.2892 -0.5882 -0.7552
vn -0.5274 -0.3080 -0.7918
vn -0.9742 -0.0411 -0.2218
vn -0.9207 -0.3778 0.0977
vn -0.9499 -0.1675 0.2638
vn 0.8534 -0.4342 0.2885
vn 0.7268 -0.5690 0.3846
vn -0.5086 -0.2365 0.8279
vn -0.2544 -0.5258 0.8117
vn -0.0354 -0.1826 0.9826
vn 0.5220 -0.4725 -0.7101
vn 0.7077 0.1382 -0.6929
vn -0.4781 0.5215 0.7067
vn -0.5671 0.5881 0.5766
vn 0.2812 -0.9398 -0.1944
vn 0.8614 0.0061 -0.5079
vn -0.2270 -0.9641 -0.1375
vn 0.2631 0.5877 0.7651
vn 0.2016 0.9551 -0.2173
vn 0.1694 0.9775 0.1258
vn -0.2536 0.7242 -0.6412
vn -0.7483 0.6290 -0.2107
vn -0.7753 0.4637 -0.4288
vn -0.3175 -0.3060 -0.8975
vn -0.1019 0.8453 0.5245
vn -0.1983 0.9744 0.1059
vn -0.2288 -0.9734 -0.0116
vn -0.0638 -0.9979 -0.0084
vn 0.0437 -0.9942 0.0987
vn -0.0769 0.9955 0.0556
vn -0.0214 -0.9964 0.0819
vn 0.1246 -0.9916 0.0341
vn 0.0847 -0.9928 0.0845
vn 0.1057 -0.9923 -0.0642
vn 0.0348 -0.9993 0.0121
vn 0.1224 -0.9918 -0.0373
vn -0.0047 -0.9959 -0.0905
vn -0.0596 -0.9978 0.0298
vn -0.0348 0.9979 0.0545
vn 0.0060 -0.9955 -0.0942
vn -0.1657 0.9316 -0.3234
vn 0.1178 0.8094 -0.5753
vn 0.3895 0.9124 0.1253
vn 0.5628 0.8255 -0.0429
vn -0.9261 0.2157 0.3095
vn -0.9273 0.3715 0.0447
vn 0.0926 0.9784 -0.1847
vn -0.7680 0.3799 0.5156
vn 0.3326 0.8937 -0.3012
vn 0.2234 0.9037 -0.3654
vn -0.2388 0.9690 0.0634
vn -0.4723 0.8032 0.3631
vn -0.0259 0.9027 0.4295
vn -0.2526 0.3945 0.8835
vn 0.2482 0.4047 0.8801
vn -0.7413 0.3688 -0.5608
vn -0.4400 0.8881 0.1330
vn -0.0312 0.9769 0.2112
vn 0.1875 0.8216 0.5384
vn 0.0038 0.2403 0.9707
vn 0.5520 0.8335 0.0237
vn 0.9125 0.4086 0.0202
vn 0.7604 0.4109 0.5030
vn 0.7588 0.6201 -0.1992
vn -0.5173 0.7958 -0.3148
vn -0.5755 0.1469 0.8045
vn -0.0556 0.9439 -0.3256
vn 0.9326 0.1574 -0.3247
vn -0.9473 0.1273 -0.2940
vn -0.2286 0.8110 0.5385
vn -0.6044 0.7962 -0.0274
vn 0.4642 0.8203 -0.3342
vn 0.4342 0.8261 0.3592
vn -0.1868 0.8018 -0.5676
vn -0.5133 -0.8144 0.2706
vn 0.9245 0.2488 0.2887
vn 0.1750 0.9828 0.0589
vn -0.2911 0.8887 -0.3543
vn 0.0596 0.9443 -0.3236
vn 0.5863 0.1686 0.7924
vn 0.0264 -0.9105 -0.4126
vn 0.5094 0.4969 0.7026
vn -0.5875 0.7078 0.3924
vn -0.0119 -0.0155 -0.9998
vn 0.7296 0.0156 0.6837
vn -0.7128 0.0059 0.7013
vn -0.0308 0.9723 0.2318
vn -0.3597 -0.9188 -0.1622
vn 0.4917 -0.8292 -0.2658
vn -0.7758 -0.6108 0.1582
vn 0.7863 -0.6141 -0.0679
vn -0.2205 -0.9523 0.2111
vn -0.0470 -0.9987 -0.0192
vn -0.0210 -0.9964 0.0824
vn 0.0757 -0.8426 0.5331
vn -0.2394 -0.9249 0.2955
vn 0.0141 -0.9942 0.1064
vn 0.3191 -0.9429 0.0949
vn -0.3374 -0.8390 -0.4270
vn 0.7153 -0.6361 -0.2893
vn 0.0959 -0.9579 -0.2706
vn 0.3543 -0.7871 -0.5050
vn 0.6258 0.6707 0.3981
vn -0.3190 0.4673 -0.8245
vn 0.0346 -0.9994 0.0000
vn -0.9435 0.3075 -0.1231
vn -0.5842 0.2047 -0.7854
vn -0.0157 0.1286 -0.9916
vn 0.7267 0.3656 -0.5817
vn 0.5591 0.2190 -0.7996
vn -0.9953 -0.0954 0.0145
vn -0.5809 0.2712 -0.7674
vn 0.5473 0.2812 -0.7883
vn -0.0185 0.1805 -0.9834
vn 0.2679 0.4749 -0.8382
vn 0.6798 0.4841 -0.5510
vn 0.9274 0.1979 -0.3174
vn 0.0301 -0.9995 0.0000
vn 0.0391 -0.9992 0.0000
vn 0.1719 0.9326 -0.3175
vn -0.3453 0.8855 -0.3108
vn -0.2975 -0.0089 0.9547
vn 0.3015 0.0436 -0.9525
vn 0.1173 0.9918 0.0516
vn -0.1203 -0.9919 -0.0419
vn -0.3028 -0.0908 0.9487
vn -0.0458 0.9987 -0.0236
vn 0.0499 -0.9987 0.0109
vn 0.3036 0.0800 -0.9494
vn 0.0011 -0.7199 -0.6941
vn -0.9764 -0.0576 0.2081
vn 0.9918 -0.0211 -0.1259
vn 0.0098 -0.8315 -0.5555
vn 0.0097 -0.5075 -0.8616
vn -0.9866 -0.0417 0.1580
vn 0.9985 0.0538 0.0006
vn -0.0223 -0.5112 -0.8592
vn 0.2616 0.5464 -0.7956
vn 0.2990 0.3690 -0.8800
vn 0.9924 0.1228 0.0000
vn -0.0260 0.9997 0.0000
vn -0.3389 0.4486 -0.8270
vn -0.3452 0.3562 -0.8683
vn 0.9970 -0.0779 0.0000
vn -0.3625 0.9159 -0.1723
vn -0.1356 0.9908 0.0000
vn 0.4820 0.5150 -0.7089
vn -0.6356 0.7607 -0.1320
vn -0.1637 0.9699 -0.1802
vn 0.9252 0.1186 0.3604
vn 0.5858 0.7966 -0.1492
vn 0.5204 0.8525 0.0499
vn 0.3457 0.9225 -0.1715
vn -0.5328 0.8443 0.0564
vn 0.0095 0.9775 0.2109
vn -0.6912 0.6833 0.2352
vn -0.9089 0.0258 -0.4161
vn -0.6920 0.7201 0.0512
vn -0.3247 0.4168 -0.8490
vn 0.4441 0.4946 0.7471
vn 0.2295 0.9729 -0.0273
vn 0.1693 -0.9744 -0.1482
vn 0.0397 -0.9494 -0.3115
vn -0.3593 0.9283 0.0953
vn -0.0283 0.3863 0.9219
vn -0.7316 0.0966 0.6749
vn -0.1677 -0.3693 -0.9141
vn -0.8282 -0.1240 0.5465
vn 0.5490 0.7419 0.3849
vn -0.6784 -0.7224 -0.1340
vn 0.3799 -0.3354 -0.8621
vn 0.7699 0.2228 -0.5979
vn 0.7096 -0.4021 0.5786
vn -0.6761 -0.7248 -0.1325
vn 0.6478 0.5723 0.5027
vn -0.7542 -0.2346 0.6133
vn 0.1718 0.9502 0.2598
vn -0.6200 0.7227 0.3053
vn -0.2600 0.7464 0.6126
vn 0.0524 0.7021 0.7102
vn 0.5848 0.7596 0.2844
vn 0.7899 -0.5554 -0.2599
vn -0.5516 -0.3818 0.7416
vn 0.5882 0.7788 0.2179
vn -0.5411 -0.3247 -0.7758
vn 0.3501 -0.5986 -0.7205
vn -0.1547 -0.2595 -0.9533
vn -0.1140 0.8146 0.5687
vn -0.2440 0.9671 0.0716
vn 0.1250 -0.9766 0.1752
vn 0.1224 -0.9918 -0.0372
vn 0.0060 -0.9955 -0.0943
vn 0.2234 0.9037 -0.3653
vn -0.0312 0.9769 0.2113
vn 0.5918 0.8048 0.0446
vn 0.0530 -0.9986 0.0000
vn 0.4905 0.8163 0.3050
vn -0.5467 0.3694 0.7514
vn 0.7296 0.0155 0.6837
vn -0.7128 0.0059 0.7014
vn -0.9896 -0.0046 0.1437
vn 0.9896 0.0046 -0.1437
vn -0.0213 -0.9995 0.0251
vn -0.1870 -0.9664 -0.1762
vn -0.4405 -0.8866 -0.1410
vn -0.0539 -0.9972 0.0523
vn 0.0351 -0.9984 0.0445
vn 0.0203 -0.9994 0.0266
vn 0.0439 -0.9933 0.1071
vn 0.2399 -0.9700 -0.0395
vn 0.0858 -0.9961 0.0221
vn -0.3583 -0.9197 -0.1607
vn 0.0323 -0.9881 -0.1502
vn 0.3572 -0.9278 -0.1072
vn -0.9440 0.3299 0.0000
vn 0.7136 0.3785 -0.5895
vn -0.9954 -0.0957 0.0000
vn 0.1533 -0.9336 0.3239
vn 0.3015 0.0437 -0.9525
vn 0.0499 -0.9987 0.0110
vn 0.0189 -0.7425 -0.6696
vn -0.9958 0.0005 0.0913
vn 0.9732 0.0289 -0.2283
vn 0.0129 -0.8274 -0.5614
vn -0.9960 -0.0001 0.0896
vn 0.9906 -0.0477 0.1284
vn 0.1908 0.4663 -0.8638
vn 0.2914 0.3602 -0.8862
vn 0.2965 0.3651 -0.8825
vn 0.9923 0.1218 -0.0236
vn -0.2516 0.5149 -0.8195
vn -0.3296 0.3678 -0.8695
vn -0.3407 0.3603 -0.8684
vn 0.9962 -0.0752 0.0442
vn 0.9007 -0.0256 -0.4338
vn -0.6866 0.7144 -0.1345
vn 0.5366 0.8102 0.2358
vn 0.6751 0.7213 -0.1545
vn -0.9454 -0.1211 0.3025
vn -0.4938 0.5910 -0.6379
vn -0.7098 0.7016 0.0630
vn -0.7402 -0.1401 -0.6576
vn 0.4352 0.4901 0.7552
vn -0.0217 0.9730 -0.2299
vn -0.1313 -0.9887 -0.0719
vn 0.1443 -0.9600 -0.2398
vn -0.1511 0.9386 0.3103
vn -0.0215 0.4327 0.9013
vn -0.7080 0.0743 0.7023
vn -0.2144 -0.6964 -0.6849
vn -0.7581 -0.0541 0.6499
vn 0.5410 0.7298 0.4181
vn -0.6829 -0.7289 0.0486
vn 0.7385 -0.1578 -0.6556
vn 0.7209 -0.1213 -0.6823
vn 0.7023 -0.4637 0.5401
vn -0.7842 -0.6174 -0.0620
vn 0.6629 0.6430 0.3834
vn -0.7469 -0.5023 0.4356
s off
f 1/1/1 13/2/1 12/3/1
f 2/4/2 13/2/2 15/5/2
f 1/1/3 12/3/3 17/6/3
f 1/7/4 17/8/4 19/9/4
f 1/7/5 19/9/5 16/10/5
f 2/4/6 15/5/6 22/11/6
f 3/12/7 14/13/7 24/14/7
f 4/15/8 18/16/8 26/17/8
f 5/18/9 20/19/9 28/20/9
f 6/21/10 21/22/10 30/23/10
f 2/4/11 22/11/11 25/24/11
f 3/12/12 24/14/12 27/25/12
f 4/15/13 26/17/13 29/26/13
f 5/18/14 28/20/14 31/27/14
f 6/21/15 30/23/15 23/28/15
f 74/29/16 79/30/16 75/31/16
f 9/32/17 34/33/17 40/34/17
f 10/35/18 35/36/18 41/37/18
f 11/38/19 36/39/19 38/40/19
f 38/40/20 36/39/20 41/37/20
f 36/39/21 10/35/21 41/37/21
f 41/37/22 35/36/22 40/34/22
f 35/36/23 9/32/23 40/34/23
f 40/41/24 34/42/24 39/43/24
f 34/42/25 72/44/25 39/43/25
f 73/45/26 37/46/26 39/43/26
f 33/47/27 74/48/27 37/46/27
f 75/49/28 38/50/28 37/46/28
f 32/51/29 11/52/29 38/50/29
f 23/28/30 36/39/30 11/38/30
f 23/28/31 30/23/31 36/39/31
f 30/23/32 10/35/32 36/39/32
f 31/27/33 35/36/33 10/35/33
f 31/27/34 28/20/34 35/36/34
f 28/20/35 9/32/35 35/36/35
f 29/53/36 34/33/36 9/32/36
f 29/26/37 26/17/37 34/42/37
f 26/17/38 8/54/38 34/42/38
f 27/25/39 33/47/39 8/54/39
f 27/25/40 24/14/40 33/47/40
f 24/14/41 7/55/41 33/47/41
f 25/24/42 32/51/42 7/55/42
f 25/24/43 22/11/43 32/51/43
f 22/11/44 11/52/44 32/51/44
f 30/23/45 31/27/45 10/35/45
f 30/23/46 21/22/46 31/27/46
f 21/22/47 5/18/47 31/27/47
f 28/20/48 29/53/48 9/32/48
f 28/20/49 20/19/49 29/53/49
f 20/19/50 4/56/50 29/53/50
f 26/17/51 27/25/51 8/54/51
f 26/17/52 18/16/52 27/25/52
f 18/16/53 3/12/53 27/25/53
f 24/14/54 25/24/54 7/55/54
f 24/14/55 14/13/55 25/24/55
f 14/13/56 2/4/56 25/24/56
f 22/11/57 23/57/57 11/52/57
f 22/11/58 15/5/58 23/57/58
f 15/58/59 6/21/59 23/28/59
f 16/10/60 21/22/60 6/21/60
f 16/10/61 19/9/61 21/22/61
f 19/9/62 5/18/62 21/22/62
f 19/9/63 20/19/63 5/18/63
f 19/9/64 17/8/64 20/19/64
f 17/8/65 4/56/65 20/19/65
f 17/6/66 18/16/66 4/15/66
f 17/6/67 12/3/67 18/16/67
f 12/3/68 3/12/68 18/16/68
f 15/58/69 16/10/69 6/21/69
f 15/5/70 13/2/70 16/59/70
f 13/2/71 1/1/71 16/59/71
f 12/3/72 14/13/72 3/12/72
f 12/3/73 13/2/73 14/13/73
f 13/2/74 2/4/74 14/13/74
f 42/60/75 37/61/75 53/62/75
f 42/60/76 53/62/76 57/63/76
f 43/64/77 52/65/77 59/66/77
f 44/67/78 54/68/78 61/69/78
f 45/70/79 55/71/79 63/72/79
f 46/73/80 56/74/80 65/75/80
f 42/60/81 57/63/81 60/76/81
f 43/64/82 59/66/82 62/77/82
f 44/67/83 61/69/83 64/78/83
f 45/70/84 63/72/84 66/79/84
f 46/73/85 65/75/85 58/80/85
f 58/80/86 71/81/86 51/82/86
f 58/80/87 65/75/87 71/81/87
f 65/75/88 50/83/88 71/81/88
f 66/79/89 70/84/89 50/83/89
f 66/79/90 63/72/90 70/84/90
f 63/72/91 49/85/91 70/84/91
f 64/78/92 69/86/92 49/85/92
f 64/78/93 61/69/93 69/86/93
f 61/69/94 48/87/94 69/86/94
f 62/88/95 68/89/95 48/87/95
f 62/77/96 59/66/96 68/90/96
f 59/66/97 47/91/97 68/90/97
f 60/76/98 67/92/98 47/91/98
f 60/76/99 57/63/99 67/92/99
f 57/63/100 51/93/100 67/92/100
f 65/75/101 66/79/101 50/83/101
f 65/75/102 56/74/102 66/79/102
f 56/74/103 45/70/103 66/79/103
f 63/72/104 64/78/104 49/85/104
f 63/72/105 55/71/105 64/78/105
f 55/71/106 44/67/106 64/78/106
f 61/69/107 62/88/107 48/87/107
f 61/69/108 54/68/108 62/88/108
f 54/94/109 43/64/109 62/77/109
f 59/66/110 60/76/110 47/91/110
f 59/66/111 52/65/111 60/76/111
f 52/65/112 42/60/112 60/76/112
f 57/63/113 58/95/113 51/93/113
f 57/63/114 53/62/114 58/95/114
f 53/62/115 46/96/115 58/95/115
f 38/97/116 56/74/116 46/73/116
f 38/97/117 41/98/117 56/74/117
f 41/98/118 45/70/118 56/74/118
f 41/98/119 55/71/119 45/70/119
f 41/98/120 40/99/120 55/71/120
f 40/99/121 44/67/121 55/71/121
f 40/99/122 54/68/122 44/67/122
f 40/100/123 39/101/123 54/94/123
f 39/101/124 43/64/124 54/94/124
f 53/62/125 38/102/125 46/96/125
f 53/62/126 37/61/126 38/102/126
f 39/101/127 52/65/127 43/64/127
f 39/101/128 37/61/128 52/65/128
f 37/61/129 42/60/129 52/65/129
f 218/103/130 227/104/130 226/105/130
f 218/103/131 224/106/131 216/107/131
f 7/108/132 78/109/132 74/29/132
f 72/44/133 73/45/133 39/43/133
f 32/110/134 79/30/134 76/111/134
f 217/112/135 224/106/135 225/113/135
f 7/114/136 76/115/136 77/116/136
f 74/48/137 75/49/137 37/46/137
f 219/117/138 225/113/138 227/104/138
f 231/118/139 236/119/139 228/120/139
f 229/121/140 236/119/140 237/122/140
f 231/118/141 238/123/141 239/124/141
f 229/121/142 238/123/142 230/125/142
f 8/126/143 83/127/143 72/128/143
f 33/129/144 80/130/144 82/131/144
f 72/128/145 80/130/145 73/132/145
f 8/133/146 82/134/146 81/135/146
f 70/136/147 99/137/147 50/138/147
f 50/138/148 100/139/148 71/140/148
f 84/141/149 158/142/149 156/143/149
f 49/144/150 96/145/150 97/146/150
f 49/144/151 98/147/151 70/136/151
f 48/148/152 94/149/152 95/150/152
f 69/151/153 95/150/153 96/145/153
f 88/152/154 186/153/154 185/154/154
f 47/155/155 92/156/155 93/157/155
f 68/158/156 93/157/156 94/159/156
f 51/160/157 92/156/157 67/161/157
f 90/162/154 195/163/154 91/164/154
f 85/165/158 144/166/158 87/167/158
f 71/140/159 101/168/159 51/169/159
f 133/170/160 170/171/160 144/166/160
f 116/172/161 132/173/161 103/174/161
f 106/175/162 120/176/162 107/177/162
f 120/176/163 127/178/163 107/177/163
f 119/179/164 109/180/164 108/181/164
f 119/179/165 108/181/165 134/182/165
f 107/177/166 102/183/166 209/184/166
f 109/180/167 130/185/167 108/181/167
f 115/186/168 166/187/168 167/188/168
f 116/172/169 102/183/169 107/177/169
f 104/189/170 123/190/170 128/191/170
f 108/181/171 130/185/171 105/192/171
f 105/192/172 112/193/172 106/175/172
f 143/194/173 112/193/173 130/185/173
f 137/195/174 125/196/174 112/193/174
f 111/197/175 134/182/175 110/198/175
f 104/189/176 108/181/176 105/192/176
f 105/192/177 106/175/177 136/199/177
f 112/193/178 125/196/178 106/175/178
f 192/200/179 191/201/179 112/193/179
f 209/184/180 206/202/180 124/203/180
f 118/204/181 127/178/181 120/176/181
f 122/205/182 120/176/182 125/196/182
f 138/206/183 129/207/183 166/187/183
f 110/198/184 134/182/184 104/189/184
f 109/180/185 143/194/185 130/185/185
f 157/208/186 165/209/186 169/210/186
f 118/204/187 138/206/187 127/178/187
f 172/211/188 173/212/188 134/182/188
f 130/185/189 112/193/189 105/192/189
f 134/182/190 108/181/190 104/189/190
f 127/178/191 116/172/191 107/177/191
f 125/196/192 120/176/192 106/175/192
f 132/173/193 110/198/193 103/174/193
f 113/213/194 129/207/194 118/204/194
f 179/214/195 180/215/195 120/176/195
f 107/177/196 124/203/196 106/175/196
f 110/198/197 117/216/197 103/174/197
f 156/143/198 159/217/198 157/218/198
f 137/195/199 122/205/199 125/196/199
f 190/219/200 196/220/200 142/221/200
f 137/222/201 139/223/201 122/224/201
f 143/225/202 146/226/202 142/221/202
f 142/221/203 147/227/203 149/228/203
f 139/223/204 147/227/204 148/229/204
f 146/226/205 149/228/205 142/221/205
f 149/230/206 154/231/206 152/232/206
f 148/233/207 154/231/207 153/234/207
f 150/235/208 152/232/208 149/230/208
f 151/236/209 146/226/209 109/237/209
f 139/223/210 153/238/210 122/224/210
f 94/239/211 119/179/211 95/240/211
f 171/241/212 111/197/212 96/242/212
f 96/242/213 121/243/213 97/244/213
f 97/244/214 114/245/214 98/246/214
f 114/245/215 99/247/215 98/246/215
f 113/213/216 100/248/216 99/247/216
f 178/249/217 122/205/217 101/250/217
f 153/234/218 92/251/218 101/252/218
f 122/224/219 153/238/219 101/253/219
f 154/231/220 93/254/220 92/251/220
f 93/254/221 151/255/221 94/256/221
f 109/237/222 151/236/222 94/257/222
f 162/258/223 168/259/223 165/209/223
f 114/245/224 162/258/224 161/260/224
f 144/261/225 208/262/225 170/263/225
f 144/261/226 111/197/226 110/198/226
f 156/264/227 133/265/227 132/173/227
f 115/186/228 127/178/228 138/206/228
f 115/186/229 158/266/229 116/172/229
f 156/264/230 204/267/230 157/268/230
f 162/258/231 163/269/231 168/259/231
f 140/270/232 160/271/232 167/188/232
f 161/260/233 165/209/233 164/272/233
f 161/260/234 164/272/234 160/271/234
f 140/270/235 167/188/235 166/187/235
f 166/187/236 129/207/236 140/270/236
f 121/243/237 163/269/237 162/258/237
f 114/245/238 140/270/238 113/213/238
f 167/188/239 160/271/239 159/273/239
f 144/261/240 170/274/240 163/269/240
f 173/212/241 175/275/241 126/276/241
f 175/275/188 176/277/188 174/278/188
f 172/211/242 174/278/242 176/277/242
f 173/212/243 176/277/243 177/279/243
f 126/276/244 174/278/244 171/241/244
f 184/280/195 181/281/195 182/282/195
f 178/283/245 183/284/245 179/214/245
f 179/214/246 184/280/246 180/215/246
f 178/283/247 182/282/247 181/281/247
f 141/285/248 184/280/248 182/282/248
f 188/286/249 193/287/249 187/288/249
f 188/289/179 185/290/179 186/291/179
f 186/292/250 194/293/250 188/286/250
f 185/294/251 193/287/251 189/295/251
f 200/296/252 192/297/252 191/298/252
f 189/295/253 194/293/253 190/219/253
f 155/299/179 192/300/179 195/301/179
f 155/302/254 200/296/254 191/298/254
f 195/303/255 199/304/255 196/220/255
f 197/305/256 199/304/256 200/296/256
f 159/306/257 204/267/257 203/307/257
f 201/308/258 132/173/258 116/172/258
f 157/208/198 160/271/198 164/272/198
f 158/266/259 203/307/259 201/308/259
f 198/309/260 203/307/260 204/267/260
f 169/310/261 208/262/261 207/311/261
f 205/312/262 110/198/262 132/173/262
f 169/210/160 168/259/160 170/274/160
f 133/265/263 207/311/263 205/312/263
f 214/313/264 213/314/264 212/315/264
f 205/312/265 208/262/265 202/316/265
f 103/174/266 211/317/266 102/183/266
f 128/191/267 214/313/267 117/216/267
f 128/191/268 117/216/268 104/189/268
f 124/203/269 135/318/269 136/199/269
f 209/184/270 211/317/270 210/319/270
f 206/202/271 210/319/271 213/314/271
f 211/317/272 213/314/272 210/319/272
f 131/320/273 215/321/273 213/314/273
f 215/321/274 206/202/274 213/314/274
f 123/190/275 135/318/275 215/321/275
f 103/174/276 214/313/276 212/315/276
f 128/191/277 215/321/277 131/320/277
f 81/322/278 218/323/278 83/127/278
f 82/131/279 216/324/279 217/325/279
f 83/127/280 216/324/280 80/130/280
f 81/135/281 217/326/281 219/327/281
f 227/104/282 220/328/282 221/329/282
f 226/105/283 223/330/283 224/106/283
f 225/113/284 223/330/284 220/328/284
f 221/329/285 223/330/285 222/331/285
f 227/104/286 222/331/286 226/105/286
f 78/109/287 230/332/287 231/333/287
f 78/109/288 228/334/288 79/30/288
f 77/116/289 229/335/289 230/336/289
f 79/30/290 229/337/290 76/111/290
f 237/122/291 235/338/291 232/339/291
f 233/340/292 235/338/292 234/341/292
f 237/122/293 233/340/293 238/123/293
f 239/124/294 235/338/294 236/119/294
f 238/123/295 234/341/295 239/124/295
f 74/29/296 78/109/296 79/30/296
f 34/42/297 8/54/297 72/44/297
f 73/45/298 33/47/298 37/46/298
f 33/47/299 7/55/299 74/48/299
f 75/49/300 32/51/300 38/50/300
f 218/103/301 219/117/301 227/104/301
f 218/103/131 226/105/131 224/106/131
f 7/108/302 77/342/302 78/109/302
f 32/110/303 75/31/303 79/30/303
f 217/112/135 216/107/135 224/106/135
f 7/114/304 32/343/304 76/115/304
f 219/117/305 217/112/305 225/113/305
f 231/118/139 239/124/139 236/119/139
f 229/121/140 228/120/140 236/119/140
f 231/118/141 230/125/141 238/123/141
f 229/121/142 237/122/142 238/123/142
f 8/126/306 81/322/306 83/127/306
f 33/129/307 73/132/307 80/130/307
f 72/128/308 83/127/308 80/130/308
f 8/133/309 33/344/309 82/134/309
f 70/136/147 98/147/147 99/137/147
f 50/138/148 99/137/148 100/139/148
f 84/141/149 86/345/149 158/142/149
f 49/144/150 69/151/150 96/145/150
f 49/144/151 97/146/151 98/147/151
f 48/148/152 68/346/152 94/149/152
f 69/151/153 48/148/153 95/150/153
f 88/152/154 89/347/154 186/153/154
f 47/155/310 67/161/310 92/156/310
f 68/158/156 47/155/156 93/157/156
f 51/160/157 101/348/157 92/156/157
f 90/162/154 155/349/154 195/163/154
f 85/165/158 133/170/158 144/166/158
f 71/140/311 100/139/311 101/168/311
f 133/170/160 169/350/160 170/171/160
f 115/186/168 138/206/168 166/187/168
f 116/172/312 103/174/312 102/183/312
f 104/189/170 105/192/170 123/190/170
f 106/175/313 124/203/313 136/199/313
f 136/199/313 123/190/313 105/192/313
f 143/194/179 185/351/179 187/352/179
f 188/353/179 186/354/179 192/200/179
f 112/193/179 143/194/179 187/352/179
f 186/354/179 195/355/179 192/200/179
f 112/193/179 187/352/179 188/353/179
f 191/201/179 155/356/179 137/195/179
f 188/353/179 192/200/179 112/193/179
f 191/201/179 137/195/179 112/193/179
f 209/184/314 210/319/314 206/202/314
f 138/206/183 118/204/183 129/207/183
f 169/210/186 133/265/186 156/264/186
f 156/264/186 157/208/186 169/210/186
f 164/272/186 165/209/186 157/208/186
f 111/197/188 171/241/188 172/211/188
f 173/212/188 126/276/188 119/179/188
f 134/182/188 111/197/188 172/211/188
f 173/212/188 119/179/188 134/182/188
f 113/213/315 140/270/315 129/207/315
f 122/205/195 178/283/195 179/214/195
f 180/215/195 141/285/195 118/204/195
f 120/176/195 122/205/195 179/214/195
f 180/215/195 118/204/195 120/176/195
f 107/177/196 209/184/196 124/203/196
f 110/198/197 104/189/197 117/216/197
f 156/143/198 158/142/198 159/217/198
f 142/221/200 143/225/200 189/295/200
f 143/225/200 185/294/200 189/295/200
f 137/222/200 145/357/200 197/305/200
f 197/305/200 155/302/200 137/222/200
f 186/292/200 195/303/200 190/219/200
f 197/305/200 145/357/200 196/220/200
f 190/219/200 195/303/200 196/220/200
f 196/220/200 145/357/200 142/221/200
f 142/221/200 189/295/200 190/219/200
f 137/222/316 145/357/316 139/223/316
f 143/225/317 109/237/317 146/226/317
f 142/221/203 145/357/203 147/227/203
f 139/223/318 145/357/318 147/227/318
f 146/226/319 150/358/319 149/228/319
f 149/230/206 147/359/206 154/231/206
f 148/233/207 147/359/207 154/231/207
f 150/235/208 151/255/208 152/232/208
f 151/236/320 150/358/320 146/226/320
f 139/223/321 148/229/321 153/238/321
f 94/239/322 109/180/322 119/179/322
f 96/242/323 95/240/323 171/241/323
f 126/276/324 171/241/324 95/240/324
f 95/240/324 119/179/324 126/276/324
f 96/242/325 111/197/325 121/243/325
f 97/244/326 121/243/326 114/245/326
f 114/245/327 113/213/327 99/247/327
f 113/213/328 118/204/328 100/248/328
f 101/250/329 100/248/329 141/360/329
f 141/360/217 178/249/217 101/250/217
f 100/248/330 118/204/330 141/360/330
f 153/234/331 154/231/331 92/251/331
f 154/231/332 152/232/332 93/254/332
f 93/254/333 152/232/333 151/255/333
f 114/245/224 121/243/224 162/258/224
f 144/261/334 202/316/334 208/262/334
f 115/186/335 116/172/335 127/178/335
f 156/264/336 198/309/336 204/267/336
f 140/270/232 161/260/232 160/271/232
f 161/260/233 162/258/233 165/209/233
f 121/243/337 111/197/337 163/269/337
f 114/245/238 161/260/238 140/270/238
f 159/273/239 158/266/239 167/188/239
f 115/186/239 167/188/239 158/266/239
f 163/269/240 111/197/240 144/261/240
f 170/274/240 168/259/240 163/269/240
f 173/212/241 177/279/241 175/275/241
f 175/275/188 177/279/188 176/277/188
f 172/211/338 171/241/338 174/278/338
f 173/212/243 172/211/243 176/277/243
f 126/276/244 175/275/244 174/278/244
f 184/280/195 183/284/195 181/281/195
f 178/283/245 181/281/245 183/284/245
f 179/214/246 183/284/246 184/280/246
f 178/283/339 141/285/339 182/282/339
f 141/285/248 180/215/248 184/280/248
f 188/286/340 194/293/340 193/287/340
f 188/289/179 187/361/179 185/290/179
f 186/292/341 190/219/341 194/293/341
f 185/294/342 187/288/342 193/287/342
f 200/296/343 199/304/343 192/297/343
f 189/295/253 193/287/253 194/293/253
f 155/299/179 191/362/179 192/300/179
f 155/302/344 197/305/344 200/296/344
f 195/303/345 192/297/345 199/304/345
f 197/305/256 196/220/256 199/304/256
f 159/306/346 157/268/346 204/267/346
f 198/309/347 156/264/347 132/173/347
f 116/172/258 158/266/258 201/308/258
f 201/308/348 198/309/348 132/173/348
f 157/208/198 159/273/198 160/271/198
f 158/266/349 159/306/349 203/307/349
f 198/309/260 201/308/260 203/307/260
f 169/310/350 170/263/350 208/262/350
f 202/316/351 144/261/351 110/198/351
f 132/173/262 133/265/262 205/312/262
f 205/312/352 202/316/352 110/198/352
f 169/210/160 165/209/160 168/259/160
f 133/265/353 169/310/353 207/311/353
f 214/313/264 131/320/264 213/314/264
f 205/312/265 207/311/265 208/262/265
f 103/174/354 212/315/354 211/317/354
f 128/191/355 131/320/355 214/313/355
f 124/203/356 206/202/356 135/318/356
f 209/184/357 102/183/357 211/317/357
f 211/317/272 212/315/272 213/314/272
f 215/321/274 135/318/274 206/202/274
f 123/190/358 136/199/358 135/318/358
f 103/174/359 117/216/359 214/313/359
f 128/191/360 123/190/360 215/321/360
f 81/322/361 219/363/361 218/323/361
f 82/131/362 80/130/362 216/324/362
f 83/127/363 218/323/363 216/324/363
f 81/135/364 82/134/364 217/326/364
f 227/104/365 225/113/365 220/328/365
f 226/105/366 222/331/366 223/330/366
f 225/113/367 224/106/367 223/330/367
f 221/329/368 220/328/368 223/330/368
f 227/104/369 221/329/369 222/331/369
f 78/109/370 77/342/370 230/332/370
f 78/109/371 231/333/371 228/334/371
f 77/116/372 76/115/372 229/335/372
f 79/30/373 228/334/373 229/337/373
f 237/122/374 236/119/374 235/338/374
f 233/340/375 232/339/375 235/338/375
f 237/122/376 232/339/376 233/340/376
f 239/124/377 234/341/377 235/338/377
f 238/123/378 233/340/378 234/341/378
