# Blender v2.78 (sub 0) OBJ File: 'Builder.blend'
# www.blender.org
o Cylinder
v 0.000000 0.103706 -0.334710
v 0.000000 3.989070 -0.334710
v 0.261687 0.103706 -0.208688
v 0.261687 3.989070 -0.208688
v 0.326319 0.103706 0.074481
v 0.326319 3.989070 0.074481
v 0.145225 0.103706 0.301564
v 0.145225 3.989070 0.301564
v -0.145225 0.103706 0.301564
v -0.145225 3.989070 0.301564
v -0.326319 0.103706 0.074481
v -0.326319 3.989070 0.074481
v -0.261687 0.103706 -0.208688
v -0.261687 3.989070 -0.208688
v 0.023273 2.427072 -0.334710
v -2.266024 4.517311 -0.334710
v 0.137850 2.662342 -0.208688
v -2.004774 4.502185 -0.208688
v 0.166148 2.720449 0.074481
v -1.940251 4.498449 0.074481
v 0.086858 2.557637 0.301564
v -2.121042 4.508916 0.301564
v -0.040313 2.296506 0.301564
v -2.411007 4.525705 0.301564
v -0.119603 2.133694 0.074481
v -2.591797 4.536173 0.074481
v -0.091304 2.191801 -0.208688
v -2.527274 4.532437 -0.208688
v -1.222368 2.697690 -0.334710
v -1.107791 2.932961 -0.208688
v -1.079493 2.991068 0.074481
v -1.158782 2.828256 0.301564
v -1.285953 2.567125 0.301564
v -1.365243 2.404313 0.074481
v -1.336945 2.462420 -0.208688
v -2.035089 3.100338 -0.334710
v -1.848965 3.213464 -0.208688
v -1.802996 3.241404 0.074481
v -1.931798 3.163118 0.301564
v -2.138381 3.037558 0.301564
v -2.267183 2.959272 0.074481
v -2.221214 2.987212 -0.208688
v 0.272406 2.427072 0.201950
v 1.401236 4.941932 0.201950
v 0.157829 2.662342 0.075928
v 1.171088 4.817385 0.075928
v 0.129530 2.720449 -0.207241
v 1.114246 4.786624 -0.207241
v 0.208820 2.557637 -0.434324
v 1.273514 4.872813 -0.434325
v 0.161715 2.296506 -0.434324
v 1.528959 5.011050 -0.434325
v 0.241004 2.133694 -0.207241
v 1.688227 5.097239 -0.207241
v 0.212706 2.191801 0.075928
v 1.631385 5.066478 0.075928
v 1.228258 2.851402 0.201950
v 1.024680 3.015828 0.075928
v 0.974400 3.056438 -0.207241
v 1.115281 2.942651 -0.434324
v 1.341235 2.760152 -0.434324
v 1.482116 2.646365 -0.207241
v 1.431836 2.686975 0.075928
v 1.793348 3.560848 0.201950
v 1.576809 3.584312 0.075928
v 1.523328 3.590107 -0.207241
v 1.673178 3.573870 -0.434324
v 1.913519 3.547826 -0.434325
v 2.063368 3.531589 -0.207241
v 2.009888 3.537384 0.075928
v 0.003891 5.302237 -0.208688
v -0.257797 5.302237 -0.334710
v 0.068522 5.302237 0.074481
v -0.112571 5.302237 0.301564
v -0.403022 5.302237 0.301564
v -0.584115 5.302237 0.074481
v -0.519484 5.302237 -0.208688
v 0.255245 5.822686 -0.208688
v -0.006442 5.822686 -0.334710
v 0.319877 5.822686 0.074481
v 0.138783 5.822686 0.301564
v -0.151667 5.822686 0.301564
v -0.332761 5.822686 0.074481
v -0.268129 5.822686 -0.208688
vt 0.1110 0.3293
vt 0.2071 0.9658
vt 0.1589 0.9663
vt 0.2338 0.3257
vt 0.2544 0.9673
vt 0.2617 0.3280
vt 0.3010 0.9683
vt 0.2872 0.3299
vt 0.3471 0.9667
vt 0.3122 0.3291
vt 0.3933 0.9621
vt 0.2997 0.1136
vt 0.3185 0.1131
vt 0.3374 0.3254
vt 0.4403 0.9567
vt 0.0351 0.3341
vt 0.1110 0.9700
vt 0.8678 0.0210
vt 0.8544 0.2361
vt 0.8569 0.2534
vt 0.8643 0.0247
vt 0.8463 0.2344
vt 0.8522 0.0292
vt 0.8403 0.2499
vt 0.8540 0.0267
vt 0.8406 0.2707
vt 0.8595 0.0227
vt 0.8459 0.2812
vt 0.8652 0.0201
vt 0.8528 0.2735
vt 0.6812 0.3153
vt 0.7584 0.3433
vt 0.4600 0.3930
vt 0.5388 0.3846
vt 0.5271 0.2999
vt 0.6055 0.3481
vt 0.7890 0.4122
vt 0.8491 0.3590
vt 0.8678 0.4038
vt 0.8298 0.3469
vt 0.7695 0.3870
vt 0.8297 0.3038
vt 0.8391 0.2747
vt 0.7415 0.3127
vt 0.5232 0.2624
vt 0.8561 0.3191
vt 0.8378 0.3714
vt 0.8522 0.2816
vt 0.5202 0.8703
vt 0.5034 0.6493
vt 0.5006 0.6443
vt 0.5196 0.8511
vt 0.5130 0.6526
vt 0.5431 0.8639
vt 0.5204 0.6519
vt 0.5449 0.8867
vt 0.5193 0.6479
vt 0.5388 0.8990
vt 0.5126 0.6433
vt 0.5289 0.8916
vt 0.5050 0.6417
vt 0.4873 0.5026
vt 0.4415 0.4626
vt 0.4426 0.4251
vt 0.4976 0.4125
vt 0.5083 0.5185
vt 0.5449 0.4366
vt 0.5417 0.4802
vt 0.5037 0.5650
vt 0.5004 0.5092
vt 0.4405 0.5032
vt 0.4886 0.5566
vt 0.4832 0.5286
vt 0.4973 0.4982
vt 0.5129 0.5479
vt 0.3607 0.1035
vt 0.3341 0.0205
vt 0.3022 0.0201
vt 0.3644 0.3209
vt 0.4403 0.3161
vt 0.2844 0.1114
vt 0.3374 0.1097
vt 0.2947 0.1075
vt 0.3545 0.1055
vt 0.2986 0.0281
vt 0.2781 0.0287
vt 0.3183 0.0247
vt 0.2440 0.0238
vt 0.2584 0.0266
vt 0.0178 0.9799
vt 0.0640 0.9754
vt 0.8566 0.0282
vt 0.4405 0.3678
vt 0.5201 0.3398
vt 0.5311 0.8481
vn 0.4339 0.0000 -0.9010
vn 0.9749 0.0000 -0.2225
vn 0.7818 0.0000 0.6235
vn 0.0000 0.0000 1.0000
vn -0.7818 0.0000 0.6235
vn -0.9749 0.0000 -0.2225
vn -0.4339 0.0000 -0.9010
vn 0.0000 -1.0000 0.0000
vn 0.5226 0.0852 -0.8483
vn 0.9782 0.1183 -0.1705
vn 0.8455 0.1189 0.5206
vn -0.8306 -0.1710 0.5300
vn 0.0578 0.9983 -0.0000
vn -0.9642 -0.1985 -0.1761
vn -0.5145 -0.1019 -0.8514
vn 0.8991 -0.4378 -0.0000
vn -0.0943 -0.4340 -0.8960
vn -0.2073 -0.9540 -0.2165
vn -0.1678 -0.7725 0.6125
vn 0.1678 0.7725 0.6124
vn 0.2073 0.9540 -0.2165
vn 0.0943 0.4340 -0.8960
vn -0.1926 -0.3888 -0.9010
vn -0.4977 -0.8385 -0.2218
vn -0.3780 -0.6849 0.6230
vn 0.2564 0.7409 0.6207
vn 0.3189 0.9217 -0.2210
vn 0.1541 0.4072 -0.9003
vn -0.5094 -0.1446 0.8483
vn -0.9360 -0.3080 0.1705
vn -0.8161 -0.2511 -0.5206
vn -0.0000 -0.0000 -1.0000
vn 0.8246 0.1976 -0.5300
vn -0.4759 0.8795 0.0000
vn 0.9573 0.2294 0.1761
vn 0.5092 0.1260 0.8514
vn 0.2039 -0.5020 0.8405
vn 0.3669 -0.9034 0.2220
vn 0.2864 -0.7285 -0.6223
vn -0.2892 0.7273 -0.6224
vn -0.3603 0.9060 0.2219
vn -0.1641 0.4025 0.9006
vn 0.3394 -0.2703 0.9010
vn 0.8064 -0.5482 0.2218
vn 0.6328 -0.4598 -0.6230
vn -0.5465 0.5621 -0.6207
vn -0.6798 0.6993 0.2210
vn -0.3123 0.3033 0.9003
vn -0.4247 0.2051 -0.8818
vn -0.4323 -0.0849 -0.8977
vn 0.9575 0.1880 -0.2186
vn -0.7728 -0.1517 0.6163
vn 0.4323 0.0849 -0.8977
vn 0.7728 0.1517 0.6163
vn -0.9575 -0.1880 -0.2186
vn 0.0000 1.0000 0.0000
vn -0.7314 0.3532 0.5833
vn 0.7314 -0.3532 0.5833
vn 0.4247 -0.2051 -0.8818
vn -0.8820 0.4260 -0.2013
vn 0.8820 -0.4260 -0.2013
vn 0.4363 0.0528 -0.8982
vn 0.9698 0.1059 -0.2196
vn 0.7814 0.0853 0.6182
vn -0.7776 -0.1424 0.6125
vn -0.9578 -0.1897 -0.2158
vn -0.4367 -0.0712 -0.8968
vn 0.1678 0.7725 0.6125
vn -0.2798 -0.4714 -0.8364
vn -0.5167 -0.8398 -0.1667
vn -0.4512 -0.7333 0.5087
vn 0.3495 0.8068 0.4764
vn 0.3501 0.9249 -0.1481
vn 0.2509 0.5063 -0.8250
vn -0.4175 -0.1374 0.8982
vn -0.9231 -0.3156 0.2196
vn -0.7438 -0.2543 -0.6182
vn 0.7645 0.2009 -0.6125
vn 0.9478 0.2346 0.2158
vn 0.4257 0.1208 0.8968
vn 0.1931 -0.4350 0.8795
vn 0.3743 -0.9062 0.1964
vn 0.3128 -0.7572 -0.5734
vn -0.3197 0.7527 -0.5755
vn -0.3703 0.9080 0.1960
vn -0.1931 0.4350 0.8795
vn 0.4534 -0.3082 0.8364
vn 0.8242 -0.5412 0.1667
vn 0.7197 -0.4725 -0.5087
vn -0.6588 0.5823 -0.4764
vn -0.7094 0.6890 0.1481
vn -0.4420 0.3521 0.8250
s off
f 2/1/1 3/2/1 1/3/1
f 4/4/2 5/5/2 3/2/2
f 6/6/3 7/7/3 5/5/3
f 8/8/4 9/9/4 7/7/4
f 10/10/5 11/11/5 9/9/5
f 10/10/4 74/12/4 75/13/4
f 12/14/6 13/15/6 11/11/6
f 14/16/7 1/3/7 13/17/7
f 3/2/8 7/7/8 13/17/8
f 16/18/9 37/19/9 36/20/9
f 18/21/10 38/22/10 37/19/10
f 38/22/11 22/23/11 39/24/11
f 39/24/4 24/25/4 40/26/4
f 40/26/12 26/27/12 41/28/12
f 28/29/13 26/27/13 22/23/13
f 26/27/14 42/30/14 41/28/14
f 28/29/15 36/20/15 42/30/15
f 17/31/16 21/32/16 25/33/16
f 27/34/17 29/35/17 15/36/17
f 25/37/18 35/38/18 27/39/18
f 33/40/19 25/37/19 23/41/19
f 32/42/4 23/41/4 21/32/4
f 31/43/20 21/32/20 19/44/20
f 17/31/21 31/43/21 19/44/21
f 15/36/22 30/45/22 17/31/22
f 35/38/23 36/20/23 29/46/23
f 34/47/24 42/30/24 35/38/24
f 40/26/25 34/47/25 33/40/25
f 39/24/4 33/40/4 32/42/4
f 38/22/26 32/42/26 31/43/26
f 30/48/27 38/22/27 31/43/27
f 29/46/28 37/19/28 30/48/28
f 44/49/29 65/50/29 64/51/29
f 46/52/30 66/53/30 65/50/30
f 66/53/31 50/54/31 67/55/31
f 67/55/32 52/56/32 68/57/32
f 68/57/33 54/58/33 69/59/33
f 56/60/34 54/58/34 50/54/34
f 54/58/35 70/61/35 69/59/35
f 56/60/36 64/51/36 70/61/36
f 63/62/37 43/63/37 55/64/37
f 53/65/38 63/62/38 55/64/38
f 61/66/39 53/65/39 51/67/39
f 49/68/32 61/66/32 51/67/32
f 59/69/40 49/68/40 47/70/40
f 45/71/41 59/69/41 47/70/41
f 43/63/42 58/72/42 45/71/42
f 63/62/43 64/51/43 57/73/43
f 62/74/44 70/61/44 63/62/44
f 68/57/45 62/74/45 61/66/45
f 67/55/32 61/66/32 60/75/32
f 66/53/46 60/75/46 59/69/46
f 58/72/47 66/53/47 59/69/47
f 57/73/48 65/50/48 58/72/48
f 72/76/49 84/77/49 79/78/49
f 14/79/50 72/76/50 2/80/50
f 4/4/51 73/81/51 6/6/51
f 12/14/52 75/13/52 76/82/52
f 2/1/53 71/83/53 4/4/53
f 8/8/54 73/81/54 74/12/54
f 12/14/55 77/84/55 14/79/55
f 79/78/56 82/85/56 81/86/56
f 75/13/57 83/87/57 76/82/57
f 73/81/58 81/86/58 74/12/58
f 71/83/59 79/78/59 78/88/59
f 77/84/60 83/87/60 84/77/60
f 74/12/4 82/85/4 75/13/4
f 73/81/61 78/88/61 80/89/61
f 2/1/1 4/4/1 3/2/1
f 4/4/2 6/6/2 5/5/2
f 6/6/3 8/8/3 7/7/3
f 8/8/4 10/10/4 9/9/4
f 10/10/5 12/14/5 11/11/5
f 10/10/4 8/8/4 74/12/4
f 12/14/6 14/79/6 13/15/6
f 14/16/7 2/1/7 1/3/7
f 13/17/8 1/3/8 3/2/8
f 3/2/8 5/5/8 7/7/8
f 7/7/8 9/90/8 11/91/8
f 11/91/8 13/17/8 7/7/8
f 16/18/62 18/21/62 37/19/62
f 18/21/63 20/92/63 38/22/63
f 38/22/64 20/92/64 22/23/64
f 39/24/4 22/23/4 24/25/4
f 40/26/65 24/25/65 26/27/65
f 20/92/13 18/21/13 22/23/13
f 16/18/13 28/29/13 22/23/13
f 26/27/13 24/25/13 22/23/13
f 22/23/13 18/21/13 16/18/13
f 26/27/66 28/29/66 42/30/66
f 28/29/67 16/18/67 36/20/67
f 27/34/16 15/36/16 25/33/16
f 17/31/16 19/44/16 21/32/16
f 21/32/16 23/93/16 25/33/16
f 25/33/16 15/36/16 17/31/16
f 27/34/17 35/94/17 29/35/17
f 25/37/18 34/47/18 35/38/18
f 33/40/19 34/47/19 25/37/19
f 32/42/4 33/40/4 23/41/4
f 31/43/68 32/42/68 21/32/68
f 17/31/21 30/45/21 31/43/21
f 15/36/22 29/35/22 30/45/22
f 35/38/69 42/30/69 36/20/69
f 34/47/70 41/28/70 42/30/70
f 40/26/71 41/28/71 34/47/71
f 39/24/4 40/26/4 33/40/4
f 38/22/72 39/24/72 32/42/72
f 30/48/73 37/19/73 38/22/73
f 29/46/74 36/20/74 37/19/74
f 44/49/75 46/52/75 65/50/75
f 46/52/76 48/95/76 66/53/76
f 66/53/77 48/95/77 50/54/77
f 67/55/32 50/54/32 52/56/32
f 68/57/78 52/56/78 54/58/78
f 48/95/34 46/52/34 44/49/34
f 44/49/34 56/60/34 50/54/34
f 54/58/34 52/56/34 50/54/34
f 50/54/34 48/95/34 44/49/34
f 54/58/79 56/60/79 70/61/79
f 56/60/80 44/49/80 64/51/80
f 63/62/81 57/73/81 43/63/81
f 53/65/82 62/74/82 63/62/82
f 61/66/83 62/74/83 53/65/83
f 49/68/32 60/75/32 61/66/32
f 59/69/84 60/75/84 49/68/84
f 45/71/85 58/72/85 59/69/85
f 43/63/86 57/73/86 58/72/86
f 63/62/87 70/61/87 64/51/87
f 62/74/88 69/59/88 70/61/88
f 68/57/89 69/59/89 62/74/89
f 67/55/32 68/57/32 61/66/32
f 66/53/90 67/55/90 60/75/90
f 58/72/91 65/50/91 66/53/91
f 57/73/92 64/51/92 65/50/92
f 72/76/49 77/84/49 84/77/49
f 14/79/50 77/84/50 72/76/50
f 4/4/51 71/83/51 73/81/51
f 12/14/52 10/10/52 75/13/52
f 2/1/53 72/76/53 71/83/53
f 8/8/54 6/6/54 73/81/54
f 12/14/55 76/82/55 77/84/55
f 80/89/56 78/88/56 79/78/56
f 79/78/56 84/77/56 83/87/56
f 83/87/56 82/85/56 79/78/56
f 81/86/56 80/89/56 79/78/56
f 75/13/57 82/85/57 83/87/57
f 73/81/58 80/89/58 81/86/58
f 71/83/59 72/76/59 79/78/59
f 77/84/60 76/82/60 83/87/60
f 74/12/4 81/86/4 82/85/4
f 73/81/61 71/83/61 78/88/61
