# Blender v2.78 (sub 0) OBJ File: 'Cannon.blend'
# www.blender.org
o Cube_Cube.001
v 2.236331 1.218399 -2.236331
v 2.236331 0.699294 -2.236331
v 2.236331 1.218399 2.236331
v 2.236331 0.699294 2.236331
v -2.236331 1.218399 -2.236331
v -2.236331 0.699294 -2.236331
v -2.236331 1.218399 2.236331
v -2.236331 0.699294 2.236331
v -1.086981 2.157451 2.226641
v -1.086981 2.157451 2.908176
v 0.015991 1.356095 2.226641
v 0.015991 1.356095 2.908176
v -0.405307 0.059474 2.226641
v -0.405307 0.059474 2.908176
v -1.768656 0.059474 2.226641
v -1.768656 0.059474 2.908176
v -2.189953 1.356096 2.226641
v -2.189953 1.356095 2.908176
v 1.703437 2.157451 2.226641
v 1.703437 2.157451 2.908176
v 2.806409 1.356095 2.226641
v 2.806409 1.356095 2.908176
v 2.385111 0.059474 2.226641
v 2.385111 0.059474 2.908176
v 1.021762 0.059474 2.226641
v 1.021762 0.059474 2.908176
v 0.600465 1.356096 2.226641
v 0.600465 1.356095 2.908176
v 1.703437 2.157451 -2.898132
v 1.703437 2.157451 -2.216597
v 2.806409 1.356095 -2.898132
v 2.806409 1.356095 -2.216597
v 2.385111 0.059474 -2.898132
v 2.385111 0.059474 -2.216597
v 1.021762 0.059474 -2.898132
v 1.021762 0.059474 -2.216597
v 0.600465 1.356096 -2.898132
v 0.600465 1.356095 -2.216597
v -1.291422 2.157451 -2.898132
v -1.291422 2.157451 -2.216597
v -0.188449 1.356095 -2.898132
v -0.188449 1.356095 -2.216597
v -0.609748 0.059474 -2.898132
v -0.609748 0.059474 -2.216597
v -1.973096 0.059474 -2.898132
v -1.973096 0.059474 -2.216597
v -2.394394 1.356096 -2.898132
v -2.394394 1.356095 -2.216597
v 3.608577 2.069867 -0.413175
v 3.430539 1.653723 -0.560243
v 2.663988 1.981676 -1.273759
v -0.063987 3.148786 -1.479260
v 3.006993 2.783407 -0.990421
v 0.326530 4.061571 -1.156674
v 3.218982 3.278906 -0.248633
v 0.567883 4.625705 -0.312136
v 3.218982 3.278906 0.668268
v 0.567883 4.625705 0.731771
v 3.006993 2.783407 1.410056
v 0.326530 4.061571 1.576310
v 2.663988 1.981676 1.693394
v -0.063987 3.148786 1.898894
v 2.320983 1.179943 1.410056
v -0.454505 2.235999 1.576309
v 2.108994 0.684446 0.668268
v -0.695857 1.671867 0.731771
v 2.108994 0.684446 -0.248633
v -0.695857 1.671867 -0.312136
v 2.320984 1.179945 -0.990421
v -0.454504 2.236001 -1.156675
v 3.718612 2.327059 -0.028144
v 3.718612 2.327059 0.447779
v 3.608577 2.069867 0.832810
v 3.430539 1.653723 0.979878
v 3.252500 1.237578 0.832810
v 3.142465 0.980387 0.447779
v 3.142465 0.980387 -0.028145
v 3.252500 1.237578 -0.413175
v 3.650321 1.559693 0.209817
v -4.463889 3.283945 -0.312136
v -4.463889 3.283945 0.731771
v -4.222537 3.848077 1.576309
v -3.832019 4.760863 1.898894
v -3.441503 5.673648 1.576310
v -3.200150 6.237781 0.731771
v -3.200150 6.237781 -0.312136
v -3.441503 5.673648 -1.156674
v -3.832019 4.760863 -1.479260
v -4.222536 3.848078 -1.156675
v -4.218679 4.926289 -0.992051
v -4.496553 4.276794 -0.762515
v -4.668290 3.875382 -0.161580
v -4.668290 3.875382 0.581216
v -4.496554 4.276792 1.182149
v -4.218679 4.926289 1.411686
v -3.940806 5.575783 1.182150
v -3.769070 5.977195 0.581215
v -3.769070 5.977195 -0.161580
v -3.940806 5.575783 -0.762514
v 2.216033 2.173325 0.893490
v 2.374099 2.542785 0.762920
v 2.057966 1.803865 0.762920
v 1.960276 1.575526 0.421084
v 1.960276 1.575526 -0.001449
v 2.057966 1.803865 -0.343285
v 2.216033 2.173325 -0.473855
v 2.471789 2.771124 0.421084
v 2.471789 2.771124 -0.001449
v 2.374099 2.542785 -0.343285
v 3.515543 2.713924 0.534497
v 3.435545 2.866329 0.501416
v 3.506606 2.730951 0.428755
v 3.765920 3.039744 0.336380
v 3.845918 2.887338 0.369461
v 3.836980 2.904365 0.263718
v 3.943110 3.132751 0.509798
v 4.023108 2.980346 0.542879
v 4.014171 2.997373 0.437136
v -1.446098 1.233583 1.593526
v -1.446098 2.710304 2.076510
v -1.446098 1.233583 1.340229
v -1.446098 2.710304 1.823212
v 2.193966 1.233583 1.593526
v 2.193966 2.710304 2.076510
v 2.193966 1.233583 1.340229
v 2.193966 2.710304 1.823212
v -1.446098 1.233583 -0.976799
v -1.446098 2.710304 -1.478777
v -1.446098 1.233583 -1.230096
v -1.446098 2.710304 -1.732075
v 2.193966 1.233583 -0.976799
v 2.193966 2.710304 -1.478777
v 2.193966 1.233583 -1.230096
v 2.193966 2.710304 -1.732075
vt 0.0755 0.4896
vt 0.5125 0.0526
vt 0.5125 0.4896
vt 0.5103 0.5454
vt 0.9472 0.4947
vt 0.5103 0.4947
vt 0.5103 0.5454
vt 0.9472 0.4947
vt 0.5103 0.4947
vt 0.9472 0.4896
vt 0.5103 0.0526
vt 0.5103 0.4896
vt 0.5125 0.5454
vt 0.0755 0.4947
vt 0.5125 0.4947
vt 0.5125 0.5454
vt 0.0755 0.4947
vt 0.5125 0.4947
vt 0.8146 0.9405
vt 0.8451 0.9005
vt 0.8295 0.9748
vt 0.8247 0.8722
vt 0.7192 0.7817
vt 0.7250 0.7762
vt 0.6541 0.8493
vt 0.6659 0.8276
vt 0.7341 0.9162
vt 0.7374 0.9465
vt 0.9291 0.8973
vt 0.9737 0.8535
vt 0.9609 0.9219
vt 0.9427 0.8386
vt 0.9191 0.7614
vt 0.8900 0.7559
vt 0.8363 0.7535
vt 0.8164 0.7525
vt 0.8538 0.8626
vt 0.8800 0.8882
vt 0.7717 0.9666
vt 0.7249 0.9057
vt 0.7761 0.9251
vt 0.7138 0.9411
vt 0.7030 0.8141
vt 0.6869 0.8424
vt 0.7502 0.7474
vt 0.7375 0.7657
vt 0.8035 0.8766
vt 0.8035 0.8395
vt 0.9086 0.8753
vt 0.8406 0.8121
vt 0.8943 0.8437
vt 0.8485 0.8441
vt 0.8434 0.6725
vt 0.8558 0.6697
vt 0.9241 0.6589
vt 0.9509 0.6651
vt 0.9546 0.7876
vt 0.9352 0.7660
vt 0.2612 0.8743
vt 0.2677 0.8837
vt 0.2489 0.8891
vt 0.2898 0.8732
vt 0.2677 0.8943
vt 0.2812 0.7470
vt 0.2568 0.6751
vt 0.2791 0.6750
vt 0.2612 0.9021
vt 0.1650 0.6837
vt 0.1879 0.6705
vt 0.1802 0.6955
vt 0.2558 0.7471
vt 0.2373 0.6747
vt 0.2336 0.8795
vt 0.2401 0.8717
vt 0.2366 0.8501
vt 0.2506 0.8697
vt 0.2291 0.7413
vt 0.2022 0.6981
vt 0.2225 0.6906
vt 0.2772 0.8551
vt 0.1809 0.7468
vt 0.1993 0.6719
vt 0.1969 0.6543
vt 0.2336 0.6759
vt 0.2098 0.6680
vt 0.2156 0.6604
vt 0.0981 0.7464
vt 0.0759 0.6745
vt 0.0940 0.6745
vt 0.2005 0.6825
vt 0.0774 0.7464
vt 0.0534 0.6745
vt 0.2603 0.6543
vt 0.2719 0.6543
vt 0.0312 0.7464
vt 0.0353 0.6745
vt 0.0519 0.8456
vt 0.0519 0.7464
vt 0.0705 0.6543
vt 0.1650 0.7262
vt 0.1428 0.6543
vt 0.1609 0.6543
vt 0.1188 0.7262
vt 0.0981 0.8255
vt 0.0981 0.7262
vt 0.1800 0.6644
vt 0.1203 0.6543
vt 0.2025 0.6862
vt 0.1022 0.6543
vt 0.2569 0.8463
vt 0.1443 0.8255
vt 0.1443 0.7262
vt 0.2104 0.8162
vt 0.2059 0.7498
vt 0.0774 0.8456
vt 0.0312 0.8457
vt 0.1188 0.8255
vt 0.2558 0.8463
vt 0.0705 0.8457
vt 0.0878 0.8630
vt 0.0705 0.8575
vt 0.1853 0.8132
vt 0.2336 0.7467
vt 0.2336 0.8459
vt 0.1979 0.8162
vt 0.2024 0.9858
vt 0.1940 0.9858
vt 0.0948 0.8535
vt 0.0985 0.8776
vt 0.0312 0.8992
vt 0.0425 0.8776
vt 0.0425 0.8956
vt 0.0705 0.9275
vt 0.0878 0.9101
vt 0.0948 0.9197
vt 0.1098 0.8739
vt 0.0985 0.8956
vt 0.0312 0.8739
vt 0.0532 0.8630
vt 0.0462 0.9197
vt 0.0705 0.9157
vt 0.0462 0.8535
vt 0.0532 0.9101
vt 0.1098 0.8992
vt 0.2593 0.9053
vt 0.2495 0.9352
vt 0.2397 0.9053
vt 0.1305 0.9338
vt 0.1535 0.8255
vt 0.1476 0.9297
vt 0.1797 0.8162
vt 0.1753 0.9858
vt 0.1650 0.8162
vt 0.1650 0.9338
vt 0.1634 0.8278
vt 0.2959 0.6543
vt 0.2915 0.8239
vt 0.2812 0.6543
vt 0.3288 0.8235
vt 0.3432 0.6543
vt 0.3469 0.8234
vt 0.3141 0.6543
vt 0.2998 0.8239
vt 0.3288 0.6543
vt 0.3102 0.8239
vt 0.3522 0.6544
vt 0.3627 0.8235
vt 0.1836 0.9858
vt 0.2030 0.6821
vt 0.0149 0.5692
vt 0.0179 0.5767
vt 0.0138 0.5764
vt 0.0149 0.5823
vt 0.0112 0.5829
vt 0.0097 0.5741
vt 0.0138 0.5828
vt 0.2174 0.8301
vt 0.2126 0.8219
vt 0.2166 0.8223
vt 0.0215 0.5731
vt 0.0189 0.5731
vt 0.0201 0.5692
vt 0.0112 0.5692
vt 0.0138 0.5692
vt 0.2174 0.8166
vt 0.5110 0.4848
vt 0.5358 0.6290
vt 0.5358 0.4848
vt 0.5254 0.6290
vt 0.8810 0.4848
vt 0.5254 0.4848
vt 0.5047 0.6290
vt 0.4800 0.4848
vt 0.5047 0.4848
vt 0.5083 0.6290
vt 0.1527 0.4848
vt 0.5083 0.4848
vt 0.8810 0.4818
vt 0.5254 0.4570
vt 0.5254 0.4818
vt 0.1527 0.4818
vt 0.5083 0.4570
vt 0.5083 0.4818
vt 0.5136 0.6290
vt 0.5384 0.4848
vt 0.5136 0.4848
vt 0.5254 0.6290
vt 0.8810 0.4848
vt 0.5254 0.4848
vt 0.5073 0.4848
vt 0.4826 0.6290
vt 0.4826 0.4848
vt 0.5083 0.6290
vt 0.1527 0.4848
vt 0.5083 0.4848
vt 0.8810 0.4844
vt 0.5254 0.4597
vt 0.5254 0.4844
vt 0.1527 0.4844
vt 0.5083 0.4597
vt 0.5083 0.4844
vt 0.0755 0.0526
vt 0.9472 0.5454
vt 0.9472 0.5454
vt 0.9472 0.0526
vt 0.0755 0.5454
vt 0.0755 0.5454
vt 0.2898 0.8937
vt 0.0588 0.6543
vt 0.1650 0.8255
vt 0.2336 0.8077
vt 0.0981 0.8457
vt 0.2812 0.8462
vt 0.2126 0.8162
vt 0.2336 0.9238
vt 0.2336 0.9135
vt 0.2495 0.9021
vt 0.2654 0.9135
vt 0.2654 0.9238
vt 0.2593 0.9321
vt 0.2397 0.9321
vt 0.1438 0.8278
vt 0.3330 0.6544
vt 0.3185 0.8239
vt 0.0189 0.5695
vt 0.0189 0.5826
vt 0.0071 0.5742
vt 0.2134 0.8298
vt 0.2134 0.8162
vt 0.5110 0.6290
vt 0.8810 0.6290
vt 0.4800 0.6290
vt 0.1527 0.6290
vt 0.8810 0.4570
vt 0.1527 0.4570
vt 0.5384 0.6290
vt 0.8810 0.6290
vt 0.5073 0.6290
vt 0.1527 0.6290
vt 0.8810 0.4597
vt 0.1527 0.4597
vn 0.0000 1.0000 0.0000
vn 0.0000 0.0000 -1.0000
vn -1.0000 0.0000 0.0000
vn 0.0000 -1.0000 0.0000
vn 1.0000 0.0000 0.0000
vn 0.0000 0.0000 1.0000
vn 0.5878 0.8090 0.0000
vn 0.9511 -0.3090 -0.0000
vn -0.9511 -0.3090 -0.0000
vn -0.5878 0.8090 0.0000
vn 0.7753 -0.6047 -0.1824
vn 0.4861 -0.4686 -0.7376
vn 0.1817 0.2576 -0.9490
vn 0.9117 -0.2858 -0.2951
vn 0.6746 -0.0279 0.7376
vn 0.3780 0.7163 -0.5865
vn 0.8363 -0.4621 0.2951
vn 0.3336 -0.8252 0.4559
vn 0.4529 0.8916 0.0000
vn 0.8363 -0.4621 -0.2951
vn 0.3336 -0.8252 -0.4559
vn 0.3780 0.7163 0.5865
vn 0.9728 -0.1431 0.1824
vn 0.8272 0.3286 -0.4559
vn 0.1817 0.2576 0.9490
vn 0.9728 -0.1431 -0.1824
vn 0.8256 0.3309 0.4570
vn -0.0609 -0.3093 0.9490
vn 0.7753 -0.6047 0.1824
vn 0.6746 -0.0279 -0.7376
vn -0.2571 -0.7680 0.5865
vn -0.1215 -0.2841 0.9511
vn 0.4861 -0.4686 0.7376
vn -0.3321 -0.9433 0.0000
vn -0.1215 -0.2841 -0.9511
vn 0.9117 -0.2858 0.2951
vn -0.2571 -0.7680 -0.5865
vn 0.7520 -0.6592 0.0000
vn 0.8854 0.4648 0.0000
vn -0.0609 -0.3093 -0.9490
vn 0.2753 -0.9614 0.0000
vn 0.9961 -0.0886 0.0000
vn -0.3933 -0.9194 0.0000
vn 0.3933 0.9194 0.0000
vn 0.1215 0.2841 0.9511
vn -0.3182 -0.7438 0.5878
vn -0.3182 -0.7438 -0.5878
vn 0.1216 0.2841 -0.9511
vn -0.5991 0.4822 -0.6392
vn 0.3182 0.7438 0.5878
vn 0.3182 0.7438 -0.5878
vn -0.4570 -0.8895 0.0000
vn -0.7625 0.1003 -0.6392
vn -0.4669 0.7912 0.3950
vn -0.8947 -0.2086 0.3950
vn -0.8947 -0.2086 -0.3950
vn -0.4164 0.9092 0.0000
vn -0.7625 0.1003 0.6392
vn -0.4669 0.7912 -0.3950
vn -0.5991 0.4822 0.6392
vn -0.9451 -0.3266 0.0000
vn -0.9194 0.3933 0.0000
vn 0.3278 0.9448 0.0000
vn -0.1858 -0.2558 -0.9487
vn 0.2529 0.7696 0.5863
vn -0.3820 -0.7143 0.5863
vn 0.0567 0.3110 -0.9487
vn -0.1858 -0.2558 0.9487
vn 0.0567 0.3110 0.9487
vn 0.2529 0.7696 -0.5863
vn -0.3820 -0.7143 -0.5863
vn -0.5137 0.1805 -0.8387
vn 0.3886 0.5857 -0.7112
vn 0.3860 -0.9051 -0.1784
vn 0.2723 0.3384 0.9007
vn 0.5875 -0.7896 -0.1768
vn -0.6406 -0.1739 0.7479
vn 0.0000 0.3109 -0.9505
vn 0.0000 -0.3109 0.9505
vn 0.0000 -0.3218 -0.9468
vn 0.0000 0.3218 0.9468
vn 0.8282 0.3270 0.4551
vn 0.8274 0.3300 0.4544
vn 0.1215 0.2841 -0.9511
s off
f 5/1/1 3/2/1 1/3/1
f 5/4/2 2/5/2 6/6/2
f 7/7/3 6/8/3 8/9/3
f 2/10/4 8/11/4 6/12/4
f 1/13/5 4/14/5 2/15/5
f 3/16/6 8/17/6 4/18/6
f 10/19/7 11/20/7 9/21/7
f 12/22/8 13/23/8 11/20/8
f 14/24/4 15/25/4 13/23/4
f 10/19/6 16/26/6 14/24/6
f 15/25/9 18/27/9 17/28/9
f 18/27/10 9/21/10 17/28/10
f 13/23/2 15/25/2 17/28/2
f 20/29/7 21/30/7 19/31/7
f 22/32/8 23/33/8 21/30/8
f 24/34/4 25/35/4 23/33/4
f 20/29/6 26/36/6 24/34/6
f 25/35/9 28/37/9 27/38/9
f 28/37/10 19/31/10 27/38/10
f 23/33/2 25/35/2 19/31/2
f 30/39/7 31/40/7 29/41/7
f 32/42/8 33/43/8 31/40/8
f 34/44/4 35/45/4 33/43/4
f 30/39/6 36/46/6 34/44/6
f 35/45/9 38/47/9 37/48/9
f 38/47/10 29/41/10 37/48/10
f 33/43/2 35/45/2 29/41/2
f 40/49/7 41/50/7 39/51/7
f 42/52/8 43/53/8 41/50/8
f 44/54/4 45/55/4 43/53/4
f 40/49/6 46/56/6 44/54/6
f 45/55/9 48/57/9 47/58/9
f 48/57/10 39/51/10 47/58/10
f 43/53/2 45/55/2 39/51/2
f 77/59/11 78/60/11 79/61/11
f 69/62/12 50/63/12 78/60/12
f 52/64/13 53/65/13 51/66/13
f 50/63/14 49/67/14 79/61/14
f 61/68/15 73/69/15 59/70/15
f 54/71/16 55/72/16 53/65/16
f 74/73/17 75/74/17 79/61/17
f 63/75/18 76/76/18 75/74/18
f 56/77/19 57/78/19 55/79/19
f 78/60/20 50/63/20 79/61/20
f 69/62/21 77/59/21 67/80/21
f 57/78/22 60/81/22 59/70/22
f 72/82/23 73/69/23 79/83/23
f 53/84/24 71/85/24 49/86/24
f 60/87/25 61/88/25 59/89/25
f 49/86/26 71/85/26 79/83/26
f 73/69/27 72/82/27 110/90/27
f 62/91/28 63/92/28 61/88/28
f 75/74/29 76/76/29 79/61/29
f 51/66/30 49/93/30 50/94/30
f 63/92/31 66/95/31 65/96/31
f 62/91/32 82/97/32 64/98/32
f 63/92/33 74/99/33 61/88/33
f 66/100/34 67/101/34 65/102/34
f 70/103/35 88/104/35 52/105/35
f 73/69/36 74/106/36 79/83/36
f 67/101/37 70/103/37 69/107/37
f 76/76/38 77/59/38 79/61/38
f 57/78/39 111/108/39 55/79/39
f 69/107/40 52/105/40 51/109/40
f 65/110/41 77/59/41 76/76/41
f 71/85/42 72/82/42 79/83/42
f 66/100/43 80/111/43 68/112/43
f 56/77/44 85/113/44 58/114/44
f 60/87/45 83/115/45 62/91/45
f 64/98/46 81/116/46 66/95/46
f 68/112/47 89/117/47 70/103/47
f 52/64/48 87/118/48 54/71/48
f 87/119/49 90/120/49 99/121/49
f 58/114/50 84/122/50 60/81/50
f 56/123/51 87/118/51 86/124/51
f 97/125/52 108/126/52 107/127/52
f 88/128/53 91/129/53 90/120/53
f 84/130/54 97/131/54 96/132/54
f 82/133/55 93/134/55 81/135/55
f 89/136/56 92/137/56 91/129/56
f 85/138/57 98/139/57 97/131/57
f 83/140/58 94/141/58 82/133/58
f 87/119/59 98/139/59 86/142/59
f 84/130/60 95/143/60 83/140/60
f 81/135/61 92/137/61 80/144/61
f 104/145/62 101/146/62 106/147/62
f 93/148/63 104/149/63 92/150/63
f 96/151/64 100/152/64 95/153/64
f 91/154/65 104/149/65 105/155/65
f 99/156/66 108/157/66 98/158/66
f 95/159/67 102/160/67 94/161/67
f 90/162/68 109/163/68 99/156/68
f 91/164/69 106/165/69 90/162/69
f 94/161/70 103/166/70 93/167/70
f 97/125/71 101/168/71 96/151/71
f 112/169/39 72/82/39 71/85/39
f 112/170/72 113/171/72 115/172/72
f 113/171/73 118/173/73 115/172/73
f 112/174/74 114/175/74 110/176/74
f 111/177/75 114/178/75 113/179/75
f 117/180/39 118/181/39 116/182/39
f 114/175/76 118/183/76 117/184/76
f 114/178/77 116/185/77 113/179/77
f 119/186/3 122/187/3 121/188/3
f 122/189/78 125/190/78 121/191/78
f 126/192/5 123/193/5 125/194/5
f 124/195/79 119/196/79 123/197/79
f 125/198/4 119/199/4 121/200/4
f 122/201/1 124/202/1 126/203/1
f 128/204/3 129/205/3 127/206/3
f 130/207/80 133/208/80 129/209/80
f 133/210/5 132/211/5 131/212/5
f 132/213/81 127/214/81 131/215/81
f 133/216/4 127/217/4 129/218/4
f 130/219/1 132/220/1 134/221/1
f 5/1/1 7/222/1 3/2/1
f 5/4/2 1/223/2 2/5/2
f 7/7/3 5/224/3 6/8/3
f 2/10/4 4/225/4 8/11/4
f 1/13/5 3/226/5 4/14/5
f 3/16/6 7/227/6 8/17/6
f 10/19/7 12/22/7 11/20/7
f 12/22/8 14/24/8 13/23/8
f 14/24/4 16/26/4 15/25/4
f 14/24/6 12/22/6 10/19/6
f 10/19/6 18/27/6 16/26/6
f 15/25/9 16/26/9 18/27/9
f 18/27/10 10/19/10 9/21/10
f 17/28/2 9/21/2 11/20/2
f 11/20/2 13/23/2 17/28/2
f 20/29/7 22/32/7 21/30/7
f 22/32/8 24/34/8 23/33/8
f 24/34/4 26/36/4 25/35/4
f 24/34/6 22/32/6 20/29/6
f 20/29/6 28/37/6 26/36/6
f 25/35/9 26/36/9 28/37/9
f 28/37/10 20/29/10 19/31/10
f 27/38/2 19/31/2 25/35/2
f 21/30/2 23/33/2 19/31/2
f 30/39/7 32/42/7 31/40/7
f 32/42/8 34/44/8 33/43/8
f 34/44/4 36/46/4 35/45/4
f 34/44/6 32/42/6 30/39/6
f 30/39/6 38/47/6 36/46/6
f 35/45/9 36/46/9 38/47/9
f 38/47/10 30/39/10 29/41/10
f 37/48/2 29/41/2 35/45/2
f 31/40/2 33/43/2 29/41/2
f 40/49/7 42/52/7 41/50/7
f 42/52/8 44/54/8 43/53/8
f 44/54/4 46/56/4 45/55/4
f 44/54/6 42/52/6 40/49/6
f 40/49/6 48/57/6 46/56/6
f 45/55/9 46/56/9 48/57/9
f 48/57/10 40/49/10 39/51/10
f 47/58/2 39/51/2 45/55/2
f 41/50/2 43/53/2 39/51/2
f 69/62/12 51/228/12 50/63/12
f 52/64/13 54/71/13 53/65/13
f 61/68/15 74/106/15 73/69/15
f 54/71/16 56/123/16 55/72/16
f 63/75/18 65/110/18 76/76/18
f 56/77/19 58/114/19 57/78/19
f 69/62/21 78/60/21 77/59/21
f 57/78/22 58/114/22 60/81/22
f 53/84/24 55/79/24 71/85/24
f 60/87/25 62/91/25 61/88/25
f 110/90/82 57/78/82 59/70/82
f 59/70/83 73/69/83 110/90/83
f 62/91/28 64/98/28 63/92/28
f 51/66/30 53/65/30 49/93/30
f 63/92/31 64/98/31 66/95/31
f 62/91/32 83/115/32 82/97/32
f 63/92/33 75/229/33 74/99/33
f 66/100/34 68/112/34 67/101/34
f 70/103/35 89/117/35 88/104/35
f 67/101/37 68/112/37 70/103/37
f 71/85/39 55/79/39 112/169/39
f 57/78/39 110/90/39 111/108/39
f 111/108/39 112/169/39 55/79/39
f 69/107/40 70/103/40 52/105/40
f 65/110/41 67/80/41 77/59/41
f 66/100/43 81/230/43 80/111/43
f 56/77/44 86/231/44 85/113/44
f 60/87/45 84/232/45 83/115/45
f 64/98/46 82/97/46 81/116/46
f 68/112/47 80/111/47 89/117/47
f 52/64/84 88/233/84 87/118/84
f 87/119/49 88/128/49 90/120/49
f 58/114/50 85/113/50 84/122/50
f 56/123/51 54/71/51 87/118/51
f 97/125/52 98/234/52 108/126/52
f 88/128/53 89/136/53 91/129/53
f 84/130/54 85/138/54 97/131/54
f 82/133/55 94/141/55 93/134/55
f 89/136/56 80/144/56 92/137/56
f 85/138/57 86/142/57 98/139/57
f 83/140/58 95/143/58 94/141/58
f 87/119/59 99/121/59 98/139/59
f 84/130/60 96/132/60 95/143/60
f 81/135/61 93/134/61 92/137/61
f 108/235/62 109/236/62 101/146/62
f 106/147/62 105/237/62 104/145/62
f 104/145/62 103/238/62 102/239/62
f 102/239/62 100/240/62 104/145/62
f 101/146/62 107/241/62 108/235/62
f 109/236/62 106/147/62 101/146/62
f 104/145/62 100/240/62 101/146/62
f 93/148/63 103/242/63 104/149/63
f 96/151/64 101/168/64 100/152/64
f 91/154/65 92/150/65 104/149/65
f 99/156/66 109/163/66 108/157/66
f 95/159/67 100/243/67 102/160/67
f 90/162/68 106/165/68 109/163/68
f 91/164/69 105/244/69 106/165/69
f 94/161/70 102/160/70 103/166/70
f 97/125/71 107/127/71 101/168/71
f 112/169/39 110/90/39 72/82/39
f 112/170/72 111/245/72 113/171/72
f 113/171/73 116/246/73 118/173/73
f 112/174/74 115/247/74 114/175/74
f 111/177/75 110/248/75 114/178/75
f 114/175/76 115/247/76 118/183/76
f 114/178/77 117/249/77 116/185/77
f 119/186/3 120/250/3 122/187/3
f 122/189/78 126/251/78 125/190/78
f 126/192/5 124/252/5 123/193/5
f 124/195/79 120/253/79 119/196/79
f 125/198/4 123/254/4 119/199/4
f 122/201/1 120/255/1 124/202/1
f 128/204/3 130/256/3 129/205/3
f 130/207/80 134/257/80 133/208/80
f 133/210/5 134/258/5 132/211/5
f 132/213/81 128/259/81 127/214/81
f 133/216/4 131/260/4 127/217/4
f 130/219/1 128/261/1 132/220/1
