# Blender v2.78 (sub 0) OBJ File: 'Cannon.blend'
# www.blender.org
o Icosphere_Icosphere.001
v -0.906345 0.778748 0.119456
v -0.848795 0.914854 0.061326
v -0.906345 0.910527 0.103139
v -0.849957 1.002883 -0.054088
v -0.848795 0.982552 0.061326
v -0.962732 0.778748 -0.054088
v -0.984788 0.742724 0.049011
v -0.997581 0.778748 0.053168
v -0.849957 0.778748 -0.054088
v -0.962732 0.886962 -0.054088
v -0.849957 0.894905 -0.054088
v -0.827902 0.742724 0.049011
v -0.815108 0.778748 0.053168
v -0.963894 0.913879 0.061326
v -0.963894 0.982552 0.061326
v -0.857865 0.742724 -0.043205
v -0.962732 1.002883 -0.054088
v -0.954826 0.742724 -0.043205
v -0.906345 0.742724 0.106002
v -0.956587 1.023703 -0.131991
v -0.907550 0.999367 -0.234189
v -0.962732 0.999367 -0.234189
v -0.903347 0.960570 -0.131991
v -0.899102 1.023703 -0.131991
v -0.907135 1.023703 -0.131991
v -0.956587 0.959011 -0.131991
v -0.855521 0.961968 -0.131991
v -0.855521 1.023703 -0.131991
v -0.903323 0.974731 -0.269496
v -0.907550 0.979422 -0.271321
v -0.903323 0.985120 -0.228645
v -0.962732 0.974556 -0.269426
v -0.962732 0.984587 -0.228438
v -0.893478 0.985209 -0.228680
v -0.894524 0.960828 -0.131991
v -0.849957 0.985600 -0.228832
v -0.849957 0.999367 -0.234189
v -0.898588 0.999367 -0.234189
v -0.893478 0.974762 -0.269508
v -0.849957 0.979422 -0.271321
v -0.849957 0.974890 -0.269557
v -0.962732 0.979422 -0.271321
v -0.898588 0.979422 -0.271321
v -0.984788 0.068693 0.049011
v -0.906345 0.068693 0.106002
v -0.954826 0.068693 -0.043205
v -0.857865 0.068693 -0.043205
v -0.827902 0.068693 0.049011
v -0.943227 0.970079 0.102712
v -0.906345 0.982552 0.103139
v -0.906345 0.970079 0.129509
v -0.869463 0.970079 0.102712
v -0.869463 0.926693 0.135135
v -0.869463 0.926693 0.102712
v -0.943227 0.970079 0.135135
v -0.906345 0.970079 0.161932
v -0.943227 0.926069 0.102712
v -0.906345 0.923919 0.129509
v -0.833246 0.991937 0.192884
v -0.869463 0.970079 0.135135
v -0.979446 0.904707 0.192884
v -0.979446 0.991937 0.192884
v -0.943227 0.926069 0.135135
v -0.906345 0.923919 0.161932
v -0.833246 0.905946 0.290177
v -0.833246 0.905946 0.192884
v -0.906345 1.022627 0.205345
v -0.979446 0.991937 0.290177
v -0.906345 1.022627 0.302639
v -0.906345 0.869760 0.205345
v -0.979446 0.904707 0.290177
v -0.906345 0.869760 0.302639
v -0.833246 0.991937 0.290177
vt 0.1861 0.4546
vt 0.2309 0.5604
vt 0.1861 0.5570
vt 0.3919 0.2898
vt 0.2937 0.2725
vt 0.2937 0.2149
vt 0.3919 0.0991
vt 0.3041 0.0684
vt 0.3006 0.0991
vt 0.2300 0.4546
vt 0.1423 0.5387
vt 0.2300 0.5449
vt 0.2471 0.4266
vt 0.2571 0.4546
vt 0.1414 0.5596
vt 0.1152 0.4546
vt 0.2309 0.6738
vt 0.2300 0.7635
vt 0.1414 0.6738
vt 0.3919 0.0991
vt 0.3041 0.0684
vt 0.3826 0.0684
vt 0.2937 0.2141
vt 0.3919 0.2898
vt 0.3919 0.1912
vt 0.1485 0.4266
vt 0.1423 0.4546
vt 0.1252 0.4266
vt 0.1861 0.4266
vt 0.1471 0.8241
vt 0.1852 0.9035
vt 0.1423 0.9035
vt 0.1423 0.7635
vt 0.1885 0.8241
vt 0.2300 0.7635
vt 0.1918 0.8241
vt 0.1855 0.8241
vt 0.4582 0.2525
vt 0.4582 0.2550
vt 0.4582 0.3075
vt 0.5452 0.2868
vt 0.5752 0.2659
vt 0.5768 0.2698
vt 0.1918 0.6450
vt 0.1885 0.5959
vt 0.1855 0.6450
vt 0.1471 0.8241
vt 0.1885 0.8992
vt 0.5452 0.2868
vt 0.5751 0.2657
vt 0.5403 0.2742
vt 0.4582 0.3075
vt 0.5405 0.2748
vt 0.4582 0.2540
vt 0.2257 0.8241
vt 0.1961 0.8992
vt 0.2300 0.8994
vt 0.4582 0.3075
vt 0.5404 0.2747
vt 0.5406 0.2751
vt 0.5452 0.2868
vt 0.4582 0.3075
vt 0.2257 0.8241
vt 0.1922 0.9035
vt 0.1961 0.6069
vt 0.2300 0.6106
vt 0.2300 0.6070
vt 0.1852 0.6106
vt 0.1423 0.6068
vt 0.1423 0.6106
vt 0.2300 0.9035
vt 0.1922 0.9324
vt 0.1423 0.9309
vt 0.1885 0.9310
vt 0.1423 0.9324
vt 0.5768 0.2698
vt 0.5752 0.2659
vt 0.1961 0.9310
vt 0.2300 0.9310
vt 0.5768 0.2698
vt 0.7441 0.9356
vt 0.6661 0.2654
vt 0.7441 0.2654
vt 0.6824 0.9356
vt 0.7741 0.2654
vt 0.6824 0.2654
vt 0.6959 0.9356
vt 0.7923 0.2654
vt 0.6959 0.2654
vt 0.7741 0.9356
vt 0.6824 0.2654
vt 0.7741 0.2654
vt 0.8221 0.9356
vt 0.8221 0.2654
vt 0.1252 0.6834
vt 0.2238 0.7551
vt 0.2471 0.6834
vt 0.2584 0.2619
vt 0.2937 0.2725
vt 0.1861 0.6413
vt 0.1575 0.6417
vt 0.1861 0.6208
vt 0.2584 0.2619
vt 0.2308 0.2250
vt 0.2584 0.2250
vt 0.1575 0.6165
vt 0.1861 0.5956
vt 0.2148 0.6417
vt 0.1861 0.6413
vt 0.1575 0.6417
vt 0.1414 0.6738
vt 0.2148 0.6417
vt 0.1861 0.6208
vt 0.2430 0.5716
vt 0.2148 0.6165
vt 0.2308 0.2619
vt 0.1817 0.2063
vt 0.1817 0.2805
vt 0.1575 0.6165
vt 0.2148 0.6165
vt 0.1861 0.5956
vt 0.2584 0.2244
vt 0.1817 0.2805
vt 0.0989 0.2073
vt 0.1817 0.2073
vt 0.1861 0.5619
vt 0.1293 0.4960
vt 0.1861 0.4863
vt 0.1293 0.5716
vt 0.2308 0.2619
vt 0.1293 0.5716
vt 0.2430 0.5716
vt 0.1861 0.5619
vt 0.1293 0.5525
vt 0.1861 0.6441
vt 0.1293 0.6203
vt 0.2430 0.5535
vt 0.1861 0.5253
vt 0.1293 0.4960
vt 0.2430 0.4960
vt 0.1861 0.4863
vt 0.0989 0.2805
vt 0.2430 0.4960
vt 0.3006 0.0991
vt 0.3919 0.1979
vt 0.3826 0.0684
vt 0.1423 0.7635
vt 0.2238 0.4266
vt 0.1953 0.8241
vt 0.1953 0.5961
vt 0.1423 0.8991
vt 0.5768 0.2698
vt 0.5452 0.2868
vt 0.4582 0.2538
vt 0.1922 0.6106
vt 0.1885 0.6069
vt 0.2300 0.9324
vt 0.1852 0.9324
vt 0.5752 0.2660
vt 0.6661 0.9356
vt 0.7741 0.9356
vt 0.7923 0.9356
vt 0.6824 0.9356
vt 0.1861 0.6391
vt 0.1485 0.7551
vt 0.2309 0.6738
vt 0.2308 0.2244
vt 0.0989 0.2805
vt 0.2430 0.6203
vt 0.0989 0.2063
vn 0.5807 0.0995 0.8080
vn 0.5847 0.0966 0.8055
vn 0.5799 0.1001 0.8085
vn 0.9999 0.0000 -0.0101
vn -0.9104 -0.2892 -0.2958
vn -0.0000 0.0000 -1.0000
vn 0.5627 -0.2892 0.7744
vn -0.5816 0.0996 0.8074
vn -0.5847 0.0972 0.8054
vn -0.5850 0.0972 0.8052
vn 0.0000 0.9848 0.1735
vn 0.9104 -0.2892 -0.2958
vn -0.9999 -0.0000 -0.0101
vn 0.0000 -0.2892 -0.9573
vn -0.5627 -0.2892 0.7744
vn 0.0000 0.9728 -0.2317
vn 0.0525 -0.7455 -0.6644
vn 0.0000 0.9661 0.2582
vn -0.9969 -0.0000 -0.0786
vn 0.9975 0.0000 -0.0712
vn 0.7634 0.5690 -0.3056
vn 0.0284 -0.9688 -0.2461
vn -1.0000 0.0000 0.0000
vn -0.9969 -0.0726 -0.0291
vn 0.0079 -0.9716 -0.2366
vn 0.9633 0.2602 -0.0659
vn 0.9633 0.2601 -0.0660
vn 0.9986 0.0194 0.0498
vn -0.9980 0.0000 0.0636
vn 0.0000 -0.3626 -0.9319
vn 0.0000 -0.3628 -0.9319
vn -0.0000 -0.3627 -0.9319
vn 0.0000 -0.3625 -0.9320
vn 0.0000 0.8810 -0.4732
vn 0.0090 -0.9711 0.2386
vn 0.0038 -0.9693 0.2457
vn 0.0031 -0.9691 0.2465
vn -0.6968 -0.6949 0.1778
vn 0.0101 -0.9685 0.2487
vn 0.0064 -0.9680 0.2511
vn 0.0031 -0.9671 0.2543
vn 1.0000 0.0000 0.0000
vn -0.5878 -0.0000 0.8090
vn -0.9511 -0.0000 -0.3090
vn 0.9511 -0.0000 -0.3090
vn 0.5878 -0.0000 0.8090
vn 0.0000 -1.0000 -0.0000
vn -0.8946 -0.0000 0.4468
vn -0.2967 0.8633 0.4083
vn 0.0000 1.0000 0.0000
vn 0.2967 0.8633 0.4083
vn 0.8946 -0.0000 0.4468
vn -0.3560 -0.8332 0.4232
vn 0.3682 -0.8290 0.4210
vn 0.3682 -0.8289 0.4210
vn -0.1799 0.9520 -0.2475
vn -0.8472 -0.0000 -0.5313
vn -0.0582 -0.9983 0.0000
vn 0.0750 -0.9972 0.0000
vn -0.3871 0.9220 0.0000
vn -0.1347 0.6311 -0.7639
vn 0.8472 -0.0000 -0.5313
vn 0.1379 -0.9540 -0.2664
vn 0.1739 -0.6159 -0.7684
vn -0.1681 -0.0000 0.9858
vn 0.1681 -0.0000 0.9858
vn -0.4313 -0.9022 0.0000
vn 0.4436 -0.8962 0.0000
vn 0.3871 0.9220 0.0000
vn 0.5850 0.0965 0.8052
vn 0.9687 0.2429 -0.0517
vn -0.5810 0.1000 0.8077
vn -0.9672 0.2451 -0.0669
vn 0.0221 -0.7569 -0.6532
vn 0.0215 -0.7348 -0.6779
vn 0.0222 -0.7569 -0.6532
vn 0.9633 0.2601 -0.0661
vn 0.0078 -0.9664 -0.2568
vn -0.9467 -0.3144 0.0701
vn 0.0283 -0.9693 -0.2441
vn 0.9981 0.0599 0.0155
vn 0.9984 0.0000 0.0574
vn -0.9983 0.0214 0.0549
vn 0.0095 -0.9713 0.2377
vn -0.9471 -0.2827 0.1519
vn 0.0096 -0.9687 0.2479
vn 0.1347 0.6311 -0.7639
vn 0.1799 0.9520 -0.2475
vn -0.1638 -0.6170 -0.7697
vn -0.1220 -0.9560 -0.2669
s 1
f 1/1/1 2/2/2 3/3/3
f 4/4/4 5/5/4 2/6/4
f 6/7/5 7/8/5 8/9/5
f 9/10/6 10/11/6 11/12/6
f 1/1/7 12/13/7 13/14/7
f 1/1/8 14/15/9 8/16/10
f 5/17/11 4/18/11 15/19/11
f 9/20/12 12/21/12 16/22/12
f 14/23/13 17/24/13 10/25/13
f 9/10/14 18/26/14 6/27/14
f 1/1/15 7/28/15 19/29/15
f 20/30/16 21/31/16 22/32/16
f 10/33/17 23/34/17 11/35/17
f 4/18/18 24/36/18 25/37/18
f 17/24/19 26/38/19 10/25/19
f 4/4/20 27/39/20 28/40/20
f 21/41/21 29/42/21 30/43/21
f 24/44/6 23/45/6 25/46/6
f 26/47/22 31/48/22 23/34/22
f 22/49/23 32/50/23 33/51/23
f 24/52/24 34/53/24 35/54/24
f 27/55/25 34/56/25 36/57/25
f 25/58/26 31/59/27 21/41/27
f 28/40/28 36/60/28 37/61/28
f 20/62/29 33/51/29 26/38/29
f 28/63/16 38/64/16 24/36/16
f 39/65/30 40/66/31 41/67/31
f 30/68/32 32/69/31 42/70/33
f 37/71/34 43/72/34 38/64/34
f 31/48/35 32/73/36 29/74/37
f 21/31/34 42/75/34 22/32/34
f 34/53/38 43/76/38 39/77/38
f 36/57/39 39/78/40 41/79/41
f 36/60/42 40/80/42 37/61/42
f 19/81/43 44/82/43 45/83/43
f 7/84/44 46/85/44 44/86/44
f 18/87/6 47/88/6 46/89/6
f 16/90/45 48/91/45 47/92/45
f 12/93/46 45/83/46 48/94/46
f 44/95/47 47/96/47 48/97/47
f 14/23/48 49/98/48 15/99/48
f 50/100/49 49/101/49 51/102/49
f 52/103/42 53/104/42 54/105/42
f 51/102/50 55/106/50 56/107/50
f 50/100/51 52/108/51 5/17/51
f 2/6/52 52/103/52 54/105/52
f 3/109/53 57/110/53 14/111/53
f 3/109/54 54/112/55 58/113/54
f 56/107/56 59/114/56 60/115/56
f 55/116/57 61/117/57 62/118/57
f 58/113/58 63/119/58 57/110/58
f 58/113/59 53/120/59 64/121/59
f 57/122/23 55/116/23 49/98/23
f 51/102/50 60/115/50 52/108/50
f 59/123/42 65/124/42 66/125/42
f 67/126/60 68/127/60 69/128/60
f 56/107/61 62/129/61 67/126/61
f 60/130/62 66/125/62 53/104/62
f 64/121/63 61/131/63 63/119/63
f 64/121/64 66/132/64 70/133/64
f 71/134/65 69/135/65 68/136/65
f 65/137/66 69/135/66 72/138/66
f 70/133/67 71/139/67 61/131/67
f 70/133/68 65/140/68 72/141/68
f 61/117/23 68/142/23 62/118/23
f 67/126/69 73/143/69 59/114/69
f 1/1/1 13/14/70 2/2/2
f 2/6/71 13/144/71 11/145/71
f 11/145/4 4/4/4 2/6/4
f 13/144/45 9/20/45 11/145/45
f 6/7/5 18/146/5 7/8/5
f 9/10/6 6/27/6 10/11/6
f 1/1/7 19/29/7 12/13/7
f 1/1/8 3/3/72 14/15/9
f 17/147/11 15/19/11 4/18/11
f 50/100/50 5/17/50 15/19/50
f 9/20/12 13/144/12 12/21/12
f 10/25/44 6/7/44 8/9/44
f 8/9/73 14/23/73 10/25/73
f 15/99/13 17/24/13 14/23/13
f 9/10/14 16/148/14 18/26/14
f 1/1/15 8/16/15 7/28/15
f 20/30/16 25/37/16 21/31/16
f 27/55/74 11/35/74 35/149/74
f 10/33/75 26/47/75 23/34/75
f 23/34/76 35/149/74 11/35/74
f 20/30/18 17/147/18 25/37/18
f 4/18/18 28/63/18 24/36/18
f 25/37/18 17/147/18 4/18/18
f 17/24/19 20/62/19 26/38/19
f 4/4/20 11/145/20 27/39/20
f 21/41/27 31/59/27 29/42/77
f 24/44/6 35/150/6 23/45/6
f 26/47/78 33/151/78 31/48/78
f 22/49/23 42/152/23 32/50/23
f 24/52/79 38/153/79 34/53/79
f 27/55/80 35/149/80 34/56/80
f 25/58/81 23/154/81 31/59/81
f 28/40/82 27/39/82 36/60/82
f 20/62/83 22/49/83 33/51/83
f 28/63/16 37/71/16 38/64/16
f 39/65/30 43/155/30 40/66/31
f 30/68/32 29/156/32 32/69/31
f 37/71/34 40/157/34 43/72/34
f 31/48/35 33/151/84 32/73/36
f 21/31/34 30/158/34 42/75/34
f 34/53/85 38/153/85 43/76/85
f 36/57/39 34/56/86 39/78/40
f 36/60/42 41/159/42 40/80/42
f 19/81/43 7/160/43 44/82/43
f 7/84/44 18/161/44 46/85/44
f 18/87/6 16/162/6 47/88/6
f 16/90/45 12/163/45 48/91/45
f 12/93/46 19/81/46 45/83/46
f 48/97/47 45/164/47 44/95/47
f 44/95/47 46/165/47 47/96/47
f 14/23/48 57/122/48 49/98/48
f 50/100/49 15/19/49 49/101/49
f 52/103/42 60/130/42 53/104/42
f 51/102/50 49/101/50 55/106/50
f 50/100/51 51/102/51 52/108/51
f 2/6/52 5/5/52 52/103/52
f 3/109/53 58/113/53 57/110/53
f 3/109/54 2/166/55 54/112/55
f 56/107/87 67/126/87 59/114/87
f 55/116/57 63/167/57 61/117/57
f 58/113/58 64/121/58 63/119/58
f 58/113/59 54/112/59 53/120/59
f 57/122/23 63/167/23 55/116/23
f 51/102/50 56/107/50 60/115/50
f 59/123/42 73/168/42 65/124/42
f 67/126/60 62/129/60 68/127/60
f 56/107/88 55/106/88 62/129/88
f 60/130/62 59/123/62 66/125/62
f 64/121/89 70/133/89 61/131/89
f 64/121/90 53/120/90 66/132/90
f 71/134/65 72/138/65 69/135/65
f 65/137/66 73/169/66 69/135/66
f 70/133/67 72/141/67 71/139/67
f 70/133/68 66/132/68 65/140/68
f 61/117/23 71/170/23 68/142/23
f 67/126/69 69/128/69 73/143/69
