# Blender v2.78 (sub 0) OBJ File: 'Heart.blend'
# www.blender.org
o Icosphere_Icosphere.001
v 1.691519 2.943397 -0.543075
v 1.818315 2.943397 -0.174363
v 1.691519 2.373386 -0.435082
v 1.330433 1.890154 -0.656109
v 0.790029 1.567268 -0.803795
v 0.152580 1.175800 -0.855655
v -0.484870 1.567268 -0.803795
v -1.025273 1.890154 -0.656109
v -1.386359 2.373386 -0.435082
v 1.691519 2.137280 -0.174363
v 1.330433 1.453886 -0.174363
v 0.790029 0.997258 -0.174363
v 0.152580 0.558824 -0.174363
v -0.484870 0.997257 -0.174363
v -1.025273 1.453887 -0.174363
v -1.386359 2.137280 -0.174363
v 1.691519 2.373386 0.086356
v 1.330433 1.890154 0.307383
v 0.790029 1.567268 0.455069
v 0.152580 1.175800 0.506929
v -0.484870 1.567268 0.455069
v -1.025273 1.890154 0.307383
v -1.386359 2.373386 0.086356
v 1.691519 2.943397 0.194349
v 1.330433 2.943397 0.506929
v 0.790029 2.943397 0.715787
v 0.152580 2.943397 0.789129
v -0.484870 2.943397 0.715787
v -1.025273 2.943397 0.506929
v -1.386359 2.943397 0.194349
v 1.691519 3.513407 0.086356
v 1.330433 3.996640 0.307383
v 0.790029 4.319525 0.455069
v 0.152580 3.919357 0.506929
v -0.484870 4.319525 0.455069
v -1.025273 3.996640 0.307383
v -1.386359 3.513408 0.086356
v -1.513156 2.943397 -0.174363
v 1.691519 3.749514 -0.174363
v 1.330433 4.432907 -0.174363
v 0.790029 4.638919 -0.174363
v 0.152580 3.972324 -0.174363
v -0.484870 4.638919 -0.174363
v -1.025273 4.432907 -0.174363
v -1.386359 3.749514 -0.174363
v 1.691519 3.513407 -0.435082
v 1.330433 3.996640 -0.656109
v 0.790029 4.319525 -0.803794
v 0.152580 3.919357 -0.855655
v -0.484870 4.319525 -0.803794
v -1.025273 3.996640 -0.656109
v -1.386359 3.513408 -0.435082
v 1.330433 2.943397 -0.855655
v 0.790029 2.943397 -1.064514
v 0.152580 2.943397 -1.137855
v -0.484870 2.943397 -1.064514
v -1.025273 2.943397 -0.855655
v -1.386359 2.943397 -0.543075
vt 0.1968 0.5300
vt 0.1701 0.5266
vt 0.1882 0.5101
vt 0.5123 0.5244
vt 0.4861 0.5279
vt 0.4945 0.5079
vt 0.4077 0.5560
vt 0.4703 0.5036
vt 0.4539 0.5400
vt 0.3427 0.5646
vt 0.2565 0.5196
vt 0.3421 0.5147
vt 0.2298 0.5419
vt 0.2127 0.5057
vt 0.4272 0.5180
vt 0.2770 0.5572
vt 0.1694 0.5111
vt 0.3615 0.6366
vt 0.1689 0.5013
vt 0.1684 0.4873
vt 0.5135 0.4991
vt 0.5131 0.5089
vt 0.5140 0.4850
vt 0.5568 0.5083
vt 0.5318 0.5099
vt 0.6931 0.5270
vt 0.6006 0.5267
vt 0.0804 0.5283
vt 0.1503 0.5121
vt 0.8753 0.5111
vt 0.1250 0.5104
vt 0.0619 0.5673
vt 0.1437 0.5329
vt 0.5383 0.5307
vt 0.6180 0.5659
vt 0.5701 0.5462
vt 0.7863 0.5283
vt 0.6923 0.5769
vt 0.1111 0.5482
vt 0.5295 0.5476
vt 0.5516 0.5739
vt 0.7678 0.5673
vt 0.6903 0.6099
vt 0.1526 0.5498
vt 0.1297 0.5761
vt 0.5918 0.5997
vt 0.0868 0.6015
vt 0.1722 0.5553
vt 0.1764 0.5848
vt 0.5103 0.5531
vt 0.3615 0.6366
vt 0.4964 0.6102
vt 0.1875 0.6124
vt 0.5064 0.5825
vt 0.7927 0.6015
vt 0.4662 0.5693
vt 0.4924 0.5455
vt 0.4224 0.5912
vt 0.2637 0.5927
vt 0.1905 0.5477
vt 0.3439 0.5976
vt 0.2177 0.5713
vt 0.8934 0.6124
vn 0.9439 -0.0615 -0.3246
vn -0.9439 -0.0615 -0.3246
vn -0.3550 -0.1740 -0.9185
vn 0.1744 -0.1552 -0.9724
vn 0.6479 -0.1418 -0.7484
vn -0.6479 -0.1418 -0.7484
vn -0.1123 -0.1850 -0.9763
vn 0.3550 -0.1740 -0.9185
vn 0.4542 -0.6604 -0.5980
vn 0.8143 -0.4302 -0.3896
vn -0.8143 -0.4302 -0.3896
vn -0.4542 -0.6604 -0.5980
vn 0.5308 -0.6282 -0.5689
vn 0.9782 -0.1539 -0.1393
vn -0.9782 -0.1539 -0.1393
vn -0.5308 -0.6282 -0.5689
vn -0.8143 -0.4302 0.3896
vn -0.4542 -0.6604 0.5980
vn 0.5308 -0.6282 0.5689
vn 0.9782 -0.1539 0.1393
vn -0.9782 -0.1539 0.1393
vn -0.5308 -0.6282 0.5689
vn 0.4542 -0.6604 0.5980
vn 0.8143 -0.4302 0.3896
vn 0.3550 -0.1740 0.9185
vn 0.9439 -0.0615 0.3246
vn -0.9439 -0.0615 0.3246
vn -0.3550 -0.1740 0.9185
vn 0.1744 -0.1552 0.9724
vn 0.6479 -0.1418 0.7484
vn -0.6479 -0.1418 0.7484
vn -0.1123 -0.1850 0.9763
vn -0.9439 0.0615 0.3246
vn -0.3550 0.1740 0.9185
vn 0.1099 0.2761 0.9548
vn 0.6479 0.1418 0.7484
vn -0.6479 0.1418 0.7484
vn 0.0369 0.1860 0.9819
vn 0.3550 0.1740 0.9185
vn 0.9439 0.0615 0.3246
vn 0.8143 0.4302 0.3896
vn -0.8143 0.4302 0.3896
vn 0.6820 0.6522 0.3309
vn 0.3219 0.8443 0.4284
vn 0.9782 0.1539 0.1393
vn -0.9782 0.1539 0.1393
vn -0.5308 0.6282 0.5689
vn -0.5267 0.8475 0.0659
vn -0.8143 0.4302 -0.3896
vn 0.6820 0.6522 -0.3309
vn 0.3219 0.8443 -0.4284
vn 0.9782 0.1539 -0.1393
vn -0.9782 0.1539 -0.1393
vn -0.5308 0.6282 -0.5689
vn -0.5267 0.8475 -0.0659
vn 0.8143 0.4302 -0.3896
vn 0.9439 0.0615 -0.3246
vn -0.9439 0.0615 -0.3246
vn -0.3550 0.1740 -0.9185
vn 0.1099 0.2761 -0.9548
vn 0.6479 0.1418 -0.7484
vn -0.6479 0.1418 -0.7484
vn 0.0369 0.1860 -0.9819
vn 0.3550 0.1740 -0.9185
vn 0.1123 -0.1850 -0.9763
vn -0.1744 -0.1552 -0.9724
vn 0.1123 -0.1850 0.9763
vn -0.1744 -0.1552 0.9724
vn -0.0369 0.1860 0.9819
vn -0.1099 0.2761 0.9548
vn 0.5267 0.8475 0.0659
vn 0.5308 0.6282 0.5689
vn -0.3219 0.8443 0.4284
vn -0.6820 0.6522 0.3309
vn 0.5267 0.8475 -0.0659
vn 0.5308 0.6282 -0.5689
vn -0.3219 0.8443 -0.4284
vn -0.6820 0.6522 -0.3309
vn -0.0369 0.1860 -0.9819
vn -0.1099 0.2761 -0.9548
s off
f 1/1/1 2/2/1 3/3/1
f 38/4/2 58/5/2 9/6/2
f 56/7/3 8/8/3 57/9/3
f 55/10/4 5/11/4 6/12/4
f 53/13/5 3/3/5 4/14/5
f 57/9/6 9/6/6 58/5/6
f 55/10/7 7/15/7 56/7/7
f 54/16/8 4/14/8 5/11/8
f 6/12/9 12/17/9 13/18/9
f 4/14/10 10/19/10 11/20/10
f 8/8/11 16/21/11 9/6/11
f 6/12/12 14/22/12 7/15/12
f 5/11/13 11/20/13 12/17/13
f 3/3/14 2/2/14 10/19/14
f 38/4/15 9/6/15 16/21/15
f 7/15/16 15/23/16 8/8/16
f 16/21/17 22/24/17 23/25/17
f 14/22/18 20/26/18 21/27/18
f 11/20/19 19/28/19 12/17/19
f 10/19/20 2/2/20 17/29/20
f 38/4/21 16/21/21 23/25/21
f 15/23/22 21/27/22 22/24/22
f 12/30/23 20/26/23 13/18/23
f 10/19/24 18/31/24 11/20/24
f 18/31/25 26/32/25 19/28/25
f 17/29/26 2/2/26 24/33/26
f 38/4/27 23/25/27 30/34/27
f 22/24/28 28/35/28 29/36/28
f 19/37/29 27/38/29 20/26/29
f 17/29/30 25/39/30 18/31/30
f 23/25/31 29/36/31 30/34/31
f 21/27/32 27/38/32 28/35/32
f 38/4/33 30/34/33 37/40/33
f 28/35/34 36/41/34 29/36/34
f 26/42/35 34/43/35 27/38/35
f 25/39/36 31/44/36 32/45/36
f 29/36/37 37/40/37 30/34/37
f 28/35/38 34/43/38 35/46/38
f 26/32/39 32/45/39 33/47/39
f 24/33/40 2/2/40 31/44/40
f 32/45/41 39/48/41 40/49/41
f 36/41/42 45/50/42 37/40/42
f 35/46/43 42/51/43 43/52/43
f 33/47/44 40/49/44 41/53/44
f 31/44/45 2/2/45 39/48/45
f 38/4/46 37/40/46 45/50/46
f 35/46/47 44/54/47 36/41/47
f 33/55/48 42/51/48 34/43/48
f 45/50/49 51/56/49 52/57/49
f 42/51/50 50/58/50 43/52/50
f 40/49/51 48/59/51 41/53/51
f 39/48/52 2/2/52 46/60/52
f 38/4/53 45/50/53 52/57/53
f 44/54/54 50/58/54 51/56/54
f 42/51/55 48/59/55 49/61/55
f 39/48/56 47/62/56 40/49/56
f 46/60/57 2/2/57 1/1/57
f 38/4/58 52/57/58 58/5/58
f 51/56/59 56/7/59 57/9/59
f 49/61/60 54/16/60 55/10/60
f 46/60/61 53/13/61 47/62/61
f 52/57/62 57/9/62 58/5/62
f 49/61/63 56/7/63 50/58/63
f 47/62/64 54/16/64 48/59/64
f 56/7/3 7/15/3 8/8/3
f 55/10/65 54/16/65 5/11/65
f 53/13/5 1/1/5 3/3/5
f 57/9/6 8/8/6 9/6/6
f 55/10/66 6/12/66 7/15/66
f 54/16/8 53/13/8 4/14/8
f 6/12/9 5/11/9 12/17/9
f 4/14/10 3/3/10 10/19/10
f 8/8/11 15/23/11 16/21/11
f 6/12/12 13/18/12 14/22/12
f 5/11/13 4/14/13 11/20/13
f 7/15/16 14/22/16 15/23/16
f 16/21/17 15/23/17 22/24/17
f 14/22/18 13/18/18 20/26/18
f 11/20/19 18/31/19 19/28/19
f 15/23/22 14/22/22 21/27/22
f 12/30/23 19/37/23 20/26/23
f 10/19/24 17/29/24 18/31/24
f 18/31/25 25/39/25 26/32/25
f 22/24/28 21/27/28 28/35/28
f 19/37/67 26/42/67 27/38/67
f 17/29/30 24/33/30 25/39/30
f 23/25/31 22/24/31 29/36/31
f 21/27/68 20/26/68 27/38/68
f 28/35/34 35/46/34 36/41/34
f 26/42/69 33/55/69 34/43/69
f 25/39/36 24/33/36 31/44/36
f 29/36/37 36/41/37 37/40/37
f 28/35/70 27/38/70 34/43/70
f 26/32/39 25/39/39 32/45/39
f 32/45/41 31/44/41 39/48/41
f 36/41/42 44/54/42 45/50/42
f 35/46/71 34/43/71 42/51/71
f 33/47/72 32/45/72 40/49/72
f 35/46/73 43/52/73 44/54/73
f 33/55/74 41/63/74 42/51/74
f 45/50/49 44/54/49 51/56/49
f 42/51/75 49/61/75 50/58/75
f 40/49/76 47/62/76 48/59/76
f 44/54/77 43/52/77 50/58/77
f 42/51/78 41/53/78 48/59/78
f 39/48/56 46/60/56 47/62/56
f 51/56/59 50/58/59 56/7/59
f 49/61/79 48/59/79 54/16/79
f 46/60/61 1/1/61 53/13/61
f 52/57/62 51/56/62 57/9/62
f 49/61/80 55/10/80 56/7/80
f 47/62/64 53/13/64 54/16/64
