# Blender v2.78 (sub 0) OBJ File: 'Builder.blend'
# www.blender.org
o Cylinder
v 0.000000 0.021585 -3.047132
v 0.000000 6.115848 -3.047132
v 0.858476 0.021585 -2.923702
v 0.858476 6.115848 -2.923702
v 1.647404 0.021585 -2.563410
v 1.647404 6.115848 -2.563410
v 2.302869 0.021585 -1.995447
v 2.302869 6.115848 -1.995447
v 2.771769 0.021585 -1.265824
v 2.771769 6.115848 -1.265824
v 3.016116 0.021585 -0.433652
v 3.016116 6.115848 -0.433652
v 3.016116 0.021585 0.433652
v 3.016116 6.115848 0.433652
v 2.771769 0.021585 1.265825
v 2.771769 6.115848 1.265825
v 2.302868 0.021585 1.995447
v 2.302868 6.115848 1.995447
v 1.647404 0.021585 2.563411
v 1.647404 6.115848 2.563411
v 0.858476 0.021585 2.923702
v 0.858476 6.115848 2.923702
v 0.472606 0.021585 2.985417
v 0.472606 6.115848 2.985417
v -1.742613 4.038937 2.004853
v -0.190420 0.021585 2.691929
v -2.370546 0.021585 1.726899
v -2.370546 6.115848 1.726899
v -0.237770 4.173348 2.670969
v -1.869053 0.021585 1.948884
v -2.771768 0.021585 1.265826
v -2.771768 6.115848 1.265826
v -3.016116 0.021585 0.433654
v -3.016116 6.115848 0.433654
v -3.016117 0.021585 -0.433650
v -3.016117 6.115848 -0.433650
v -2.771770 0.021585 -1.265822
v -2.771770 6.115848 -1.265822
v -2.302870 0.021585 -1.995445
v -2.302870 6.115848 -1.995445
v -1.647407 0.021585 -2.563409
v -1.647407 6.115848 -2.563409
v -0.858480 0.021585 -2.923701
v -0.858480 6.115848 -2.923701
v -1.410556 0.326082 1.473379
v -1.302968 3.744459 1.521003
v 0.017797 0.326082 2.105638
v -0.022493 3.858831 2.087804
v -3.016117 4.171921 -0.433650
v -3.016117 2.712079 -0.433650
v -2.771770 4.663964 -1.265822
v -2.771770 2.305843 -1.265822
v -2.302870 3.898015 -1.995445
v -2.302870 2.722131 -1.995445
v -3.016116 3.980556 -0.165418
v -3.016116 3.905433 -0.060273
v -2.616950 4.154668 -0.194582
v -2.616950 2.735001 -0.194582
v -2.379328 4.633170 -1.003852
v -2.379328 2.339945 -1.003852
v -1.923332 3.888300 -1.713396
v -1.923332 2.744776 -1.713396
v -2.616950 3.968570 0.066269
v -2.616950 3.895514 0.168520
v 0.145540 9.101287 -0.290868
v 0.858476 6.115848 -3.510189
v 0.858476 0.021585 -3.510189
v 0.000000 0.021585 -3.633619
v 2.533083 4.290270 -0.028652
v 2.533083 2.691482 -0.028652
v 2.288735 4.626928 0.803521
v 2.288735 2.636744 0.803521
v 1.819835 4.897161 1.533143
v 1.164371 3.610910 2.101106
v 1.819835 2.498289 1.533143
v 1.431957 2.373325 1.869242
v 1.914990 2.373325 2.331546
v 1.647404 3.610910 2.563411
v 2.302868 2.498289 1.995447
v 2.302868 4.897161 1.995447
v 2.771769 2.636744 1.265825
v 2.771769 4.626928 1.265825
v 3.016116 2.691482 0.433652
v 3.016116 4.290270 0.433652
v 0.000000 6.115848 -3.633619
v 1.647404 6.115848 -3.149897
v 1.647404 0.021585 -3.149897
v 2.302869 0.021585 -2.581934
v 2.302869 6.115848 -2.581934
v 0.000000 3.827125 -3.633619
v 0.858476 3.836999 -3.510189
v 0.858476 2.788104 -3.510189
v 0.000000 2.726611 -3.633619
v 0.099594 2.726611 -4.326311
v 0.958070 2.788104 -4.202881
v 0.958070 3.836999 -4.202881
v 0.099594 3.827125 -4.326311
v 2.302869 3.459854 -2.581934
v 1.647404 3.627667 -3.149897
v 2.302869 2.601568 -2.581934
v 1.647404 2.690270 -3.149897
v 1.854658 3.627667 -3.668744
v 2.510123 3.459854 -3.100781
v 2.510123 2.601568 -3.100781
v 1.854658 2.690270 -3.668744
vt 0.8203 0.1658
vt 0.8115 0.1704
vt 0.8099 0.1651
vt 0.8086 0.9077
vt 0.7995 0.1623
vt 0.8207 0.9084
vt 0.8205 0.6348
vt 0.8205 0.5007
vt 0.7849 0.9001
vt 0.7785 0.1511
vt 0.7891 0.1575
vt 0.7733 0.8937
vt 0.7677 0.1437
vt 0.7620 0.8863
vt 0.7527 0.6560
vt 0.7542 0.4612
vt 0.7567 0.1358
vt 0.7431 0.4468
vt 0.7455 0.1282
vt 0.7321 0.4231
vt 0.7341 0.1213
vt 0.7255 0.4046
vt 0.7202 0.5532
vt 0.7085 0.8547
vt 0.7105 0.1121
vt 0.7051 0.1114
vt 0.7038 0.8539
vt 0.6638 0.8639
vt 0.6949 0.6197
vt 0.6955 0.1137
vt 0.6978 0.5868
vt 0.6989 0.1562
vt 0.6512 0.1252
vt 0.6592 0.1213
vt 0.6563 0.8678
vt 0.6398 0.1327
vt 0.6455 0.8752
vt 0.6372 0.6104
vt 0.6288 0.1405
vt 0.6199 0.4265
vt 0.6179 0.1482
vt 0.6073 0.1551
vt 0.6101 0.6274
vt 0.6002 0.9031
vt 0.6092 0.4841
vt 0.2980 0.1533
vt 0.3472 0.1760
vt 0.2483 0.3242
vt 0.5863 0.1642
vt 0.5967 0.1605
vt 0.8327 0.9068
vt 0.8307 0.1642
vt 0.9106 0.1195
vt 0.8732 0.1405
vt 0.8623 0.1482
vt 0.6713 0.5773
vt 0.6658 0.1612
vt 0.6662 0.1195
vt 0.6710 0.6086
vt 0.6339 0.4692
vt 0.6391 0.6171
vt 0.6355 0.6422
vt 0.6220 0.7139
vt 0.6097 0.6239
vt 0.6234 0.7079
vt 0.6359 0.6205
vt 0.6345 0.8831
vt 0.6233 0.8908
vt 0.6406 0.6073
vt 0.6119 0.8976
vt 0.6209 0.4285
vt 0.6086 0.4845
vt 0.6327 0.6462
vt 0.6313 0.4684
vt 0.7936 0.1628
vt 0.0693 0.2561
vt 0.0994 0.2101
vt 0.2934 0.5221
vt 0.2541 0.5234
vt 0.4171 0.4172
vt 0.3870 0.4636
vt 0.1410 0.1747
vt 0.1907 0.1525
vt 0.0693 0.4179
vt 0.0534 0.3645
vt 0.3446 0.4997
vt 0.4174 0.2572
vt 0.4327 0.3095
vt 0.2445 0.1452
vt 0.0535 0.3090
vt 0.3880 0.2115
vt 0.4327 0.3643
vt 0.0823 0.4394
vt 0.7923 0.4772
vt 0.7919 0.5817
vt 0.8026 0.1676
vt 0.8203 0.1711
vt 0.7414 0.6893
vt 0.7305 0.7193
vt 0.7445 0.6933
vt 0.7584 0.6599
vt 0.7243 0.4085
vt 0.7177 0.5571
vt 0.7602 0.4651
vt 0.7328 0.4270
vt 0.7468 0.4508
vt 0.7303 0.7154
vt 0.7189 0.8584
vt 0.7401 0.8707
vt 0.7295 0.8639
vt 0.7510 0.8784
vt 0.8112 0.5075
vt 0.8224 0.7355
vt 0.8152 0.7378
vt 0.8229 0.7450
vt 0.8043 0.7179
vt 0.8004 0.7143
vt 0.8077 0.7273
vt 0.7967 0.9049
vt 0.8015 0.6070
vt 0.8018 0.4928
vt 0.8118 0.5139
vt 0.8196 0.6411
vt 0.8116 0.6417
vt 0.8110 0.6354
vt 0.8206 0.9137
vt 0.8106 0.9130
vt 0.8021 0.6118
vt 0.8196 0.5070
vt 0.8023 0.4976
vt 0.7938 0.5866
vt 0.7941 0.4820
vt 0.7904 0.9054
vt 0.7224 0.1158
vt 0.5883 0.9068
vt 0.9399 0.1137
vt 0.8411 0.1605
vt 0.8516 0.1551
vt 0.8842 0.1327
vt 0.9035 0.1213
vt 0.8955 0.1252
vt 0.8130 0.7284
vt 0.7961 0.7048
vt 0.8006 0.9102
vn 0.0000 -1.0000 0.0000
vn 0.4154 0.0000 -0.9096
vn -1.0000 0.0000 0.0000
vn 0.8413 0.0000 -0.5406
vn 0.9595 0.0000 -0.2817
vn 1.0000 0.0000 0.0000
vn 0.9595 0.0000 0.2817
vn 0.8413 0.0000 0.5406
vn 0.6549 0.0000 0.7557
vn 0.4154 0.0000 0.9096
vn 0.1579 0.0000 0.9875
vn -0.4048 -0.0000 0.9144
vn -0.9402 -0.0124 -0.3404
vn -0.7544 0.0000 0.6564
vn -0.9595 0.0000 0.2817
vn -0.9595 0.0000 -0.2817
vn -0.8413 0.0000 -0.5406
vn -0.6549 0.0000 -0.7557
vn 0.3086 0.6695 -0.6757
vn -0.4154 0.0000 -0.9096
vn -0.1423 0.0000 -0.9898
vn -0.1783 0.8977 0.4029
vn 0.7298 -0.0325 0.6829
vn -0.1145 -0.8914 0.4385
vn -0.4080 -0.7482 0.5232
vn 0.2984 -0.7770 -0.5543
vn 0.2987 -0.7765 -0.5548
vn 0.2289 -0.8659 -0.4448
vn 0.4849 0.2612 -0.8347
vn -0.5965 0.0000 0.8026
vn -0.2943 0.8992 0.3239
vn 0.1806 0.9037 -0.3881
vn 0.6815 0.7039 0.2001
vn -0.5127 0.7336 0.4461
vn -0.6685 0.7173 -0.1963
vn 0.7005 0.6834 -0.2057
vn 0.2824 0.7333 0.6184
vn -0.6504 0.7352 0.1910
vn -0.3024 0.6856 -0.6622
vn 0.4856 0.6709 -0.5604
vn 0.5884 0.7147 0.3781
vn 0.1054 0.6718 -0.7332
vn -0.5953 0.7066 -0.3826
vn 0.7208 0.6931 0.0000
vn 0.1062 0.7402 0.6639
vn -0.6866 0.7271 0.0000
vn -0.1047 0.6774 -0.7282
vn 0.6202 0.6757 -0.3986
vn -0.2921 0.6922 0.6599
vn 0.4512 0.7248 0.5207
vn -0.4704 0.6957 -0.5429
vn 0.6549 0.0000 -0.7557
vn 0.1423 0.0000 -0.9898
vn -0.2092 -0.9531 0.2186
vn -0.2769 -0.9163 0.2894
vn 0.6650 0.2740 -0.6948
vn -0.6914 0.0000 0.7224
vn -0.1110 0.9870 0.1160
vn -0.0490 0.9975 0.0512
vn -0.1642 0.9714 0.1716
vn 0.5741 -0.5574 -0.5998
vn 0.0000 1.0000 0.0000
vn 0.2102 0.9772 0.0302
vn 0.0700 -0.9975 0.0101
vn -0.9898 0.0000 -0.1423
vn -0.0113 0.9999 -0.0016
vn -0.0999 -0.9942 -0.0399
vn 0.9287 0.0000 0.3710
vn -0.4154 0.0000 0.9096
vn 0.1863 0.9797 0.0744
vn -0.1000 -0.9949 -0.0144
vn 0.5118 0.0000 -0.8591
vn 0.6549 0.0000 0.7558
vn 0.2181 0.9720 0.0871
vn -0.1042 -0.9937 -0.0416
s off
f 1/1/1 67/2/1 3/3/1
f 4/4/2 5/5/2 3/3/2
f 2/6/3 90/7/3 93/8/3
f 8/9/4 9/10/4 7/11/4
f 10/12/5 11/13/5 9/10/5
f 12/14/6 84/15/6 83/16/6
f 13/17/7 81/18/7 15/19/7
f 15/19/8 79/20/8 17/21/8
f 79/20/9 77/22/9 17/21/9
f 78/23/10 22/24/10 21/25/10
f 22/24/11 23/26/11 21/25/11
f 24/27/12 28/28/12 29/29/12
f 26/30/13 48/31/13 47/32/13
f 28/28/14 31/33/14 27/34/14
f 32/35/15 33/36/15 31/33/15
f 34/37/3 56/38/3 33/36/3
f 35/39/16 52/40/16 37/41/16
f 52/40/17 39/42/17 37/41/17
f 53/43/18 42/44/18 54/45/18
f 6/46/19 4/47/19 65/48/19
f 42/44/20 43/49/20 41/50/20
f 44/51/21 1/1/21 43/52/21
f 30/53/1 35/54/1 37/55/1
f 47/32/12 46/56/12 45/57/12
f 26/30/22 45/57/22 30/58/22
f 25/59/23 45/57/23 46/56/23
f 29/29/24 46/56/24 48/31/24
f 58/60/3 63/61/3 57/62/3
f 51/63/25 61/64/25 59/65/25
f 55/66/26 57/62/26 63/61/26
f 51/63/16 36/67/16 38/68/16
f 56/38/27 63/61/27 64/69/27
f 51/63/17 40/70/17 53/43/17
f 60/71/16 57/62/16 59/65/16
f 60/71/17 61/64/17 62/72/17
f 49/73/28 59/65/28 57/62/28
f 56/38/29 58/60/29 50/74/29
f 53/43/30 62/72/30 61/64/30
f 52/40/31 62/72/31 54/45/31
f 50/74/32 60/71/32 52/40/32
f 5/5/1 88/75/1 7/11/1
f 16/76/33 14/77/33 65/48/33
f 32/78/34 28/79/34 65/48/34
f 38/80/35 36/81/35 65/48/35
f 12/82/36 10/83/36 65/48/36
f 22/84/37 20/85/37 65/48/37
f 34/86/38 32/78/38 65/48/38
f 44/87/39 42/88/39 65/48/39
f 8/89/40 6/46/40 65/48/40
f 18/90/41 16/76/41 65/48/41
f 4/47/42 2/91/42 65/48/42
f 40/92/43 38/80/43 65/48/43
f 14/77/44 12/82/44 65/48/44
f 24/93/45 22/84/45 65/48/45
f 36/81/46 34/86/46 65/48/46
f 2/91/47 44/87/47 65/48/47
f 10/83/48 8/89/48 65/48/48
f 28/79/49 24/93/49 65/48/49
f 20/85/50 18/90/50 65/48/50
f 42/88/51 40/92/51 65/48/51
f 7/11/6 100/94/6 98/95/6
f 87/96/52 100/94/52 88/75/52
f 93/8/53 67/2/53 68/97/53
f 82/98/54 73/99/54 71/100/54
f 84/15/55 71/100/55 69/101/55
f 78/23/56 76/102/56 74/103/56
f 84/15/57 70/104/57 83/16/57
f 81/18/58 75/105/58 79/20/58
f 72/106/7 69/101/7 71/100/7
f 75/105/8 71/100/8 73/99/8
f 80/107/9 20/108/9 78/23/9
f 83/16/59 72/106/59 81/18/59
f 80/107/8 16/109/8 18/110/8
f 77/22/60 75/105/60 76/102/60
f 82/98/7 14/111/7 16/109/7
f 78/23/61 73/99/61 80/107/61
f 74/103/9 75/105/9 73/99/9
f 3/3/6 92/112/6 4/4/6
f 2/113/62 66/114/62 85/115/62
f 6/116/62 89/117/62 86/118/62
f 6/119/3 99/120/3 101/121/3
f 95/122/53 97/123/53 96/124/53
f 91/125/53 85/126/53 66/127/53
f 91/125/63 102/128/63 96/124/63
f 93/8/64 95/122/64 92/112/64
f 90/7/65 94/129/65 93/8/65
f 91/125/66 97/123/66 90/7/66
f 105/130/52 103/131/52 104/132/52
f 99/120/52 89/133/52 98/95/52
f 101/121/67 104/132/67 100/94/67
f 100/94/68 103/131/68 98/95/68
f 92/112/69 99/120/69 91/125/69
f 99/120/70 103/131/70 102/128/70
f 105/130/71 92/112/71 95/122/71
f 95/122/72 102/128/72 105/130/72
f 1/1/1 68/97/1 67/2/1
f 4/4/2 6/119/2 5/5/2
f 68/97/3 1/1/3 93/8/3
f 2/6/3 85/126/3 90/7/3
f 93/8/3 1/1/3 2/6/3
f 8/9/4 10/12/4 9/10/4
f 10/12/5 12/14/5 11/13/5
f 13/17/6 11/13/6 83/16/6
f 12/14/6 14/111/6 84/15/6
f 83/16/6 11/13/6 12/14/6
f 13/17/7 83/16/7 81/18/7
f 15/19/8 81/18/8 79/20/8
f 19/134/9 17/21/9 77/22/9
f 77/22/73 78/23/73 19/134/73
f 21/25/10 19/134/10 78/23/10
f 78/23/10 20/108/10 22/24/10
f 22/24/11 24/27/11 23/26/11
f 26/30/12 23/26/12 29/29/12
f 28/28/12 27/34/12 25/59/12
f 27/34/12 30/58/12 25/59/12
f 29/29/12 23/26/12 24/27/12
f 28/28/12 25/59/12 29/29/12
f 26/30/13 29/29/13 48/31/13
f 28/28/14 32/35/14 31/33/14
f 32/35/15 34/37/15 33/36/15
f 35/39/3 33/36/3 50/74/3
f 34/37/3 36/67/3 49/73/3
f 34/37/3 49/73/3 55/66/3
f 56/38/3 50/74/3 33/36/3
f 34/37/3 55/66/3 56/38/3
f 35/39/16 50/74/16 52/40/16
f 52/40/17 54/45/17 39/42/17
f 41/50/18 39/42/18 54/45/18
f 53/43/18 40/70/18 42/44/18
f 41/50/18 54/45/18 42/44/18
f 42/44/20 44/135/20 43/49/20
f 44/51/21 2/6/21 1/1/21
f 43/52/1 1/1/1 30/53/1
f 3/3/1 5/5/1 26/136/1
f 7/11/1 9/10/1 26/136/1
f 11/13/1 13/17/1 26/136/1
f 15/19/1 17/21/1 26/136/1
f 19/134/1 21/25/1 26/136/1
f 26/136/1 30/53/1 3/3/1
f 21/25/1 23/26/1 26/136/1
f 13/17/1 15/19/1 26/136/1
f 5/5/1 7/11/1 26/136/1
f 41/137/1 43/52/1 30/53/1
f 37/55/1 39/138/1 30/53/1
f 33/139/1 35/54/1 30/53/1
f 27/140/1 31/141/1 30/53/1
f 19/134/1 26/136/1 17/21/1
f 9/10/1 11/13/1 26/136/1
f 39/138/1 41/137/1 30/53/1
f 31/141/1 33/139/1 30/53/1
f 3/3/1 30/53/1 1/1/1
f 47/32/12 48/31/12 46/56/12
f 26/30/22 47/32/22 45/57/22
f 25/59/23 30/58/23 45/57/23
f 29/29/24 25/59/24 46/56/24
f 58/60/3 64/69/3 63/61/3
f 51/63/25 53/43/25 61/64/25
f 55/66/26 49/73/26 57/62/26
f 51/63/16 49/73/16 36/67/16
f 56/38/27 55/66/27 63/61/27
f 51/63/17 38/68/17 40/70/17
f 60/71/16 58/60/16 57/62/16
f 60/71/17 59/65/17 61/64/17
f 49/73/28 51/63/28 59/65/28
f 56/38/29 64/69/29 58/60/29
f 53/43/30 54/45/30 62/72/30
f 52/40/31 60/71/31 62/72/31
f 50/74/32 58/60/32 60/71/32
f 5/5/1 87/96/1 88/75/1
f 89/133/6 8/9/6 98/95/6
f 7/11/6 88/75/6 100/94/6
f 98/95/6 8/9/6 7/11/6
f 87/96/52 101/121/52 100/94/52
f 93/8/53 92/112/53 67/2/53
f 82/98/54 80/107/54 73/99/54
f 84/15/55 82/98/55 71/100/55
f 78/23/56 77/22/56 76/102/56
f 84/15/57 69/101/57 70/104/57
f 81/18/58 72/106/58 75/105/58
f 72/106/7 70/104/7 69/101/7
f 75/105/8 72/106/8 71/100/8
f 80/107/9 18/110/9 20/108/9
f 83/16/59 70/104/59 72/106/59
f 80/107/8 82/98/8 16/109/8
f 77/22/60 79/20/60 75/105/60
f 82/98/7 84/15/7 14/111/7
f 78/23/61 74/103/61 73/99/61
f 74/103/9 76/102/9 75/105/9
f 66/127/6 4/4/6 91/125/6
f 3/3/6 67/2/6 92/112/6
f 91/125/6 4/4/6 92/112/6
f 2/113/62 4/142/62 66/114/62
f 6/116/62 8/143/62 89/117/62
f 87/96/3 5/5/3 101/121/3
f 6/119/3 86/144/3 99/120/3
f 101/121/3 5/5/3 6/119/3
f 95/122/53 94/129/53 97/123/53
f 91/125/53 90/7/53 85/126/53
f 91/125/74 99/120/74 102/128/74
f 93/8/64 94/129/64 95/122/64
f 90/7/65 97/123/65 94/129/65
f 91/125/66 96/124/66 97/123/66
f 105/130/52 102/128/52 103/131/52
f 99/120/52 86/144/52 89/133/52
f 101/121/67 105/130/67 104/132/67
f 100/94/68 104/132/68 103/131/68
f 92/112/69 101/121/69 99/120/69
f 99/120/70 98/95/70 103/131/70
f 105/130/75 101/121/75 92/112/75
f 95/122/72 96/124/72 102/128/72
