# Blender v2.78 (sub 0) OBJ File: 'Builder.blend'
# www.blender.org
o Cube_Cube.002
v -3.237437 -0.019579 3.237437
v -3.237437 6.455296 3.237437
v -3.237437 -0.019579 -3.237437
v -3.237437 6.455296 -3.237437
v 3.237437 -0.019579 3.237437
v 3.237437 6.455296 3.237437
v 3.237437 -0.019579 -3.237437
v 3.237437 6.455296 -3.237437
v -1.448128 4.117712 3.237436
v -1.522361 2.072310 3.237436
v -0.113163 2.145314 3.237437
v -0.178577 4.139338 3.237437
v -1.448128 4.117712 2.492464
v -1.522361 2.072310 2.492464
v -0.113163 2.145314 2.492465
v -0.178577 4.139338 2.492465
v 0.531945 -0.019579 3.237437
v 2.563998 -0.019579 3.237437
v 0.607619 1.679602 3.237437
v 2.594235 0.396008 3.237437
v 0.677499 3.248163 3.237437
v 2.805146 3.294751 3.237437
v 0.531945 -0.019579 2.718135
v 2.563998 -0.019579 2.718135
v 0.607619 1.679602 2.718135
v 2.594235 0.396008 2.718135
v 0.677499 3.248163 2.718135
v 2.805146 3.294751 2.718135
v -3.237437 4.010824 -0.888137
v -3.237438 2.251611 -1.058990
v -3.237437 2.346656 1.266071
v -3.237437 3.935326 1.608184
v -2.644774 4.010824 -0.888137
v -2.644776 2.251611 -1.058990
v -2.644774 2.346656 1.266071
v -2.644774 3.935326 1.608184
v 1.146993 4.096905 -3.237437
v 2.162277 2.032506 -3.237437
v -0.525100 2.146953 -3.237437
v -1.006041 4.202595 -3.237437
v 1.146993 4.096905 -2.364736
v 2.162277 2.032506 -2.364736
v -0.525100 2.146953 -2.364736
v -1.006041 4.202595 -2.364736
v 3.237437 -0.019579 -0.470017
v 3.237437 -0.019579 -2.458929
v 3.237437 3.685798 -0.361573
v 3.237437 3.766343 -2.474505
v 2.858184 -0.019579 -0.470017
v 2.858184 -0.019579 -2.458929
v 2.858184 3.685798 -0.361573
v 2.858184 3.766343 -2.474505
v -2.163916 7.817843 3.237437
v -1.684990 7.817843 -3.237437
v -1.375041 7.567206 -2.651142
v 2.189187 6.580613 -2.651142
v -2.499136 6.580613 -2.651142
v -1.903017 7.653563 2.989726
v -2.782390 6.537435 2.989726
v 2.521491 6.537435 2.989726
vt 0.2649 0.9570
vt 0.0654 0.6114
vt 0.0654 0.8418
vt 0.2649 0.9570
vt 0.2649 0.4962
vt 0.0654 0.8418
vt 0.4278 0.8895
vt 0.1020 0.5637
vt 0.0345 0.7266
vt 0.0345 0.4962
vt 0.4953 0.4962
vt 0.4953 0.9570
vt 0.4953 0.7266
vt 0.4278 0.5637
vt 0.5898 0.4551
vt 0.9260 0.0329
vt 0.9240 0.4567
vt 0.0345 0.4962
vt 0.4953 0.9570
vt 0.0345 0.9570
vt 0.4953 0.7266
vt 0.2649 0.4962
vt 0.0654 0.8418
vt 0.4953 0.4962
vt 0.0345 0.9570
vt 0.0345 0.4962
vt 0.0345 0.4962
vt 0.4953 0.9570
vt 0.4953 0.4962
vt 0.0345 0.9570
vt 0.0345 0.4962
vt 0.4953 0.4962
vt 0.0345 0.9570
vt 0.0345 0.4962
vt 0.4953 0.4962
vt 0.0345 0.9570
vt 0.0345 0.4962
vt 0.0345 0.9570
vt 0.0345 0.4962
vt 0.4003 0.5402
vt 0.1295 0.5402
vt 0.2649 0.9570
vt 0.4953 0.4962
vt 0.0345 0.9570
vt 0.0345 0.4962
vt 0.4953 0.4962
vt 0.0345 0.9570
vt 0.0345 0.4962
vt 0.4953 0.4962
vt 0.0345 0.4962
vt 0.4953 0.4962
vt 0.0345 0.9570
vt 0.0345 0.4962
vt 0.4953 0.4962
vt 0.0345 0.9570
vt 0.0345 0.4962
vt 0.4953 0.4962
vt 0.0345 0.4962
vt 0.4953 0.4962
vt 0.0345 0.9570
vt 0.0345 0.4962
vt 0.4644 0.6114
vt 0.0654 0.6114
vt 0.0654 0.8418
vt 0.4953 0.4962
vt 0.0345 0.9570
vt 0.0345 0.4962
vt 0.4953 0.4962
vt 0.0345 0.9570
vt 0.0345 0.4962
vt 0.4953 0.4962
vt 0.0345 0.4962
vt 0.0345 0.4962
vt 0.4953 0.9570
vt 0.0345 0.9570
vt 0.4953 0.4962
vt 0.0345 0.9570
vt 0.0345 0.4962
vt 0.2649 0.4962
vt 0.0654 0.6114
vt 0.0654 0.8418
vt 0.4953 0.4962
vt 0.0345 0.9570
vt 0.0345 0.4962
vt 0.4953 0.4962
vt 0.0345 0.9570
vt 0.0345 0.4962
vt 0.4953 0.4962
vt 0.0345 0.9570
vt 0.0345 0.4962
vt 0.4953 0.4962
vt 0.0345 0.4962
vt 0.0345 0.4962
vt 0.4953 0.9570
vt 0.0345 0.9570
vt 0.4953 0.4962
vt 0.0345 0.9570
vt 0.0345 0.4962
vt 0.4953 0.4962
vt 0.0345 0.9570
vt 0.0345 0.4962
vt 0.4953 0.4962
vt 0.0345 0.9570
vt 0.0345 0.4962
vt 0.4953 0.4962
vt 0.0345 0.4962
vt 0.0345 0.4962
vt 0.4953 0.4962
vt 0.4953 0.9570
vt 0.5614 0.0312
vt 0.4546 0.4567
vt 0.4479 0.0330
vt 0.0345 0.4962
vt 0.4953 0.9570
vt 0.0345 0.9570
vt 0.4953 0.4962
vt 0.0345 0.9570
vt 0.0345 0.4962
vt 0.4953 0.4962
vt 0.0345 0.9570
vt 0.0345 0.4962
vt 0.0345 0.4962
vt 0.4953 0.9570
vt 0.0345 0.9570
vt 0.0345 0.4962
vt 0.4953 0.4962
vt 0.4953 0.9570
vt 0.4953 0.4962
vt 0.0345 0.9570
vt 0.0345 0.4962
vt 0.0345 0.4962
vt 0.4953 0.9570
vt 0.0345 0.9570
vt 0.4644 0.8418
vt 0.4644 0.6114
vt 0.2649 0.4962
vt 0.4644 0.8418
vt 0.4644 0.6114
vt 0.0654 0.6114
vt 0.1020 0.8895
vt 0.2649 0.9570
vt 0.4953 0.7266
vt 0.4278 0.5637
vt 0.2649 0.4962
vt 0.1020 0.8895
vt 0.0345 0.7266
vt 0.4278 0.8895
vt 0.2649 0.4962
vt 0.1020 0.5637
vt 0.4953 0.4962
vt 0.1497 0.9261
vt 0.3801 0.9261
vt 0.4644 0.8418
vt 0.0654 0.6114
vt 0.0345 0.7266
vt 0.1497 0.5271
vt 0.4644 0.6114
vt 0.3801 0.5271
vt 0.4953 0.4962
vt 0.4953 0.9570
vt 0.4953 0.9570
vt 0.4953 0.9570
vt 0.4953 0.9570
vt 0.0458 0.7978
vt 0.4840 0.7978
vt 0.4953 0.9570
vt 0.4953 0.9570
vt 0.4953 0.9570
vt 0.4953 0.9570
vt 0.4644 0.8418
vt 0.2649 0.4962
vt 0.4953 0.9570
vt 0.4953 0.9570
vt 0.4953 0.9570
vt 0.4953 0.4962
vt 0.4953 0.9570
vt 0.4644 0.8418
vt 0.4644 0.6114
vt 0.4953 0.9570
vt 0.4953 0.9570
vt 0.4953 0.9570
vt 0.4953 0.4962
vt 0.4953 0.9570
vt 0.4953 0.9570
vt 0.4953 0.9570
vt 0.4953 0.4962
vt 0.4953 0.9570
vt 0.4953 0.4962
vt 0.4953 0.4962
vn -1.0000 -0.0000 0.0000
vn 0.0000 0.0000 -1.0000
vn 1.0000 -0.0000 0.0000
vn 0.0000 0.0000 1.0000
vn 0.0000 -1.0000 0.0000
vn 0.2668 0.9638 0.0000
vn 0.0170 -0.9999 0.0000
vn -0.0517 0.9987 0.0000
vn -0.9995 -0.0328 0.0000
vn 0.9993 -0.0363 0.0000
vn -0.9974 0.0726 0.0000
vn 0.0219 -0.9998 0.0000
vn 0.0000 1.0000 0.0000
vn 0.9990 -0.0445 0.0000
vn 0.0000 -0.9995 -0.0302
vn 0.0000 0.9992 -0.0408
vn 0.0000 0.2105 -0.9776
vn 0.0000 -0.0967 0.9953
vn -0.8973 -0.4413 0.0000
vn -0.0490 -0.9988 0.0000
vn 0.0425 0.9991 0.0000
vn 0.9737 0.2278 0.0000
vn 0.0000 0.0041 1.0000
vn 0.0000 0.0293 -0.9996
vn 0.0000 -0.9993 -0.0381
vn -0.7855 0.6189 0.0000
vn 0.0000 0.9492 0.3147
vn 0.0000 0.9779 -0.2090
vn 0.5480 -0.6244 -0.5566
vn -0.2575 -0.9302 -0.2615
vn -0.2282 -0.9047 0.3596
vn 0.4936 -0.3889 0.7779
vn 0.2446 0.9695 0.0181
vn -0.6589 0.7507 -0.0487
s off
f 1/1/1 30/2/1 3/3/1
f 3/4/2 39/5/2 7/6/2
f 8/7/3 47/8/3 48/9/3
f 5/10/4 20/11/4 18/12/4
f 46/13/5 45/14/5 3/4/5
f 54/15/6 6/16/6 8/17/6
f 15/18/4 13/19/4 14/20/4
f 12/21/4 21/22/4 6/23/4
f 9/24/7 16/25/7 12/26/7
f 10/27/8 15/28/8 14/20/8
f 12/29/9 15/30/9 11/31/9
f 10/32/10 13/33/10 9/34/10
f 26/35/4 23/36/4 24/37/4
f 20/11/11 24/38/11 18/39/11
f 11/40/4 10/41/4 17/42/4
f 21/43/12 28/44/12 22/45/12
f 28/46/4 25/47/4 26/48/4
f 18/49/13 23/36/13 17/50/13
f 22/51/11 26/52/11 20/53/11
f 19/54/14 27/55/14 21/56/14
f 17/57/14 25/47/14 19/58/14
f 33/59/1 35/60/1 36/61/1
f 29/62/1 2/63/1 4/64/1
f 29/65/15 36/66/15 32/67/15
f 31/68/16 34/69/16 30/70/16
f 32/71/17 35/60/17 31/72/17
f 29/73/18 34/74/18 33/75/18
f 41/76/2 43/77/2 44/78/2
f 40/79/2 4/80/2 8/81/2
f 38/82/19 41/83/19 37/84/19
f 37/85/20 44/86/20 40/87/20
f 39/88/21 42/89/21 38/90/21
f 40/91/22 43/77/22 39/92/22
f 50/93/3 51/94/3 49/95/3
f 48/96/23 50/97/23 46/98/23
f 45/99/24 51/100/24 47/101/24
f 47/102/25 52/103/25 48/104/25
f 46/105/13 49/95/13 45/106/13
f 56/107/2 57/108/2 55/109/2
f 53/110/26 4/111/26 2/112/26
f 2/113/27 60/114/27 59/115/27
f 4/116/28 56/117/28 8/118/28
f 54/119/29 57/120/29 4/121/29
f 54/122/30 56/123/30 55/124/30
f 59/125/4 60/126/4 58/127/4
f 53/128/31 60/129/31 6/130/31
f 53/131/32 59/132/32 58/133/32
f 1/1/1 2/134/1 32/135/1
f 31/136/1 30/2/1 1/1/1
f 1/1/1 32/135/1 31/136/1
f 3/4/2 4/137/2 40/138/2
f 39/5/2 38/139/2 7/6/2
f 3/4/2 40/138/2 39/5/2
f 46/140/3 7/141/3 48/9/3
f 6/142/3 5/143/3 47/8/3
f 5/143/3 45/144/3 47/8/3
f 48/9/3 7/141/3 8/7/3
f 6/142/3 47/8/3 8/7/3
f 1/145/5 3/4/5 17/146/5
f 7/147/5 46/13/5 3/4/5
f 45/14/5 5/148/5 18/149/5
f 17/146/5 3/4/5 45/14/5
f 45/14/5 18/149/5 17/146/5
f 54/15/33 53/110/33 6/16/33
f 15/18/4 16/150/4 13/19/4
f 2/151/4 1/1/4 10/152/4
f 2/151/4 10/152/4 9/153/4
f 20/154/4 5/155/4 22/156/4
f 22/156/4 5/155/4 6/23/4
f 6/23/4 2/151/4 12/21/4
f 12/21/4 11/157/4 21/22/4
f 2/151/4 9/153/4 12/21/4
f 21/22/4 22/156/4 6/23/4
f 11/157/4 19/158/4 21/22/4
f 9/24/7 13/19/7 16/25/7
f 10/27/8 11/159/8 15/28/8
f 12/29/9 16/160/9 15/30/9
f 10/32/10 14/161/10 13/33/10
f 26/35/4 25/162/4 23/36/4
f 20/11/11 26/163/11 24/38/11
f 1/164/4 17/42/4 10/41/4
f 19/165/4 11/40/4 17/42/4
f 21/43/12 27/166/12 28/44/12
f 28/46/4 27/166/4 25/47/4
f 18/49/13 24/167/13 23/36/13
f 22/51/11 28/168/11 26/52/11
f 19/54/14 25/162/14 27/55/14
f 17/57/14 23/169/14 25/47/14
f 33/59/1 34/74/1 35/60/1
f 4/64/1 3/4/1 30/170/1
f 29/62/1 32/171/1 2/63/1
f 4/64/1 30/170/1 29/62/1
f 29/65/15 33/172/15 36/66/15
f 31/68/16 35/173/16 34/69/16
f 32/71/17 36/174/17 35/60/17
f 29/73/18 30/175/18 34/74/18
f 41/76/2 42/176/2 43/77/2
f 8/81/2 7/141/2 38/177/2
f 37/178/2 40/79/2 8/81/2
f 8/81/2 38/177/2 37/178/2
f 38/82/19 42/176/19 41/83/19
f 37/85/20 41/179/20 44/86/20
f 39/88/21 43/180/21 42/89/21
f 40/91/22 44/181/22 43/77/22
f 50/93/3 52/182/3 51/94/3
f 48/96/23 52/183/23 50/97/23
f 45/99/24 49/184/24 51/100/24
f 47/102/25 51/94/25 52/103/25
f 46/105/13 50/185/13 49/95/13
f 53/110/34 54/15/34 4/111/34
f 2/113/27 6/186/27 60/114/27
f 4/116/28 57/187/28 56/117/28
f 54/119/29 55/109/29 57/120/29
f 54/122/30 8/188/30 56/123/30
f 53/128/31 58/127/31 60/129/31
f 53/131/32 2/189/32 59/132/32
