# Blender v2.78 (sub 0) OBJ File: 'Hammer.blend'
# www.blender.org
o Cube_Cube.002
v 1.070225 2.352669 -1.070225
v 1.070225 1.989126 0.475178
v 1.070225 1.940932 -0.320879
v 1.070225 0.212217 0.344730
v -1.070225 0.212217 0.302788
v 0.316714 0.212218 -1.070225
v -1.070225 2.352669 -1.070225
v 1.913391 3.753884 -1.913391
v 1.070225 2.352668 1.070226
v -1.070225 2.352668 1.070226
v 0.461042 2.025666 1.070227
v 0.550236 1.953766 -1.070225
v -0.495336 1.755497 -1.070226
v -1.070224 1.861796 -0.412114
v -1.070225 1.738672 0.347848
v -1.913391 3.753884 1.913392
v -3.463068 5.116926 -3.463067
v -1.913391 3.753884 -1.913391
v 1.913391 3.753884 1.913392
v 3.463068 5.116926 -3.463067
v 1.712665 8.013009 -3.463067
v 3.463068 9.243100 -3.463067
v 3.463068 5.116925 3.463069
v -3.463068 5.116925 3.463069
v 0.190059 11.385987 -3.463066
v 3.463068 9.243098 3.463069
v -1.136380 7.193109 3.463070
v -3.463068 9.243098 3.463069
v -3.463067 8.153364 1.335930
v -3.463069 6.823868 1.066776
v 3.463069 6.850711 1.424940
v 3.463068 9.148853 3.463069
v 2.872398 9.283430 2.944146
v -0.022153 11.024086 2.944147
v -2.516654 9.356760 2.944146
v -2.126932 10.136171 -0.480539
v -1.404504 10.566293 -0.408813
v -0.257077 11.385985 3.463070
v 2.872398 9.356760 2.944146
v -2.541086 9.429852 -2.872020
v 2.574213 9.429852 -2.872020
v 0.156931 11.012481 -2.872019
v -3.463068 9.243100 -3.463067
v -3.048279 6.823868 1.066776
v -3.048278 7.904920 -1.055833
v -3.048279 6.635489 -1.498188
v -3.048277 8.153364 1.335930
v -3.463068 7.904920 -1.055833
v -3.463069 6.635489 -1.498188
v -1.153948 8.093859 3.463069
v -1.136380 7.193109 3.130618
v -1.153948 8.093859 3.130618
v 1.396242 6.963529 3.463070
v 1.348928 8.248146 3.130616
v 1.396242 6.963529 3.130618
v 1.348928 8.248146 3.463068
v 3.016273 7.904151 -1.896613
v 3.016273 6.850711 1.424940
v 3.016271 6.456507 -2.007052
v 3.463068 7.904151 -1.896613
v 3.463067 8.103433 1.517432
v 3.463066 6.456507 -2.007052
v 3.016272 8.103433 1.517432
v -0.499006 7.656550 -2.552420
v 1.324698 6.668777 -2.552421
v -1.565260 6.802242 -2.552422
v -0.499006 7.656550 -3.463066
v -1.565260 6.802242 -3.463068
v 1.712665 8.013008 -2.552421
v 1.324698 6.668777 -3.463067
v 0.378333 0.212219 0.691342
v -0.603718 1.976903 0.691345
v -0.653937 0.212219 0.691342
v -0.603718 1.976902 1.070229
v 0.461042 2.025667 0.691344
v -0.653936 0.212217 1.070225
v 0.378334 0.212217 1.070225
v 0.516124 1.940932 -0.320879
v 0.516124 0.212217 0.344730
v 0.516124 0.212218 -0.540223
v 1.070225 0.212218 -0.540223
v 0.516123 1.989126 0.475178
v -0.495336 1.755497 -0.344946
v 0.316714 0.212218 -0.344946
v -0.408450 0.212218 -0.344946
v -0.408450 0.212218 -1.070225
v 0.550236 1.953766 -0.344945
v -0.732360 1.738672 0.347848
v -0.732360 0.212218 -0.424982
v -0.732360 0.212217 0.302788
v -1.070225 0.212218 -0.424982
v -0.732359 1.861796 -0.412114
v -1.438297 11.431243 -0.436331
v -2.169392 11.627787 0.171123
v -1.350355 11.439688 0.514134
v -1.348870 10.634922 0.541652
v -2.057220 10.182768 0.198640
v -2.251494 11.644826 -0.508057
v 1.070225 0.212218 -1.070225
v 1.070225 0.212217 1.070225
v -1.070225 0.212218 -1.070225
v -1.070225 0.212217 1.070225
vt 0.8081 0.2845
vt 0.7564 0.2706
vt 0.7790 0.2708
vt 0.7689 0.2501
vt 0.7705 0.2326
vt 0.7811 0.2453
vt 0.8139 0.2077
vt 0.8698 0.3447
vt 0.7295 0.2769
vt 0.7359 0.2009
vt 0.7401 0.2515
vt 0.8010 0.2594
vt 0.7983 0.2332
vt 0.7854 0.2169
vt 0.7678 0.2161
vt 0.6744 0.1406
vt 0.9791 0.0355
vt 0.8742 0.1456
vt 0.6690 0.3389
vt 0.2251 0.5033
vt 0.0858 0.4208
vt 0.0276 0.5050
vt 0.5637 0.4489
vt 0.9801 0.4500
vt 0.5648 0.0355
vt 0.7358 0.9467
vt 0.9601 0.5498
vt 0.9600 0.9468
vt 0.2253 0.5300
vt 0.1269 0.6422
vt 0.0279 0.5317
vt 0.2223 0.1719
vt 0.0778 0.2749
vt 0.1415 0.2872
vt 0.2253 0.5300
vt 0.1432 0.6283
vt 0.0324 0.5317
vt 0.3867 0.8319
vt 0.3022 0.6941
vt 0.3810 0.5740
vt 0.5852 0.7756
vt 0.6333 0.7715
vt 0.2760 0.3248
vt 0.2525 0.4748
vt 0.2776 0.5029
vt 0.2807 0.8611
vt 0.2534 0.5751
vt 0.2778 0.5296
vt 0.2067 0.5035
vt 0.2046 0.4752
vt 0.2112 0.5035
vt 0.2776 0.5039
vt 0.2518 0.3960
vt 0.2529 0.5154
vt 0.3043 0.5027
vt 0.3301 0.2151
vt 0.3322 0.4599
vt 0.3045 0.5251
vt 0.3337 0.6390
vt 0.3327 0.5233
vt 0.3060 0.7042
vt 0.3332 0.5732
vt 0.3045 0.5294
vt 0.3765 0.4595
vt 0.3744 0.2147
vt 0.2998 0.3445
vt 0.3222 0.4648
vt 0.2713 0.5668
vt 0.3323 0.5875
vt 0.3551 0.5289
vt 0.2408 0.5498
vt 0.3553 0.5488
vt 0.2713 0.5668
vt 0.2083 0.6826
vt 0.3323 0.5875
vt 0.3422 0.5290
vt 0.2196 0.5499
vt 0.2195 0.5301
vt 0.2591 0.5297
vt 0.3229 0.5490
vt 0.3227 0.5292
vt 0.2710 0.5296
vt 0.3319 0.5490
vt 0.2712 0.5495
vt 0.2620 0.5297
vt 0.3052 0.5453
vt 0.2621 0.5456
vt 0.3181 0.7618
vt 0.4073 0.8600
vt 0.2143 0.8616
vt 0.2550 0.5810
vt 0.3045 0.4616
vt 0.3165 0.5827
vt 0.2772 0.4610
vt 0.2623 0.5809
vt 0.2783 0.5808
vt 0.2783 0.5831
vt 0.2613 0.4620
vt 0.2772 0.4618
vt 0.2546 0.5298
vt 0.3162 0.5452
vt 0.3161 0.5293
vt 0.2702 0.4280
vt 0.3192 0.2686
vt 0.3395 0.4327
vt 0.2733 0.7862
vt 0.2098 0.8617
vt 0.2623 0.6228
vt 0.3401 0.5023
vt 0.2706 0.4816
vt 0.3399 0.4810
vt 0.2613 0.5030
vt 0.3210 0.4811
vt 0.2611 0.4816
vt 0.5426 0.5006
vt 0.3791 0.4806
vt 0.3792 0.5020
vt 0.1949 0.5036
vt 0.3589 0.4808
vt 0.3591 0.5022
vt 0.2826 0.4923
vt 0.3306 0.5792
vt 0.3230 0.4409
vt 0.2810 0.3132
vt 0.3215 0.2618
vt 0.2039 0.1720
vt 0.3042 0.4921
vt 0.3487 0.5976
vt 0.3478 0.4917
vt 0.3037 0.4411
vt 0.3485 0.5790
vt 0.3049 0.5794
vt 0.3473 0.4407
vt 0.3299 0.5024
vt 0.2652 0.4594
vt 0.2656 0.5030
vt 0.7617 0.2423
vt 0.7506 0.2316
vt 0.7623 0.2370
vt 0.7439 0.2239
vt 0.7472 0.2437
vt 0.7660 0.2350
vt 0.7639 0.2442
vt 0.7722 0.2617
vt 0.7707 0.2534
vt 0.7737 0.2541
vt 0.7765 0.2506
vt 0.7669 0.2603
vt 0.7897 0.2424
vt 0.7849 0.2437
vt 0.7853 0.2418
vt 0.7812 0.2392
vt 0.7888 0.2465
vt 0.7726 0.2212
vt 0.7754 0.2313
vt 0.7723 0.2305
vt 0.7769 0.2338
vt 0.7797 0.2226
vt 0.8160 0.2065
vt 0.8175 0.2071
vt 0.8167 0.2071
vt 0.9150 0.2616
vt 0.5900 0.7367
vt 0.4931 0.5496
vt 0.6381 0.7170
vt 0.7561 0.0864
vt 0.8171 0.2062
vt 0.8682 0.1033
vt 0.7081 0.2616
vt 0.7798 0.2503
vt 0.7642 0.2488
vt 0.7809 0.2350
vt 0.7667 0.2328
vt 0.2223 0.1719
vt 0.1500 0.4016
vt 0.1424 0.2634
vt 0.7141 0.5495
vt 0.2282 0.8615
vt 0.1390 0.7634
vt 0.0838 0.6418
vt 0.1516 0.4099
vt 0.2251 0.5033
vt 0.0248 0.1736
vt 0.2282 0.8615
vt 0.1635 0.7924
vt 0.0832 0.6244
vt 0.3832 0.8319
vt 0.4931 0.9465
vt 0.2513 0.3363
vt 0.2556 0.8330
vt 0.2010 0.4753
vt 0.2763 0.3505
vt 0.3014 0.1712
vt 0.3058 0.6817
vt 0.3343 0.7024
vt 0.2584 0.4525
vt 0.2406 0.5299
vt 0.2584 0.4525
vt 0.4058 0.6809
vt 0.2054 0.3511
vt 0.3424 0.5489
vt 0.2593 0.5496
vt 0.3318 0.5291
vt 0.3051 0.5293
vt 0.2070 0.5302
vt 0.2566 0.7601
vt 0.2629 0.6402
vt 0.2614 0.4611
vt 0.2613 0.4611
vt 0.2624 0.5832
vt 0.2547 0.5457
vt 0.2592 0.2647
vt 0.2070 0.5302
vt 0.2115 0.5302
vt 0.3426 0.7908
vt 0.4073 0.8600
vt 0.2708 0.5029
vt 0.3212 0.5025
vt 0.5425 0.4792
vt 0.1947 0.4822
vt 0.2664 0.5983
vt 0.2067 0.5035
vt 0.2649 0.4192
vt 0.4013 0.1703
vt 0.3051 0.5980
vt 0.3296 0.4589
vn 1.0000 -0.0000 0.0000
vn -0.0000 -1.0000 -0.0000
vn 0.0000 -0.5156 -0.8568
vn 0.0000 0.0000 1.0000
vn -0.0000 0.0000 -1.0000
vn -1.0000 -0.0000 -0.0000
vn -0.6604 -0.7509 -0.0000
vn 0.0000 -0.5156 0.8568
vn 0.8568 -0.5156 -0.0000
vn -0.8568 -0.5156 -0.0000
vn 0.6604 -0.7509 -0.0000
vn 0.0000 -0.7509 -0.6604
vn 0.0000 -0.7509 0.6604
vn 0.5478 0.8366 0.0000
vn -0.5071 0.8612 -0.0339
vn -0.5085 0.8604 -0.0344
vn -0.5087 0.8603 -0.0344
vn -0.4668 -0.8105 0.3539
vn 0.0132 0.9714 0.2369
vn -0.6600 0.0000 0.7513
vn 0.4273 -0.6393 0.6393
vn 0.0000 0.9535 -0.3013
vn -0.4780 -0.7302 -0.4882
vn 0.4495 -0.7663 -0.4591
vn 0.0000 -0.9946 0.1033
vn 0.0000 0.9973 -0.0732
vn 0.0000 0.1984 -0.9801
vn 0.0000 -0.3291 0.9443
vn 0.9998 0.0195 0.0000
vn 0.0615 -0.9981 0.0000
vn 0.0903 0.9959 0.0000
vn -0.9993 -0.0368 0.0000
vn 0.0000 -0.0761 0.9971
vn 0.0000 0.0736 -0.9973
vn 0.0000 -0.9983 0.0583
vn 0.0000 0.9935 -0.1141
vn 0.1591 -0.9873 -0.0000
vn 0.0461 0.9989 0.0000
vn 0.6253 -0.7804 0.0000
vn -0.9608 0.2773 0.0000
vn 0.9996 -0.0284 -0.0000
vn 0.0458 -0.9990 -0.0000
vn 0.0000 1.0000 0.0000
vn -0.9990 0.0456 0.0000
vn 0.0000 -0.9982 0.0604
vn 0.0000 -0.1259 0.9920
vn 0.0000 0.0732 -0.9973
vn 0.1863 -0.9825 0.0000
vn 0.9984 0.0562 0.0000
vn -0.9911 0.1329 0.0000
vn 0.0000 -0.9871 -0.1599
vn 0.0000 0.0295 -0.9996
vn 0.0000 -0.0078 1.0000
vn 0.2358 0.9713 -0.0305
vn 0.9957 -0.0013 -0.0921
vn -0.5411 0.8409 0.0090
vn -0.9901 -0.0788 0.1158
vn -0.9912 -0.0758 0.1089
vn -0.9899 -0.0796 0.1177
vn -0.4275 -0.0160 0.9039
vn 0.0804 -0.0286 -0.9964
vn 0.4989 0.8661 0.0322
vn -0.5057 0.8621 -0.0326
vn -0.5057 0.8621 -0.0316
vn 0.2546 0.9670 -0.0065
vn 0.9974 0.0370 -0.0611
vn -0.5557 0.8314 -0.0000
vn -0.5557 0.8314 -0.0061
vn -0.9914 -0.0749 0.1069
vn -0.3801 0.0309 0.9244
vn 0.1044 -0.0095 -0.9945
s 1
f 1/1/1 2/2/1 3/3/1
f 4/4/2 5/5/2 6/6/2
f 7/7/3 8/8/3 1/1/3
f 9/9/4 10/10/4 11/11/4
f 7/7/5 12/12/5 13/13/5
f 10/10/6 14/14/6 15/15/6
f 16/16/7 17/17/7 18/18/7
f 9/9/8 16/16/8 10/10/8
f 1/1/9 19/19/9 9/9/9
f 10/10/10 18/18/10 7/7/10
f 20/20/5 21/21/5 22/22/5
f 8/8/11 23/23/11 19/19/11
f 18/18/12 20/24/12 8/8/12
f 19/19/13 24/25/13 16/16/13
f 25/26/14 26/27/14 22/28/14
f 24/29/4 27/30/4 28/31/4
f 24/32/6 29/33/6 30/34/6
f 23/35/1 31/36/1 32/37/1
f 33/38/4 34/39/4 35/40/4
f 25/26/15 36/41/16 37/42/17
f 38/43/18 39/44/18 26/45/18
f 32/46/19 35/47/19 28/48/19
f 26/49/20 33/50/20 32/51/20
f 38/52/21 35/53/21 34/54/21
f 22/55/22 40/56/22 41/57/22
f 25/58/23 41/59/23 42/60/23
f 25/61/24 40/62/24 43/63/24
f 41/64/5 40/65/5 42/66/5
f 44/67/6 45/68/6 46/69/6
f 29/70/25 45/71/25 47/72/25
f 48/73/6 43/74/6 49/75/6
f 30/76/26 46/77/26 49/78/26
f 29/79/27 44/80/27 30/81/27
f 48/82/28 46/83/28 45/84/28
f 50/85/29 51/86/29 52/87/29
f 53/88/4 23/89/4 32/90/4
f 54/91/4 51/92/4 55/93/4
f 50/94/30 54/95/30 56/96/30
f 53/97/31 51/98/31 27/99/31
f 56/100/32 55/101/32 53/102/32
f 57/103/1 58/104/1 59/105/1
f 60/106/1 22/107/1 61/108/1
f 62/109/33 57/110/33 59/111/33
f 61/112/34 58/113/34 63/114/34
f 61/115/35 57/116/35 60/117/35
f 62/118/36 58/119/36 31/120/36
f 64/121/5 65/122/5 66/123/5
f 67/124/5 68/125/5 43/126/5
f 67/127/37 69/128/37 64/129/37
f 68/130/38 65/131/38 70/132/38
f 67/127/39 66/133/39 68/130/39
f 70/134/40 69/135/40 21/136/40
f 71/137/4 72/138/4 73/139/4
f 74/140/41 73/139/41 72/138/41
f 74/140/42 75/141/42 11/11/42
f 76/142/43 71/137/43 73/139/43
f 11/11/44 71/137/44 77/143/44
f 78/144/1 79/145/1 80/146/1
f 2/2/45 78/144/45 3/3/45
f 81/147/43 79/145/43 4/4/43
f 81/147/46 78/144/46 80/146/46
f 2/2/47 79/145/47 82/148/47
f 83/149/5 84/150/5 85/151/5
f 12/12/48 83/149/48 13/13/48
f 86/152/43 84/150/43 6/6/43
f 13/13/49 85/151/49 86/152/49
f 12/12/50 84/150/50 87/153/50
f 88/154/6 89/155/6 90/156/6
f 14/14/51 88/154/51 15/15/51
f 5/5/43 89/155/43 91/157/43
f 15/15/52 90/156/52 5/5/52
f 14/14/53 89/155/53 92/158/53
f 93/159/54 94/160/54 95/161/54
f 96/162/55 93/159/55 95/161/55
f 97/163/56 28/164/56 96/165/56
f 36/166/57 94/160/58 98/167/59
f 96/162/60 94/160/60 97/168/60
f 37/169/61 98/167/61 93/159/61
f 81/147/1 99/170/1 3/3/1
f 9/9/1 100/171/1 2/2/1
f 100/171/1 4/4/1 2/2/1
f 3/3/1 99/170/1 1/1/1
f 9/9/1 2/2/1 1/1/1
f 91/157/2 101/172/2 86/152/2
f 6/6/2 99/170/2 81/147/2
f 91/157/2 86/152/2 5/5/2
f 102/173/2 5/5/2 76/142/2
f 100/171/2 77/143/2 4/4/2
f 76/142/2 5/5/2 77/143/2
f 86/152/2 6/6/2 5/5/2
f 81/147/2 4/4/2 6/6/2
f 77/143/2 5/5/2 4/4/2
f 7/7/3 18/18/3 8/8/3
f 77/143/4 100/171/4 11/11/4
f 10/10/4 102/173/4 74/140/4
f 102/173/4 76/142/4 74/140/4
f 11/11/4 100/171/4 9/9/4
f 10/10/4 74/140/4 11/11/4
f 86/152/5 101/172/5 13/13/5
f 1/1/5 99/170/5 12/12/5
f 99/170/5 6/6/5 12/12/5
f 13/13/5 101/172/5 7/7/5
f 1/1/5 12/12/5 7/7/5
f 5/5/6 102/173/6 15/15/6
f 7/7/6 101/172/6 14/14/6
f 101/172/6 91/157/6 14/14/6
f 15/15/6 102/173/6 10/10/6
f 7/7/6 14/14/6 10/10/6
f 16/16/7 24/25/7 17/17/7
f 9/9/8 19/19/8 16/16/8
f 1/1/9 8/8/9 19/19/9
f 10/10/10 16/16/10 18/18/10
f 20/20/5 17/174/5 70/175/5
f 70/175/5 21/21/5 20/20/5
f 17/174/5 68/176/5 70/175/5
f 8/8/11 20/24/11 23/23/11
f 18/18/12 17/17/12 20/24/12
f 19/19/13 23/23/13 24/25/13
f 25/26/62 38/177/62 26/27/62
f 24/29/4 23/178/4 53/179/4
f 27/30/4 50/180/4 28/31/4
f 24/29/4 53/179/4 27/30/4
f 49/181/6 17/182/6 24/32/6
f 24/32/6 28/183/6 29/33/6
f 30/34/6 49/181/6 24/32/6
f 23/35/1 20/184/1 62/185/1
f 31/36/1 61/186/1 32/37/1
f 23/35/1 62/185/1 31/36/1
f 33/38/4 39/187/4 34/39/4
f 96/165/63 38/177/63 25/26/15
f 25/26/15 43/188/64 36/41/16
f 37/42/17 96/165/63 25/26/15
f 38/43/18 34/189/18 39/44/18
f 32/46/19 33/190/19 35/47/19
f 26/49/20 39/191/20 33/50/20
f 38/52/21 28/192/21 35/53/21
f 22/55/22 43/193/22 40/56/22
f 25/58/23 22/194/23 41/59/23
f 25/61/24 42/195/24 40/62/24
f 44/67/6 47/196/6 45/68/6
f 29/70/25 48/197/25 45/71/25
f 48/73/6 29/198/6 43/74/6
f 43/74/6 17/199/6 49/75/6
f 29/198/6 28/200/6 43/74/6
f 30/76/26 44/201/26 46/77/26
f 29/79/27 47/202/27 44/80/27
f 48/82/28 49/203/28 46/83/28
f 50/85/29 27/204/29 51/86/29
f 32/90/4 28/205/4 56/206/4
f 56/206/4 53/88/4 32/90/4
f 28/205/4 50/207/4 56/206/4
f 54/91/4 52/208/4 51/92/4
f 50/94/30 52/209/30 54/95/30
f 53/97/31 55/210/31 51/98/31
f 56/100/32 54/211/32 55/101/32
f 57/103/1 63/212/1 58/104/1
f 26/213/1 32/214/1 61/108/1
f 60/106/1 62/215/1 22/107/1
f 26/213/1 61/108/1 22/107/1
f 62/215/1 20/216/1 22/107/1
f 62/109/33 60/217/33 57/110/33
f 61/112/34 31/218/34 58/113/34
f 61/115/35 63/219/35 57/116/35
f 62/118/36 59/220/36 58/119/36
f 64/121/5 69/221/5 65/122/5
f 43/126/5 22/222/5 21/223/5
f 43/126/5 21/223/5 67/124/5
f 68/125/5 17/224/5 43/126/5
f 67/127/37 21/225/37 69/128/37
f 68/130/38 66/133/38 65/131/38
f 67/127/39 64/129/39 66/133/39
f 70/134/40 65/226/40 69/135/40
f 71/137/4 75/141/4 72/138/4
f 74/140/41 76/142/41 73/139/41
f 74/140/42 72/138/42 75/141/42
f 76/142/43 77/143/43 71/137/43
f 11/11/44 75/141/44 71/137/44
f 78/144/1 82/148/1 79/145/1
f 2/2/45 82/148/45 78/144/45
f 81/147/43 80/146/43 79/145/43
f 81/147/46 3/3/46 78/144/46
f 2/2/47 4/4/47 79/145/47
f 83/149/5 87/153/5 84/150/5
f 12/12/48 87/153/48 83/149/48
f 86/152/43 85/151/43 84/150/43
f 13/13/49 83/149/49 85/151/49
f 12/12/50 6/6/50 84/150/50
f 88/154/6 92/158/6 89/155/6
f 14/14/51 92/158/51 88/154/51
f 5/5/43 90/156/43 89/155/43
f 15/15/52 88/154/52 90/156/52
f 14/14/53 91/157/53 89/155/53
f 93/159/65 98/167/65 94/160/65
f 96/162/66 37/169/66 93/159/66
f 97/163/67 36/41/67 28/164/67
f 28/164/68 38/177/68 96/165/68
f 36/41/67 43/188/67 28/164/67
f 36/166/57 97/168/69 94/160/58
f 96/162/70 95/161/70 94/160/70
f 37/169/71 36/166/71 98/167/71
