# Blender v2.78 (sub 0) OBJ File: 'Builder.blend'
# www.blender.org
o Icosphere_Icosphere.001
v 128.000000 0.009990 64.000000
v -128.000000 0.010010 -64.000000
v -128.000000 0.009990 64.000000
v 128.000000 0.010010 -64.000000
v 128.000000 -61.932247 63.999996
v -128.000000 -61.932247 63.999996
vt 0.9999 0.2420
vt 0.0001 0.7419
vt 0.0001 0.2420
vt 0.9999 0.7419
vt 0.9999 0.0001
vt 0.0001 0.0001
vn 0.0000 0.7071 0.7071
vn 0.0000 1.0000 0.0000
vn 0.0000 -0.0000 1.0000
s 1
f 1/1/1 2/2/2 3/3/1
f 1/1/1 4/4/2 2/2/2
f 3/3/1 5/5/3 1/1/1
f 3/3/1 6/6/3 5/5/3
