# Blender v2.78 (sub 0) OBJ File: 'MexicanMafia.blend'
# www.blender.org
o Icosphere_Icosphere.001
v -0.063165 -0.001182 -0.072663
v 0.657157 0.371846 -0.602881
v 0.663694 0.371846 0.448558
v -0.334268 0.371849 0.779687
v -0.957572 0.371846 -0.067111
v -0.344831 0.371846 -0.921579
v 0.831242 0.975434 -0.078215
v 0.218502 0.975434 0.776253
v -0.783486 0.975434 0.457555
v -0.790024 0.975434 -0.593884
v 0.207939 0.975431 -0.925014
v 0.364069 0.099600 0.233701
v 0.360227 0.099600 -0.384315
v 0.787466 0.318861 -0.077952
v 0.194669 0.318862 -0.883294
v -0.228723 0.099600 -0.571640
v -0.222515 0.099601 0.428335
v 0.204719 0.318862 0.734703
v -0.588880 0.099600 -0.069400
v -0.748233 0.318862 0.431602
v -0.754442 0.318861 -0.568380
v 0.519580 0.673640 -0.885318
v -0.069372 0.673640 -1.072644
v 0.889793 0.673640 0.230440
v 0.885954 0.673640 -0.387582
v -0.056958 0.673640 0.927318
v 0.529634 0.673640 0.732687
v -1.012283 0.673640 0.242256
v -0.645910 0.673640 0.739992
v -0.655964 0.673640 -0.878013
v -1.016122 0.673640 -0.375766
v 0.621904 1.028418 -0.576928
v 0.628113 1.028419 0.423054
v -0.320999 1.028418 0.737969
v -0.913795 1.028419 -0.067374
v -0.331048 1.028418 -0.880029
v 0.462550 1.247680 -0.075926
v 0.096186 1.247679 -0.573661
v 0.102393 1.247680 0.426314
v -0.486556 1.247680 0.238989
v -0.490398 1.247680 -0.379027
v 0.369877 1.527207 -0.066668
v 0.064951 1.527207 0.341036
v -0.417028 1.527209 0.177021
v -0.409976 1.527207 -0.332052
v 0.076358 1.527207 -0.482656
v 0.283647 1.822428 0.186726
v -0.202688 1.822428 0.337330
v -0.496206 1.822428 -0.078658
v -0.191281 1.822428 -0.486362
v 0.290699 1.822427 -0.322347
v -0.063165 2.004881 -0.072663
v 0.012139 1.353057 0.170501
v 0.191369 1.353057 -0.069140
v 0.266675 1.501292 0.174026
v 0.273379 1.501292 -0.310126
v 0.018844 1.353057 -0.313649
v -0.271160 1.353058 0.074098
v -0.195857 1.501292 0.317264
v -0.267014 1.353057 -0.225127
v -0.475011 1.501292 -0.078366
v -0.185006 1.501292 -0.466115
v 0.399367 1.674818 -0.215901
v 0.226841 1.674818 -0.460412
v 0.215991 1.674818 0.322969
v 0.395224 1.674818 0.083326
v -0.353171 1.674818 0.315086
v -0.069870 1.674818 0.411494
v -0.521553 1.674818 -0.228652
v -0.525696 1.674818 0.070575
v -0.056460 1.674818 -0.556820
v -0.342321 1.674818 -0.468295
v 0.348682 1.848344 -0.066960
v 0.058676 1.848344 0.320789
v -0.399708 1.848344 0.164800
v -0.393004 1.848344 -0.319352
v 0.069528 1.848344 -0.462590
v 0.140684 1.955587 0.079801
v 0.144831 1.955586 -0.219424
v -0.145174 1.955587 0.168323
v -0.317698 1.955587 -0.076186
v -0.138469 1.955587 -0.315828
v 1.014266 1.295776 0.605268
v 1.101589 1.243042 0.434660
v 1.051006 1.121550 0.562124
v 0.835945 1.316486 -0.441595
v 0.729775 1.316486 -0.585836
v 0.882124 1.252946 -0.586782
v 1.057709 0.621550 0.227936
v 1.057709 1.002663 0.227936
v 1.296381 0.621550 0.304856
v 1.296381 1.002663 0.304856
v 1.410757 0.621550 0.528014
v 1.410757 1.002663 0.528014
v 1.333837 0.621550 0.766687
v 1.333837 1.002663 0.766687
v 1.110678 0.621550 0.881063
v 1.110678 1.002663 0.881063
v 0.872006 0.621550 0.804142
v 0.872006 1.002663 0.804142
v 0.757630 0.621550 0.580984
v 0.757630 1.002663 0.580984
v 0.834550 0.621550 0.342312
v 0.834550 1.002663 0.342312
v 1.226836 1.050474 0.386677
v 1.066389 1.050474 0.334968
v 1.303725 1.050474 0.536695
v 1.252015 1.050474 0.697142
v 1.101998 1.050474 0.774031
v 0.941551 1.050474 0.722321
v 0.864662 1.050474 0.572304
v 0.916372 1.050474 0.411857
v 1.188128 0.797345 0.432218
v 1.071221 0.797345 0.394540
v 1.244152 0.797345 0.541526
v 1.206475 0.797345 0.658434
v 1.097167 0.797345 0.714458
v 0.980259 0.797345 0.676780
v 0.924235 0.797345 0.567472
v 0.961912 0.797345 0.450565
v 1.202912 1.201879 0.376628
v 1.106899 1.201879 0.349316
v 1.183265 1.229689 0.404940
v 1.108035 1.229689 0.383540
v 0.955093 1.196872 0.726776
v 1.051106 1.196872 0.754088
v 0.974740 1.223853 0.698465
v 1.049970 1.223853 0.719865
v 1.099279 1.178940 0.398136
v 1.174474 1.178732 0.419597
v 1.065540 1.155120 0.703205
v 0.990660 1.153576 0.681431
v 1.033452 1.259353 0.563735
v 1.108683 1.259353 0.585135
v 1.112072 1.199508 0.584134
v 1.037034 1.198840 0.562516
v 0.866032 0.990006 -0.553925
v 0.862956 1.076899 -0.744902
v 1.046711 1.076899 -0.615866
v 0.980773 1.076900 -0.401229
v 0.756266 1.076899 -0.397615
v 0.683453 1.076899 -0.610016
v 0.975798 1.217498 -0.710235
v 1.048612 1.217498 -0.497834
v 0.869108 1.217498 -0.362949
v 0.685354 1.217498 -0.491985
v 0.751291 1.217497 -0.706621
v 0.819808 1.383268 -0.615439
v 0.972231 1.013482 -0.590333
v 0.864224 1.013482 -0.666177
v 0.970424 1.064556 -0.702586
v 0.756907 1.064557 -0.699147
v 0.758716 1.013482 -0.586895
v 0.933475 1.013483 -0.464173
v 1.039675 1.064557 -0.500580
v 0.801514 1.013482 -0.462049
v 0.868957 1.064557 -0.372296
v 0.694196 1.064556 -0.495018
v 0.796780 1.147198 -0.755931
v 0.691271 1.147198 -0.676648
v 1.036752 1.147198 -0.682210
v 0.928743 1.147198 -0.758056
v 1.040793 1.147198 -0.431203
v 1.079551 1.147198 -0.557363
v 0.803321 1.147198 -0.349794
v 0.935284 1.147198 -0.351920
v 0.652513 1.147198 -0.550487
v 0.695313 1.147198 -0.425640
v 0.863107 1.229840 -0.735554
v 1.037868 1.229840 -0.612832
v 0.975157 1.229840 -0.408703
v 0.761640 1.229840 -0.405264
v 0.692389 1.229840 -0.607270
v 0.894988 1.343892 -0.595159
v 0.835764 1.343892 -0.594206
v 0.914195 1.343892 -0.539129
v 0.866844 1.343892 -0.503547
v 0.818370 1.343892 -0.537586
v 0.797332 1.390207 -0.645350
v 0.931753 1.390208 -0.647514
v 0.975349 1.390208 -0.520341
v 0.867874 1.390208 -0.439581
v 0.757853 1.390208 -0.516839
v 0.866032 1.355335 -0.553925
v 0.910252 1.383268 -0.616895
v 0.939585 1.383268 -0.531329
v 0.867272 1.383268 -0.476990
v 0.793246 1.383268 -0.528972
v 1.328899 1.146872 0.645475
v 1.334506 1.143169 0.643301
v 1.195085 0.930415 0.668998
v 1.294055 1.154700 0.519297
v 1.288447 1.158402 0.521471
v 1.154634 0.941946 0.544995
v 1.211914 1.122107 0.752069
v 1.212727 1.126458 0.746565
v 1.251988 0.921250 0.599217
v 1.084285 1.119474 0.722068
v 1.083472 1.115123 0.727571
v 1.123547 0.914267 0.574720
v 0.988742 1.113487 0.725691
v 0.993393 1.117525 0.722237
v 1.020450 0.928548 0.552182
v 0.896215 1.168134 0.650535
v 0.891563 1.164096 0.653989
v 0.923271 0.979158 0.480480
v 1.111786 1.173855 0.456084
v 1.116768 1.172010 0.451430
v 1.217389 1.019517 0.630271
v 1.041344 1.073404 0.409787
v 1.036363 1.075248 0.414441
v 1.141965 0.920911 0.588628
v 1.119921 1.144782 0.588471
v 1.124084 1.144910 0.582768
v 1.294178 1.004935 0.712529
v 1.067382 1.035338 0.538897
v 1.063218 1.035209 0.544600
v 1.237475 0.895362 0.668658
v -0.245080 1.328280 -0.616435
v -0.242110 1.333469 -0.620194
v -0.035318 1.313414 -0.471205
v -0.191487 1.244979 -0.702369
v -0.194457 1.239789 -0.698611
v 0.015305 1.224923 -0.553381
v 0.295851 0.859911 -1.026885
v 0.300361 0.864188 -1.030237
v 0.351316 0.974948 -0.805518
v 0.397028 0.778257 -1.009803
v 0.392518 0.773980 -1.006450
v 0.447983 0.889017 -0.785084
v 0.586489 0.754767 -0.875980
v 0.588879 0.759722 -0.880408
v 0.350879 0.852053 -0.894326
v 0.613538 0.838595 -0.778835
v 0.611147 0.833640 -0.774407
v 0.375538 0.930926 -0.792753
v 0.614557 0.813353 -0.835301
v 0.616948 0.818308 -0.839729
v 0.378948 0.910639 -0.853647
v 0.641607 0.897182 -0.738156
v 0.639216 0.892226 -0.733728
v 0.403607 0.989513 -0.752074
v -0.152511 1.101560 0.756443
v -0.154045 1.100454 0.763247
v 0.000437 0.896820 0.757666
v -0.053072 1.176094 0.798308
v -0.051538 1.177199 0.791503
v 0.101410 0.972459 0.792727
v 0.030100 0.997556 0.809697
v 0.027934 1.000681 0.815648
v -0.182754 1.075168 0.691450
v -0.032389 0.890199 0.851717
v -0.030222 0.887073 0.845766
v -0.243077 0.964686 0.727519
v -0.030679 1.102396 0.785374
v -0.033416 1.101804 0.791858
v -0.015166 0.847852 0.768655
v 0.087033 1.105780 0.843067
v 0.089770 1.106373 0.836584
v 0.105283 0.851829 0.819864
v -0.856583 1.242578 -0.473064
v -0.859319 1.241985 -0.466581
v -0.841070 0.988033 -0.489784
v -0.738870 1.245962 -0.415371
v -0.736133 1.246554 -0.421855
v -0.720621 0.992010 -0.438574
vt 0.3591 0.3569
vt 0.3630 0.3210
vt 0.3951 0.3546
vt 0.3610 0.2790
vt 0.3208 0.3088
vt 0.3692 0.3856
vt 0.3389 0.3763
vt 0.3308 0.3456
vt 0.3098 0.2529
vt 0.4369 0.3585
vt 0.4135 0.3049
vt 0.4872 0.3140
vt 0.3717 0.4116
vt 0.4054 0.3971
vt 0.3932 0.4348
vt 0.3240 0.3907
vt 0.3452 0.4022
vt 0.3241 0.4104
vt 0.3048 0.3419
vt 0.3132 0.3690
vt 0.2888 0.3617
vt 0.4079 0.2308
vt 0.4605 0.4107
vt 0.3515 0.4266
vt 0.3042 0.3899
vt 0.2824 0.3193
vt 0.5130 0.2100
vt 0.2904 0.0125
vt 0.6994 0.0325
vt 0.4357 0.4770
vt 0.6994 0.4420
vt 0.3713 0.7029
vt 0.3270 0.4344
vt 0.3603 0.4643
vt 0.3000 0.4674
vt 0.2800 0.3863
vt 0.2984 0.4155
vt 0.2448 0.4133
vt 0.2421 0.2745
vt 0.2509 0.3512
vt 0.0124 0.3270
vt 0.3324 0.8637
vt 0.3459 0.8259
vt 0.3457 0.8298
vt 0.2181 0.8317
vt 0.2645 0.8308
vt 0.2595 0.8368
vt 0.1132 0.8455
vt 0.1664 0.8455
vt 0.1211 0.8913
vt 0.0878 0.8686
vt 0.1242 0.7421
vt 0.1211 0.7996
vt 0.0873 0.7714
vt 0.8942 0.2148
vt 0.8971 0.2644
vt 0.8663 0.2337
vt 0.8942 0.1311
vt 0.9013 0.1730
vt 0.8732 0.1540
vt 0.8973 0.0147
vt 0.8971 0.0816
vt 0.8467 0.0496
vt 0.0878 0.8224
vt 0.0856 0.7035
vt 0.8732 0.1920
vt 0.8663 0.1122
vt 0.1242 0.9488
vt 0.0856 0.9875
vt 0.0873 0.9195
vt 0.0602 0.7996
vt 0.0571 0.8455
vt 0.0124 0.8084
vt 0.8321 0.2466
vt 0.7784 0.2817
vt 0.8012 0.2183
vt 0.8541 0.1730
vt 0.8450 0.2062
vt 0.8234 0.1730
vt 0.8321 0.0993
vt 0.8450 0.1398
vt 0.8012 0.1277
vt 0.0602 0.8913
vt 0.0416 0.9453
vt 0.0124 0.8825
vt 0.7284 0.1289
vt 0.7775 0.1730
vt 0.7784 0.0642
vt 0.7284 0.2171
vt 0.0416 0.7456
vt 0.8467 0.2964
vt 0.8973 0.3312
vt 0.9623 0.0458
vt 0.9519 0.1305
vt 0.9519 0.2154
vt 0.9623 0.3002
vt 0.1794 0.9192
vt 0.1794 0.7718
vt 0.1343 0.5799
vt 0.0186 0.6852
vt 0.1162 0.4618
vt 0.2243 0.4526
vt 0.2612 0.4889
vt 0.2499 0.5781
vt 0.3482 0.8334
vt 0.4051 0.8527
vt 0.3410 0.7947
vt 0.2622 0.8407
vt 0.2957 0.8707
vt 0.2957 0.7780
vt 0.8790 0.4191
vt 0.9183 0.3881
vt 0.9139 0.4079
vt 0.8151 0.3484
vt 0.7560 0.3708
vt 0.7636 0.3369
vt 0.8053 0.3793
vt 0.7515 0.4090
vt 0.8042 0.4099
vt 0.7532 0.4497
vt 0.9716 0.4787
vt 0.9436 0.4324
vt 0.9716 0.4204
vt 0.9326 0.4742
vt 0.9277 0.4328
vt 0.8273 0.3583
vt 0.8202 0.3823
vt 0.9130 0.4508
vt 0.9184 0.4239
vt 0.8991 0.4366
vt 0.9662 0.3909
vt 0.8208 0.4083
vt 0.8633 0.4208
vt 0.8283 0.4331
vt 0.7856 0.5167
vt 0.8177 0.4981
vt 0.8166 0.5107
vt 0.8913 0.4450
vt 0.8738 0.4348
vt 0.9772 0.5251
vt 0.9460 0.5478
vt 0.9472 0.5348
vt 0.9048 0.4575
vt 0.8127 0.4443
vt 0.8865 0.4811
vt 0.8790 0.4922
vt 0.8539 0.4803
vt 0.8633 0.3697
vt 0.8594 0.3871
vt 0.8788 0.4640
vt 0.9133 0.5024
vt 0.9162 0.4773
vt 0.8594 0.4042
vt 0.8570 0.4648
vt 0.8543 0.4349
vt 0.8694 0.4609
vt 0.8850 0.4708
vt 0.9418 0.5357
vt 0.9429 0.5285
vt 0.9404 0.5544
vt 0.9405 0.5460
vt 0.9483 0.5807
vt 0.9609 0.5644
vt 0.8220 0.5099
vt 0.8221 0.4901
vt 0.8230 0.4999
vt 0.8013 0.5242
vt 0.8245 0.5321
vt 0.8118 0.5472
vt 0.8201 0.5209
vt 0.8872 0.5494
vt 0.8749 0.5339
vt 0.8872 0.5334
vt 0.9116 0.5433
vt 0.8410 0.5184
vt 0.8427 0.5097
vt 0.8413 0.4903
vt 0.8436 0.4985
vt 0.8436 0.5293
vt 0.9120 0.5620
vt 0.9124 0.5525
vt 0.9144 0.5318
vt 0.9175 0.5231
vt 0.5686 0.8059
vt 0.6142 0.8309
vt 0.5686 0.8482
vt 0.6223 0.8684
vt 0.6636 0.8572
vt 0.5228 0.8307
vt 0.7373 0.8473
vt 0.7655 0.8478
vt 0.7471 0.8705
vt 0.7216 0.8671
vt 0.6396 0.8894
vt 0.5688 0.8730
vt 0.5929 0.8680
vt 0.5812 0.8870
vt 0.5135 0.8689
vt 0.5441 0.8684
vt 0.5296 0.8886
vt 0.7517 0.8891
vt 0.7736 0.8771
vt 0.7673 0.9031
vt 0.7122 0.8840
vt 0.7321 0.8867
vt 0.7196 0.8995
vt 0.6072 0.8870
vt 0.5567 0.8875
vt 0.4939 0.8914
vt 0.7409 0.9017
vt 0.6932 0.8933
vt 0.5932 0.9019
vt 0.6187 0.9094
vt 0.5841 0.9621
vt 0.5451 0.9036
vt 0.5695 0.9045
vt 0.5605 0.9632
vt 0.4761 0.9257
vt 0.5178 0.9138
vt 0.5396 0.9754
vt 0.7292 0.9131
vt 0.7496 0.9185
vt 0.7293 0.9519
vt 0.6515 0.9169
vt 0.6824 0.9500
vt 0.6062 0.9714
vt 0.7282 0.7823
vt 0.7360 0.8032
vt 0.7243 0.7971
vt 0.7168 0.9576
vt 0.7054 0.9165
vt 0.6866 0.8219
vt 0.6716 0.8070
vt 0.6838 0.8069
vt 0.7421 0.9569
vt 0.7736 0.9260
vt 0.7176 0.8092
vt 0.7275 0.8247
vt 0.6868 0.7917
vt 0.6639 0.7828
vt 0.6868 0.8405
vt 0.6704 0.8199
vt 0.6869 0.9007
vt 0.4408 0.8964
vt 0.4711 0.8548
vt 0.6942 0.8664
vt 0.7099 0.8403
vt 0.6574 0.7919
vt 0.6597 0.8426
vt 0.6667 0.8189
vt 0.7537 0.7942
vt 0.7402 0.8056
vt 0.6665 0.8078
vt 0.7371 0.8222
vt 0.6513 0.8131
vt 0.6563 0.8343
vt 0.7537 0.8134
vt 0.9074 0.8216
vt 0.9726 0.8181
vt 0.9726 0.8216
vt 0.9039 0.9487
vt 0.8388 0.8216
vt 0.9039 0.8216
vt 0.9074 0.8216
vt 0.9726 0.8181
vt 0.9726 0.8216
vt 0.8388 0.9487
vt 0.9039 0.8216
vt 0.9039 0.9487
vt 0.9074 0.8181
vt 0.9726 0.8216
vt 0.9074 0.8216
vt 0.8388 0.9487
vt 0.9039 0.8216
vt 0.9039 0.9487
vt 0.9074 0.8181
vt 0.9726 0.8216
vt 0.9074 0.8216
vt 0.8388 0.9487
vt 0.9039 0.8216
vt 0.9039 0.9487
vt 0.9074 0.8216
vt 0.9726 0.8181
vt 0.9726 0.8216
vt 0.8388 0.9487
vt 0.9039 0.8216
vt 0.9039 0.9487
vt 0.9074 0.8216
vt 0.9726 0.8181
vt 0.9726 0.8216
vt 0.9039 0.9487
vt 0.8388 0.8216
vt 0.9039 0.8216
vt 0.9074 0.8216
vt 0.9726 0.8181
vt 0.9726 0.8216
vt 0.8388 0.9487
vt 0.9039 0.8216
vt 0.9039 0.9487
vt 0.9074 0.8181
vt 0.9726 0.8216
vt 0.9074 0.8216
vt 0.8388 0.9487
vt 0.9039 0.8216
vt 0.9039 0.9487
vt 0.9074 0.8216
vt 0.9726 0.8181
vt 0.9726 0.8216
vt 0.9039 0.9487
vt 0.8388 0.8216
vt 0.9039 0.8216
vt 0.9074 0.8181
vt 0.9726 0.8216
vt 0.9074 0.8216
vt 0.8388 0.9487
vt 0.9039 0.8216
vt 0.9039 0.9487
vt 0.9074 0.8181
vt 0.9726 0.8216
vt 0.9074 0.8216
vt 0.8388 0.9487
vt 0.9039 0.8216
vt 0.9039 0.9487
vt 0.9074 0.8181
vt 0.9726 0.8216
vt 0.9074 0.8216
vt 0.8388 0.9487
vt 0.9039 0.8216
vt 0.9039 0.9487
vt 0.9074 0.8181
vt 0.9726 0.8216
vt 0.9074 0.8216
vt 0.8388 0.9487
vt 0.9039 0.8216
vt 0.9039 0.9487
vt 0.8766 0.3917
vt 0.9412 0.3777
vt 0.7897 0.4802
vt 0.9772 0.5605
vt 0.8627 0.4936
vt 0.9610 0.5196
vt 0.9360 0.5667
vt 0.8066 0.4798
vt 0.8748 0.5500
vt 0.7512 0.7838
vt 0.9074 0.8181
vt 0.8388 0.9487
vt 0.9074 0.8181
vt 0.8388 0.8216
vt 0.9726 0.8181
vt 0.8388 0.8216
vt 0.9726 0.8181
vt 0.8388 0.8216
vt 0.9074 0.8181
vt 0.8388 0.8216
vt 0.9074 0.8181
vt 0.8388 0.9487
vt 0.9074 0.8181
vt 0.8388 0.8216
vt 0.9726 0.8181
vt 0.8388 0.8216
vt 0.9074 0.8181
vt 0.8388 0.9487
vt 0.9726 0.8181
vt 0.8388 0.8216
vt 0.9726 0.8181
vt 0.8388 0.8216
vt 0.9726 0.8181
vt 0.8388 0.8216
vt 0.9726 0.8181
vt 0.8388 0.8216
vn 0.2306 -0.9731 -0.0014
vn 0.3789 -0.7944 -0.4748
vn 0.0726 -0.9731 0.2188
vn -0.1857 -0.9731 0.1367
vn -0.1874 -0.9731 -0.1344
vn 0.4982 -0.4605 -0.7347
vn 0.8527 -0.4605 0.2468
vn 0.0288 -0.4605 0.8872
vn -0.8349 -0.4605 0.3015
vn -0.5448 -0.4605 -0.7009
vn 0.7915 -0.1844 -0.5826
vn 0.7987 -0.1844 0.5728
vn -0.2979 -0.1844 0.9366
vn -0.9828 -0.1844 0.0061
vn -0.3095 -0.1844 -0.9328
vn 0.5856 0.7944 -0.1614
vn 0.3345 0.7944 0.5070
vn -0.3789 0.7944 0.4748
vn -0.5686 0.7944 -0.2136
vn 0.0275 0.7944 -0.6068
vn -0.1443 0.8888 -0.4349
vn -0.3847 0.7944 -0.4700
vn -0.4582 0.8888 0.0028
vn -0.5659 0.7944 0.2207
vn -0.1389 0.8888 0.4367
vn 0.0350 0.7944 0.6064
vn 0.3509 -0.7434 -0.5693
vn 0.5875 0.7944 0.1541
vn -0.0165 -0.0247 -0.9996
vn 0.3281 0.7944 -0.5112
vn -0.0288 0.4605 -0.8872
vn -0.3030 0.2723 -0.9132
vn -0.5073 0.4605 -0.7284
vn -0.8527 0.4605 -0.2468
vn -0.9622 0.2723 0.0060
vn -0.8496 0.4605 0.2574
vn -0.4982 0.4605 0.7347
vn -0.2916 0.2723 0.9169
vn -0.0178 0.4605 0.8875
vn 0.5448 0.4605 0.7009
vn 0.7819 0.2723 0.5607
vn 0.8386 0.4605 0.2911
vn 0.8349 0.4605 -0.3015
vn 0.7749 0.2723 -0.5704
vn 0.5360 0.4605 -0.7076
vn -0.7987 0.1844 -0.5728
vn -0.7819 -0.2723 -0.5607
vn -0.8386 -0.4605 -0.2911
vn -0.7915 0.1844 0.5826
vn -0.7749 -0.2723 0.5704
vn -0.5360 -0.4605 0.7076
vn 0.3095 0.1844 0.9328
vn 0.3030 -0.2723 0.9132
vn 0.5073 -0.4605 0.7284
vn 0.9828 0.1844 -0.0061
vn 0.9622 -0.2723 -0.0060
vn 0.8496 -0.4605 -0.2574
vn 0.2979 0.1844 -0.9366
vn 0.2916 -0.2723 -0.9169
vn 0.0178 -0.4605 -0.8875
vn -0.3345 -0.7944 -0.5070
vn -0.3724 -0.8888 -0.2670
vn -0.5875 -0.7944 -0.1541
vn -0.5856 -0.7944 0.1614
vn -0.3690 -0.8888 0.2716
vn -0.3281 -0.7944 0.5112
vn -0.0275 -0.7944 0.6068
vn 0.1443 -0.8888 0.4349
vn 0.3847 -0.7944 0.4700
vn -0.0350 -0.7944 -0.6064
vn 0.1389 -0.8888 -0.4367
vn 0.0699 -0.9731 -0.2197
vn 0.5686 -0.7944 0.2136
vn 0.4582 -0.8888 -0.0028
vn 0.5659 -0.7944 -0.2207
vn 0.6860 -0.7003 -0.1973
vn 0.8426 -0.4568 -0.2853
vn 0.5317 -0.4568 0.7132
vn -0.5139 -0.4568 0.7261
vn -0.8494 -0.4568 -0.2644
vn -0.0110 -0.4568 -0.8895
vn 0.9831 -0.1826 0.0136
vn 0.2908 -0.1826 0.9392
vn -0.8033 -0.1826 0.5668
vn -0.7873 -0.1826 -0.5889
vn 0.3167 -0.1826 -0.9308
vn 0.5678 0.7914 0.2264
vn -0.0399 0.7914 0.6100
vn -0.5924 0.7914 0.1506
vn -0.3263 0.7914 -0.5169
vn 0.3908 0.7914 -0.4701
vn 0.0750 0.9725 -0.2204
vn 0.1488 0.8869 -0.4372
vn -0.0230 0.7914 -0.6109
vn -0.1864 0.9725 -0.1394
vn -0.3699 0.8869 -0.2766
vn -0.5880 0.7914 -0.1669
vn -0.1902 0.9725 0.1342
vn -0.3774 0.8869 0.2663
vn -0.3405 0.7914 0.5077
vn 0.0689 0.9725 0.2224
vn 0.1366 0.8869 0.4412
vn 0.3776 0.7914 0.4807
vn 0.2328 0.9725 0.0032
vn 0.4618 0.8869 0.0064
vn 0.5739 0.7914 -0.2106
vn 0.5139 0.4568 -0.7261
vn 0.3102 0.2698 -0.9116
vn 0.0356 0.4568 -0.8889
vn -0.5317 0.4568 -0.7132
vn -0.7711 0.2698 -0.5767
vn -0.8343 0.4568 -0.3086
vn -0.8426 0.4568 0.2853
vn -0.7868 0.2698 0.5551
vn -0.5513 0.4568 0.6982
vn 0.0110 0.4568 0.8895
vn 0.2848 0.2698 0.9198
vn 0.4936 0.4568 0.7400
vn 0.8494 0.4568 0.2644
vn 0.9628 0.2698 0.0133
vn 0.8564 0.4568 -0.2408
vn -0.2908 0.1826 -0.9392
vn -0.2848 -0.2698 -0.9198
vn -0.4936 -0.4568 -0.7400
vn -0.9831 0.1826 -0.0136
vn -0.9628 -0.2698 -0.0133
vn -0.8564 -0.4568 0.2408
vn -0.3167 0.1826 0.9308
vn -0.3102 -0.2698 0.9116
vn -0.0356 -0.4568 0.8889
vn 0.7873 0.1826 0.5889
vn 0.7711 -0.2698 0.5767
vn 0.8343 -0.4568 0.3086
vn 0.8033 0.1826 -0.5668
vn 0.7868 -0.2698 -0.5551
vn 0.5513 -0.4568 -0.6982
vn 0.0243 -0.7003 -0.7134
vn -0.1728 -0.8116 -0.5580
vn -0.4232 -0.7003 -0.5748
vn -0.6710 -0.7003 -0.2436
vn -0.5841 -0.8116 -0.0081
vn -0.6775 -0.7003 0.2249
vn -0.4390 -0.7003 0.5629
vn -0.1882 -0.8116 0.5530
vn 0.0045 -0.7003 0.7138
vn 0.4159 -0.7003 -0.5801
vn 0.4773 -0.8116 -0.3368
vn 0.3997 -0.7003 0.5914
vn 0.4678 -0.8116 0.3499
vn 0.6803 -0.7003 0.2163
vn 0.3558 0.8991 0.2551
vn 0.3459 0.9060 -0.2441
vn -0.1379 0.8991 -0.4155
vn -0.4378 0.8991 0.0027
vn -0.1327 0.8991 0.4172
vn 0.8972 0.0817 0.4340
vn -0.1574 -0.3908 0.9069
vn 0.1737 0.9625 -0.2086
vn 0.3690 0.8888 -0.2716
vn 0.5854 -0.6577 0.4740
vn -0.1062 0.9913 0.0781
vn 0.3067 0.0000 -0.9518
vn 0.8899 0.0000 -0.4561
vn 0.9518 0.0000 0.3067
vn 0.4561 0.0000 0.8899
vn -0.3067 0.0000 0.9518
vn -0.8899 0.0000 0.4561
vn 0.3863 0.9008 -0.1980
vn -0.9518 0.0000 -0.3067
vn -0.4561 0.0000 -0.8899
vn 0.0000 -1.0000 0.0000
vn -0.4456 0.2131 -0.8695
vn -0.2447 0.4474 0.8602
vn -0.1980 0.9008 -0.3863
vn 0.2471 0.4290 -0.8688
vn 0.4132 0.9008 0.1332
vn -0.3863 0.9008 0.1980
vn 0.1980 0.9008 0.3863
vn -0.4132 0.9008 -0.1332
vn 0.0000 1.0000 -0.0000
vn -0.8695 0.2131 0.4456
vn 0.9299 0.2131 0.2997
vn 0.2997 0.2131 -0.9299
vn -0.9299 0.2131 -0.2997
vn -0.2997 0.2131 0.9299
vn 0.4456 0.2131 0.8695
vn 0.8695 0.2131 -0.4456
vn 0.1775 0.7609 -0.6242
vn 0.8294 0.0175 0.5584
vn -0.9857 0.1455 -0.0855
vn -0.2858 -0.3629 0.8869
vn -0.1744 0.7704 0.6132
vn 0.9742 0.1919 0.1189
vn 0.2702 -0.4733 -0.8384
vn -0.8036 -0.0381 -0.5939
vn 0.2764 0.0317 -0.9605
vn -0.9202 0.0470 -0.3886
vn -0.9111 -0.1101 -0.3972
vn -0.0648 0.9716 0.2278
vn 0.9114 0.0448 0.4090
vn 0.0987 -0.9444 -0.3135
vn -0.0233 -0.9935 0.1115
vn 0.0414 0.9885 -0.1456
vn 0.9359 0.0472 0.3490
vn 0.1438 -0.9682 -0.2048
vn -0.1763 -0.7679 -0.6158
vn 0.2392 -0.9682 0.0735
vn 0.0040 -0.9682 0.2502
vn -0.2367 -0.9682 0.0812
vn -0.3152 -0.4294 -0.8463
vn 0.7075 -0.4295 -0.5613
vn 0.7524 -0.4295 0.4994
vn -0.2425 -0.4295 0.8699
vn -0.9023 -0.4295 0.0382
vn -0.0159 -0.1695 -0.9854
vn 0.9323 -0.1695 -0.3196
vn 0.5920 -0.1695 0.7879
vn -0.5664 -0.1695 0.8065
vn -0.9421 -0.1695 -0.2894
vn 0.2249 0.7307 -0.6446
vn 0.6826 0.7307 0.0147
vn 0.1970 0.7307 0.6537
vn -0.5608 0.7307 0.3894
vn -0.5436 0.7307 -0.4131
vn -0.0107 -0.7452 -0.6668
vn -0.6015 0.7773 -0.1848
vn -0.6817 0.7307 0.0366
vn -0.3832 -0.7452 0.5457
vn -0.3616 0.7773 0.5149
vn -0.1758 0.7307 0.6597
vn 0.6308 -0.7452 -0.2163
vn 0.3780 0.7772 0.5030
vn 0.5731 0.7307 0.3711
vn -0.6375 -0.7452 -0.1958
vn 0.5952 0.7773 -0.2040
vn 0.5300 0.7307 -0.4303
vn 0.4006 -0.7452 0.5331
vn -0.0101 0.7772 -0.6291
vn -0.2455 0.7307 -0.6371
vn -0.7524 0.4294 -0.4994
vn -0.9253 0.2511 -0.2843
vn -0.9030 0.4295 -0.0091
vn -0.7075 0.4295 0.5613
vn -0.5563 0.2511 0.7921
vn -0.2877 0.4295 0.8560
vn 0.3152 0.4294 0.8463
vn 0.5815 0.2511 0.7738
vn 0.7252 0.4295 0.5382
vn 0.9023 0.4295 -0.0382
vn 0.9156 0.2511 -0.3139
vn 0.7359 0.4295 -0.5234
vn 0.2425 0.4295 -0.8699
vn -0.0156 0.2511 -0.9678
vn -0.2704 0.4295 -0.8617
vn -0.9323 0.1695 0.3196
vn -0.9156 -0.2511 0.3139
vn -0.7359 -0.4295 0.5234
vn 0.0159 0.1695 0.9854
vn 0.0156 -0.2511 0.9678
vn 0.2704 -0.4294 0.8617
vn 0.9421 0.1695 0.2894
vn 0.9253 -0.2511 0.2843
vn 0.9030 -0.4295 0.0091
vn 0.5664 0.1695 -0.8065
vn 0.5563 -0.2511 -0.7921
vn 0.2877 -0.4294 -0.8560
vn -0.5920 0.1695 -0.7879
vn -0.5815 -0.2511 -0.7738
vn -0.7252 -0.4294 -0.5382
vn -0.6401 -0.7679 -0.0226
vn -0.4637 -0.8716 0.1589
vn -0.4916 -0.7679 0.4106
vn -0.2193 -0.7679 0.6018
vn 0.0079 -0.8716 0.4901
vn 0.2386 -0.7679 0.5944
vn 0.5046 -0.7679 0.3946
vn 0.4685 -0.8716 0.1439
vn 0.6391 -0.7679 -0.0432
vn -0.5424 -0.7679 -0.3407
vn -0.2945 -0.8716 -0.3918
vn -0.1503 -0.9682 -0.2001
vn 0.5312 -0.7679 -0.3580
vn 0.2817 -0.8716 -0.4011
vn 0.1564 -0.7679 -0.6211
vn 0.2136 0.9747 0.0656
vn -0.1342 0.9747 -0.1786
vn 0.0036 0.9747 0.2234
vn 0.1284 0.9747 -0.1829
vn -0.2114 0.9747 0.0725
vn 0.3914 0.9124 0.1202
vn 0.2353 0.9124 -0.3351
vn -0.2459 0.9124 -0.3273
vn -0.3873 0.9124 0.1328
vn 0.0066 0.9124 0.4093
vn 0.5236 0.8470 -0.0920
vn -0.7940 0.5243 0.3078
vn -0.1568 0.7859 0.5981
vn -0.1151 -0.6160 0.7793
vn -0.1241 0.7236 0.6789
vn -0.6587 -0.5718 0.4891
vn -0.4132 0.6039 -0.6816
vn -0.7053 0.2612 0.6590
vn -0.6819 0.5472 -0.4854
vn -0.5895 -0.0182 0.8075
vn -0.8208 0.0581 -0.5683
vn -0.4205 -0.7348 0.5322
vn -0.2170 -0.4501 -0.8662
vn -0.6387 -0.6056 0.4747
vn 0.9219 -0.3807 0.0718
vn -0.3385 -0.7016 0.6270
vn -0.5985 0.8011 -0.0048
vn 0.2173 0.1566 -0.9635
vn 0.8329 -0.3037 0.4627
vn 0.3067 -0.4426 -0.8426
vn -0.0607 0.9960 0.0654
vn 0.3875 0.0839 -0.9180
vn 0.3731 -0.7974 -0.4742
vn 0.3390 0.9060 0.2536
vn 0.3526 0.8991 -0.2595
vn -0.1252 0.9060 -0.4044
vn -0.4233 0.9060 -0.0059
vn -0.1364 0.9060 0.4008
vn -0.2433 -0.2812 0.9283
vn -0.0462 0.9984 -0.0331
vn -0.2712 0.4670 0.8416
vn 0.2739 0.4502 -0.8499
vn 0.1776 0.7608 -0.6242
vn 0.7799 0.1633 0.6042
vn 0.7969 0.1645 0.5812
vn -0.9644 0.2617 -0.0387
vn -0.9650 0.2608 -0.0280
vn -0.2592 -0.3380 0.9048
vn 0.9388 0.3364 0.0742
vn 0.9446 0.3282 -0.0013
vn 0.2567 -0.4595 -0.8503
vn -0.7408 0.0888 -0.6658
vn -0.7845 0.0912 -0.6134
vn 0.2734 0.0355 -0.9612
vn -0.9360 -0.0484 -0.3486
vn -0.9113 -0.0457 -0.4092
vn 0.9111 0.1101 0.3971
vn 0.1111 -0.9424 -0.3154
vn -0.0348 -0.9931 0.1122
vn 0.9202 -0.0470 0.3886
vn 0.6308 -0.7452 -0.2162
vn -0.8208 0.0582 -0.5683
vn -0.2171 -0.4501 -0.8662
s off
f 1/1/1 13/2/1 12/3/1
f 2/4/2 13/2/2 15/5/2
f 1/1/3 12/3/3 17/6/3
f 1/1/4 17/6/4 19/7/4
f 1/1/5 19/7/5 16/8/5
f 2/4/6 15/5/6 22/9/6
f 3/10/7 14/11/7 24/12/7
f 4/13/8 18/14/8 26/15/8
f 5/16/9 20/17/9 28/18/9
f 6/19/10 21/20/10 30/21/10
f 2/4/11 22/9/11 25/22/11
f 3/10/12 24/12/12 27/23/12
f 4/13/13 26/15/13 29/24/13
f 5/16/14 28/18/14 31/25/14
f 6/19/15 30/21/15 23/26/15
f 7/27/16 32/28/16 37/29/16
f 8/30/17 33/31/17 39/32/17
f 9/33/18 34/34/18 40/35/18
f 10/36/19 35/37/19 41/38/19
f 11/39/20 36/40/20 38/41/20
f 38/41/21 36/40/21 41/38/21
f 36/40/22 10/36/22 41/38/22
f 41/38/23 35/37/23 40/35/23
f 35/37/24 9/33/24 40/35/24
f 40/35/25 34/34/25 39/32/25
f 34/34/26 8/30/26 39/32/26
f 33/42/27 84/43/27 85/44/27
f 33/31/28 7/27/28 37/29/28
f 32/45/29 87/46/29 88/47/29
f 32/28/30 11/39/30 38/41/30
f 23/26/31 36/40/31 11/39/31
f 23/26/32 30/21/32 36/40/32
f 30/21/33 10/36/33 36/40/33
f 31/25/34 35/37/34 10/36/34
f 31/25/35 28/18/35 35/37/35
f 28/18/36 9/33/36 35/37/36
f 29/24/37 34/34/37 9/33/37
f 29/24/38 26/15/38 34/34/38
f 26/15/39 8/30/39 34/34/39
f 27/23/40 33/31/40 8/30/40
f 27/23/41 24/12/41 33/31/41
f 24/12/42 7/27/42 33/31/42
f 25/22/43 32/28/43 7/27/43
f 25/22/44 22/9/44 32/28/44
f 22/9/45 11/39/45 32/28/45
f 30/21/46 31/25/46 10/36/46
f 30/21/47 21/20/47 31/25/47
f 21/20/48 5/16/48 31/25/48
f 28/18/49 29/24/49 9/33/49
f 28/18/50 20/17/50 29/24/50
f 20/17/51 4/13/51 29/24/51
f 26/15/52 27/23/52 8/30/52
f 26/15/53 18/14/53 27/23/53
f 18/14/54 3/10/54 27/23/54
f 24/12/55 25/22/55 7/27/55
f 24/12/56 14/11/56 25/22/56
f 14/11/57 2/4/57 25/22/57
f 22/9/58 23/26/58 11/39/58
f 22/9/59 15/5/59 23/26/59
f 15/5/60 6/19/60 23/26/60
f 16/8/61 21/20/61 6/19/61
f 16/8/62 19/7/62 21/20/62
f 19/7/63 5/16/63 21/20/63
f 19/7/64 20/17/64 5/16/64
f 19/7/65 17/6/65 20/17/65
f 17/6/66 4/13/66 20/17/66
f 17/6/67 18/14/67 4/13/67
f 17/6/68 12/3/68 18/14/68
f 12/3/69 3/10/69 18/14/69
f 15/5/70 16/8/70 6/19/70
f 15/5/71 13/2/71 16/8/71
f 13/2/72 1/1/72 16/8/72
f 12/3/73 14/11/73 3/10/73
f 12/3/74 13/2/74 14/11/74
f 13/2/75 2/4/75 14/11/75
f 42/48/76 54/49/76 56/50/76
f 42/48/77 56/50/77 63/51/77
f 43/52/78 55/53/78 65/54/78
f 44/55/79 59/56/79 67/57/79
f 45/58/80 61/59/80 69/60/80
f 46/61/81 62/62/81 71/63/81
f 42/48/82 63/51/82 66/64/82
f 43/52/83 65/54/83 68/65/83
f 44/55/84 67/57/84 70/66/84
f 45/58/85 69/60/85 72/67/85
f 46/68/86 71/69/86 64/70/86
f 47/71/87 73/72/87 78/73/87
f 48/74/88 74/75/88 80/76/88
f 49/77/89 75/78/89 81/79/89
f 50/80/90 76/81/90 82/82/90
f 51/83/91 77/84/91 79/85/91
f 79/86/92 82/82/92 52/87/92
f 79/86/93 77/88/93 82/82/93
f 77/88/94 50/80/94 82/82/94
f 82/82/95 81/79/95 52/87/95
f 82/82/96 76/81/96 81/79/96
f 76/81/97 49/77/97 81/79/97
f 81/79/98 80/76/98 52/87/98
f 81/79/99 75/78/99 80/76/99
f 75/78/100 48/74/100 80/76/100
f 80/76/101 78/89/101 52/87/101
f 80/76/102 74/75/102 78/89/102
f 74/90/103 47/71/103 78/73/103
f 78/89/104 79/86/104 52/87/104
f 78/73/105 73/72/105 79/85/105
f 73/72/106 51/83/106 79/85/106
f 64/70/107 77/84/107 51/83/107
f 64/70/108 71/69/108 77/84/108
f 71/63/109 50/80/109 77/88/109
f 72/67/110 76/81/110 50/80/110
f 72/67/111 69/60/111 76/81/111
f 69/60/112 49/77/112 76/81/112
f 70/66/113 75/78/113 49/77/113
f 70/66/114 67/57/114 75/78/114
f 67/57/115 48/74/115 75/78/115
f 68/91/116 74/75/116 48/74/116
f 68/65/117 65/54/117 74/90/117
f 65/54/118 47/71/118 74/90/118
f 66/64/119 73/72/119 47/71/119
f 66/64/120 63/51/120 73/72/120
f 63/51/121 51/83/121 73/72/121
f 71/63/122 72/67/122 50/80/122
f 71/63/123 62/62/123 72/67/123
f 62/62/124 45/58/124 72/67/124
f 69/60/125 70/66/125 49/77/125
f 69/60/126 61/59/126 70/66/126
f 61/59/127 44/55/127 70/66/127
f 67/57/128 68/91/128 48/74/128
f 67/57/129 59/56/129 68/91/129
f 59/56/130 43/92/130 68/91/130
f 65/54/131 66/64/131 47/71/131
f 65/54/132 55/53/132 66/64/132
f 55/53/133 42/48/133 66/64/133
f 63/51/134 64/70/134 51/83/134
f 63/51/135 56/50/135 64/70/135
f 56/50/136 46/68/136 64/70/136
f 57/93/137 62/62/137 46/61/137
f 57/93/138 60/94/138 62/62/138
f 60/94/139 45/58/139 62/62/139
f 60/94/140 61/59/140 45/58/140
f 60/94/141 58/95/141 61/59/141
f 58/95/142 44/55/142 61/59/142
f 58/95/143 59/56/143 44/55/143
f 58/95/144 53/96/144 59/56/144
f 53/96/145 43/92/145 59/56/145
f 56/50/146 57/97/146 46/68/146
f 56/50/147 54/49/147 57/97/147
f 53/98/148 55/53/148 43/52/148
f 53/98/149 54/49/149 55/53/149
f 54/49/150 42/48/150 55/53/150
f 54/99/151 39/32/151 37/100/151
f 37/100/152 57/101/152 54/99/152
f 60/102/153 38/41/153 41/38/153
f 58/103/154 41/38/154 40/35/154
f 53/104/155 40/35/155 39/32/155
f 83/105/156 85/44/156 84/43/156
f 33/42/157 83/105/157 39/106/157
f 37/107/158 83/105/158 84/43/158
f 86/108/159 88/47/159 87/46/159
f 32/45/160 86/108/160 37/109/160
f 37/109/161 87/46/161 38/110/161
f 90/111/162 91/112/162 89/113/162
f 92/114/163 93/115/163 91/116/163
f 94/117/164 95/118/164 93/115/164
f 96/119/165 97/120/165 95/118/165
f 98/121/166 99/122/166 97/123/166
f 100/124/167 101/125/167 99/122/167
f 94/117/168 105/126/168 107/127/168
f 102/128/169 103/129/169 101/125/169
f 104/130/170 89/113/170 103/129/170
f 95/131/171 101/125/171 103/129/171
f 108/132/172 117/133/172 109/134/172
f 100/135/173 126/136/173 125/137/173
f 90/111/174 112/138/174 106/139/174
f 92/140/175 122/141/175 121/142/175
f 96/119/176 107/127/176 108/132/176
f 100/124/177 111/143/177 102/128/177
f 98/144/178 108/132/178 109/134/178
f 104/130/179 111/143/179 112/138/179
f 118/145/180 117/146/180 115/147/180
f 107/127/181 113/148/181 115/149/181
f 111/143/182 120/150/182 112/138/182
f 109/151/183 118/145/183 110/152/183
f 108/132/184 115/149/184 116/153/184
f 106/139/185 113/154/185 105/155/185
f 112/138/186 114/156/186 106/139/186
f 111/143/187 118/145/187 119/157/187
f 122/141/188 123/158/188 121/142/188
f 121/142/189 123/158/189 130/159/189
f 129/160/190 124/161/190 122/141/190
f 105/162/191 129/160/191 106/163/191
f 126/136/192 127/164/192 125/137/192
f 131/165/193 128/166/193 126/136/193
f 110/167/194 131/168/194 109/169/194
f 125/137/195 127/164/195 132/170/195
f 136/171/196 134/172/196 135/173/196
f 129/160/197 133/174/197 124/161/197
f 127/164/198 136/175/198 132/170/198
f 128/166/199 133/176/199 127/164/199
f 128/166/200 135/177/200 134/178/200
f 131/168/201 136/175/201 135/179/201
f 129/160/202 135/180/202 136/181/202
f 124/161/203 134/182/203 123/158/203
f 130/159/204 134/182/204 135/183/204
f 137/184/205 150/185/205 149/186/205
f 138/187/206 150/185/206 152/188/206
f 137/184/207 149/186/207 154/189/207
f 137/190/208 154/191/208 156/192/208
f 137/190/209 156/192/209 153/193/209
f 138/187/210 152/188/210 159/194/210
f 139/195/211 151/196/211 161/197/211
f 140/198/212 155/199/212 163/200/212
f 141/201/213 157/202/213 165/203/213
f 142/204/214 158/205/214 167/206/214
f 138/187/215 159/194/215 162/207/215
f 139/195/216 161/197/216 164/208/216
f 140/198/217 163/200/217 166/209/217
f 141/201/218 165/203/218 168/210/218
f 142/204/219 167/206/219 160/211/219
f 143/212/220 169/213/220 174/214/220
f 144/215/221 170/216/221 176/217/221
f 145/218/222 171/219/222 177/220/222
f 146/221/223 172/222/223 178/223/223
f 147/224/224 173/225/224 175/226/224
f 175/227/225 180/228/225 174/229/225
f 175/230/226 173/231/226 178/223/226
f 173/231/227 146/221/227 178/223/227
f 177/232/228 183/233/228 178/234/228
f 178/223/229 172/222/229 177/235/229
f 172/222/230 145/236/230 177/235/230
f 176/237/231 180/228/231 181/238/231
f 177/220/232 171/219/232 176/217/232
f 171/219/233 144/215/233 176/217/233
f 175/239/234 183/233/234 179/240/234
f 176/217/235 170/216/235 174/214/235
f 170/216/236 143/212/236 174/214/236
f 176/241/237 182/242/237 177/232/237
f 174/214/238 169/213/238 175/226/238
f 169/213/239 147/224/239 175/226/239
f 160/243/240 173/225/240 147/224/240
f 160/211/241 167/206/241 173/231/241
f 167/206/242 146/221/242 173/231/242
f 168/210/243 172/222/243 146/221/243
f 168/210/244 165/203/244 172/222/244
f 165/203/245 145/236/245 172/222/245
f 166/209/246 171/219/246 145/218/246
f 166/209/247 163/200/247 171/219/247
f 163/200/248 144/215/248 171/219/248
f 164/208/249 170/216/249 144/215/249
f 164/208/250 161/197/250 170/216/250
f 161/197/251 143/212/251 170/216/251
f 162/207/252 169/213/252 143/212/252
f 162/207/253 159/194/253 169/213/253
f 159/194/254 147/224/254 169/213/254
f 167/206/255 168/210/255 146/221/255
f 167/206/256 158/205/256 168/210/256
f 158/205/257 141/201/257 168/210/257
f 165/244/258 166/209/258 145/218/258
f 165/244/259 157/245/259 166/209/259
f 157/245/260 140/198/260 166/209/260
f 163/200/261 164/208/261 144/215/261
f 163/200/262 155/199/262 164/208/262
f 155/199/263 139/195/263 164/208/263
f 161/197/264 162/207/264 143/212/264
f 161/197/265 151/196/265 162/207/265
f 151/196/266 138/187/266 162/207/266
f 159/194/267 160/243/267 147/224/267
f 159/194/268 152/188/268 160/243/268
f 152/246/269 142/204/269 160/211/269
f 153/193/270 158/205/270 142/204/270
f 153/193/271 156/192/271 158/205/271
f 156/192/272 141/201/272 158/205/272
f 156/192/273 157/202/273 141/201/273
f 156/192/274 154/191/274 157/202/274
f 154/189/275 140/198/275 157/245/275
f 154/189/276 155/199/276 140/198/276
f 154/189/277 149/186/277 155/199/277
f 149/186/278 139/195/278 155/199/278
f 152/246/279 153/193/279 142/204/279
f 152/246/280 150/247/280 153/193/280
f 150/247/281 137/190/281 153/193/281
f 149/186/282 151/196/282 139/195/282
f 149/186/283 150/185/283 151/196/283
f 150/185/284 138/187/284 151/196/284
f 183/233/285 148/248/285 179/240/285
f 181/249/286 187/250/286 182/242/286
f 180/228/287 148/251/287 185/252/287
f 182/242/288 188/253/288 183/233/288
f 181/238/289 185/252/289 186/254/289
f 148/248/290 188/253/290 184/255/290
f 188/253/291 187/250/291 184/255/291
f 187/250/292 186/256/292 184/255/292
f 186/254/293 185/252/293 184/257/293
f 185/252/294 148/251/294 184/257/294
f 192/258/295 189/259/295 190/260/295
f 194/261/296 189/262/296 193/263/296
f 198/264/297 195/265/297 196/266/297
f 197/267/298 199/268/298 200/269/298
f 205/270/299 202/271/299 204/272/299
f 203/273/300 205/274/300 206/275/300
f 211/276/301 208/277/301 210/278/301
f 209/279/302 211/280/302 212/281/302
f 216/282/303 213/283/303 214/284/303
f 215/285/304 217/286/304 218/287/304
f 222/288/305 219/289/305 220/290/305
f 224/291/306 219/292/306 223/293/306
f 228/294/307 225/295/307 226/296/307
f 227/297/308 229/298/308 230/299/308
f 235/300/309 232/301/309 234/302/309
f 233/303/310 235/304/310 236/305/310
f 240/306/309 237/307/309 238/308/309
f 242/309/310 237/310/310 241/311/310
f 247/312/311 244/313/311 246/314/311
f 245/315/312 247/316/312 248/317/312
f 253/318/313 250/319/313 252/320/313
f 251/321/314 253/322/314 254/323/314
f 259/324/315 256/325/315 258/326/315
f 257/327/316 259/328/316 260/329/316
f 265/330/315 262/331/315 264/332/315
f 263/333/316 265/334/316 266/335/316
f 33/42/317 37/107/317 84/43/317
f 32/45/29 38/110/29 87/46/29
f 54/99/318 53/104/318 39/32/318
f 37/100/319 38/41/319 57/101/319
f 60/102/320 57/101/320 38/41/320
f 58/103/321 60/102/321 41/38/321
f 53/104/322 58/103/322 40/35/322
f 33/42/323 85/44/323 83/105/323
f 37/107/324 39/106/324 83/105/324
f 32/45/160 88/47/160 86/108/160
f 37/109/161 86/108/161 87/46/161
f 90/111/162 92/336/162 91/112/162
f 92/114/163 94/117/163 93/115/163
f 94/117/164 96/119/164 95/118/164
f 96/119/165 98/144/165 97/120/165
f 98/121/166 100/124/166 99/122/166
f 100/124/167 102/128/167 101/125/167
f 94/117/168 92/114/168 105/126/168
f 102/128/169 104/130/169 103/129/169
f 104/130/170 90/111/170 89/113/170
f 103/129/171 89/113/171 95/131/171
f 91/112/171 93/337/171 95/131/171
f 95/131/171 97/123/171 99/122/171
f 99/122/171 101/125/171 95/131/171
f 89/113/171 91/112/171 95/131/171
f 108/132/172 116/153/172 117/133/172
f 100/135/325 98/338/325 126/136/325
f 90/111/174 104/130/174 112/138/174
f 92/140/326 90/339/326 122/141/326
f 96/119/176 94/117/176 107/127/176
f 100/124/177 110/152/177 111/143/177
f 98/144/178 96/119/178 108/132/178
f 104/130/179 102/128/179 111/143/179
f 115/147/180 113/154/180 114/156/180
f 114/156/180 120/150/180 115/147/180
f 119/157/180 118/145/180 115/147/180
f 117/146/180 116/340/180 115/147/180
f 115/147/180 120/150/180 119/157/180
f 107/127/181 105/126/181 113/148/181
f 111/143/182 119/157/182 120/150/182
f 109/151/183 117/146/183 118/145/183
f 108/132/184 107/127/184 115/149/184
f 106/139/185 114/156/185 113/154/185
f 112/138/186 120/150/186 114/156/186
f 111/143/187 110/152/187 118/145/187
f 122/141/327 124/161/327 123/158/327
f 130/159/328 105/341/328 121/142/328
f 92/140/329 121/142/329 105/341/329
f 122/141/330 90/339/330 106/163/330
f 106/163/331 129/160/331 122/141/331
f 105/162/332 130/342/332 129/160/332
f 126/136/192 128/166/192 127/164/192
f 126/136/333 98/338/333 109/343/333
f 109/343/334 131/165/334 126/136/334
f 110/167/335 132/170/335 131/168/335
f 132/170/336 110/167/336 125/137/336
f 100/135/337 125/137/337 110/167/337
f 136/171/338 133/344/338 134/172/338
f 129/160/339 136/181/339 133/174/339
f 127/164/340 133/176/340 136/175/340
f 128/166/199 134/178/199 133/176/199
f 128/166/341 131/165/341 135/177/341
f 131/168/342 132/170/342 136/175/342
f 129/160/343 130/342/343 135/180/343
f 124/161/203 133/174/203 134/182/203
f 130/159/344 123/158/344 134/182/344
f 175/227/225 179/345/225 180/228/225
f 177/232/228 182/242/228 183/233/228
f 176/237/345 174/229/345 180/228/345
f 175/239/234 178/234/234 183/233/234
f 176/241/237 181/249/237 182/242/237
f 183/233/285 188/253/285 148/248/285
f 181/249/286 186/256/286 187/250/286
f 180/228/287 179/345/287 148/251/287
f 182/242/288 187/250/288 188/253/288
f 181/238/289 180/228/289 185/252/289
f 192/258/295 193/346/295 189/259/295
f 194/261/296 191/347/296 189/262/296
f 198/264/297 199/348/297 195/265/297
f 197/267/298 195/349/298 199/268/298
f 205/270/299 201/350/299 202/271/299
f 203/273/300 201/351/300 205/274/300
f 211/276/301 207/352/301 208/277/301
f 209/279/302 207/353/302 211/280/302
f 216/282/303 217/354/303 213/283/303
f 215/285/304 213/355/304 217/286/304
f 222/288/346 223/356/346 219/289/346
f 224/291/306 221/357/306 219/292/306
f 228/294/347 229/358/347 225/295/347
f 227/297/308 225/359/308 229/298/308
f 235/300/309 231/360/309 232/301/309
f 233/303/310 231/361/310 235/304/310
f 240/306/309 241/362/309 237/307/309
f 242/309/310 239/363/310 237/310/310
f 247/312/311 243/364/311 244/313/311
f 245/315/312 243/365/312 247/316/312
f 253/318/313 249/366/313 250/319/313
f 251/321/314 249/367/314 253/322/314
f 259/324/315 255/368/315 256/325/315
f 257/327/316 255/369/316 259/328/316
f 265/330/315 261/370/315 262/331/315
f 263/333/316 261/371/316 265/334/316
