# Blender v2.78 (sub 0) OBJ File: 'MexicanBaloon.blend'
# www.blender.org
o Icosphere_Icosphere.001
v -0.105180 14.721321 0.651352
v 0.183641 14.896563 0.833787
v -0.209661 14.873821 0.964343
v 0.372020 15.362841 0.978839
v 0.448499 15.291471 0.655427
v -0.468372 14.877600 0.674176
v -0.234955 14.902674 0.364289
v 0.168009 14.914394 0.462936
v 0.499377 15.889881 0.868240
v -0.297110 15.324150 1.200956
v 0.070830 15.250896 1.156836
v -0.127345 15.842066 1.308688
v -0.737256 15.330580 0.707291
v -0.581188 15.231932 0.997224
v -0.789024 15.834120 0.919869
v -0.340143 15.373236 0.180075
v -0.606482 15.260784 0.397168
v -0.571241 15.877028 0.239124
v 0.345424 15.393177 0.347906
v 0.029902 15.297579 0.185926
v 0.225035 15.911489 0.207215
v 0.265962 15.864805 1.178132
v -0.530313 15.830343 1.210041
v -0.804656 15.851950 0.549017
v -0.177934 15.899769 0.108568
v 0.483745 15.907713 0.497387
v -0.002918 16.518702 1.157777
v 0.288209 16.540855 1.228555
v 0.169997 16.622356 1.050501
v -0.786562 16.744577 1.279270
v -0.733055 17.159090 1.327053
v -0.925586 17.150518 1.318941
v -0.677299 16.378992 0.438417
v -0.753778 16.450363 0.761829
v -0.510618 16.928295 0.550779
v -0.008169 16.417685 0.216301
v -0.376108 16.490936 0.260420
v -0.111387 16.953266 0.380381
v 0.431978 16.411253 0.709965
v 0.275909 16.509901 0.420033
v 0.088179 16.946098 0.689574
v -0.470444 16.913357 0.883901
v -0.556148 16.541723 1.001224
v -0.405796 16.557590 1.129320
v -0.077082 16.923347 1.009302
v -0.335181 16.444254 1.231330
v 0.301203 16.481049 1.020089
v -0.650703 16.348656 1.069350
v 0.034865 16.368597 1.237181
v -0.079452 17.170692 1.053692
v 0.087152 17.152571 0.901694
v 0.041055 17.361797 1.041552
v -0.497434 17.159464 0.932719
v -0.301623 17.129528 1.042043
v -0.444908 17.340956 1.057186
v -0.512316 17.180500 0.498200
v -0.556054 17.135294 0.715532
v -0.610900 17.356882 0.599985
v -0.103529 17.204727 0.350630
v -0.324524 17.161898 0.373390
v -0.227528 17.387568 0.301790
v 0.163992 17.198666 0.693945
v 0.073001 17.172575 0.488446
v 0.175403 17.390604 0.574693
v -0.199224 17.347557 1.128293
v -0.602155 17.344519 0.855390
v -0.467807 17.373325 0.388532
v 0.018156 17.394167 0.372898
v 0.184148 17.378241 0.830098
v 0.130753 17.564672 0.712800
v 0.087016 17.519464 0.930131
v 0.072133 17.540501 0.495612
v -0.123677 17.570436 0.386289
v -0.345848 17.529272 0.374639
v -0.512453 17.547394 0.526637
v -0.589292 17.501299 0.734387
v -0.498302 17.527390 0.939886
v -0.321771 17.495239 1.077701
v -0.100777 17.538069 1.054942
v -0.360079 17.528448 0.354322
v -0.449588 17.749098 0.483109
v -0.232217 17.728497 0.384967
v -0.012152 17.767778 0.470617
v -0.234558 17.897009 0.554982
v -0.086645 17.882587 0.967008
v 0.135762 17.753355 0.882644
v -0.010973 17.898634 0.707590
v 0.148168 17.731262 0.644601
v -0.649601 17.495344 0.778846
v -0.558187 17.486431 1.033491
v -0.572023 17.723129 0.902856
v -0.596042 17.699484 0.665855
v -0.230210 17.951124 0.788130
v -0.440518 17.684317 1.099085
v -0.573931 17.511393 0.519424
v -0.448407 17.879955 0.720083
v -0.356993 17.871042 0.974727
v -0.210260 17.725761 1.149784
v -0.334602 17.488058 1.186103
v -0.064252 17.499603 1.178383
v 0.019429 17.703960 1.085953
v 0.225271 17.532707 0.753859
v 0.149601 17.516657 1.013281
v 0.133857 17.541620 0.499214
v -0.089728 17.539993 0.346602
v -0.720101 16.840162 1.201610
v -0.755345 17.155111 1.252512
v -0.548821 16.861246 1.276062
v -0.532536 16.796661 1.364316
v 0.080329 16.441133 1.329809
v 0.162310 16.487215 1.380121
v 0.136055 16.491634 1.174476
v -0.887217 17.148624 1.231748
v 0.452084 15.990372 1.402245
v 0.442135 15.883039 1.352947
v -0.317928 17.469040 1.581640
v 0.102520 17.439810 1.407962
v -0.473218 17.415222 1.424402
v -0.046239 17.448154 1.572304
v -0.316590 17.436609 1.580024
v 0.103859 17.407379 1.406347
v -0.061773 17.465872 1.203790
v -0.332124 17.454329 1.211511
v 0.088325 17.425098 1.037833
v -0.471879 17.382792 1.422786
v -0.487413 17.400511 1.054273
v 0.398437 15.948481 1.451959
v 0.390876 16.006725 1.489565
v -0.040980 16.523325 -1.445969
v 1.332546 14.519238 -0.877036
v -0.040980 14.519238 -1.445969
v 1.739612 16.523325 0.105708
v 1.901479 16.523325 0.496490
v 1.901479 14.519238 0.496489
v 1.332546 14.519238 1.870016
v 0.815478 16.523325 2.084193
v 0.532659 16.523325 2.201341
v -0.040980 16.523325 2.438950
v -1.414506 14.519238 1.870016
v -0.040980 14.519238 2.438950
v -1.414506 16.523325 1.870016
v -1.983439 14.519238 0.496489
v -0.040980 16.523325 2.126198
v -1.773784 16.523325 -0.009662
v -1.629285 16.523325 -0.358513
v -1.414506 16.523325 -0.877036
v -1.414506 14.519238 -0.877036
v -1.193357 16.523325 -0.655887
v -0.040980 14.970812 -1.133217
v -0.040980 16.523325 -1.133217
v 1.588728 16.523325 0.496490
v -1.193357 16.523325 1.648867
v 1.111397 16.523325 -0.655887
v 1.332546 16.523325 -0.877036
v 1.111397 16.523325 1.648868
v 1.332546 16.523325 1.870016
v -1.670687 16.523325 0.496490
v -1.983439 16.523325 0.496490
v -1.670687 14.970812 0.496490
v 1.111397 14.970812 1.648868
v 1.588728 14.970812 0.496490
v 0.671443 16.523325 1.831102
v -0.040980 14.970812 2.126198
v 1.297747 16.523325 -0.206000
v 1.111397 14.970812 -0.655887
v -1.522428 16.523325 0.138561
v -1.369809 16.523325 -0.229896
v -1.193357 14.970812 1.648867
v -0.803023 18.634544 0.080769
v -0.849816 18.824358 0.041296
v 0.718943 18.634544 0.095935
v 0.300031 18.634544 1.468619
v 0.492550 18.634544 1.388875
v 1.570723 16.523325 -0.302026
v -0.899890 18.634544 0.314627
v -1.152881 18.824358 0.245217
v 0.939457 18.824358 0.313923
v 0.220678 18.824358 1.561939
v 0.429286 18.824358 1.406152
v 0.834831 18.634544 0.375715
v 0.368118 16.523325 1.956744
v 0.389106 18.824358 1.492174
v -1.066828 18.824358 0.037465
v 0.838878 18.824358 0.071105
v 1.480336 16.523325 0.234809
v 0.795756 20.366087 0.255865
v 0.667749 18.824358 0.086064
v 0.860504 18.824358 0.451009
v 0.239463 20.412971 1.544633
v 0.323704 18.824358 1.383054
v -0.806886 18.824358 0.214971
v -0.880831 20.100782 0.267643
v 0.115542 20.432003 1.638032
v 3.806609 24.779520 3.136407
v 2.258527 21.090809 2.011672
v 4.465943 24.539373 0.407919
v 0.117344 20.452082 1.693503
v -0.792012 21.090805 3.002869
v -1.081180 20.203306 0.267643
v -0.937700 20.194960 0.092613
v -0.792012 21.090805 -2.187030
v 0.850247 20.383272 0.116571
v 0.782811 20.362005 0.148008
v 4.987066 26.147345 2.011679
v -1.383315 24.779516 4.822745
v 1.415400 24.539368 4.606648
v 0.051124 26.147345 5.597867
v -4.590901 24.779535 0.407919
v -3.520544 24.539373 3.002878
v -4.884817 26.147345 2.011679
v -1.383315 24.779516 -4.006906
v -3.520544 24.539373 -2.187039
v -2.999453 26.147345 -3.790835
v 3.806609 24.779520 -2.320568
v 1.415400 24.539368 -3.790810
v 3.101701 26.147345 -3.790835
v 3.101701 26.147345 4.606674
v -2.999453 26.147345 4.606674
v -4.884817 26.147345 -1.195840
v 0.051124 26.147345 -4.782029
v 4.987066 26.147345 -1.195840
v 1.485564 27.515173 4.822745
v 3.622792 27.755320 3.002879
v 0.894260 28.749083 3.002870
v -3.704361 27.515173 3.136408
v -1.313151 27.755320 4.606648
v -2.156279 28.749083 2.011674
v -3.704361 27.515173 -2.320567
v -4.363695 27.755316 0.407920
v -2.156279 28.749083 -1.195833
v 1.485564 27.515173 -4.006906
v -1.313151 27.755320 -3.790809
v 0.894260 28.749083 -2.187029
v 4.693150 27.515158 0.407920
v 3.622792 27.755320 -2.187038
v 2.779634 28.749075 0.407920
v 0.051124 29.205858 0.407920
v 2.258527 21.090809 -1.195834
v -2.677386 21.090815 0.407919
v 0.867375 20.388674 0.295652
v 0.312449 20.442448 1.603213
v -2.236171 14.840460 0.743889
v -2.384243 15.146709 0.830860
v -2.236171 15.452957 0.743889
v -1.418140 14.713608 1.707659
v -1.878698 14.713608 0.533923
v -1.775613 15.452957 1.917625
v -1.923684 15.146709 2.004595
v -1.775613 14.840460 1.917625
v -1.418140 15.579809 1.707659
v -1.878698 15.579809 0.533923
v -1.900060 15.572227 0.546470
v 1.700313 14.754499 1.870345
v 1.866063 15.060747 1.915249
v 1.700313 15.366995 1.870345
v 1.816259 14.627647 0.611542
v 1.300162 14.627647 1.761940
v 2.216410 15.366995 0.719948
v 2.382159 15.060747 0.764852
v 2.216410 14.754499 0.719948
v 1.816259 15.493849 0.611542
v 1.300162 15.493849 1.761940
v 1.324075 15.486267 1.768418
v -0.340928 14.754499 -1.719571
v -0.431511 15.060747 -1.865462
v -0.340928 15.366995 -1.719571
v -1.284307 14.627647 -0.878105
v -0.122242 14.627647 -1.367365
v -1.502993 15.366995 -1.230312
v -1.593576 15.060747 -1.376201
v -1.502993 14.754499 -1.230312
v -1.284307 15.493849 -0.878105
v -0.122242 15.493849 -1.367365
v -0.135310 15.486267 -1.388412
v -0.677446 14.694532 2.072909
v -0.677446 13.909945 2.059249
v -0.677446 13.909945 2.216948
v -0.677446 14.694532 1.915209
v -0.519746 13.909945 2.059249
v -0.519746 14.694532 2.072909
v -0.519746 13.909945 2.216948
v -0.519746 14.694532 1.915209
v -0.781860 12.758085 2.069412
v -0.666296 12.689383 2.106487
v -0.618413 12.797159 2.191727
v -0.709848 13.783077 2.028959
v -0.709848 13.113276 2.028959
v -0.618413 13.769093 2.191727
v -0.515537 13.811636 2.133937
v -0.515537 13.113276 2.133937
v -0.606972 13.788126 1.971169
v -0.889011 12.741800 1.710020
v -0.965299 12.867155 1.333291
v -0.786135 12.741800 1.652230
v -0.618413 13.988323 2.191729
v -0.515537 13.926910 2.133938
v -0.515537 13.988325 2.133938
v -0.606972 13.988325 1.971169
v -0.562704 12.689383 2.049970
v -0.515537 12.797159 2.133937
v -0.606972 13.113276 1.971168
v -0.678984 12.758085 2.011621
v -0.498627 12.989782 2.404964
v -0.251590 13.093016 2.603803
v -0.395751 12.989782 2.347174
v -1.005087 13.092110 1.503388
v -1.105647 13.183859 1.315464
v -1.068174 12.867155 1.391082
v -0.754591 12.987921 1.708383
v -0.857467 12.987921 1.766173
v -0.902211 13.092110 1.445597
v -0.979209 13.320826 1.308529
v -0.988490 13.180290 1.201160
v -0.937292 13.405251 1.277666
v -1.082085 13.320826 1.366320
v -1.010381 13.183859 1.261948
v -0.354466 13.093016 2.661593
v -0.138279 13.254787 2.805514
v -0.470565 12.740883 2.454920
v -0.189754 12.866249 2.713880
v -0.292630 12.866249 2.771671
v -0.367688 12.740883 2.397129
v -1.106261 13.405251 1.372585
v -0.115968 13.121031 2.854140
v -0.211235 13.121031 2.907657
v -0.241155 13.254787 2.863304
v -0.501621 13.895395 2.399635
v -0.398745 13.811636 2.341845
v -0.398745 13.926910 2.341846
v -0.618413 13.895395 2.191728
v -0.501621 13.769093 2.399635
v -0.757458 13.788126 1.703279
v -0.860335 13.908443 1.761070
v -0.757458 13.905462 1.703279
v -0.709848 13.908443 2.028960
v -0.606972 13.905462 1.971169
v -0.860334 13.783077 1.761070
v -0.618413 13.113276 2.191727
v -1.062752 13.347580 1.251525
v -0.277266 13.332745 2.866616
v -0.230557 13.123927 2.935856
v -0.105403 13.237293 2.877386
v -0.081833 13.123928 2.852310
v -1.144961 13.180290 1.289058
v -0.116663 13.332745 2.776398
v -0.047578 17.480585 1.573919
v -1.193357 14.970812 -0.655887
v -0.709848 13.988323 2.028960
vt 0.8495 0.3074
vt 0.8717 0.3364
vt 0.8388 0.3402
vt 0.8881 0.3750
vt 0.9149 0.3560
vt 0.8080 0.3203
vt 0.8244 0.5765
vt 0.8638 0.5765
vt 0.8422 0.6038
vt 0.8053 0.6099
vt 0.9096 0.4159
vt 0.8328 0.3784
vt 0.8598 0.3720
vt 0.8462 0.4167
vt 0.7749 0.3643
vt 0.8069 0.3665
vt 0.7831 0.4150
vt 0.8624 0.6379
vt 0.8815 0.6164
vt 0.8961 0.6660
vt 0.8082 0.6572
vt 0.8338 0.6425
vt 0.8351 0.6935
vt 0.8775 0.4166
vt 0.8150 0.4161
vt 0.7482 0.4141
vt 0.8658 0.6803
vt 0.8023 0.7067
vt 0.6917 0.9502
vt 0.7204 0.9374
vt 0.7178 0.9602
vt 0.7442 0.9252
vt 0.7612 0.9576
vt 0.7452 0.9627
vt 0.9266 0.7012
vt 0.9583 0.7031
vt 0.9361 0.7548
vt 0.8689 0.7251
vt 0.9005 0.7196
vt 0.8954 0.7698
vt 0.8167 0.7577
vt 0.8461 0.7463
vt 0.8667 0.7921
vt 0.7824 0.5319
vt 0.7738 0.4737
vt 0.8124 0.5153
vt 0.8060 0.4769
vt 0.8239 0.4753
vt 0.8554 0.5116
vt 0.8315 0.4632
vt 0.8592 0.4700
vt 0.8765 0.4799
vt 0.8918 0.5251
vt 0.8883 0.4673
vt 0.9211 0.4664
vt 0.9277 0.6499
vt 0.8019 0.4576
vt 0.8604 0.4557
vt 0.9078 0.6012
vt 0.9448 0.4145
vt 0.7779 0.6512
vt 0.8915 0.3074
vt 0.9310 0.8679
vt 0.9349 0.8396
vt 0.9562 0.8668
vt 0.9411 0.8896
vt 0.8818 0.8588
vt 0.9071 0.8606
vt 0.8902 0.8817
vt 0.8972 0.9440
vt 0.8814 0.9479
vt 0.8883 0.9316
vt 0.9279 0.9435
vt 0.9127 0.9455
vt 0.9205 0.9308
vt 0.9589 0.9471
vt 0.9429 0.9469
vt 0.9525 0.9329
vt 0.9157 0.8860
vt 0.8627 0.8766
vt 0.9045 0.9310
vt 0.9363 0.9315
vt 0.9701 0.9347
vt 0.9617 0.9202
vt 0.9782 0.9225
vt 0.9452 0.9214
vt 0.9289 0.9180
vt 0.9125 0.9201
vt 0.8961 0.9181
vt 0.8798 0.9210
vt 0.8706 0.9324
vt 0.8635 0.9173
vt 0.8741 0.9004
vt 0.9003 0.9008
vt 0.9252 0.9084
vt 0.9514 0.9085
vt 0.8584 0.8471
vt 0.9688 0.8932
vt 0.9818 0.8702
vt 0.9534 0.9657
vt 0.9266 0.9614
vt 0.8949 0.9624
vt 0.8512 0.8167
vt 0.8879 0.8302
vt 0.9768 0.8399
vt 0.7962 0.8750
vt 0.7842 0.8577
vt 0.7994 0.8559
vt 0.8076 0.8429
vt 0.7918 0.8437
vt 0.7865 0.8183
vt 0.8050 0.8136
vt 0.7981 0.8301
vt 0.8126 0.8286
vt 0.7512 0.8625
vt 0.7263 0.8406
vt 0.7588 0.8419
vt 0.7688 0.8558
vt 0.7850 0.8327
vt 0.7529 0.8225
vt 0.7724 0.8742
vt 0.7768 0.8433
vt 0.7715 0.8276
vt 0.7688 0.8064
vt 0.7345 0.7951
vt 0.7743 0.7706
vt 0.7904 0.7994
vt 0.8268 0.8168
vt 0.8188 0.7838
vt 0.8262 0.8389
vt 0.8181 0.8614
vt 0.8097 0.9463
vt 0.8011 0.9702
vt 0.7908 0.9439
vt 0.7959 0.9749
vt 0.7813 0.9412
vt 0.6985 0.9278
vt 0.7083 0.9275
vt 0.7371 0.9725
vt 0.7340 0.9462
vt 0.8133 0.9787
vt 0.8078 0.9721
vt 0.6778 0.9544
vt 0.6632 0.9519
vt 0.6757 0.9436
vt 0.7291 0.8954
vt 0.7371 0.8851
vt 0.6650 0.8320
vt 0.6442 0.8639
vt 0.6384 0.8328
vt 0.6771 0.8561
vt 0.6892 0.8209
vt 0.6285 0.8562
vt 0.6631 0.8668
vt 0.6432 0.8665
vt 0.6793 0.8579
vt 0.6273 0.9637
vt 0.6045 0.9310
vt 0.6287 0.9318
vt 0.5904 0.9500
vt 0.5894 0.9178
vt 0.6415 0.9507
vt 0.6078 0.8309
vt 0.6147 0.8228
vt 0.6970 0.8288
vt 0.7263 0.8592
vt 0.7527 0.8697
vt 0.7744 0.8810
vt 0.7976 0.8768
vt 0.8212 0.8673
vt 0.8283 0.8440
vt 0.8367 0.8220
vt 0.8334 0.7912
vt 0.6083 0.9164
vt 0.5920 0.9057
vt 0.6974 0.8147
vt 0.6275 0.9197
vt 0.6437 0.9191
vt 0.6399 0.9052
vt 0.6070 0.8147
vt 0.7206 0.8894
vt 0.7202 0.8969
vt 0.6590 0.8944
vt 0.8088 0.9096
vt 0.8217 0.9443
vt 0.7911 0.9104
vt 0.7779 0.9029
vt 0.7373 0.8851
vt 0.7677 0.9220
vt 0.6060 0.1670
vt 0.6141 0.2146
vt 0.5922 0.1980
vt 0.6737 0.1837
vt 0.6897 0.1870
vt 0.6432 0.2670
vt 0.5898 0.5581
vt 0.5600 0.4923
vt 0.6020 0.5014
vt 0.5345 0.5457
vt 0.5252 0.5456
vt 0.5122 0.5450
vt 0.4667 0.4891
vt 0.5144 0.4876
vt 0.4723 0.5478
vt 0.4174 0.4977
vt 0.5116 0.5529
vt 0.5502 0.1432
vt 0.5612 0.1488
vt 0.5184 0.2153
vt 0.5732 0.1554
vt 0.5640 0.2009
vt 0.6066 0.3035
vt 0.5767 0.1488
vt 0.6185 0.1277
vt 0.6085 0.1601
vt 0.6881 0.1741
vt 0.4739 0.5567
vt 0.6425 0.1693
vt 0.6400 0.1782
vt 0.5482 0.5545
vt 0.5501 0.5456
vt 0.4385 0.5693
vt 0.4316 0.5616
vt 0.5823 0.0849
vt 0.6776 0.0717
vt 0.6796 0.1146
vt 0.4486 0.6069
vt 0.5336 0.5535
vt 0.5416 0.5999
vt 0.5106 0.5974
vt 0.6598 0.1715
vt 0.6454 0.1296
vt 0.5540 0.1341
vt 0.5645 0.1410
vt 0.4794 0.5999
vt 0.5846 0.5645
vt 0.5203 0.3521
vt 0.5189 0.3466
vt 0.5640 0.3521
vt 0.5423 0.6089
vt 0.5495 0.6709
vt 0.5436 0.6711
vt 0.6593 0.1812
vt 0.5504 0.3974
vt 0.5619 0.4627
vt 0.5533 0.4662
vt 0.5287 0.3968
vt 0.5193 0.4670
vt 0.5160 0.3968
vt 0.5425 0.1259
vt 0.5482 0.3965
vt 0.5176 0.3589
vt 0.5524 0.3916
vt 0.5630 0.3920
vt 0.5579 0.3893
vt 0.5674 0.3601
vt 0.5780 0.3968
vt 0.5692 0.4626
vt 0.5700 0.3992
vt 0.5365 0.3998
vt 0.5407 0.4640
vt 0.5321 0.4631
vt 0.5600 0.6073
vt 0.5517 0.6087
vt 0.5341 0.6073
vt 0.5392 0.6764
vt 0.5888 0.3975
vt 0.5780 0.4658
vt 0.5268 0.4670
vt 0.5140 0.4632
vt 0.5083 0.3999
vt 0.5586 0.3994
vt 0.5587 0.6765
vt 0.5534 0.6761
vt 0.5815 0.6520
vt 0.5816 0.6073
vt 0.5933 0.6089
vt 0.5909 0.3486
vt 0.5789 0.3926
vt 0.5852 0.3471
vt 0.5113 0.4730
vt 0.5183 0.4673
vt 0.5175 0.4724
vt 0.3405 0.5323
vt 0.2823 0.5516
vt 0.2807 0.5467
vt 0.2053 0.6884
vt 0.2595 0.6120
vt 0.2618 0.7119
vt 0.2404 0.4873
vt 0.1892 0.4525
vt 0.2931 0.4447
vt 0.3522 0.4877
vt 0.3472 0.5339
vt 0.3447 0.4881
vt 0.4171 0.5879
vt 0.3199 0.5856
vt 0.3199 0.5831
vt 0.2179 0.7293
vt 0.0805 0.5816
vt 0.1514 0.6433
vt 0.0753 0.6631
vt 0.2464 0.2920
vt 0.1820 0.3159
vt 0.2087 0.2666
vt 0.3749 0.2683
vt 0.3091 0.2874
vt 0.3321 0.2429
vt 0.3224 0.7460
vt 0.4171 0.7473
vt 0.3522 0.8115
vt 0.1615 0.7005
vt 0.0940 0.3362
vt 0.0227 0.2912
vt 0.1324 0.2769
vt 0.2714 0.2566
vt 0.4039 0.2199
vt 0.2722 0.7610
vt 0.1151 0.7218
vt 0.1756 0.7480
vt 0.1131 0.7855
vt 0.1700 0.2345
vt 0.0805 0.2174
vt 0.1764 0.1594
vt 0.2944 0.2218
vt 0.2360 0.2245
vt 0.2796 0.1704
vt 0.4289 0.1530
vt 0.3496 0.1930
vt 0.3571 0.1011
vt 0.2289 0.7693
vt 0.2738 0.8172
vt 0.1974 0.8124
vt 0.2397 0.9094
vt 0.1347 0.8780
vt 0.3305 0.8942
vt 0.2522 0.0856
vt 0.0271 0.8562
vt 0.0227 0.7403
vt 0.5080 0.1826
vt 0.4659 0.2666
vt 0.3342 0.6404
vt 0.3765 0.3983
vt 0.2720 0.3904
vt 0.3145 0.5838
vt 0.2202 0.5195
vt 0.3006 0.4471
vt 0.4840 0.6335
vt 0.5238 0.6509
vt 0.5304 0.6548
vt 0.3614 0.5302
vt 0.3637 0.4876
vt 0.3375 0.4892
vt 0.5976 0.6104
vt 0.5836 0.6532
vt 0.3166 0.5821
vt 0.5691 0.6074
vt 0.5763 0.6520
vt 0.5712 0.6524
vt 0.2796 0.5534
vt 0.5337 0.6138
vt 0.5332 0.6438
vt 0.5307 0.6131
vt 0.4872 0.6295
vt 0.5303 0.6073
vt 0.5785 0.6515
vt 0.5767 0.6073
vt 0.5831 0.3942
vt 0.5846 0.3951
vt 0.5907 0.3951
vt 0.5821 0.3466
vt 0.5794 0.3466
vt 0.5762 0.3931
vt 0.5742 0.3466
vt 0.9546 0.2367
vt 0.9505 0.2301
vt 0.9535 0.2229
vt 0.9161 0.2546
vt 0.9655 0.2476
vt 0.9273 0.2245
vt 0.9319 0.2312
vt 0.9299 0.2379
vt 0.9131 0.2079
vt 0.9739 0.2079
vt 0.9638 0.2156
vt 0.9546 0.2367
vt 0.9505 0.2301
vt 0.9535 0.2229
vt 0.9161 0.2546
vt 0.9655 0.2476
vt 0.9273 0.2245
vt 0.9319 0.2312
vt 0.9299 0.2379
vt 0.9131 0.2079
vt 0.9739 0.2079
vt 0.9638 0.2156
vt 0.9546 0.2367
vt 0.9505 0.2301
vt 0.9535 0.2229
vt 0.9161 0.2546
vt 0.9655 0.2476
vt 0.9273 0.2245
vt 0.9319 0.2312
vt 0.9299 0.2379
vt 0.9131 0.2079
vt 0.9739 0.2079
vt 0.9638 0.2156
vt 0.8919 0.0394
vt 0.8919 0.0394
vt 0.8919 0.0394
vt 0.8919 0.0394
vt 0.8919 0.0394
vt 0.8919 0.0394
vt 0.8919 0.0394
vt 0.8919 0.0394
vt 0.8919 0.0394
vt 0.8919 0.0394
vt 0.8919 0.0394
vt 0.8919 0.1158
vt 0.8919 0.0394
vt 0.9132 0.1142
vt 0.8919 0.0394
vt 0.8919 0.0394
vt 0.8919 0.0394
vt 0.8919 0.0394
vt 0.8919 0.0394
vt 0.8919 0.0394
vt 0.8919 0.0394
vt 0.8919 0.0394
vt 0.8919 0.0394
vt 0.8919 0.0394
vt 0.8919 0.0394
vt 0.8919 0.0394
vt 0.8919 0.0394
vt 0.8919 0.0394
vt 0.8919 0.0394
vt 0.8919 0.0394
vt 0.8919 0.0394
vt 0.8919 0.0394
vt 0.8919 0.0394
vt 0.8919 0.0394
vt 0.8919 0.0394
vt 0.8919 0.0394
vt 0.8919 0.0394
vt 0.8919 0.0394
vt 0.8919 0.0394
vt 0.8919 0.0394
vt 0.8919 0.0394
vt 0.8919 0.0394
vt 0.8919 0.0394
vt 0.8919 0.0394
vt 0.8919 0.0394
vt 0.8919 0.0394
vt 0.8919 0.0394
vt 0.8919 0.0394
vt 0.8919 0.0394
vt 0.8919 0.0394
vt 0.8919 0.0394
vt 0.8919 0.0394
vt 0.8919 0.0394
vt 0.8919 0.0394
vt 0.8919 0.0394
vt 0.8919 0.0394
vt 0.8919 0.0394
vt 0.8919 0.0394
vt 0.8919 0.0394
vt 0.8919 0.0394
vt 0.8919 0.0394
vt 0.8919 0.0394
vt 0.8919 0.0394
vt 0.8919 0.0394
vt 0.8919 0.0394
vt 0.8919 0.0394
vt 0.8919 0.0394
vt 0.8919 0.0394
vt 0.8919 0.0394
vt 0.8919 0.0394
vt 0.8919 0.0394
vt 0.8919 0.0394
vt 0.8919 0.0394
vt 0.6848 0.9318
vt 0.6481 0.9645
vt 0.6622 0.8645
vt 0.6264 0.8581
vt 0.6044 0.9634
vt 0.6481 0.8926
vt 0.8278 0.9029
vt 0.7692 0.8851
vt 0.5239 0.5532
vt 0.5299 0.1334
vt 0.5550 0.3035
vt 0.5184 0.2670
vt 0.5981 0.1167
vt 0.6753 0.1730
vt 0.6030 0.0449
vt 0.6459 0.0428
vt 0.5758 0.6069
vt 0.5675 0.3466
vt 0.5127 0.3466
vt 0.5083 0.3591
vt 0.5738 0.3592
vt 0.5622 0.3947
vt 0.5501 0.4011
vt 0.5845 0.4662
vt 0.5688 0.6079
vt 0.5083 0.4673
vt 0.2943 0.4527
vt 0.2425 0.4873
vt 0.3547 0.5337
vt 0.3317 0.4905
vt 0.2768 0.5468
vt 0.5337 0.6483
vt 0.4786 0.6245
vt 0.9132 0.1286
vt 0.9132 0.1392
vt 0.8919 0.1301
vt 0.8919 0.1392
vt 0.9132 0.0394
vt 0.8919 0.0394
vn 0.2098 -0.8496 0.4840
vn 0.8497 -0.4357 0.2971
vn -0.3595 -0.8805 0.3090
vn -0.3877 -0.8483 -0.3607
vn 0.1650 -0.7985 -0.5790
vn 0.9490 -0.1742 0.2628
vn 0.0716 -0.2256 0.9716
vn -0.8849 -0.2554 0.3895
vn -0.5779 -0.1716 -0.7979
vn 0.4825 -0.1233 -0.8672
vn 0.7996 -0.0680 0.5967
vn -0.2325 -0.1244 0.9646
vn -0.9924 -0.1173 0.0362
vn -0.3132 -0.0324 -0.9491
vn 0.7463 -0.0073 -0.6655
vn -0.1877 0.8400 0.5091
vn -0.0370 -0.1097 0.9933
vn -0.8992 0.3313 -0.2858
vn -0.0587 0.2821 -0.9576
vn 0.8159 0.5144 -0.2642
vn 0.6966 0.5695 -0.4364
vn 0.4726 0.3401 -0.8130
vn -0.3772 0.4289 -0.8208
vn -0.5679 0.3268 -0.7554
vn -0.8606 0.4935 0.1259
vn -0.7844 0.3439 0.5163
vn -0.2726 0.5123 0.8144
vn 0.1235 0.3617 0.9241
vn 0.6823 0.6143 0.3964
vn 0.8159 0.5330 0.2241
vn 0.8849 0.2554 -0.3895
vn 0.7366 0.1702 -0.6545
vn 0.5096 0.2495 -0.8235
vn -0.0716 0.2256 -0.9716
vn -0.3192 0.1340 -0.9382
vn -0.5531 0.2038 -0.8078
vn -0.9490 0.1742 -0.2628
vn -0.9966 0.0686 0.0453
vn -0.9229 0.1444 0.3571
vn -0.4825 0.1233 0.8672
vn -0.2387 0.0422 0.9702
vn 0.0111 0.1312 0.9913
vn 0.5779 0.1716 0.7979
vn 0.7897 0.1097 0.6037
vn 0.9155 0.2205 0.3364
vn 0.2325 0.1244 -0.9646
vn 0.2387 -0.0422 -0.9702
vn -0.0111 -0.1312 -0.9913
vn -0.7996 0.0680 -0.5967
vn -0.7897 -0.1097 -0.6037
vn -0.9155 -0.2205 -0.3364
vn -0.7463 0.0073 0.6655
vn -0.7366 -0.1702 0.6545
vn -0.5096 -0.2495 0.8235
vn 0.3132 0.0324 0.9491
vn 0.3192 -0.1340 0.9382
vn 0.5531 -0.2038 0.8078
vn 0.9924 0.1173 -0.0362
vn 0.9966 -0.0686 -0.0453
vn 0.9229 -0.1444 -0.3571
vn 0.5108 -0.3751 -0.7736
vn 0.2174 -0.5192 -0.8266
vn -0.0622 -0.3759 -0.9246
vn -0.4655 -0.4109 -0.7839
vn -0.6185 -0.5944 -0.5139
vn -0.8412 -0.4813 -0.2464
vn -0.8195 -0.5061 0.2689
vn -0.5755 -0.6434 0.5048
vn -0.3997 -0.4860 0.7772
vn 0.8200 -0.4018 -0.4077
vn 0.8157 -0.5751 -0.0620
vn 0.5466 -0.8350 -0.0632
vn 0.0141 -0.4629 0.8863
vn 0.2840 -0.5951 0.7518
vn 0.5724 -0.4454 0.6884
vn 0.6610 -0.1264 0.7396
vn 0.6130 -0.3413 0.7126
vn -0.4936 -0.3902 0.7772
vn -0.8992 -0.3555 -0.2549
vn -0.0433 -0.2852 -0.9575
vn 0.8913 -0.2764 -0.3595
vn 0.3436 -0.1578 0.9258
vn -0.7763 -0.1879 0.6016
vn -0.8162 -0.1316 -0.5626
vn 0.2791 -0.0666 -0.9580
vn 0.9958 -0.0829 -0.0381
vn 0.8717 0.4143 0.2616
vn 0.9645 0.2635 -0.0203
vn 0.8532 0.4405 -0.2793
vn 0.4870 0.4488 -0.7493
vn 0.2600 0.2794 -0.9243
vn -0.0334 0.4348 -0.8999
vn -0.5930 0.4016 -0.6979
vn -0.8164 0.2156 -0.5357
vn -0.8961 0.3668 -0.2500
vn -0.8757 0.3380 0.3448
vn -0.7772 0.1602 0.6085
vn -0.5427 0.3304 0.7722
vn 0.0296 0.3458 0.9378
vn 0.3234 0.1898 0.9270
vn 0.5384 0.3760 0.7541
vn 0.7719 0.2165 -0.5977
vn 0.7815 -0.1253 -0.6112
vn 0.5618 -0.2689 -0.7823
vn -0.3434 0.1865 -0.9205
vn -0.3273 -0.1551 -0.9321
vn -0.5468 -0.3150 -0.7758
vn -0.9929 0.1119 0.0394
vn -0.9731 -0.2293 0.0222
vn -0.8809 -0.3814 0.2802
vn -0.2791 0.0957 0.9555
vn -0.2634 -0.2453 0.9330
vn 0.0212 -0.3763 0.9262
vn 0.8116 0.1604 0.5617
vn 0.8210 -0.1811 0.5415
vn 0.9128 -0.3068 0.2695
vn 0.8943 -0.2622 -0.3627
vn 0.7671 -0.3965 -0.5043
vn 0.5986 -0.1125 -0.7931
vn -0.0798 -0.1147 -0.9902
vn -0.3431 -0.3793 -0.8593
vn -0.5570 -0.1731 -0.8123
vn -0.9771 -0.0497 -0.2070
vn -0.9516 -0.2899 0.1018
vn -0.9487 -0.1583 0.2737
vn 0.9188 -0.2806 0.2776
vn 0.8240 -0.4040 0.3972
vn -0.5010 -0.2209 0.8368
vn -0.2650 -0.4259 0.8651
vn -0.0188 -0.1768 0.9841
vn -0.3555 0.3594 -0.8628
vn 0.1451 0.7037 -0.6955
vn 0.5496 0.8085 0.2103
vn 0.7194 0.6941 -0.0269
vn -0.9314 0.1327 0.3390
vn -0.9551 0.2883 0.0680
vn 0.1474 0.9629 -0.2262
vn -0.7741 0.2706 0.5723
vn -0.6086 0.2011 -0.7676
vn 0.3086 0.8320 -0.4610
vn -0.3504 0.9232 0.1581
vn -0.5952 0.6126 0.5200
vn -0.0142 0.7636 0.6456
vn -0.2536 0.2744 0.9276
vn 0.2817 0.2973 0.9123
vn -0.7790 0.3256 -0.5359
vn -0.6036 0.7593 0.2433
vn -0.0287 0.9255 0.3777
vn 0.2618 0.6378 0.7243
vn 0.0223 0.1396 0.9900
vn -0.2415 0.9462 -0.2151
vn 0.9294 0.3687 0.0142
vn 0.7796 0.3370 0.5279
vn 0.5446 0.2504 -0.8005
vn -0.6674 0.6533 -0.3574
vn -0.5630 0.0616 0.8242
vn -0.0355 0.1735 -0.9842
vn 0.9277 0.1805 -0.3267
vn -0.9568 0.1000 -0.2729
vn -0.2735 0.6149 0.7396
vn -0.7762 0.6303 0.0158
vn 0.5878 0.7069 -0.3933
vn 0.5695 0.6623 0.4868
vn -0.2439 0.6871 -0.6844
vn 0.2739 0.3863 -0.8808
vn 0.9345 0.2123 0.2857
vn 0.2789 0.9500 0.1401
vn -0.4041 0.8016 -0.4406
vn 0.7166 0.3895 -0.5786
vn 0.6017 0.1113 0.7909
vn 0.3719 0.1885 -0.9089
vn 0.8480 0.4899 0.2021
vn -0.6395 0.5360 0.5511
vn -0.6263 0.3623 0.6902
vn 0.2032 -0.9377 0.2817
vn -0.0427 0.9983 -0.0405
vn 0.7906 -0.6061 0.0866
vn 0.3143 0.3773 0.8711
vn 0.7670 0.2077 -0.6071
vn -0.8351 -0.4174 -0.3584
vn 0.0412 -0.9979 -0.0497
vn 0.0759 0.9770 0.1993
vn -0.3809 0.9226 0.0604
vn -0.0306 0.0485 -0.9984
vn 0.7413 -0.0028 0.6711
vn -0.6989 -0.0644 0.7123
vn -0.6989 -0.0643 0.7123
vn -0.0412 0.9979 0.0497
vn -0.2962 -0.9545 -0.0334
vn 0.3809 -0.9226 -0.0604
vn -0.7772 -0.6269 0.0547
vn 0.8298 -0.5579 -0.0096
vn 0.1432 -0.9877 0.0620
vn 0.5057 -0.8627 -0.0044
vn -0.0436 -0.9965 0.0710
vn 0.1034 -0.7445 0.6595
vn -0.3398 -0.8638 0.3720
vn 0.0118 -0.9941 0.1075
vn -0.2157 -0.9464 -0.2403
vn -0.4546 -0.6726 -0.5838
vn 0.6476 -0.5692 -0.5066
vn 0.1232 -0.8798 -0.4590
vn 0.4311 -0.5835 -0.6883
vn 0.5385 0.5893 0.6023
vn 0.7609 -0.2794 0.5857
vn -0.7034 -0.5621 -0.4351
vn 0.6315 0.3980 0.6654
vn -0.5046 -0.0436 0.8622
vn -0.7661 0.0106 -0.6426
vn 0.8648 0.5004 -0.0427
vn 0.5040 0.5566 -0.6605
vn -0.1780 -0.5079 0.8428
vn 0.3827 0.0000 -0.9239
vn 0.9239 -0.0000 -0.3827
vn 0.9239 -0.0000 0.3827
vn 0.3827 0.0000 0.9239
vn -0.3827 -0.0000 0.9239
vn -0.9239 -0.0000 0.3827
vn 0.0000 1.0000 0.0000
vn -0.9239 -0.0000 -0.3827
vn -0.3827 0.0000 -0.9239
vn 0.0000 -1.0000 0.0000
vn 0.0098 -0.2013 -0.9795
vn -0.3733 -0.2204 -0.9012
vn -0.2848 -0.0293 0.9581
vn 0.8704 0.3353 -0.3605
vn -0.5793 -0.5477 0.6037
vn -0.5814 -0.5439 0.6051
vn -0.5827 -0.5415 0.6059
vn 0.9107 0.2755 0.3077
vn 0.4441 0.0126 -0.8959
vn -0.8829 -0.2944 0.3657
vn -0.8254 0.1018 0.5553
vn 0.8798 0.2646 0.3948
vn -0.8869 0.2800 -0.3674
vn -0.2942 0.0611 -0.9538
vn 0.4444 0.0763 0.8926
vn 0.8839 -0.2912 0.3661
vn 0.3657 0.2949 0.8828
vn -0.8840 0.0220 0.4669
vn -0.8665 0.0048 -0.4991
vn 0.0180 -0.9748 0.2225
vn 0.8642 -0.4381 0.2474
vn -0.1894 -0.9279 0.3211
vn -0.9191 0.1019 -0.3807
vn 0.1197 -0.9219 -0.3685
vn 0.1194 -0.9220 -0.3683
vn 0.1192 -0.9221 -0.3682
vn 0.8244 -0.5107 0.2442
vn 0.0225 -0.5107 0.8595
vn -0.8104 -0.5107 0.2870
vn -0.5234 -0.5107 -0.6821
vn 0.4870 -0.5107 -0.7086
vn 0.7910 -0.2101 0.5747
vn -0.3021 -0.2101 0.9298
vn -0.9777 -0.2101 0.0000
vn -0.3021 -0.2101 -0.9298
vn 0.7910 -0.2101 -0.5747
vn 0.3029 0.8316 0.4654
vn -0.3491 0.8316 0.4319
vn -0.5186 0.8316 -0.1985
vn 0.0285 0.8316 -0.5546
vn 0.5363 0.8316 -0.1442
vn 0.1639 0.9793 -0.1191
vn 0.3321 0.9119 -0.2413
vn 0.3029 0.8316 -0.4654
vn -0.0626 0.9793 -0.1927
vn -0.1269 0.9119 -0.3904
vn -0.3491 0.8316 -0.4319
vn -0.2026 0.9793 0.0000
vn -0.4105 0.9119 0.0000
vn -0.5186 0.8316 0.1985
vn -0.0626 0.9793 0.1927
vn -0.1269 0.9119 0.3904
vn 0.0285 0.8316 0.5546
vn 0.1639 0.9793 0.1191
vn 0.3321 0.9119 0.2413
vn 0.5363 0.8316 0.1442
vn 0.8104 0.5107 -0.2870
vn 0.7696 0.3083 -0.5592
vn 0.5234 0.5107 -0.6821
vn -0.0225 0.5107 -0.8595
vn -0.2940 0.3083 -0.9047
vn -0.4870 0.5107 -0.7086
vn -0.8244 0.5107 -0.2442
vn -0.9513 0.3083 0.0000
vn -0.8244 0.5107 0.2442
vn -0.4870 0.5107 0.7086
vn -0.2940 0.3083 0.9047
vn -0.0225 0.5107 0.8595
vn 0.5234 0.5107 0.6821
vn 0.7696 0.3083 0.5592
vn 0.8104 0.5107 0.2870
vn 0.3021 0.2101 -0.9298
vn 0.2940 -0.3083 -0.9047
vn 0.0225 -0.5107 -0.8595
vn -0.7910 0.2101 -0.5747
vn -0.7696 -0.3083 -0.5592
vn -0.8104 -0.5107 -0.2870
vn -0.7910 0.2101 0.5747
vn -0.7696 -0.3083 0.5592
vn -0.5234 -0.5107 0.6821
vn 0.3021 0.2101 0.9298
vn 0.2940 -0.3083 0.9047
vn 0.4870 -0.5107 0.7086
vn 0.9777 0.2101 0.0000
vn 0.9513 -0.3083 0.0000
vn 0.8244 -0.5107 -0.2442
vn 0.5023 -0.4381 -0.7455
vn 0.2603 -0.5391 -0.8010
vn 0.0318 -0.4381 -0.8984
vn -0.5537 -0.4381 -0.7081
vn -0.6814 -0.5391 -0.4951
vn -0.8446 -0.4381 -0.3078
vn -0.8446 -0.4381 0.3078
vn -0.6814 -0.5391 0.4951
vn -0.5537 -0.4381 0.7081
vn 0.8642 -0.4381 -0.2474
vn 0.8422 -0.5391 0.0000
vn 0.4506 -0.8927 0.0000
vn 0.0318 -0.4381 0.8984
vn 0.2603 -0.5391 0.8010
vn 0.5023 -0.4381 0.7455
vn -0.4781 -0.8044 -0.3527
vn -0.4782 -0.8046 -0.3520
vn -0.4783 -0.8065 -0.3475
vn 0.0870 -0.0360 0.9956
vn 0.9593 0.0717 -0.2731
vn 0.0176 0.0385 -0.9991
vn -0.4827 -0.0120 0.8757
vn 0.1564 -0.9875 0.0186
vn 0.9943 0.0447 -0.0964
vn 0.1693 -0.8365 0.5211
vn -0.0870 0.0466 -0.9951
vn 0.2636 -0.9527 0.1511
vn -0.9961 -0.0678 0.0569
vn 0.4176 -0.0468 0.9074
vn 0.2124 0.1100 -0.9710
vn 0.9059 0.0139 0.4232
vn 0.3823 -0.0452 0.9229
vn -0.5065 0.0000 -0.8623
vn -0.2755 -0.9552 0.1081
vn 0.5065 -0.0000 0.8623
vn -0.8144 -0.4845 0.3195
vn -0.8144 0.4845 0.3195
vn -0.2755 0.9552 0.1081
vn -0.2615 -0.0000 0.9652
vn 0.2700 -0.9552 0.1211
vn 0.2615 0.0000 -0.9652
vn 0.7982 -0.4845 0.3581
vn 0.7982 0.4845 0.3581
vn 0.2700 0.9552 0.1211
vn 0.8496 -0.0000 -0.5275
vn -0.1148 -0.9552 -0.2727
vn -0.8496 -0.0000 0.5275
vn -0.3395 -0.4845 -0.8063
vn -0.3395 0.4845 -0.8063
vn -0.1148 0.9552 -0.2728
vn -1.0000 0.0000 0.0000
vn 0.0000 -0.1806 -0.9836
vn 1.0000 -0.0000 0.0000
vn 0.0000 0.1806 0.9836
vn -0.4865 -0.3987 0.7774
vn -0.8719 -0.0000 0.4898
vn 0.8719 0.0000 -0.4898
vn -0.1588 -0.9460 -0.2826
vn 0.4898 -0.0000 0.8719
vn 0.3554 -0.6716 0.6501
vn 0.3646 -0.6667 0.6500
vn 0.3652 -0.6663 0.6501
vn -0.4898 0.0000 -0.8719
vn 0.4890 0.3928 -0.7789
vn -0.1621 0.9436 -0.2885
vn -0.8797 0.0094 0.4754
vn 0.1600 0.9451 0.2848
vn 0.8864 -0.3166 0.3378
vn 0.4036 0.5665 0.7185
vn 0.8571 -0.0200 -0.5148
vn -0.4733 -0.2572 -0.8425
vn -0.2806 0.8195 -0.4996
vn 0.1598 -0.9453 0.2844
vn 0.4884 0.0753 0.8694
vn 0.8788 0.0081 -0.4770
vn -0.8627 -0.0255 0.5051
vn 0.4159 -0.5280 0.7404
vn 0.2957 -0.9407 -0.1661
vn -0.2250 0.9661 0.1264
vn -0.4898 0.0000 -0.8718
vn 0.0373 -0.9991 -0.0209
vn 0.0220 0.9997 -0.0124
vn 0.8914 -0.2255 -0.3932
vn -0.1881 0.9233 -0.3348
vn -0.9574 0.0582 0.2828
vn 0.0218 -0.9990 0.0388
vn -0.0898 -0.9831 -0.1598
vn 0.2207 0.8927 0.3930
vn -0.2989 -0.7915 -0.5331
vn -0.2925 -0.7927 -0.5348
vn -0.2919 -0.7928 -0.5351
vn -0.2767 0.8251 -0.4925
vn 0.1293 0.3380 0.9322
vn -0.7905 -0.3447 -0.5062
vn 0.0921 -0.9821 0.1643
vn 0.0921 -0.9821 0.1641
vn 0.0921 -0.9821 0.1642
vn 0.0412 -0.9965 0.0733
vn 0.0412 -0.9965 0.0734
vn -0.5314 -0.2130 0.8199
vn -0.4812 -0.1865 -0.8566
vn -0.0210 -0.3447 -0.9385
vn -0.0211 -0.3447 -0.9385
vn 0.4877 -0.0906 0.8683
vn 0.0552 0.3102 -0.9491
vn -0.4893 0.0450 -0.8710
vn -0.8376 0.3109 -0.4491
vn 0.3498 0.7000 0.6226
vn 0.9797 0.1884 0.0689
vn -0.1300 0.9637 0.2331
vn -0.3037 -0.0703 0.9502
vn -0.7473 0.5144 0.4206
vn -0.2986 0.5290 0.7944
vn 0.0849 0.4825 0.8718
vn 0.7200 0.5898 0.3658
vn 0.1448 0.1736 -0.9741
vn 0.7983 0.5396 -0.2675
vn -0.8992 0.0050 0.4374
vn 0.7074 0.6899 -0.1538
vn 0.6658 -0.1784 0.7245
vn 0.3793 -0.1739 -0.9088
vn -0.6519 -0.1506 -0.7432
vn 0.2962 0.9545 0.0334
vn -0.1494 0.9665 0.2085
vn 0.7413 -0.0028 0.6712
vn -0.9983 -0.0432 0.0400
vn 0.9983 0.0432 -0.0400
vn 0.3688 -0.9149 -0.1644
vn 0.0675 -0.9968 -0.0420
vn 0.4111 -0.7924 0.4507
vn 0.0430 -0.9990 0.0104
vn 0.0191 -0.9997 -0.0173
vn -0.3558 -0.9297 0.0952
vn 0.0269 -0.9982 -0.0539
vn -0.5123 -0.8178 -0.2624
vn 0.0326 -0.9565 -0.2899
vn 0.5076 -0.8342 -0.2158
vn 0.7668 -0.3252 0.5534
vn -0.8808 -0.4666 -0.0804
vn 0.7635 0.4652 0.4480
vn -0.7941 -0.3991 0.4585
vn -0.7228 0.1134 -0.6817
vn 0.9185 0.3801 0.1087
vn 0.2434 0.6293 -0.7381
vn -0.2843 -0.4738 0.8335
vn 0.0175 -0.1405 -0.9899
vn 0.0173 -0.1995 -0.9797
vn -0.5064 0.0777 0.8588
vn -0.5780 -0.5499 0.6029
vn 0.8520 -0.3401 0.3980
vn 0.8761 0.2548 0.4092
vn 0.2365 0.1084 -0.9656
vn -0.9162 -0.2177 -0.3363
vn 0.8687 -0.0299 -0.4944
vn -0.3315 0.0439 -0.9424
vn 0.4191 0.0638 0.9057
vn -0.9908 0.0695 0.1163
vn -0.6020 -0.0016 -0.7985
vn 0.1562 -0.9823 0.1031
vn -0.3998 -0.7812 0.4795
vn -0.2127 -0.9165 0.3387
vn -0.4390 -0.8400 0.3190
vn -0.7712 0.0504 -0.6346
vn 0.0997 -0.8623 -0.4964
vn 0.1016 -0.9281 -0.3582
vn 0.4379 -0.8989 -0.0148
vn -0.4781 -0.8040 -0.3536
vn -0.0081 -0.0158 0.9998
vn 0.9687 0.0660 -0.2394
vn 0.8623 0.0991 0.4966
vn 0.9239 0.0044 -0.3827
vn 0.2112 -0.8127 0.5431
vn 0.2820 -0.9462 0.1586
vn -0.4300 0.0295 -0.9024
vn 0.2295 -0.9640 0.1341
vn 0.5849 0.1395 -0.7990
vn -0.1148 0.9552 -0.2727
vn -0.6175 0.2115 0.7576
vn 0.3547 -0.6719 0.6502
vn 0.6175 -0.2115 -0.7576
vn -0.8856 -0.0200 0.4641
vn 0.8637 0.0094 -0.5040
vn 0.8802 -0.0255 -0.4740
vn -0.8646 0.0081 0.5024
vn 0.9574 -0.0582 -0.2828
vn -0.8914 0.2255 0.3932
vn -0.2994 -0.7913 -0.5330
vn 0.0922 -0.9821 0.1642
s 1
f 1/1/1 2/2/1 3/3/1
f 4/4/2 2/2/2 5/5/2
f 1/1/3 3/3/3 6/6/3
f 1/7/4 6/8/4 7/9/4
f 1/7/5 7/9/5 8/10/5
f 4/4/6 5/5/6 9/11/6
f 10/12/7 11/13/7 12/14/7
f 13/15/8 14/16/8 15/17/8
f 16/18/9 17/19/9 18/20/9
f 19/21/10 20/22/10 21/23/10
f 4/4/11 9/11/11 22/24/11
f 10/12/12 12/14/12 23/25/12
f 13/15/13 15/17/13 24/26/13
f 16/18/14 18/20/14 25/27/14
f 19/21/15 21/23/15 26/28/15
f 27/29/16 28/30/16 29/31/16
f 30/32/17 31/33/17 32/34/17
f 33/35/18 34/36/18 35/37/18
f 36/38/19 37/39/19 38/40/19
f 39/41/20 40/42/20 41/43/20
f 41/43/21 40/42/21 38/40/21
f 40/42/22 36/38/22 38/40/22
f 38/40/23 37/39/23 35/37/23
f 37/39/24 33/35/24 35/37/24
f 35/44/25 34/45/25 42/46/25
f 34/45/26 43/47/26 42/46/26
f 44/48/27 45/49/27 42/46/27
f 46/50/28 27/51/28 45/49/28
f 29/52/29 41/53/29 45/49/29
f 47/54/30 39/55/30 41/53/30
f 26/28/31 40/42/31 39/41/31
f 26/28/32 21/23/32 40/42/32
f 21/23/33 36/38/33 40/42/33
f 25/27/34 37/39/34 36/38/34
f 25/27/35 18/20/35 37/39/35
f 18/20/36 33/35/36 37/39/36
f 24/56/37 34/36/37 33/35/37
f 24/26/38 15/17/38 34/45/38
f 15/17/39 48/57/39 34/45/39
f 23/25/40 46/50/40 48/57/40
f 23/25/41 12/14/41 46/50/41
f 12/14/42 49/58/42 46/50/42
f 22/24/43 47/54/43 49/58/43
f 22/24/44 9/11/44 47/54/44
f 9/11/45 39/55/45 47/54/45
f 21/23/46 25/27/46 36/38/46
f 21/23/47 20/22/47 25/27/47
f 20/22/48 16/18/48 25/27/48
f 18/20/49 24/56/49 33/35/49
f 18/20/50 17/19/50 24/56/50
f 17/19/51 13/59/51 24/56/51
f 15/17/52 23/25/52 48/57/52
f 15/17/53 14/16/53 23/25/53
f 14/16/54 10/12/54 23/25/54
f 12/14/55 22/24/55 49/58/55
f 12/14/56 11/13/56 22/24/56
f 11/13/57 4/4/57 22/24/57
f 9/11/58 26/60/58 39/55/58
f 9/11/59 5/5/59 26/60/59
f 5/61/60 19/21/60 26/28/60
f 8/10/61 20/22/61 19/21/61
f 8/10/62 7/9/62 20/22/62
f 7/9/63 16/18/63 20/22/63
f 7/9/64 17/19/64 16/18/64
f 7/9/65 6/8/65 17/19/65
f 6/8/66 13/59/66 17/19/66
f 6/6/67 14/16/67 13/15/67
f 6/6/68 3/3/68 14/16/68
f 3/3/69 10/12/69 14/16/69
f 5/61/70 8/10/70 19/21/70
f 5/5/71 2/2/71 8/62/71
f 2/2/72 1/1/72 8/62/72
f 3/3/73 11/13/73 10/12/73
f 3/3/74 2/2/74 11/13/74
f 2/2/75 4/4/75 11/13/75
f 50/63/76 45/64/76 51/65/76
f 50/63/77 51/65/77 52/66/77
f 53/67/78 54/68/78 55/69/78
f 56/70/79 57/71/79 58/72/79
f 59/73/80 60/74/80 61/75/80
f 62/76/81 63/77/81 64/78/81
f 50/63/82 52/66/82 65/79/82
f 53/67/83 55/69/83 66/80/83
f 56/70/84 58/72/84 67/81/84
f 59/73/85 61/75/85 68/82/85
f 62/76/86 64/78/86 69/83/86
f 69/83/87 70/84/87 71/85/87
f 69/83/88 64/78/88 70/84/88
f 64/78/89 72/86/89 70/84/89
f 68/82/90 73/87/90 72/86/90
f 68/82/91 61/75/91 73/87/91
f 61/75/92 74/88/92 73/87/92
f 67/81/93 75/89/93 74/88/93
f 67/81/94 58/72/94 75/89/94
f 58/72/95 76/90/95 75/89/95
f 66/91/96 77/92/96 76/90/96
f 66/80/97 55/69/97 77/93/97
f 55/69/98 78/94/98 77/93/98
f 65/79/99 79/95/99 78/94/99
f 65/79/100 52/66/100 79/95/100
f 52/66/101 71/96/101 79/95/101
f 64/78/102 68/82/102 72/86/102
f 64/78/103 63/77/103 68/82/103
f 63/77/104 59/73/104 68/82/104
f 61/75/105 67/81/105 74/88/105
f 61/75/106 60/74/106 67/81/106
f 60/74/107 56/70/107 67/81/107
f 58/72/108 66/91/108 76/90/108
f 58/72/109 57/71/109 66/91/109
f 57/97/110 53/67/110 66/80/110
f 55/69/111 65/79/111 78/94/111
f 55/69/112 54/68/112 65/79/112
f 54/68/113 50/63/113 65/79/113
f 52/66/114 69/98/114 71/96/114
f 52/66/115 51/65/115 69/98/115
f 51/65/116 62/99/116 69/98/116
f 41/100/117 63/77/117 62/76/117
f 41/100/118 38/101/118 63/77/118
f 38/101/119 59/73/119 63/77/119
f 38/101/120 60/74/120 59/73/120
f 38/101/121 35/102/121 60/74/121
f 35/102/122 56/70/122 60/74/122
f 35/102/123 57/71/123 56/70/123
f 35/103/124 42/104/124 57/97/124
f 42/104/125 53/67/125 57/97/125
f 51/65/126 41/105/126 62/99/126
f 51/65/127 45/64/127 41/105/127
f 42/104/128 54/68/128 53/67/128
f 42/104/129 45/64/129 54/68/129
f 45/64/130 50/63/130 54/68/130
f 80/106/131 81/107/131 82/108/131
f 83/109/132 82/108/132 84/110/132
f 85/111/133 86/112/133 87/113/133
f 86/112/134 88/114/134 87/113/134
f 89/115/135 90/116/135 91/117/135
f 89/115/136 91/117/136 92/118/136
f 87/113/137 84/110/137 93/119/137
f 90/116/138 94/120/138 91/117/138
f 80/106/139 95/121/139 81/107/139
f 87/113/140 83/109/140 84/110/140
f 96/122/141 97/123/141 93/119/141
f 91/117/142 94/120/142 97/123/142
f 97/123/143 98/124/143 85/111/143
f 99/125/144 98/124/144 94/120/144
f 100/126/145 101/127/145 98/124/145
f 95/121/146 92/118/146 81/107/146
f 96/122/147 91/117/147 97/123/147
f 97/123/148 85/111/148 93/119/148
f 98/124/149 101/127/149 85/111/149
f 99/125/150 100/126/150 98/124/150
f 84/110/151 96/122/151 93/119/151
f 102/128/152 88/114/152 86/112/152
f 103/129/153 86/112/153 101/127/153
f 104/130/154 105/131/154 83/109/154
f 81/107/155 92/118/155 96/122/155
f 90/116/156 99/125/156 94/120/156
f 105/131/157 80/106/157 82/108/157
f 102/128/158 104/130/158 88/114/158
f 95/121/159 89/115/159 92/118/159
f 94/120/160 98/124/160 97/123/160
f 92/118/161 91/117/161 96/122/161
f 88/114/162 83/109/162 87/113/162
f 101/127/163 86/112/163 85/111/163
f 82/108/164 81/107/164 84/110/164
f 105/131/165 82/108/165 83/109/165
f 103/129/166 102/128/166 86/112/166
f 85/111/167 87/113/167 93/119/167
f 84/110/168 81/107/168 96/122/168
f 104/130/169 83/109/169 88/114/169
f 100/126/170 103/129/170 101/127/170
f 106/132/171 107/133/171 108/134/171
f 108/134/172 31/135/172 109/136/172
f 27/29/173 110/137/173 111/138/173
f 43/47/174 44/48/174 42/46/174
f 47/139/175 28/30/175 112/140/175
f 32/141/176 107/133/176 113/142/176
f 49/143/177 112/144/177 110/145/177
f 27/51/178 29/52/178 45/49/178
f 112/140/179 114/146/179 115/147/179
f 106/132/180 32/141/180 113/142/180
f 100/148/181 116/149/181 99/150/181
f 100/148/182 117/151/182 103/152/182
f 99/150/183 118/153/183 116/149/183
f 116/149/184 119/154/184 120/155/184
f 117/151/185 119/154/185 121/156/185
f 118/153/186 120/155/187 116/149/187
f 120/157/188 122/158/188 123/159/188
f 121/160/189 122/158/189 124/161/189
f 125/162/190 123/159/190 120/157/190
f 126/163/191 118/153/191 90/164/191
f 117/151/192 124/165/192 103/152/192
f 77/166/193 89/115/193 76/167/193
f 76/167/194 95/121/194 75/168/194
f 75/168/195 80/106/195 74/169/195
f 74/169/196 105/131/196 73/170/196
f 105/131/197 72/171/197 73/170/197
f 104/130/198 70/172/198 72/171/198
f 102/128/199 71/173/199 70/172/199
f 124/161/200 79/174/200 71/175/200
f 103/152/201 124/165/201 71/176/201
f 122/158/202 78/177/202 79/174/202
f 78/177/203 126/178/203 77/179/203
f 90/164/204 126/163/204 77/180/204
f 127/181/205 114/146/205 128/182/205
f 112/144/206 127/183/206 110/145/206
f 111/138/207 114/146/207 28/30/207
f 110/137/208 128/182/208 111/138/208
f 43/184/209 30/185/209 106/132/209
f 44/186/210 109/136/210 46/187/210
f 43/184/211 108/134/211 44/186/211
f 48/188/212 109/189/212 30/32/212
f 129/190/213 130/191/213 131/192/213
f 132/193/214 133/194/214 134/195/214
f 133/196/215 135/197/215 134/198/215
f 136/199/216 137/200/216 135/197/216
f 138/201/217 139/202/217 140/203/217
f 141/204/218 142/205/218 139/202/218
f 137/200/219 143/206/219 138/201/219
f 144/207/220 145/208/220 142/209/220
f 146/210/221 131/192/221 147/211/221
f 135/212/222 142/209/222 147/211/222
f 148/213/216 149/214/216 150/215/216
f 145/208/219 148/213/219 146/210/219
f 132/193/219 151/216/219 133/194/219
f 141/204/219 143/206/219 152/217/219
f 146/210/219 150/215/219 129/190/219
f 129/190/219 153/218/219 154/219/219
f 133/196/219 155/220/219 156/221/219
f 141/204/219 157/222/219 158/223/219
f 159/224/219 160/225/219 161/226/219
f 152/217/214 159/227/214 157/222/214
f 162/228/221 160/229/221 163/230/221
f 164/231/218 165/232/218 161/226/218
f 166/233/215 159/224/215 167/234/215
f 143/206/213 168/235/213 152/217/213
f 151/236/220 160/229/220 155/220/220
f 150/215/217 165/232/217 153/218/217
f 169/237/223 170/238/223 171/239/223
f 162/240/224 172/241/224 173/242/224
f 174/243/219 153/218/219 164/231/219
f 136/199/219 155/220/219 162/228/219
f 144/244/225 175/245/225 176/246/225
f 174/247/226 177/248/226 132/249/226
f 144/207/219 157/250/219 166/233/219
f 178/251/227 175/252/228 172/253/229
f 179/254/230 173/255/230 180/256/230
f 145/257/231 169/258/231 167/259/231
f 164/260/232 180/261/232 171/262/232
f 137/263/233 172/241/233 181/264/233
f 136/265/234 173/242/234 182/266/234
f 144/267/235 183/268/235 145/257/235
f 174/247/236 171/262/236 184/269/236
f 132/249/237 180/270/237 185/271/237
f 167/259/238 175/245/238 166/272/238
f 137/263/239 182/273/239 178/274/239
f 180/256/222 175/252/222 171/239/222
f 172/253/222 180/256/222 173/255/222
f 169/237/222 171/239/222 175/252/222
f 186/275/240 187/276/240 188/277/240
f 178/278/241 189/279/241 190/280/241
f 183/281/219 191/282/219 170/283/219
f 192/284/242 189/285/242 193/286/242
f 194/287/243 195/288/243 196/289/243
f 197/290/244 198/291/244 199/292/244
f 176/293/245 200/294/245 183/295/245
f 201/296/246 202/297/247 203/298/248
f 194/287/249 196/289/249 204/299/249
f 205/300/250 206/301/250 207/302/250
f 208/303/251 209/304/251 210/305/251
f 211/306/252 212/307/252 213/308/252
f 214/309/253 215/310/253 216/311/253
f 194/287/254 204/299/254 217/312/254
f 205/313/255 207/314/255 218/315/255
f 208/303/256 210/305/256 219/316/256
f 211/306/257 213/308/257 220/317/257
f 214/309/258 216/311/258 221/318/258
f 222/319/259 223/320/259 224/321/259
f 225/322/260 226/323/260 227/324/260
f 228/325/261 229/326/261 230/327/261
f 231/328/262 232/329/262 233/330/262
f 234/331/263 235/332/263 236/333/263
f 236/333/264 233/334/264 237/335/264
f 236/333/265 235/332/265 233/334/265
f 235/332/266 231/336/266 233/334/266
f 233/330/267 230/327/267 237/337/267
f 233/330/268 232/329/268 230/327/268
f 232/329/269 228/325/269 230/327/269
f 230/327/270 227/324/270 237/337/270
f 230/327/271 229/326/271 227/324/271
f 229/326/272 225/322/272 227/324/272
f 227/338/273 224/321/273 237/335/273
f 227/338/274 226/339/274 224/321/274
f 226/339/275 222/319/275 224/321/275
f 224/321/276 236/333/276 237/335/276
f 224/321/277 223/320/277 236/333/277
f 223/320/278 234/331/278 236/333/278
f 221/318/279 235/332/279 234/331/279
f 221/318/280 216/311/280 235/332/280
f 216/311/281 231/336/281 235/332/281
f 220/317/282 232/329/282 231/328/282
f 220/317/283 213/308/283 232/329/283
f 213/308/284 228/325/284 232/329/284
f 219/316/285 229/326/285 228/325/285
f 219/316/286 210/305/286 229/326/286
f 210/305/287 225/322/287 229/326/287
f 218/315/288 226/323/288 225/322/288
f 218/315/289 207/314/289 226/323/289
f 207/302/290 222/319/290 226/339/290
f 217/312/291 223/320/291 222/319/291
f 217/312/292 204/299/292 223/320/292
f 204/299/293 234/331/293 223/320/293
f 216/340/294 220/317/294 231/328/294
f 216/340/295 215/341/295 220/317/295
f 215/341/296 211/306/296 220/317/296
f 213/308/297 219/316/297 228/325/297
f 213/308/298 212/307/298 219/316/298
f 212/307/299 208/303/299 219/316/299
f 210/305/300 218/315/300 225/322/300
f 210/305/301 209/304/301 218/315/301
f 209/304/302 205/313/302 218/315/302
f 207/302/303 217/312/303 222/319/303
f 207/302/304 206/301/304 217/312/304
f 206/301/305 194/287/305 217/312/305
f 204/299/306 221/318/306 234/331/306
f 204/299/307 196/289/307 221/318/307
f 196/289/308 214/309/308 221/318/308
f 238/342/309 215/310/309 214/309/309
f 238/342/310 201/296/310 215/310/310
f 201/343/311 211/306/311 215/341/311
f 201/343/312 212/307/312 211/306/312
f 201/343/313 239/344/313 212/307/313
f 239/344/314 208/303/314 212/307/314
f 239/344/315 209/304/315 208/303/315
f 239/344/316 198/291/316 209/304/316
f 198/291/317 205/313/317 209/304/317
f 196/289/318 238/342/318 214/309/318
f 196/289/319 195/288/319 238/342/319
f 240/345/320 238/342/320 195/288/320
f 198/346/321 206/301/321 205/300/321
f 198/346/322 195/288/322 206/301/322
f 195/288/323 194/287/323 206/301/323
f 200/347/324 239/344/325 201/343/326
f 170/348/219 187/349/219 184/350/219
f 192/351/327 176/293/327 191/352/327
f 192/284/328 170/353/328 200/294/328
f 170/353/329 183/295/329 200/294/329
f 186/275/330 177/354/330 240/355/330
f 203/298/331 186/356/331 192/284/331
f 177/357/332 202/358/332 240/359/332
f 241/360/333 195/288/333 198/346/333
f 179/361/219 188/362/219 190/363/219
f 191/364/219 178/365/219 190/363/219
f 203/366/334 184/367/334 187/276/334
f 189/285/335 240/345/335 241/360/335
f 193/368/336 178/278/336 197/369/336
f 197/369/337 178/278/337 241/370/337
f 189/279/338 179/371/338 190/280/338
f 182/372/339 179/371/339 241/373/339
f 178/374/340 182/372/340 241/373/340
f 242/375/341 243/376/341 244/377/341
f 245/378/342 242/375/342 246/379/342
f 247/380/343 248/381/343 249/382/343
f 249/382/344 243/376/344 242/375/344
f 243/376/345 247/380/345 244/377/345
f 250/383/346 251/384/346 252/385/346
f 253/386/347 254/387/347 255/388/347
f 256/389/348 253/386/348 257/390/348
f 258/391/349 259/392/349 260/393/349
f 260/393/350 254/387/350 253/386/350
f 254/387/351 258/391/351 255/388/351
f 261/394/352 262/395/352 263/396/352
f 264/397/353 265/398/353 266/399/353
f 267/400/354 264/397/354 268/401/354
f 269/402/355 270/403/355 271/404/355
f 271/404/356 265/398/356 264/397/356
f 265/398/357 269/402/357 266/399/357
f 272/405/358 273/406/358 274/407/358
f 275/408/359 276/409/359 277/410/359
f 278/411/360 279/412/360 276/409/360
f 279/412/361 280/413/361 281/414/361
f 280/413/362 277/410/362 281/414/362
f 279/412/222 277/410/222 276/409/222
f 278/411/219 280/413/219 282/415/219
f 283/416/363 284/417/363 285/418/363
f 286/419/364 287/420/364 288/421/364
f 289/422/365 290/423/365 291/424/365
f 292/425/366 293/426/366 294/427/366
f 295/428/367 296/429/367 297/430/367
f 298/431/219 295/428/219 297/430/219
f 285/418/368 299/432/369 300/433/370
f 301/434/371 286/435/371 291/424/371
f 300/433/372 299/432/372 302/436/372
f 303/437/373 304/438/373 305/439/373
f 306/440/374 307/441/374 308/442/374
f 292/425/364 306/440/364 308/442/364
f 309/443/375 306/440/375 310/444/375
f 294/427/365 311/445/365 309/443/365
f 312/446/376 313/447/376 314/448/376
f 311/445/377 315/449/377 306/440/377
f 311/445/378 316/450/378 312/446/378
f 308/442/379 316/450/379 293/426/379
f 317/451/380 318/452/380 304/438/380
f 319/453/364 317/451/364 303/437/364
f 319/453/381 320/454/381 321/455/381
f 322/456/365 304/438/365 320/454/365
f 312/446/382 323/457/382 315/449/382
f 304/438/383 324/458/383 320/454/383
f 317/451/384 325/459/384 326/460/384
f 321/455/385 324/458/385 325/459/385
f 327/461/367 328/462/367 329/463/367
f 288/464/367 290/423/367 289/422/367
f 330/465/364 331/466/364 327/461/364
f 289/422/386 331/466/386 288/464/386
f 330/465/387 329/463/387 296/429/387
f 296/429/365 328/462/365 289/422/365
f 332/467/371 333/468/371 334/469/371
f 335/470/371 298/431/371 336/471/388
f 286/435/389 332/467/389 291/424/389
f 291/424/365 334/469/365 336/471/365
f 286/435/364 333/468/364 337/472/364
f 336/471/390 333/468/390 335/470/390
f 302/436/391 309/443/391 301/434/391
f 301/434/392 310/444/392 287/420/392
f 283/416/393 310/444/393 292/425/393
f 302/436/394 292/425/394 294/427/394
f 300/433/365 305/439/365 322/456/365
f 300/433/395 319/453/395 285/418/395
f 285/418/364 303/437/364 338/473/364
f 290/423/396 303/437/396 305/439/396
f 284/417/397 302/436/398 299/432/399
f 323/457/400 314/448/400 339/474/400
f 340/475/401 341/476/401 342/477/401
f 326/460/402 341/476/402 340/475/402
f 325/459/403 343/478/404 341/476/405
f 316/450/406 344/479/407 313/447/406
f 315/449/408 344/479/408 307/441/408
f 326/460/409 345/480/409 318/452/409
f 318/452/410 343/478/411 324/458/411
f 341/476/412 343/478/412 342/477/412
f 314/448/413 313/447/413 339/474/413
f 313/447/414 344/479/414 339/474/414
f 344/479/415 323/457/415 339/474/415
f 345/480/416 340/475/416 342/477/416
f 343/478/417 345/480/417 342/477/417
f 27/29/418 111/138/418 28/30/418
f 30/32/419 109/189/419 31/33/419
f 34/45/420 48/57/420 43/47/420
f 44/48/421 46/50/421 45/49/421
f 46/50/422 49/58/422 27/51/422
f 29/52/423 47/54/423 41/53/423
f 106/132/424 113/142/424 107/133/424
f 108/134/425 107/133/425 31/135/425
f 27/29/426 49/481/426 110/137/426
f 47/139/427 29/31/427 28/30/427
f 32/141/176 31/135/176 107/133/176
f 49/143/428 47/482/428 112/144/428
f 112/140/429 28/30/429 114/146/429
f 106/132/430 30/185/430 32/141/430
f 100/148/181 346/483/181 116/149/181
f 100/148/431 346/483/431 117/151/431
f 99/150/432 90/164/432 118/153/432
f 116/149/184 346/483/184 119/154/184
f 117/151/433 346/483/433 119/154/433
f 118/153/186 125/484/186 120/155/187
f 120/157/188 119/485/188 122/158/188
f 121/160/189 119/485/189 122/158/189
f 125/162/190 126/178/190 123/159/190
f 126/163/434 125/484/434 118/153/434
f 117/151/435 121/156/435 124/165/435
f 77/166/436 90/116/436 89/115/436
f 76/167/437 89/115/437 95/121/437
f 75/168/438 95/121/438 80/106/438
f 74/169/439 80/106/439 105/131/439
f 105/131/440 104/130/440 72/171/440
f 104/130/441 102/128/441 70/172/441
f 102/128/442 103/129/442 71/173/442
f 124/161/443 122/158/443 79/174/443
f 122/158/444 123/159/444 78/177/444
f 78/177/445 123/159/445 126/178/445
f 127/181/446 115/147/446 114/146/446
f 112/144/447 115/486/447 127/183/447
f 111/138/448 128/182/448 114/146/448
f 110/137/449 127/181/449 128/182/449
f 43/184/450 48/487/450 30/185/450
f 44/186/451 108/134/451 109/136/451
f 43/184/452 106/132/452 108/134/452
f 48/188/453 46/488/453 109/189/453
f 129/190/213 154/219/213 130/191/213
f 134/195/214 130/191/214 174/243/214
f 174/243/214 132/193/214 134/195/214
f 130/191/214 154/219/214 174/243/214
f 133/196/215 156/221/215 135/197/215
f 140/203/216 135/197/216 137/200/216
f 135/197/216 156/221/216 136/199/216
f 137/200/216 138/201/216 140/203/216
f 138/201/217 141/204/217 139/202/217
f 141/204/218 158/223/218 142/205/218
f 137/200/219 181/489/219 143/206/219
f 147/211/220 142/209/220 145/208/220
f 158/490/220 144/207/220 142/209/220
f 145/208/220 146/210/220 147/211/220
f 146/210/221 129/190/221 131/192/221
f 147/211/222 131/192/222 130/191/222
f 130/191/222 134/195/222 135/212/222
f 135/212/222 140/491/222 139/492/222
f 139/492/222 142/209/222 135/212/222
f 147/211/222 130/191/222 135/212/222
f 148/213/216 347/493/216 149/214/216
f 145/208/219 167/234/219 148/213/219
f 132/193/219 185/494/219 151/216/219
f 141/204/219 138/201/219 143/206/219
f 146/210/219 148/213/219 150/215/219
f 129/190/219 150/215/219 153/218/219
f 133/196/219 151/236/219 155/220/219
f 141/204/219 152/217/219 157/222/219
f 161/226/219 165/232/219 159/224/219
f 149/214/219 347/493/219 159/224/219
f 159/224/219 168/495/219 163/496/219
f 163/496/219 160/225/219 159/224/219
f 165/232/219 149/214/219 159/224/219
f 152/217/214 168/235/214 159/227/214
f 163/230/221 143/206/221 181/489/221
f 162/228/221 155/220/221 160/229/221
f 163/230/221 181/489/221 162/228/221
f 161/226/218 151/216/218 185/494/218
f 185/494/218 164/231/218 161/226/218
f 153/218/218 165/232/218 164/231/218
f 347/493/215 148/213/215 167/234/215
f 166/233/215 157/250/215 159/224/215
f 347/493/215 167/234/215 159/224/215
f 143/206/213 163/230/213 168/235/213
f 151/236/220 161/497/220 160/229/220
f 150/215/217 149/214/217 165/232/217
f 184/498/454 171/239/454 170/238/454
f 169/237/455 183/499/455 170/238/455
f 162/240/224 181/264/224 172/241/224
f 174/243/219 154/219/219 153/218/219
f 136/199/219 156/221/219 155/220/219
f 144/244/456 166/272/456 175/245/456
f 174/247/226 184/269/226 177/248/226
f 144/207/219 158/490/219 157/250/219
f 178/251/227 176/500/457 175/252/228
f 180/256/458 177/501/458 179/254/458
f 179/254/459 182/502/459 173/255/459
f 145/257/460 183/268/460 169/258/460
f 164/260/232 185/503/232 180/261/232
f 137/263/461 178/274/461 172/241/461
f 136/265/462 162/240/462 173/242/462
f 144/267/235 176/504/235 183/268/235
f 174/247/463 164/260/463 171/262/463
f 132/249/464 177/248/464 180/270/464
f 167/259/238 169/258/238 175/245/238
f 137/263/239 136/505/239 182/273/239
f 180/256/222 172/253/222 175/252/222
f 186/275/465 203/366/465 187/276/465
f 178/278/466 193/368/466 189/279/466
f 183/281/219 176/506/219 191/282/219
f 192/284/467 186/356/467 189/285/467
f 199/292/468 192/507/468 193/508/468
f 193/508/469 197/290/469 199/292/469
f 198/291/470 239/344/470 199/292/470
f 176/293/471 199/509/471 200/294/471
f 203/298/472 192/284/472 200/294/472
f 200/294/473 201/296/473 203/298/473
f 238/342/246 202/297/247 201/296/246
f 240/345/474 202/297/474 238/342/474
f 200/347/324 199/292/475 239/344/325
f 170/348/219 191/364/219 187/349/219
f 192/351/476 199/509/476 176/293/476
f 192/284/477 191/510/477 170/353/477
f 186/275/478 188/277/478 177/354/478
f 177/357/479 184/367/479 202/358/479
f 198/346/480 197/511/480 241/360/480
f 241/360/481 240/345/481 195/288/481
f 179/361/219 177/512/219 188/362/219
f 190/363/219 188/362/219 187/349/219
f 191/364/219 176/513/219 178/365/219
f 190/363/219 187/349/219 191/364/219
f 203/366/482 202/358/482 184/367/482
f 189/285/483 186/356/483 240/345/483
f 189/279/484 241/373/484 179/371/484
f 244/377/341 252/385/341 242/375/341
f 246/379/341 242/375/341 252/385/341
f 245/378/342 249/382/342 242/375/342
f 249/382/343 245/378/343 250/383/343
f 250/383/343 247/380/343 249/382/343
f 249/382/344 248/381/344 243/376/344
f 243/376/345 248/381/345 247/380/345
f 252/385/346 244/377/346 250/383/346
f 247/380/346 250/383/346 244/377/346
f 255/388/347 263/396/347 253/386/347
f 257/390/347 253/386/347 263/396/347
f 256/389/348 260/393/348 253/386/348
f 260/393/349 256/389/349 261/394/349
f 261/394/349 258/391/349 260/393/349
f 260/393/350 259/392/350 254/387/350
f 254/387/351 259/392/351 258/391/351
f 263/396/352 255/388/352 261/394/352
f 258/391/352 261/394/352 255/388/352
f 266/399/353 274/407/353 264/397/353
f 268/401/353 264/397/353 274/407/353
f 267/400/354 271/404/354 264/397/354
f 271/404/355 267/400/355 272/405/355
f 272/405/355 269/402/355 271/404/355
f 271/404/356 270/403/356 265/398/356
f 265/398/357 270/403/357 269/402/357
f 274/407/485 266/399/485 272/405/485
f 269/402/485 272/405/485 266/399/485
f 275/408/359 278/411/359 276/409/359
f 278/411/360 282/415/360 279/412/360
f 279/412/361 282/415/361 280/413/361
f 280/413/362 275/408/362 277/410/362
f 279/412/222 281/414/222 277/410/222
f 278/411/219 275/408/219 280/413/219
f 285/418/364 338/473/364 287/420/364
f 287/420/486 283/416/486 285/418/486
f 330/514/364 295/515/364 335/516/364
f 348/517/364 335/516/364 295/515/364
f 288/421/364 330/514/364 286/419/364
f 287/420/364 338/518/364 288/421/364
f 330/514/364 335/516/364 286/419/364
f 336/471/365 298/431/365 296/429/365
f 296/429/365 289/422/365 336/471/365
f 298/431/365 297/430/365 296/429/365
f 290/423/365 301/434/365 291/424/365
f 291/424/365 336/471/365 289/422/365
f 292/425/366 308/442/366 293/426/366
f 295/428/367 330/465/367 296/429/367
f 298/431/219 348/519/219 295/428/219
f 285/418/368 284/417/487 299/432/369
f 301/434/371 287/420/371 286/435/371
f 302/436/488 301/434/488 300/433/488
f 290/423/365 300/433/365 301/434/365
f 303/437/373 317/451/373 304/438/373
f 306/440/489 315/449/489 307/441/489
f 292/425/364 310/444/364 306/440/364
f 309/443/375 311/445/375 306/440/375
f 294/427/365 293/426/365 311/445/365
f 312/446/376 316/450/376 313/447/376
f 311/445/377 312/446/377 315/449/377
f 311/445/490 293/426/490 316/450/490
f 308/442/379 307/441/379 316/450/379
f 317/451/380 326/460/380 318/452/380
f 319/453/364 321/455/364 317/451/364
f 319/453/381 322/456/381 320/454/381
f 322/456/365 305/439/365 304/438/365
f 312/446/382 314/448/382 323/457/382
f 304/438/491 318/452/491 324/458/491
f 317/451/492 321/455/492 325/459/492
f 321/455/385 320/454/385 324/458/385
f 327/461/367 331/466/367 328/462/367
f 288/464/367 338/473/367 290/423/367
f 330/465/364 288/464/364 331/466/364
f 289/422/386 328/462/386 331/466/386
f 330/465/387 327/461/387 329/463/387
f 296/429/365 329/463/365 328/462/365
f 332/467/371 337/472/371 333/468/371
f 335/470/371 348/519/371 298/431/371
f 286/435/389 337/472/389 332/467/389
f 291/424/365 332/467/365 334/469/365
f 286/435/364 335/470/364 333/468/364
f 336/471/390 334/469/390 333/468/390
f 302/436/493 294/427/493 309/443/493
f 301/434/392 309/443/392 310/444/392
f 283/416/494 287/420/494 310/444/494
f 302/436/394 283/416/394 292/425/394
f 300/433/365 290/423/365 305/439/365
f 300/433/395 322/456/395 319/453/395
f 285/418/364 319/453/364 303/437/364
f 290/423/396 338/473/396 303/437/396
f 284/417/397 283/416/495 302/436/398
f 326/460/402 325/459/402 341/476/402
f 325/459/403 324/458/496 343/478/404
f 316/450/406 307/441/407 344/479/407
f 315/449/408 323/457/408 344/479/408
f 326/460/409 340/475/409 345/480/409
f 318/452/410 345/480/410 343/478/411
