# Blender v2.78 (sub 0) OBJ File: 'Builder.blend'
# www.blender.org
o Icosphere_Icosphere.001
v -0.170862 0.103871 -0.157421
v 0.143570 0.246525 -0.589589
v 0.334430 0.266809 -0.002121
v 0.375216 0.690139 -0.908154
v -0.153155 0.611097 -1.031783
v -0.165317 0.299318 0.360036
v -0.665036 0.299121 -0.003617
v -0.474129 0.266495 -0.590514
v 0.175292 1.201309 -1.158873
v 0.699930 0.724648 0.091313
v 0.655410 0.611408 -0.443390
v 0.865879 1.221787 -0.207746
v -0.150299 0.779956 0.707453
v 0.346519 0.664201 0.506242
v 0.175215 1.286920 0.741314
v -1.000478 0.779621 0.088768
v -0.652952 0.696513 0.504746
v -0.942215 1.306696 0.376738
v -0.675684 0.724114 -0.909727
v -0.961767 0.663691 -0.445810
v -0.942168 1.253786 -0.797642
v 0.675019 1.201503 -0.795221
v 0.674972 1.254413 0.379158
v -0.442487 1.306890 0.740390
v -1.133075 1.286412 -0.210738
v -0.442411 1.221279 -1.159798
v 0.591715 1.882343 -0.472797
v 0.807902 1.714892 -0.784939
v 0.327946 1.970231 -0.746327
v 0.408488 1.784085 0.491243
v 0.919011 1.938616 0.643124
v 0.915389 1.966905 0.876616
v -0.642412 1.818060 0.489671
v -0.114041 1.897102 0.613299
v -0.267787 2.333097 0.033684
v -0.967125 1.783552 -0.509798
v -0.922606 1.896791 0.024906
v -0.422145 2.319795 -0.372570
v -0.116897 1.728243 -1.125937
v -0.613715 1.843998 -0.924726
v -0.105002 2.301146 -0.558447
v 0.371752 2.752596 -0.302433
v 0.368354 2.654638 -0.147949
v 0.367432 2.619234 -0.296425
v 0.370818 2.730686 -0.151375
v 0.368354 2.654638 -0.147949
v 0.319704 2.754278 -0.302511
v 0.316318 2.641900 -0.468124
v 0.315383 2.620917 -0.296503
v 0.066888 2.321101 0.008078
v 0.292692 1.966124 0.327459
v 0.370831 2.716265 -0.471472
v 0.316807 2.645822 -0.710141
v 0.318782 2.717947 -0.471550
v 0.518233 1.978399 0.021919
v 0.208043 2.299071 -0.379413
v 0.694571 1.844508 0.027326
v 0.368367 2.640217 -0.468046
v 0.385756 1.811686 -0.923230
v 0.733282 1.728579 -0.507253
v 0.248416 2.546481 -0.397108
v 0.103637 2.510950 -0.567300
v 0.316305 2.656321 -0.148027
v 0.238203 2.726052 -0.534371
v 0.110701 2.569516 0.015169
v 0.228370 2.524682 -0.172804
v 0.234344 2.748079 -0.048224
v -0.324340 2.583429 0.011086
v -0.108290 2.546398 0.067128
v -0.229435 2.769676 0.097659
v -0.455490 2.568987 -0.403716
v -0.441086 2.546087 -0.179086
v -0.512203 2.760997 -0.298324
v -0.101505 2.546154 -0.655992
v -0.310107 2.524179 -0.571186
v -0.223188 2.734035 -0.688941
v 0.315292 2.734539 -0.290556
v 0.026277 2.761500 0.100061
v -0.435113 2.769484 -0.054508
v -0.431255 2.747457 -0.540655
v 0.032524 2.725859 -0.686539
v -0.167957 3.514852 -0.631439
v -0.301813 3.552160 -0.503304
v -0.116783 3.658000 -0.519106
v -0.363371 3.534972 -0.325417
v -0.280855 3.567020 -0.158406
v -0.231644 3.669826 -0.339231
v -0.132300 3.540134 -0.044667
v 0.053767 3.560104 -0.071273
v -0.095824 3.672860 -0.174212
v 0.205923 3.523207 -0.177174
v 0.239618 3.540972 -0.362315
v 0.102976 3.662910 -0.252097
v 0.183889 3.507583 -0.539818
v 0.019857 3.536061 -0.629326
v 0.090025 3.653727 -0.465253
v -0.089762 2.913960 -0.654422
v 0.126289 2.876929 -0.598381
v -0.308752 2.890841 -0.602464
v -0.426420 2.935677 -0.414491
v -0.446467 2.913877 -0.190185
v -0.301688 2.949408 -0.019993
v -0.096545 2.914204 0.068697
v 0.112057 2.936180 -0.016108
v 0.257440 2.891370 -0.183577
v 0.243036 2.914270 -0.408208
v 0.318769 2.732369 -0.151453
v 0.369610 2.703552 0.069462
v 0.367146 2.627503 0.072888
v 0.370818 2.730686 -0.151375
v 0.318769 2.732369 -0.151453
v 0.316305 2.656321 -0.148027
v 0.315098 2.629186 0.072810
v 0.339947 2.820039 0.471426
v 0.317561 2.705235 0.069384
v 0.314344 2.569774 -0.706715
v 0.335379 2.679745 -1.180898
v 0.335037 2.668473 -1.195721
v 0.368856 2.644139 -0.710063
v 0.366392 2.568091 -0.706637
v 0.353579 2.667873 -1.195693
v 0.353922 2.679146 -1.180870
v 0.353484 2.819601 0.471446
v 0.339544 2.808306 0.487383
v 0.353081 2.807868 0.487404
v -0.080726 3.354856 -0.681642
v -0.279527 3.364805 -0.603757
v -0.381439 3.385814 -0.210724
v -0.260420 2.931983 -0.025119
v -0.245619 3.388849 -0.045702
v -0.409192 2.919764 -0.403298
v -0.394391 3.376630 -0.423881
v 0.261905 3.353616 -0.462769
v 0.126085 3.350582 -0.627790
v -0.294328 2.907939 -0.583174
v 0.111284 2.893716 -0.607207
v 0.159994 3.374625 -0.069735
v 0.274858 3.362800 -0.249611
v 0.260057 2.905934 -0.229028
v -0.095527 2.897990 -0.661059
v -0.038808 3.384575 0.008151
v -0.053609 2.927709 0.028734
v 0.247104 2.896750 -0.442186
v -0.396240 2.928948 -0.190141
v 0.145193 2.917759 -0.049151
v -0.048579 3.715037 -0.352304
v 0.533244 2.850275 -1.267999
v -0.006024 2.961446 0.811793
v -0.143112 2.864253 -1.444118
v -0.793275 2.896791 -1.189401
v 0.644140 2.928907 0.557075
v 1.019793 2.890234 -0.031194
v -1.168928 2.935465 -0.601131
v -1.126569 2.965499 0.095984
v 0.977433 2.860199 -0.728310
v -0.682381 2.975423 0.635673
v 0.710616 3.092667 0.624136
v -0.849230 3.057816 -1.271095
v 0.005075 3.127977 0.900549
v 1.072298 3.018107 -0.770731
v -1.256879 3.099783 -0.632720
v 1.118265 3.050700 -0.014239
v -0.143689 3.022506 -1.547508
v -0.728890 3.143145 0.709429
v 0.590276 3.007338 -1.356388
v -1.210912 3.132376 0.123772
v -0.146364 3.020609 -1.591520
v -0.877274 3.057189 -1.305169
v -0.752606 3.145587 0.746570
v 0.007750 3.129874 0.944562
v 1.160967 3.049818 -0.003119
v 1.113347 3.016053 -0.786812
v -1.299581 3.100665 -0.643839
v 0.738660 3.093294 0.658210
v -1.251960 3.134430 0.139854
v 0.613993 3.004896 -1.393528
v -0.007806 2.899606 0.818311
v 0.978900 2.798025 -0.726878
v -1.174552 2.873538 -0.599280
v 1.021399 2.828159 -0.027460
v -0.145348 2.802091 -1.445052
v -0.686397 2.913629 0.641611
v 0.533244 2.788068 -1.268350
v -1.132053 2.903672 0.100139
v 0.644505 2.866960 0.562753
v -0.797659 2.834738 -1.189492
v 0.369910 2.841622 -0.197106
v 0.352628 2.829368 -0.481521
v -0.523064 2.860075 -0.429634
v -0.104542 2.831022 -0.773563
v -0.324557 2.876378 0.074969
v 0.171405 2.825319 -0.701708
v -0.505781 2.872329 -0.145218
v -0.048611 2.870675 0.146824
v 0.216648 2.857400 0.042901
v -0.369801 2.844297 -0.669641
v 0.882652 2.023958 0.663622
v 1.049577 1.679206 -0.587419
v 0.896637 1.551828 -0.905702
v 0.900434 1.684028 -0.587643
v 1.045779 1.547007 -0.905479
v 0.886994 1.246223 -1.064339
v 0.898106 1.767518 -0.734621
v 1.036137 1.241401 -1.064115
v 0.876019 0.910209 -0.989324
v 0.801028 1.588053 -0.762555
v 0.872745 2.060292 0.822200
v 1.025161 0.905388 -0.989101
v 0.868846 0.701011 -0.715761
v 0.882405 1.673890 -0.658290
v 1.045753 1.576144 -0.258762
v 1.035792 2.124084 1.127783
v 1.036097 1.286042 -0.073287
v 1.017989 0.696189 -0.715538
v 0.868832 0.716515 -0.371649
v 0.944143 2.317863 1.005771
v 1.042136 2.314695 1.005918
v 1.017975 0.711694 -0.371426
v 0.875984 0.949466 -0.118004
v 0.937798 2.127253 1.127636
v 0.886954 1.290864 -0.073511
v 1.025126 0.944644 -0.117781
v 0.896611 1.580966 -0.258985
vt 0.7477 0.7125
vt 0.7382 0.7294
vt 0.6943 0.7309
vt 0.7377 0.7794
vt 0.7594 0.7699
vt 0.9694 0.7151
vt 0.9160 0.7335
vt 0.8713 0.7351
vt 0.8262 0.7339
vt 0.7819 0.7308
vt 0.7478 0.8360
vt 0.6941 0.7823
vt 0.7161 0.7705
vt 0.7050 0.8382
vt 0.8708 0.7880
vt 0.8935 0.7767
vt 0.8819 0.8450
vt 0.8253 0.7863
vt 0.8481 0.7777
vt 0.8356 0.8447
vt 0.7810 0.7814
vt 0.8031 0.7739
vt 0.7907 0.8396
vt 0.7266 0.8364
vt 0.6829 0.8405
vt 0.8587 0.8456
vt 0.8128 0.8424
vt 0.7691 0.8371
vt 0.7165 0.9112
vt 0.7232 0.8935
vt 0.7340 0.9209
vt 0.9082 0.8497
vt 0.9140 0.8631
vt 0.9107 0.8652
vt 0.9609 0.9112
vt 0.9738 0.9165
vt 0.9622 0.9426
vt 0.9361 0.9094
vt 0.9481 0.9159
vt 0.9322 0.9419
vt 0.9132 0.9074
vt 0.9243 0.9136
vt 0.9124 0.9412
vt 0.7524 0.1813
vt 0.7020 0.1460
vt 0.7524 0.1364
vt 0.7553 0.9567
vt 0.7781 0.9057
vt 0.7922 0.9584
vt 0.5476 0.0203
vt 0.5476 0.0203
vt 0.5476 0.0203
vt 0.8223 0.9103
vt 0.8479 0.9604
vt 0.7523 0.1793
vt 0.8099 0.1438
vt 0.7523 0.1341
vt 0.8701 0.9120
vt 0.8972 0.9604
vt 0.8909 0.8581
vt 0.9086 0.8646
vt 0.9114 0.8937
vt 0.7078 0.0203
vt 0.8286 0.0464
vt 0.7078 0.0464
vt 0.6923 0.9209
vt 0.7212 0.9566
vt 0.6755 0.9578
vt 0.9251 0.8555
vt 0.9414 0.8588
vt 0.9454 0.8924
vt 0.6246 0.0464
vt 0.7098 0.0203
vt 0.6246 0.0203
vt 0.9021 0.9129
vt 0.7575 0.8939
vt 0.8000 0.8980
vt 0.8462 0.9020
vt 0.6602 0.8424
vt 0.6718 0.8984
vt 0.6484 0.9094
vt 0.6945 0.9065
vt 0.7159 0.8945
vt 0.7367 0.9037
vt 0.6718 0.7741
vt 0.8096 0.1460
vt 0.3235 0.3823
vt 0.2957 0.3355
vt 0.3588 0.3300
vt 0.7017 0.1438
vt 0.5496 0.0464
vt 0.5496 0.0203
vt 0.6226 0.0203
vt 0.4014 0.4070
vt 0.2023 0.3718
vt 0.2611 0.3884
vt 0.2023 0.4519
vt 0.1794 0.2551
vt 0.1793 0.3160
vt 0.1035 0.2791
vt 0.2805 0.1945
vt 0.2235 0.2160
vt 0.2331 0.1316
vt 0.3725 0.2695
vt 0.3336 0.2232
vt 0.4175 0.2048
vt 0.3096 0.4621
vt 0.1244 0.3820
vt 0.1447 0.1855
vt 0.3358 0.1381
vt 0.4433 0.3068
vt 0.6689 0.3027
vt 0.6625 0.3012
vt 0.6675 0.2969
vt 0.6570 0.2977
vt 0.6564 0.2912
vt 0.6620 0.2946
vt 0.6580 0.2849
vt 0.6640 0.2824
vt 0.6625 0.2888
vt 0.6705 0.2819
vt 0.6748 0.2868
vt 0.6682 0.2874
vt 0.6773 0.2929
vt 0.6739 0.2985
vt 0.6713 0.2924
vt 0.5511 0.2247
vt 0.5206 0.3970
vt 0.4417 0.0913
vt 0.2916 0.0143
vt 0.1360 0.0731
vt 0.0140 0.1848
vt 0.0140 0.3521
vt 0.0810 0.5097
vt 0.2468 0.5620
vt 0.4210 0.5422
vt 0.3176 0.2826
vt 0.2758 0.2496
vt 0.2233 0.2863
vt 0.2334 0.3298
vt 0.5476 0.0464
vt 0.6226 0.0464
vt 0.7020 0.1460
vt 0.6283 0.1716
vt 0.6283 0.1460
vt 0.5476 0.0203
vt 0.5476 0.0464
vt 0.5476 0.0464
vt 0.5476 0.0464
vt 0.6275 0.1438
vt 0.5749 0.2285
vt 0.6275 0.1696
vt 0.7017 0.1438
vt 0.7017 0.1696
vt 0.5496 0.0203
vt 0.4399 0.0464
vt 0.5496 0.0464
vt 0.4379 0.0203
vt 0.8916 0.1438
vt 0.9372 0.2244
vt 0.9424 0.2209
vt 0.8908 0.1716
vt 0.8096 0.1716
vt 0.8916 0.1696
vt 0.7098 0.0464
vt 0.8306 0.0203
vt 0.8489 0.0931
vt 0.8565 0.0838
vt 0.8565 0.0931
vt 0.8908 0.1460
vt 0.9362 0.2262
vt 0.9946 0.0371
vt 0.9821 0.1175
vt 0.9762 0.0371
vt 0.9190 0.0545
vt 0.9315 0.1118
vt 0.9374 0.0545
vt 0.8581 0.0516
vt 0.8504 0.0584
vt 0.8504 0.0516
vt 0.9759 0.0351
vt 0.9874 0.1191
vt 0.9942 0.0351
vt 0.9373 0.0523
vt 0.9257 0.1138
vt 0.9189 0.0523
vt 0.5759 0.2302
vt 0.5708 0.2260
vt 0.6758 0.3075
vt 0.6649 0.3101
vt 0.6486 0.2962
vt 0.5727 0.2616
vt 0.6495 0.2850
vt 0.6085 0.3716
vt 0.6545 0.3058
vt 0.6840 0.2878
vt 0.6831 0.2990
vt 0.6663 0.3904
vt 0.7599 0.3224
vt 0.6678 0.2739
vt 0.6781 0.2782
vt 0.7242 0.2124
vt 0.7242 0.3716
vt 0.6568 0.2765
vt 0.6085 0.2124
vt 0.7599 0.2616
vt 0.5727 0.3224
vt 0.6663 0.1936
vt 0.6663 0.2920
vt 0.2229 0.9999
vt 0.3041 0.7764
vt 0.3569 0.9600
vt 0.0949 0.6164
vt 0.1383 0.8492
vt 0.0001 0.7184
vt 0.3134 0.7270
vt 0.4516 0.8579
vt 0.4516 0.7203
vt 0.2636 0.7185
vt 0.0001 0.8560
vt 0.1881 0.8578
vt 0.2357 0.8440
vt 0.0882 0.9630
vt 0.2160 0.7323
vt 0.3635 0.6133
vt 0.1767 0.7599
vt 0.2288 0.5764
vt 0.2751 0.8164
vt 0.1476 0.8000
vt 0.1889 0.8575
vt 0.2628 0.7187
vt 0.1135 0.8674
vt 0.2721 0.8143
vt 0.2167 0.7360
vt 0.2351 0.8403
vt 0.3382 0.7089
vt 0.1480 0.7997
vt 0.3038 0.7766
vt 0.1797 0.7621
vt 0.3736 0.6841
vt 0.2581 0.7078
vt 0.1394 0.7914
vt 0.0781 0.8922
vt 0.2387 0.8450
vt 0.2752 0.8194
vt 0.2131 0.7313
vt 0.1935 0.8684
vt 0.1766 0.7569
vt 0.3124 0.7849
vt 0.1308 0.8552
vt 0.2693 0.8149
vt 0.2168 0.7377
vt 0.2350 0.8386
vt 0.3208 0.7211
vt 0.1506 0.7951
vt 0.3011 0.7813
vt 0.1826 0.7615
vt 0.1920 0.8565
vt 0.2597 0.7196
vt 0.2220 0.8092
vt 0.2432 0.7953
vt 0.2300 0.7670
vt 0.2620 0.7570
vt 0.1931 0.8003
vt 0.2589 0.7763
vt 0.2088 0.7811
vt 0.1897 0.8193
vt 0.2011 0.8165
vt 0.2500 0.7594
vt 0.2016 0.7993
vt 0.1989 0.8102
vt 0.2138 0.7857
vt 0.2308 0.7740
vt 0.2447 0.7660
vt 0.2504 0.7774
vt 0.2385 0.7910
vt 0.2216 0.8023
vt 0.2054 0.8093
vt 0.9336 0.7576
vt 0.9269 0.7633
vt 0.9317 0.7762
vt 0.8928 0.4549
vt 0.9717 0.4509
vt 0.9081 0.4842
vt 0.6782 0.9259
vt 0.6794 0.9165
vt 0.4975 0.9712
vt 0.5260 0.9141
vt 0.5260 0.9712
vt 0.7204 0.8995
vt 0.9236 0.8662
vt 0.4975 0.9141
vt 0.5260 0.8493
vt 0.7229 0.8794
vt 0.6749 0.9193
vt 0.6750 0.9297
vt 0.9784 0.4100
vt 0.9419 0.4665
vt 0.9937 0.4393
vt 0.9273 0.8143
vt 0.9345 0.7985
vt 0.9302 0.8084
vt 0.8153 0.4091
vt 0.5439 0.5024
vt 0.7822 0.3517
vt 0.9266 0.4372
vt 0.8743 0.5020
vt 0.8292 0.4883
vt 0.5874 0.6462
vt 0.5773 0.6269
vt 0.8589 0.4727
vt 0.8225 0.5292
vt 0.7187 0.8890
vt 0.7954 0.5061
vt 0.5652 0.6579
vt 0.8108 0.5353
vt 0.5056 0.7829
vt 0.5299 0.8382
vt 0.5299 0.7829
vt 0.8776 0.4318
vt 0.8445 0.2438
vt 0.9731 0.3517
vt 0.5128 0.6948
vt 0.5404 0.7498
vt 0.5404 0.6948
vt 0.8618 0.5680
vt 0.7139 0.6967
vt 0.8845 0.6072
vt 0.6722 0.9185
vt 0.8446 0.5176
vt 0.9697 0.6072
vt 0.9044 0.4942
vt 0.7020 0.1716
vt 0.8099 0.1696
vt 0.8286 0.0203
vt 0.9408 0.8465
vt 0.7017 0.1696
vt 0.7020 0.1716
vt 0.5697 0.2243
vt 0.4399 0.0203
vt 0.4379 0.0464
vt 0.8306 0.0464
vt 0.8489 0.0838
vt 0.9413 0.2226
vt 0.9887 0.1175
vt 0.9249 0.1118
vt 0.8581 0.0584
vt 0.9827 0.1191
vt 0.9305 0.1138
vt 0.2530 0.7664
vt 0.9233 0.7603
vt 0.9563 0.4216
vt 0.4975 0.8493
vt 0.9492 0.8236
vt 0.5657 0.5401
vt 0.8071 0.4999
vt 0.5551 0.6386
vt 0.5056 0.8382
vt 0.9399 0.4091
vt 0.7937 0.2864
vt 0.9108 0.2438
vt 0.9616 0.2864
vt 0.5128 0.7498
vt 0.6990 0.6710
vt 0.9271 0.6227
vt 0.9924 0.5680
vt 0.9845 0.5233
vt 0.9498 0.4942
vt 0.8697 0.5233
vn 0.3265 -0.9423 -0.0735
vn 0.2640 -0.6497 -0.7128
vn 0.1903 -0.9191 0.3451
vn -0.2503 -0.9048 0.3444
vn -0.3864 -0.9193 -0.0746
vn 0.2622 -0.3404 -0.9030
vn 0.9466 -0.3223 -0.0106
vn 0.3098 -0.2600 0.9146
vn -0.7681 -0.2395 0.5938
vn -0.7975 -0.2892 -0.5295
vn 0.5805 -0.1642 -0.7976
vn 0.9413 -0.1258 0.3132
vn -0.0036 -0.0644 0.9979
vn -0.9484 -0.0647 0.3104
vn -0.5875 -0.1264 -0.7993
vn 0.4541 0.8772 -0.1561
vn 0.2547 -0.9595 0.1202
vn -0.2564 0.7385 0.6236
vn -0.6858 0.7215 -0.0957
vn -0.1220 0.6998 -0.7039
vn 0.9995 -0.0323 0.0015
vn -0.5486 -0.0376 -0.8352
vn -0.2865 0.7727 -0.5664
vn -0.5897 0.7016 -0.4000
vn -0.8021 -0.0098 -0.5971
vn -0.3548 -0.4773 -0.8039
vn -0.5470 0.8173 0.1811
vn -0.5044 0.7483 0.4308
vn -0.9995 0.0323 -0.0015
vn 0.0738 0.8063 0.5869
vn 0.3008 0.7365 0.6059
vn 0.0314 0.9567 -0.2895
vn 0.5925 0.7872 0.1711
vn 0.7214 0.6858 -0.0965
vn -0.0319 -0.9921 -0.1215
vn 0.3298 0.7540 -0.5680
vn 0.1683 0.6919 -0.7021
vn -0.3098 0.2600 -0.9146
vn -0.5742 0.1461 -0.8055
vn -0.7492 0.2886 -0.5961
vn -0.9466 0.3223 0.0106
vn -0.9325 0.2073 0.2958
vn -0.7787 0.3402 0.5271
vn -0.2622 0.3404 0.9030
vn 0.0053 0.2077 0.9782
vn 0.2809 0.3228 0.9038
vn 0.7975 0.2892 0.5295
vn 0.9430 0.1467 0.2986
vn 0.9654 0.2605 0.0134
vn 0.7681 0.2395 -0.5938
vn 0.5849 0.1086 -0.8038
vn 0.3287 0.2394 -0.9136
vn -0.9413 0.1258 -0.3132
vn -0.9430 -0.1467 -0.2986
vn -0.9654 -0.2605 -0.0134
vn -0.5805 0.1642 0.7976
vn -0.5849 -0.1086 0.8038
vn -0.3287 -0.2394 0.9136
vn 0.5875 0.1264 0.7993
vn 0.5742 -0.1461 0.8055
vn 0.7492 -0.2886 0.5961
vn 0.9484 0.0647 -0.3104
vn 0.9325 -0.2073 -0.2958
vn 0.7787 -0.3402 -0.5271
vn 0.0036 0.0644 -0.9979
vn -0.0053 -0.2077 -0.9782
vn -0.2809 -0.3228 -0.9038
vn -0.6367 -0.6097 -0.4721
vn -0.6523 -0.7384 -0.1711
vn -0.8120 -0.5798 0.0669
vn -0.6847 -0.5662 0.4589
vn -0.4124 -0.7129 0.5671
vn -0.2258 -0.5660 0.7929
vn 0.1864 -0.5794 0.7935
vn 0.3638 -0.7380 0.5683
vn 0.6453 -0.6092 0.4609
vn -0.3033 -0.6314 -0.7137
vn -0.0243 -0.7793 -0.6262
vn -0.0300 -0.9425 -0.3329
vn 0.7727 -0.6310 0.0693
vn 0.6037 -0.7790 -0.1692
vn 0.5974 -0.6496 -0.4702
vn 0.7678 -0.1695 -0.6178
vn -0.0318 -0.9722 0.2320
vn 0.0319 0.9771 -0.2102
vn 0.7422 -0.3798 -0.5521
vn 0.7625 -0.3305 0.5562
vn -0.2858 -0.2804 0.9164
vn -0.9539 -0.2986 0.0307
vn -0.3185 -0.3601 -0.8769
vn 0.9414 -0.1695 -0.2917
vn 0.5724 -0.1077 0.8129
vn -0.5932 -0.0705 0.8019
vn -0.9446 -0.1092 -0.3094
vn 0.0038 -0.1703 -0.9854
vn -0.4247 0.6480 -0.6323
vn -0.6891 0.6944 0.2072
vn 0.0283 0.6942 0.7192
vn 0.7362 0.6477 0.1961
vn 0.4563 0.6191 -0.6391
vn 0.2904 0.3414 -0.8939
vn 0.0149 0.1777 -0.9840
vn -0.2512 0.3587 -0.8990
vn -0.7358 0.3900 -0.5536
vn -0.9172 0.2378 -0.3197
vn -0.9072 0.4187 -0.0404
vn -0.7277 0.4384 0.5275
vn -0.5718 0.2759 0.7726
vn -0.2921 0.4388 0.8498
vn 0.3035 0.4198 0.8554
vn 0.5737 0.2392 0.7833
vn 0.7442 0.3914 0.5413
vn 0.9327 0.3598 -0.0231
vn 0.9363 0.1786 -0.3023
vn 0.7695 0.3419 -0.5395
vn -0.5691 0.1367 -0.8109
vn -0.5768 -0.2048 -0.7908
vn -0.7545 -0.3320 -0.5662
vn -0.9365 0.1981 0.2892
vn -0.9421 -0.1437 0.3029
vn -0.7924 -0.2808 0.5416
vn -0.0028 0.1990 0.9800
vn -0.0139 -0.1428 0.9896
vn 0.2500 -0.2975 0.9214
vn 0.9417 0.1381 0.3068
vn 0.9252 -0.2034 0.3204
vn 0.9321 -0.3589 0.0484
vn 0.5917 0.0995 -0.8000
vn 0.5773 -0.2417 -0.7800
vn 0.3113 -0.3802 -0.8709
vn -0.3218 -0.3463 -0.8812
vn -0.4664 -0.4716 -0.7484
vn -0.7662 -0.1796 -0.6170
vn -0.9907 -0.1262 0.0507
vn -0.8666 -0.3642 0.3412
vn -0.8315 -0.1393 0.5378
vn -0.2458 0.0319 0.9688
vn 0.0674 -0.2036 0.9767
vn 0.2372 -0.0695 0.9690
vn 0.3192 -0.3545 -0.8789
vn 0.4367 -0.4668 -0.7690
vn 0.0318 0.9891 0.1437
vn 0.8190 -0.1602 0.5509
vn 0.8601 -0.3845 0.3352
vn 0.9851 -0.1555 0.0729
vn -0.4421 0.0891 -0.8925
vn 0.1378 -0.3658 -0.9204
vn 0.1643 0.3630 -0.9172
vn 0.3437 0.1295 -0.9301
vn -0.3420 0.1548 -0.9269
vn -0.9984 0.0344 0.0458
vn -0.0319 -0.9920 -0.1221
vn 0.0319 0.9920 0.1221
vn -0.9973 0.0678 -0.0285
vn -0.0314 -0.9567 0.2895
vn 0.0266 0.7954 -0.6055
vn 0.9988 -0.0339 -0.0342
vn -0.0314 -0.9795 -0.1990
vn 0.0321 0.9968 0.0731
vn 0.0251 0.8051 0.5926
vn -0.0302 -0.9169 0.3979
vn 0.0315 0.9606 -0.2761
vn 0.9995 0.0074 0.0307
vn -0.3590 0.0956 -0.9284
vn -0.7715 0.0536 0.6340
vn -0.8427 0.0030 -0.5383
vn 0.7694 0.0723 -0.6346
vn -0.3659 -0.0301 -0.9302
vn 0.7715 -0.0536 -0.6340
vn 0.8401 0.1224 0.5284
vn 0.8427 -0.0030 0.5383
vn 0.2507 -0.0517 -0.9667
vn -0.2446 0.1767 0.9534
vn -0.2507 0.0517 0.9667
vn 0.9976 -0.0350 -0.0591
vn -0.9857 0.1601 0.0530
vn -0.9976 0.0350 0.0591
vn 0.3659 0.0301 0.9302
vn 0.4969 0.2778 -0.8222
vn 0.2523 0.1365 -0.9580
vn -0.0218 0.2885 -0.9572
vn 0.9298 0.3097 0.1989
vn 0.9860 0.1529 -0.0665
vn 0.8973 0.2867 -0.3356
vn 0.0925 0.3696 0.9246
vn 0.3655 0.2168 0.9052
vn 0.5911 0.3446 0.7293
vn -0.8578 0.3745 0.3520
vn -0.7517 0.2399 0.6143
vn -0.5172 0.3822 0.7658
vn -0.6079 0.3178 -0.7276
vn -0.8217 0.1903 -0.5372
vn -0.8960 0.3475 -0.2765
vn 0.1136 0.9250 -0.3627
vn 0.1779 0.7621 -0.6226
vn -0.0624 0.6299 -0.7742
vn 0.3610 0.9305 -0.0620
vn 0.6313 0.7722 -0.0716
vn 0.7037 0.6247 -0.3384
vn 0.1518 0.9520 0.2657
vn 0.2478 0.8117 0.5289
vn 0.5269 0.6692 0.5239
vn -0.2251 0.9598 0.1676
vn -0.4426 0.8259 0.3491
vn -0.3485 0.7020 0.6211
vn -0.2487 0.9431 -0.2208
vn -0.4859 0.7953 -0.3626
vn -0.7127 0.6776 -0.1812
vn 0.0323 0.9985 -0.0450
vn -0.3029 0.4639 -0.8325
vn 0.3347 0.5163 0.7883
vn 0.2343 0.4450 -0.8643
vn -0.8533 0.5205 0.0294
vn 0.7501 0.4874 0.4470
vn -0.7184 0.4927 -0.4911
vn -0.2025 0.5351 0.8202
vn 0.6880 0.4434 -0.5744
vn -0.6563 0.5367 0.5303
vn 0.8851 0.4596 -0.0736
vn -0.2332 -0.4553 0.8592
vn -0.2332 -0.4554 0.8592
vn 0.8473 -0.5304 -0.0286
vn -0.7456 -0.4974 -0.4434
vn 0.7132 -0.5027 0.4885
vn 0.2008 -0.5448 -0.8142
vn -0.6840 -0.4537 0.5713
vn 0.6516 -0.5464 -0.5262
vn -0.8797 -0.4698 0.0737
vn 0.3005 -0.4741 0.8276
vn -0.3329 -0.5261 -0.7826
vn -0.0323 -0.9985 0.0450
vn 0.0951 -0.8948 -0.4362
vn 0.3512 -0.8957 -0.2726
vn 0.4624 -0.8866 0.0101
vn 0.3862 -0.8709 0.3039
vn 0.1518 -0.8546 0.4966
vn -0.1514 -0.8440 0.5145
vn -0.4075 -0.8431 0.3509
vn -0.5187 -0.8522 0.0682
vn -0.4426 -0.8679 -0.2256
vn -0.2081 -0.8842 -0.4182
vn -0.0848 0.9961 -0.0226
vn 0.0304 0.9229 -0.3839
vn 0.8211 0.4378 -0.3662
vn 0.0162 0.4603 -0.8876
vn 0.6658 0.4862 0.5659
vn 0.5386 0.7265 0.4267
vn -0.0056 -0.2177 -0.9760
vn 0.2683 -0.1815 -0.9461
vn 0.9165 0.3986 -0.0341
vn -0.0248 -0.7938 -0.6077
vn 0.2165 -0.8299 0.5142
vn 0.9996 -0.0229 0.0162
vn 0.6308 0.6689 -0.3933
vn 0.0287 0.8632 -0.5040
vn -0.0248 -0.7359 0.6766
vn 0.6280 -0.5523 -0.5482
vn -0.0274 -0.8198 0.5720
vn -0.0057 -0.1291 0.9916
vn 0.0161 0.5382 0.8427
vn -0.9990 0.0417 0.0132
vn -0.6527 0.2334 0.7208
vn 0.0304 0.9536 0.2994
vn -0.1672 0.8159 -0.5535
vn 0.2769 -0.9598 0.0458
vn -0.9970 0.0719 0.0277
vn -0.9988 0.0307 -0.0372
vn 0.9997 0.0032 -0.0255
vn 0.9984 -0.0301 0.0488
vn 0.2007 -0.5448 -0.8142
vn 0.0306 0.9747 -0.2214
vn 0.5680 0.7329 -0.3746
vn 0.7261 0.3572 0.5875
vn 0.3547 0.7509 -0.5571
vn -0.5386 -0.7903 0.2921
vn 0.8331 -0.1396 -0.5353
vn -0.6325 0.1535 0.7592
s 1
f 1/1/1 2/2/1 3/3/1
f 4/4/2 2/2/2 5/5/2
f 1/6/3 3/7/3 6/8/3
f 1/6/4 6/8/4 7/9/4
f 1/1/5 7/9/5 8/10/5
f 4/4/6 5/5/6 9/11/6
f 10/12/7 11/13/7 12/14/7
f 13/15/8 14/16/8 15/17/8
f 16/18/9 17/19/9 18/20/9
f 19/21/10 20/22/10 21/23/10
f 4/4/11 9/11/11 22/24/11
f 10/12/12 12/14/12 23/25/12
f 13/15/13 15/17/13 24/26/13
f 16/18/14 18/20/14 25/27/14
f 19/21/15 21/23/15 26/28/15
f 27/29/16 28/30/16 29/31/16
f 30/32/17 31/33/17 32/34/17
f 33/35/18 34/36/18 35/37/18
f 36/38/19 37/39/19 38/40/19
f 39/41/20 40/42/20 41/43/20
f 42/44/21 43/45/22 44/46/21
f 41/47/23 40/48/23 38/49/23
f 40/42/24 36/38/24 38/40/24
f 43/50/22 45/51/25 46/52/26
f 38/49/27 37/53/27 35/54/27
f 37/39/28 33/35/28 35/37/28
f 47/55/29 48/56/29 49/57/29
f 35/54/30 34/58/30 50/59/30
f 34/60/31 51/61/31 50/62/31
f 52/63/32 53/64/32 54/65/32
f 55/66/33 56/67/33 50/68/33
f 57/69/34 27/70/34 56/71/34
f 49/72/35 58/73/35 44/74/35
f 29/31/36 41/47/36 56/67/36
f 59/75/37 39/41/37 41/43/37
f 26/28/38 40/48/38 39/76/38
f 26/28/39 21/23/39 40/48/39
f 21/23/40 36/77/40 40/48/40
f 25/27/41 37/53/41 36/77/41
f 25/27/42 18/20/42 37/53/42
f 18/20/43 33/78/43 37/53/43
f 24/26/44 34/58/44 33/78/44
f 24/26/45 15/17/45 34/58/45
f 15/79/46 30/80/46 34/81/46
f 23/25/47 57/82/47 30/80/47
f 23/25/48 12/14/48 57/82/48
f 12/14/49 60/83/49 57/82/49
f 22/24/50 59/84/50 60/83/50
f 22/24/51 9/11/51 59/84/51
f 9/11/52 39/76/52 59/84/52
f 21/23/53 25/27/53 36/77/53
f 21/23/54 20/22/54 25/27/54
f 20/22/55 16/18/55 25/27/55
f 18/20/56 24/26/56 33/78/56
f 18/20/57 17/19/57 24/26/57
f 17/19/58 13/15/58 24/26/58
f 15/79/59 23/25/59 30/80/59
f 15/79/60 14/85/60 23/25/60
f 14/85/61 10/12/61 23/25/61
f 12/14/62 22/24/62 60/83/62
f 12/14/63 11/13/63 22/24/63
f 11/13/64 4/4/64 22/24/64
f 9/11/65 26/28/65 39/76/65
f 9/11/66 5/5/66 26/28/66
f 5/5/67 19/21/67 26/28/67
f 8/10/68 20/22/68 19/21/68
f 8/10/69 7/9/69 20/22/69
f 7/9/70 16/18/70 20/22/70
f 7/9/71 17/19/71 16/18/71
f 7/9/72 6/8/72 17/19/72
f 6/8/73 13/15/73 17/19/73
f 6/8/74 14/16/74 13/15/74
f 6/8/75 3/7/75 14/16/75
f 3/3/76 10/12/76 14/85/76
f 5/5/77 8/10/77 19/21/77
f 5/5/78 2/2/78 8/10/78
f 2/2/79 1/1/79 8/10/79
f 3/3/80 11/13/80 10/12/80
f 3/3/81 2/2/81 11/13/81
f 2/2/82 4/4/82 11/13/82
f 58/86/21 42/44/21 44/46/21
f 61/87/83 56/88/83 62/89/83
f 63/90/29 47/55/29 49/57/29
f 63/91/84 44/74/84 43/92/84
f 54/65/85 42/93/85 52/63/85
f 61/87/86 62/89/86 64/94/86
f 65/95/87 66/96/87 67/97/87
f 68/98/88 69/99/88 70/100/88
f 71/101/89 72/102/89 73/103/89
f 74/104/90 75/105/90 76/106/90
f 61/87/91 64/94/91 77/107/91
f 65/95/92 67/97/92 78/108/92
f 68/98/93 70/100/93 79/109/93
f 71/101/94 73/103/94 80/110/94
f 74/104/95 76/106/95 81/111/95
f 82/112/96 83/113/96 84/114/96
f 85/115/97 86/116/97 87/117/97
f 88/118/98 89/119/98 90/120/98
f 91/121/99 92/122/99 93/123/99
f 94/124/100 95/125/100 96/126/100
f 81/111/101 97/127/101 98/128/101
f 81/111/102 76/106/102 97/127/102
f 76/106/103 99/129/103 97/127/103
f 80/110/104 100/130/104 99/129/104
f 80/110/105 73/103/105 100/130/105
f 73/103/106 101/131/106 100/130/106
f 79/109/107 102/132/107 101/131/107
f 79/109/108 70/100/108 102/132/108
f 70/100/109 103/133/109 102/132/109
f 78/108/110 104/134/110 103/133/110
f 78/108/111 67/97/111 104/134/111
f 67/97/112 105/135/112 104/134/112
f 77/107/113 106/136/113 105/135/113
f 77/107/114 64/94/114 106/136/114
f 64/94/115 98/128/115 106/136/115
f 76/106/116 80/110/116 99/129/116
f 76/106/117 75/105/117 80/110/117
f 75/105/118 71/101/118 80/110/118
f 73/103/119 79/109/119 101/131/119
f 73/103/120 72/102/120 79/109/120
f 72/102/121 68/98/121 79/109/121
f 70/100/122 78/108/122 103/133/122
f 70/100/123 69/99/123 78/108/123
f 69/99/124 65/95/124 78/108/124
f 67/97/125 77/107/125 105/135/125
f 67/97/126 66/96/126 77/107/126
f 66/96/127 61/87/127 77/107/127
f 64/94/128 81/111/128 98/128/128
f 64/94/129 62/89/129 81/111/129
f 62/89/130 74/104/130 81/111/130
f 41/137/131 75/105/131 74/104/131
f 41/137/132 38/138/132 75/105/132
f 38/138/133 71/101/133 75/105/133
f 38/138/134 72/102/134 71/101/134
f 38/138/135 35/139/135 72/102/135
f 35/139/136 68/98/136 72/102/136
f 35/139/137 69/99/137 68/98/137
f 35/139/138 50/140/138 69/99/138
f 50/140/139 65/95/139 69/99/139
f 62/89/140 41/137/140 74/104/140
f 62/89/141 56/88/141 41/137/141
f 107/141/142 42/93/142 47/142/142
f 50/140/143 66/96/143 65/95/143
f 50/140/144 56/88/144 66/96/144
f 56/88/145 61/87/145 66/96/145
f 46/143/26 108/144/21 109/145/21
f 110/146/146 111/147/147 45/51/25
f 107/141/148 112/148/149 111/147/147
f 63/149/150 46/52/26 112/148/149
f 113/150/151 114/151/151 115/152/151
f 112/153/29 115/152/29 111/154/29
f 46/155/152 113/156/152 112/157/152
f 111/147/153 108/158/153 45/51/153
f 116/159/154 117/160/154 118/161/154
f 58/86/21 119/162/21 52/163/21
f 48/56/29 53/164/29 116/159/29
f 48/165/155 120/166/155 58/73/155
f 117/167/156 121/168/156 118/169/156
f 120/170/157 122/171/157 119/162/157
f 116/172/158 121/173/158 120/174/158
f 119/175/159 117/176/159 53/177/159
f 123/178/160 124/179/160 125/180/160
f 109/181/161 124/182/161 113/183/161
f 115/184/162 123/185/162 108/186/162
f 109/145/163 123/187/163 125/188/163
f 126/189/164 127/190/164 82/112/164
f 128/191/165 129/192/165 130/193/165
f 127/190/166 131/194/166 132/195/166
f 133/196/167 134/197/167 94/124/167
f 126/189/168 135/198/168 127/190/168
f 133/196/169 136/199/169 134/197/169
f 137/200/170 138/201/170 91/121/170
f 137/200/171 139/202/171 138/201/171
f 134/197/172 140/203/172 126/189/172
f 130/193/173 141/204/173 88/118/173
f 130/193/174 142/205/174 141/204/174
f 138/201/175 143/206/175 133/196/175
f 132/195/176 128/191/176 85/115/176
f 132/195/177 144/207/177 128/191/177
f 141/204/178 145/208/178 137/200/178
f 134/197/179 95/125/179 94/124/179
f 134/197/180 126/189/180 95/125/180
f 126/189/181 82/112/181 95/125/181
f 138/201/182 92/122/182 91/121/182
f 138/201/183 133/196/183 92/122/183
f 133/196/184 94/124/184 92/122/184
f 141/204/185 89/119/185 88/118/185
f 141/204/186 137/200/186 89/119/186
f 137/200/187 91/121/187 89/119/187
f 128/191/188 86/116/188 85/115/188
f 128/191/189 130/193/189 86/116/189
f 130/193/190 88/118/190 86/116/190
f 127/190/191 83/113/191 82/112/191
f 127/190/192 132/195/192 83/113/192
f 132/195/193 85/115/193 83/113/193
f 96/126/194 84/114/194 146/209/194
f 96/126/195 95/125/195 84/114/195
f 95/125/196 82/112/196 84/114/196
f 93/123/197 96/126/197 146/209/197
f 93/123/198 92/122/198 96/126/198
f 92/122/199 94/124/199 96/126/199
f 90/120/200 93/123/200 146/209/200
f 90/120/201 89/119/201 93/123/201
f 89/119/202 91/121/202 93/123/202
f 87/117/203 90/120/203 146/209/203
f 87/117/204 86/116/204 90/120/204
f 86/116/205 88/118/205 90/120/205
f 84/114/206 87/117/206 146/209/206
f 84/114/207 83/113/207 87/117/207
f 83/113/208 85/115/208 87/117/208
f 143/210/209 147/211/209 136/212/209
f 129/213/209 148/214/209 142/215/209
f 136/212/209 149/216/209 140/217/209
f 135/218/209 149/216/209 150/219/209
f 145/220/209 148/214/209 151/221/209
f 145/220/209 152/222/209 139/223/209
f 135/218/209 153/224/209 131/225/209
f 131/225/209 154/226/209 144/227/209
f 143/210/209 152/222/209 155/228/209
f 144/227/209 156/229/209 129/213/209
f 148/214/210 157/230/210 151/221/210
f 149/216/211 158/231/211 150/219/211
f 156/229/212 159/232/212 148/214/212
f 152/222/213 160/233/213 155/228/213
f 153/224/214 158/231/214 161/234/214
f 152/222/215 157/230/215 162/235/215
f 147/211/216 163/236/216 149/216/216
f 154/226/217 164/237/217 156/229/217
f 155/228/218 165/238/218 147/211/218
f 154/226/219 161/234/219 166/239/219
f 158/231/209 167/240/209 168/241/209
f 159/232/209 169/242/209 170/243/209
f 160/233/209 171/244/209 172/245/209
f 161/234/209 168/241/209 173/246/209
f 162/235/209 174/247/209 171/244/209
f 165/238/209 167/240/209 163/236/209
f 164/237/209 175/248/209 169/242/209
f 160/233/209 176/249/209 165/238/209
f 166/239/209 173/246/209 175/248/209
f 157/230/209 170/243/209 174/247/209
f 169/242/220 177/250/221 170/243/221
f 171/244/222 178/251/222 172/245/222
f 168/241/223 179/252/223 173/246/223
f 174/247/224 180/253/224 171/244/224
f 176/249/225 181/254/225 167/240/225
f 175/248/226 182/255/226 169/242/226
f 176/249/227 178/251/227 183/256/227
f 175/248/228 179/252/228 184/257/228
f 170/243/229 185/258/229 174/247/229
f 167/240/230 186/259/230 168/241/230
f 178/251/231 187/260/231 188/261/231
f 186/259/231 189/262/231 179/252/231
f 185/258/231 187/260/231 180/253/231
f 183/256/231 190/263/231 181/254/231
f 184/257/231 191/264/231 182/255/231
f 178/251/231 192/265/231 183/256/231
f 179/252/231 193/266/231 184/257/231
f 185/258/231 194/267/231 195/268/231
f 181/254/231 196/269/231 186/259/231
f 177/250/231 191/264/231 194/267/231
f 194/267/232 129/270/232 142/271/232
f 129/270/233 193/266/233 144/272/233
f 144/272/234 189/262/234 131/273/234
f 135/274/235 189/262/235 196/269/235
f 190/263/236 135/274/236 196/269/236
f 136/275/237 190/263/237 192/265/237
f 136/275/238 188/261/238 143/276/238
f 139/277/239 188/261/239 187/260/239
f 139/277/240 195/268/240 145/278/240
f 195/268/241 142/271/241 145/278/241
f 51/279/242 197/280/242 55/281/242
f 198/282/243 199/283/243 200/284/243
f 57/82/244 197/285/244 31/286/244
f 201/287/245 202/288/245 199/289/245
f 60/83/246 203/290/246 27/29/246
f 51/61/247 55/291/247 50/62/247
f 204/292/248 205/293/248 202/288/248
f 59/84/249 28/30/249 206/294/249
f 32/295/250 197/285/250 207/296/250
f 208/297/251 209/298/251 205/299/251
f 60/300/252 206/301/252 210/302/252
f 211/303/253 212/304/253 213/305/253
f 214/306/231 215/307/231 209/298/231
f 27/29/254 29/31/254 56/67/254
f 211/308/255 216/309/255 217/310/255
f 218/311/256 219/312/256 215/307/256
f 210/313/257 28/30/257 203/290/257
f 213/314/258 220/315/258 221/316/258
f 222/317/259 221/318/259 219/319/259
f 198/320/21 218/321/21 204/322/21
f 212/323/260 216/324/260 220/325/260
f 221/326/261 216/327/261 223/328/261
f 30/80/262 207/296/262 51/329/262
f 211/308/263 200/284/263 223/330/263
f 199/331/29 215/332/29 223/328/29
f 27/29/264 203/290/264 28/30/264
f 30/32/265 57/69/265 31/33/265
f 42/44/21 110/333/146 43/45/22
f 43/50/22 110/146/146 45/51/25
f 47/55/29 54/334/29 48/56/29
f 34/60/31 30/32/31 51/61/31
f 52/63/32 119/335/32 53/64/32
f 55/66/33 57/82/33 56/67/33
f 57/69/34 60/336/34 27/70/34
f 49/72/35 48/165/35 58/73/35
f 29/31/36 59/84/36 41/47/36
f 58/86/21 52/163/21 42/44/21
f 63/90/29 107/337/29 47/55/29
f 63/91/84 49/72/84 44/74/84
f 54/65/85 47/142/85 42/93/85
f 107/141/142 110/146/142 42/93/142
f 46/143/26 45/338/25 108/144/21
f 110/146/146 107/141/148 111/147/147
f 107/141/148 63/149/150 112/148/149
f 63/149/150 43/50/22 46/52/26
f 113/150/266 124/339/266 114/151/266
f 112/153/29 113/150/29 115/152/29
f 46/155/152 109/340/152 113/156/152
f 111/147/153 115/341/153 108/158/153
f 116/159/267 53/164/267 117/160/267
f 58/86/21 120/170/21 119/162/21
f 48/56/29 54/334/29 53/164/29
f 48/165/155 116/342/155 120/166/155
f 117/167/156 122/343/156 121/168/156
f 120/170/268 121/344/268 122/171/268
f 116/172/158 118/345/158 121/173/158
f 119/175/159 122/346/159 117/176/159
f 123/178/160 114/347/160 124/179/160
f 109/181/161 125/348/161 124/182/161
f 115/184/162 114/349/162 123/185/162
f 109/145/269 108/144/269 123/187/269
f 128/191/165 144/207/165 129/192/165
f 127/190/166 135/198/166 131/194/166
f 126/189/168 140/203/168 135/198/168
f 133/196/169 143/206/169 136/199/169
f 137/200/171 145/208/171 139/202/171
f 134/197/172 136/199/172 140/203/172
f 130/193/174 129/192/174 142/205/174
f 138/201/175 139/202/175 143/206/175
f 132/195/177 131/194/177 144/207/177
f 141/204/178 142/205/178 145/208/178
f 143/210/209 155/228/209 147/211/209
f 129/213/209 156/229/209 148/214/209
f 136/212/209 147/211/209 149/216/209
f 135/218/209 140/217/209 149/216/209
f 145/220/209 142/215/209 148/214/209
f 145/220/209 151/221/209 152/222/209
f 135/218/209 150/219/209 153/224/209
f 131/225/209 153/224/209 154/226/209
f 143/210/209 139/223/209 152/222/209
f 144/227/209 154/226/209 156/229/209
f 148/214/210 159/232/210 157/230/210
f 149/216/211 163/236/211 158/231/211
f 156/229/212 164/237/212 159/232/212
f 152/222/213 162/235/213 160/233/213
f 153/224/214 150/219/214 158/231/214
f 152/222/215 151/221/215 157/230/215
f 147/211/216 165/238/216 163/236/216
f 154/226/217 166/239/217 164/237/217
f 155/228/218 160/233/218 165/238/218
f 154/226/219 153/224/219 161/234/219
f 158/231/209 163/236/209 167/240/209
f 159/232/209 164/237/209 169/242/209
f 160/233/209 162/235/209 171/244/209
f 161/234/209 158/231/209 168/241/209
f 162/235/209 157/230/209 174/247/209
f 165/238/209 176/249/209 167/240/209
f 164/237/209 166/239/209 175/248/209
f 160/233/209 172/245/209 176/249/209
f 166/239/209 161/234/209 173/246/209
f 157/230/209 159/232/209 170/243/209
f 169/242/220 182/255/220 177/250/221
f 171/244/222 180/253/222 178/251/222
f 168/241/223 186/259/223 179/252/223
f 174/247/224 185/258/224 180/253/224
f 176/249/225 183/256/270 181/254/225
f 175/248/226 184/257/226 182/255/226
f 176/249/227 172/245/227 178/251/227
f 175/248/228 173/246/228 179/252/228
f 170/243/229 177/250/229 185/258/229
f 167/240/230 181/254/230 186/259/230
f 178/251/231 180/253/231 187/260/231
f 186/259/231 196/269/231 189/262/231
f 185/258/231 195/268/231 187/260/231
f 183/256/231 192/265/231 190/263/231
f 184/257/231 193/266/231 191/264/231
f 178/251/231 188/261/231 192/265/231
f 179/252/231 189/262/231 193/266/231
f 185/258/231 177/250/231 194/267/231
f 181/254/231 190/263/231 196/269/231
f 177/250/231 182/255/231 191/264/231
f 194/267/232 191/264/232 129/270/232
f 129/270/233 191/264/233 193/266/233
f 144/272/234 193/266/234 189/262/234
f 135/274/235 131/273/235 189/262/235
f 190/263/236 140/350/236 135/274/236
f 136/275/237 140/350/237 190/263/237
f 136/275/238 192/265/238 188/261/238
f 139/277/239 143/276/239 188/261/239
f 139/277/240 187/260/240 195/268/240
f 195/268/241 194/267/241 142/271/241
f 51/279/271 207/351/271 197/280/271
f 198/282/243 201/352/243 199/283/243
f 57/82/272 55/66/272 197/285/272
f 201/287/245 204/292/245 202/288/245
f 60/83/273 210/313/273 203/290/273
f 204/292/248 208/353/248 205/293/248
f 59/84/274 29/31/274 28/30/274
f 32/295/250 31/286/250 197/285/250
f 208/297/251 214/306/251 209/298/251
f 60/300/275 59/354/275 206/301/275
f 211/303/253 217/355/253 212/304/253
f 214/306/231 218/311/231 215/307/231
f 211/308/255 223/330/255 216/309/255
f 218/311/256 222/356/256 219/312/256
f 210/313/276 206/294/276 28/30/276
f 213/314/258 212/357/258 220/315/258
f 222/317/259 213/358/259 221/318/259
f 204/322/21 201/359/21 198/320/21
f 198/320/21 211/303/21 218/321/21
f 213/305/21 222/360/21 218/321/21
f 218/321/21 214/361/21 208/362/21
f 208/362/21 204/322/21 218/321/21
f 211/303/21 213/305/21 218/321/21
f 212/323/260 217/363/260 216/324/260
f 221/326/261 220/364/261 216/327/261
f 30/80/277 32/295/277 207/296/277
f 211/308/263 198/282/263 200/284/263
f 223/328/29 200/365/29 199/331/29
f 199/331/29 202/366/29 215/332/29
f 205/367/29 209/368/29 215/332/29
f 215/332/29 219/369/29 221/326/29
f 221/326/29 223/328/29 215/332/29
f 202/366/29 205/367/29 215/332/29
