# Blender v2.78 (sub 0) OBJ File: 'MexicanBallooner.blend'
# www.blender.org
o Cylinder
v -0.327283 19.128931 0.354544
v 0.062788 19.436804 0.634618
v -0.366288 19.128931 0.380144
v 0.361072 20.060741 0.851332
v 0.488113 19.939310 0.325607
v -0.524991 19.436804 0.825602
v -0.369326 19.128931 0.333709
v 0.062788 19.436804 0.016595
v -0.888265 19.436808 0.325607
v -0.524991 19.436804 -0.174389
v 0.588523 20.752396 0.634619
v -0.638923 20.060741 1.176256
v -0.099666 19.939308 1.134618
v -0.362535 20.752396 1.325607
v -1.256961 20.060747 0.325607
v -1.050724 19.939310 0.825604
v -1.313593 20.752396 0.634619
v -0.638923 20.060741 -0.525042
v -1.050724 19.939310 -0.174390
v -0.950321 20.752396 -0.483410
v 0.361072 20.060741 -0.200119
v -0.099666 19.939308 -0.483405
v 0.225251 20.752396 -0.483410
v 0.225251 20.752396 1.134623
v -0.950321 20.752396 1.134623
v -1.313593 20.752396 0.016594
v -0.362535 20.752396 -0.674393
v 0.588523 20.752396 0.016594
v -0.086147 21.444050 1.176256
v 0.325654 21.565479 0.825604
v -0.200079 22.067987 0.825602
v -1.086142 21.444050 0.851332
v -0.625404 21.565483 1.134618
v -0.787858 22.067987 0.634618
v -1.086142 21.444050 -0.200119
v -1.213183 21.565479 0.325607
v -0.787858 22.067987 0.016595
v -0.086147 21.444050 -0.525042
v -0.625404 21.565483 -0.483405
v -0.200079 22.067987 -0.174389
v 0.531891 21.444042 0.325607
v 0.325654 21.565479 -0.174390
v 0.163195 22.067982 0.325607
v -0.362535 22.298960 0.325607
v -0.358678 17.148590 0.339314
v -0.332293 17.148590 0.385015
v -0.385064 17.148590 0.385015
v -0.438787 14.633456 -0.098061
v 0.214953 15.113372 0.199961
v -0.432698 15.298733 0.411519
v -0.849224 15.411476 -0.089748
v -0.458995 15.295786 -0.611104
v 0.198700 15.111550 -0.432049
v 0.208552 16.188017 0.392466
v -0.449144 16.372252 0.213411
v -0.465397 16.370430 -0.418599
v 0.182254 16.185070 -0.630157
v 0.598780 16.072325 -0.128889
v -0.490260 14.829885 0.203437
v -0.109583 14.720934 0.079087
v -0.106002 15.111974 0.378612
v 0.265123 15.001953 -0.117225
v -0.119136 14.719863 -0.292396
v -0.735088 14.896155 -0.091198
v -0.731511 15.287194 0.208324
v -0.505717 14.828154 -0.397641
v -0.746968 15.285462 -0.392756
v -0.131012 15.109171 -0.593956
v 0.500288 15.566682 0.060968
v 0.490735 15.565611 -0.310518
v -0.109765 15.743633 0.491765
v 0.270917 15.634680 0.367416
v -0.741178 15.918191 0.091880
v -0.496350 15.851925 0.386521
v -0.521361 15.849122 -0.586053
v -0.750731 15.917121 -0.279605
v 0.245907 15.631877 -0.605158
v -0.140679 15.740169 -0.710403
v 0.496524 16.198339 0.174118
v -0.119432 16.374632 0.375318
v -0.515567 16.481850 -0.101413
v -0.144442 16.371828 -0.597250
v 0.481067 16.196608 -0.426962
v 0.275084 16.734896 0.130349
v 0.438969 16.685310 -0.187043
v -0.101855 16.840189 -0.001522
v -0.135600 16.846342 -0.335634
v 0.251378 16.735203 -0.499771
v 0.350022 16.972921 0.160078
v -0.050690 17.084980 0.032243
v -0.058575 17.082792 -0.402962
v 0.337265 16.969378 -0.544094
v 0.589789 16.901476 -0.196114
v 0.221054 17.357618 0.160479
v -0.031470 17.425520 -0.187501
v 0.208298 17.354074 -0.543694
v 0.609010 17.242018 -0.415858
v 0.616895 17.244205 0.019347
v 0.126089 17.002352 0.146749
v 0.502552 16.894493 0.012524
v -0.114079 17.066931 -0.184199
v 0.113955 16.998983 -0.522960
v 0.495055 16.892408 -0.401377
v 0.524123 17.115870 0.138967
v 0.665055 17.073875 -0.070397
v 0.055920 17.248398 0.146783
v 0.291453 17.182531 0.221925
v -0.097145 17.287022 -0.313563
v -0.092512 17.288309 -0.057754
v 0.276457 17.178366 -0.605884
v 0.043786 17.245028 -0.522927
v 0.660421 17.072588 -0.326205
v 0.511990 17.112499 -0.530743
v 0.444365 17.328014 0.139344
v 0.063265 17.434587 0.017762
v 0.055767 17.432505 -0.396139
v 0.432231 17.324644 -0.530365
v 0.672399 17.260065 -0.199417
v 0.675541 17.227177 0.103665
v -0.006342 17.420162 0.112485
v 0.752257 17.202848 -0.154804
v 0.304749 17.718609 0.034966
v 0.398964 17.545937 0.220948
v 0.454961 17.282759 -0.567557
v 0.668004 17.224079 -0.411184
v 0.565202 17.644896 0.031598
v 0.054257 17.640879 -0.032065
v -0.090595 17.441393 -0.143895
v 0.467157 17.287769 0.265489
v 0.220497 17.739840 -0.221413
v 0.178385 17.601519 -0.450270
v 0.194505 17.356472 -0.564188
v 0.428877 17.679247 -0.383236
v 0.599812 17.482244 -0.455723
v 0.736137 17.447893 -0.040888
v -0.013879 17.417067 -0.402363
v 0.641920 17.620567 -0.226867
v 0.450055 17.743574 -0.153630
v 0.740864 17.408415 -0.276950
v 0.378414 17.508247 -0.542984
v 0.023892 17.611334 -0.267672
v 0.167232 17.575214 0.168510
v 0.610345 17.449806 0.162779
v 0.206701 17.361483 0.268858
v -0.299129 16.521692 0.135824
v -0.151240 16.497812 0.265532
v -0.274389 17.182291 0.421480
v -0.459992 17.233618 0.410316
v -0.424192 17.214502 0.324111
v -0.296862 17.180868 0.346901
v 0.219423 16.337231 0.303693
v 0.415968 16.375071 0.193738
v 0.343029 16.269316 0.324528
v 0.274441 16.248350 0.481499
v 0.366741 16.269619 0.530529
v 0.502983 16.271942 0.378434
v 0.216890 17.362625 0.665070
v 0.477346 17.288912 0.661700
v 0.052451 17.350262 0.508413
v 0.607117 17.193281 0.501238
v 0.208044 17.331356 0.665388
v 0.043605 17.318991 0.508731
v 0.468500 17.257641 0.662018
v 0.598271 17.162010 0.501556
v 0.459007 17.256578 0.292876
v 0.198551 17.330292 0.296246
v 0.034112 17.317928 0.139588
v 0.588778 17.160946 0.132413
v 0.444111 15.607880 0.544095
v 0.423078 15.689646 0.638263
v 0.434091 15.749549 0.672235
v 0.487081 15.709601 0.587177
v -0.192297 16.839340 0.391503
v -0.454568 16.802935 0.397150
v -0.196911 16.778461 0.483685
v -0.361661 16.868097 0.315253
vt 0.2520 0.0003
vt 0.3072 0.0724
vt 0.2254 0.0818
vt 0.3479 0.1683
vt 0.4147 0.1210
vt 0.1489 0.0323
vt 0.6050 0.0003
vt 0.7028 0.0003
vt 0.6493 0.0682
vt 0.5575 0.0833
vt 0.4013 0.2698
vt 0.2107 0.1768
vt 0.2776 0.1608
vt 0.2440 0.2718
vt 0.0668 0.1415
vt 0.1462 0.1471
vt 0.0870 0.2677
vt 0.6995 0.1528
vt 0.7470 0.0994
vt 0.7832 0.2226
vt 0.5648 0.2009
vt 0.6283 0.1644
vt 0.6317 0.2911
vt 0.3216 0.2717
vt 0.1664 0.2703
vt 0.0003 0.2654
vt 0.7080 0.2583
vt 0.5500 0.3238
vt 0.2753 0.9290
vt 0.3464 0.8973
vt 0.3401 0.9539
vt 0.4056 0.8670
vt 0.4478 0.9474
vt 0.4081 0.9600
vt 0.8590 0.3101
vt 0.9378 0.3149
vt 0.8826 0.4435
vt 0.7156 0.3697
vt 0.7942 0.3560
vt 0.7814 0.4807
vt 0.5858 0.4507
vt 0.6588 0.4223
vt 0.7102 0.5361
vt 0.0852 0.5581
vt 0.0640 0.4135
vt 0.1599 0.5170
vt 0.1440 0.4214
vt 0.1884 0.4175
vt 0.2667 0.5078
vt 0.2074 0.3874
vt 0.2763 0.4043
vt 0.3192 0.4289
vt 0.3571 0.5413
vt 0.3486 0.3976
vt 0.4300 0.3955
vt 0.8616 0.1827
vt 0.1338 0.3736
vt 0.2792 0.3687
vt 0.8122 0.0616
vt 0.4889 0.2663
vt 0.4894 0.1858
vt 0.3564 0.0003
vt 0.8698 0.7245
vt 0.8795 0.6541
vt 0.9324 0.7216
vt 0.8949 0.7783
vt 0.7477 0.7018
vt 0.8106 0.7062
vt 0.7684 0.7588
vt 0.7859 0.9136
vt 0.7466 0.9234
vt 0.7639 0.8829
vt 0.8622 0.9122
vt 0.8245 0.9173
vt 0.8438 0.8809
vt 0.9393 0.9213
vt 0.8994 0.9207
vt 0.9234 0.8860
vt 0.8318 0.7694
vt 0.7002 0.7461
vt 0.8042 0.8812
vt 0.8832 0.8826
vt 0.9671 0.8904
vt 0.9461 0.8545
vt 0.9872 0.8601
vt 0.9051 0.8574
vt 0.8648 0.8491
vt 0.8240 0.8542
vt 0.7832 0.8492
vt 0.7427 0.8564
vt 0.7199 0.8848
vt 0.7022 0.8471
vt 0.7285 0.8053
vt 0.7935 0.8062
vt 0.8556 0.8252
vt 0.9206 0.8253
vt 0.6895 0.6728
vt 0.9638 0.7873
vt 0.9961 0.7303
vt 0.9255 0.9676
vt 0.8591 0.9568
vt 0.7802 0.9594
vt 0.6715 0.5972
vt 0.7627 0.6309
vt 0.9838 0.6549
vt 0.5348 0.7420
vt 0.5050 0.6991
vt 0.5429 0.6946
vt 0.5631 0.6624
vt 0.5240 0.6645
vt 0.5109 0.6013
vt 0.5568 0.5896
vt 0.5395 0.6305
vt 0.5756 0.6267
vt 0.4230 0.7111
vt 0.3613 0.6565
vt 0.4420 0.6600
vt 0.4667 0.6944
vt 0.5070 0.6369
vt 0.4272 0.6116
vt 0.4757 0.7401
vt 0.4866 0.6633
vt 0.4734 0.6244
vt 0.4668 0.5715
vt 0.3815 0.5437
vt 0.4804 0.4826
vt 0.5205 0.5543
vt 0.6109 0.5976
vt 0.5910 0.5154
vt 0.6094 0.6525
vt 0.5894 0.7083
vt 0.5684 0.9193
vt 0.5471 0.9787
vt 0.5216 0.9135
vt 0.5342 0.9904
vt 0.4978 0.9066
vt 0.2921 0.8734
vt 0.3165 0.8726
vt 0.3880 0.9844
vt 0.3804 0.9190
vt 0.5775 0.9997
vt 0.5638 0.9835
vt 0.2408 0.9394
vt 0.2043 0.9332
vt 0.2354 0.9127
vt 0.3682 0.7928
vt 0.3880 0.7673
vt 0.2089 0.6352
vt 0.1571 0.7145
vt 0.1427 0.6373
vt 0.2390 0.6952
vt 0.2691 0.6076
vt 0.1182 0.6955
vt 0.2018 0.7160
vt 0.1548 0.7209
vt 0.2041 0.7218
vt 0.2445 0.6996
vt 0.1152 0.9625
vt 0.0586 0.8812
vt 0.1187 0.8832
vt 0.0234 0.9285
vt 0.0209 0.8484
vt 0.1506 0.9302
vt 0.0666 0.6325
vt 0.0839 0.6123
vt 0.2884 0.6272
vt 0.3613 0.7028
vt 0.4268 0.7289
vt 0.4808 0.7570
vt 0.5384 0.7467
vt 0.5970 0.7230
vt 0.6146 0.6651
vt 0.6356 0.6105
vt 0.6274 0.5340
vt 0.0681 0.8450
vt 0.0275 0.8185
vt 0.2893 0.5923
vt 0.1156 0.8532
vt 0.1560 0.8518
vt 0.1465 0.8171
vt 0.0646 0.5923
vt 0.3470 0.7778
vt 0.3460 0.7964
vt 0.1938 0.7902
vt 0.5662 0.8282
vt 0.5983 0.9144
vt 0.5223 0.8300
vt 0.4894 0.8115
vt 0.3885 0.7673
vt 0.4640 0.8590
vt 0.2580 0.8832
vt 0.1669 0.9647
vt 0.1130 0.7001
vt 0.0582 0.9619
vt 0.1669 0.7859
vt 0.6134 0.8115
vt 0.4678 0.7673
vt 0.9162 0.5050
vt 0.9133 0.5225
vt 0.9148 0.5042
vt 0.9135 0.5390
vt 0.9241 0.5346
vt 0.8962 0.5139
vt 0.9169 0.5036
vt 0.9283 0.5190
vt 0.9392 0.4652
vt 0.9380 0.4901
vt 0.9149 0.4792
vt 0.9219 0.5520
vt 0.8840 0.5364
vt 0.9008 0.5357
vt 0.8937 0.5577
vt 0.9371 0.5158
vt 0.9562 0.5098
vt 0.9474 0.5402
vt 0.8963 0.5055
vt 0.9186 0.5086
vt 0.9000 0.5390
vt 0.9355 0.5337
vt 0.9454 0.5250
vt 0.9468 0.5457
vt 0.9090 0.5548
vt 0.8750 0.5612
vt 0.9252 0.5394
vt 0.9607 0.5181
vt 0.9800 0.5360
vt 0.9616 0.5414
vt 0.9340 0.5491
vt 0.9071 0.5730
vt 0.9207 0.5708
vt 0.9191 0.5924
vt 0.9546 0.5663
vt 0.9726 0.5801
vt 0.9454 0.5901
vt 0.9163 0.5650
vt 0.9354 0.5677
vt 0.9238 0.5893
vt 0.9567 0.5611
vt 0.9737 0.5656
vt 0.9548 0.5838
vt 0.9313 0.5645
vt 0.9437 0.5653
vt 0.9353 0.5811
vt 0.9396 0.5989
vt 0.9079 0.6083
vt 0.9340 0.6101
vt 0.8974 0.5775
vt 0.9600 0.6101
vt 0.8941 0.5848
vt 0.9727 0.5414
vt 0.9786 0.5083
vt 0.9396 0.5036
vt 0.9618 0.4807
vt 0.9413 0.4651
vt 0.9722 0.0871
vt 0.9665 0.3659
vt 0.9648 0.0870
vt 0.9696 0.3872
vt 0.9663 0.3815
vt 0.9729 0.3815
vt 0.9599 0.3659
vt 0.9574 0.0870
vt 0.9796 0.3659
vt 0.9797 0.0870
vt 0.1386 0.5654
vt 0.1430 0.5729
vt 0.1343 0.5729
vt 0.9731 0.3659
vn -0.0654 -0.8411 0.5369
vn 0.6716 -0.6594 0.3379
vn -0.6160 -0.7040 0.3535
vn -0.6332 -0.7059 -0.3173
vn -0.0928 -0.8442 -0.5279
vn 0.8475 -0.4445 0.2902
vn -0.0017 -0.1763 0.9843
vn -0.9202 0.0574 0.3873
vn -0.6032 -0.0319 -0.7970
vn 0.4194 -0.3206 -0.8493
vn 0.7389 -0.2767 0.6144
vn -0.2590 0.0138 0.9658
vn -0.9795 0.2000 0.0246
vn -0.3083 0.0083 -0.9512
vn 0.7064 -0.2803 -0.6500
vn 0.0841 0.8864 0.4553
vn -0.0686 -0.0313 0.9971
vn -0.7512 0.5766 -0.3214
vn 0.0316 0.2267 -0.9734
vn 0.9354 0.2174 -0.2788
vn 0.8392 0.2962 -0.4561
vn 0.5546 0.1253 -0.8227
vn -0.2251 0.4736 -0.8515
vn -0.4381 0.4402 -0.7837
vn -0.6636 0.7437 0.0807
vn -0.6376 0.6021 0.4805
vn -0.0987 0.6208 0.7777
vn 0.2308 0.3615 0.9034
vn 0.8401 0.3945 0.3722
vn 0.9416 0.2652 0.2075
vn 0.9202 -0.0574 -0.3873
vn 0.7525 -0.1084 -0.6496
vn 0.5614 0.0272 -0.8271
vn 0.0017 0.1763 -0.9843
vn -0.2621 0.1687 -0.9502
vn -0.4625 0.3158 -0.8285
vn -0.8475 0.4445 -0.2902
vn -0.9254 0.3782 0.0227
vn -0.8315 0.4463 0.3308
vn -0.4194 0.3206 0.8493
vn -0.2130 0.1742 0.9614
vn 0.0522 0.1820 0.9819
vn 0.6032 0.0319 0.7970
vn 0.7849 -0.1047 0.6107
vn 0.9389 -0.0553 0.3398
vn 0.2590 -0.0138 -0.9658
vn 0.2130 -0.1742 -0.9614
vn -0.0522 -0.1820 -0.9819
vn -0.7389 0.2767 -0.6144
vn -0.7849 0.1047 -0.6107
vn -0.9389 0.0553 -0.3398
vn -0.7064 0.2803 0.6500
vn -0.7525 0.1084 0.6496
vn -0.5614 -0.0272 0.8271
vn 0.3083 -0.0083 0.9512
vn 0.2621 -0.1687 0.9502
vn 0.4625 -0.3158 0.8285
vn 0.9795 -0.2000 -0.0246
vn 0.9254 -0.3782 -0.0227
vn 0.8315 -0.4463 -0.3308
vn 0.3677 -0.5624 -0.7406
vn 0.0441 -0.6109 -0.7905
vn -0.1770 -0.3940 -0.9019
vn -0.5710 -0.2930 -0.7669
vn -0.7734 -0.4028 -0.4895
vn -0.9495 -0.2097 -0.2333
vn -0.9363 -0.2082 0.2830
vn -0.7472 -0.3998 0.5309
vn -0.5308 -0.2885 0.7969
vn 0.6534 -0.6615 -0.3681
vn 0.5956 -0.8032 -0.0130
vn 0.2588 -0.9659 -0.0039
vn -0.1304 -0.3888 0.9121
vn 0.0847 -0.6064 0.7906
vn 0.4054 -0.5582 0.7239
vn 0.5891 -0.2801 0.7579
vn 0.4764 -0.4706 0.7426
vn -0.5901 -0.1684 0.7895
vn -0.9654 -0.0728 -0.2502
vn -0.1308 -0.3159 -0.9397
vn 0.7603 -0.5618 -0.3261
vn 0.2778 -0.1996 0.9397
vn -0.7958 0.1006 0.5971
vn -0.8169 0.0948 -0.5689
vn 0.2437 -0.2091 -0.9471
vn 0.9203 -0.3910 -0.0147
vn 0.9577 0.1375 0.2529
vn 0.9985 -0.0517 -0.0178
vn 0.9478 0.1348 -0.2888
vn 0.6021 0.2277 -0.7652
vn 0.3335 0.1271 -0.9341
vn 0.1033 0.3672 -0.9244
vn -0.4386 0.5225 -0.7312
vn -0.7088 0.4257 -0.5625
vn -0.7371 0.6114 -0.2877
vn -0.7263 0.6144 0.3081
vn -0.6880 0.4315 0.5835
vn -0.4120 0.5299 0.7413
vn 0.1366 0.3765 0.9163
vn 0.3671 0.1364 0.9201
vn 0.6294 0.2353 0.7406
vn 0.8005 -0.0719 -0.5950
vn 0.7030 -0.3998 -0.5882
vn 0.4493 -0.4781 -0.7546
vn -0.2687 0.2271 -0.9361
vn -0.3600 -0.1025 -0.9273
vn -0.6183 -0.1762 -0.7659
vn -0.9085 0.4177 0.0143
vn -0.9961 0.0870 0.0176
vn -0.9557 -0.0701 0.2858
vn -0.2347 0.2365 0.9429
vn -0.3262 -0.0931 0.9407
vn -0.0966 -0.3064 0.9470
vn 0.8216 -0.0661 0.5663
vn 0.7239 -0.3940 0.5663
vn 0.7717 -0.5586 0.3040
vn 0.7676 -0.5494 -0.3300
vn 0.6048 -0.6459 -0.4658
vn 0.5331 -0.3420 -0.7739
vn -0.1122 -0.1449 -0.9831
vn -0.4449 -0.3058 -0.8418
vn -0.5838 -0.0407 -0.8109
vn -0.9440 0.2444 -0.2218
vn -0.9945 0.0277 0.1010
vn -0.9506 0.1621 0.2649
vn 0.7856 -0.5351 0.3106
vn 0.6572 -0.6152 0.4354
vn -0.5443 -0.0019 0.8389
vn -0.3840 -0.2681 0.8836
vn -0.0724 -0.1012 0.9922
vn -0.2263 0.3983 -0.8889
vn 0.3569 0.5793 -0.7328
vn 0.7745 0.6085 0.1726
vn 0.9000 0.4326 -0.0543
vn -0.8433 0.4367 0.3133
vn -0.8175 0.5750 0.0333
vn 0.4403 0.8532 -0.2797
vn -0.6507 0.5329 0.5410
vn -0.5161 0.3329 -0.7892
vn 0.5524 0.6645 -0.5033
vn -0.0448 0.9943 0.0971
vn -0.3740 0.7983 0.4720
vn 0.2252 0.7683 0.5992
vn -0.1547 0.3963 0.9050
vn 0.3611 0.2504 0.8983
vn -0.6389 0.5183 -0.5684
vn -0.3364 0.9230 0.1870
vn 0.2617 0.9098 0.3221
vn 0.4482 0.5679 0.6903
vn 0.0654 0.1864 0.9803
vn 0.0655 0.9593 -0.2748
vn 0.9981 0.0611 0.0098
vn 0.8462 0.1093 0.5216
vn 0.5949 0.0185 -0.8036
vn -0.4305 0.8053 -0.4075
vn -0.5151 0.2845 0.8085
vn 0.0197 0.1149 -0.9932
vn 0.9375 -0.1379 -0.3195
vn -0.8781 0.3760 -0.2960
vn -0.0675 0.7139 0.6970
vn -0.5409 0.8403 -0.0357
vn 0.7787 0.4631 -0.4232
vn 0.7481 0.4807 0.4575
vn -0.0179 0.6853 -0.7280
vn 0.3801 0.2267 -0.8967
vn 0.9543 -0.0720 0.2900
vn 0.5615 0.8227 0.0892
vn -0.1342 0.8588 -0.4944
vn 0.8019 0.1105 -0.5871
vn 0.6070 -0.0331 0.7940
vn 0.4115 0.0070 -0.9114
vn 0.9587 0.2130 0.1886
vn -0.4400 0.7414 0.5067
vn -0.4815 0.5812 0.6560
vn -0.0992 -0.9352 0.3400
vn 0.2708 0.9574 -0.0998
vn 0.5622 -0.8157 0.1367
vn 0.4169 0.3135 0.8532
vn 0.7931 -0.0793 -0.6039
vn -0.9239 -0.1579 -0.3487
vn -0.2722 -0.9622 0.0098
vn 0.3771 0.9151 0.1429
vn -0.0741 0.9973 -0.0010
vn -0.0146 -0.0060 -0.9999
vn 0.7039 -0.1922 0.6838
vn -0.6836 0.2005 0.7017
vn 0.2722 0.9622 -0.0098
vn -0.5793 -0.8150 0.0172
vn 0.0741 -0.9973 0.0010
vn -0.9339 -0.3491 0.0770
vn 0.6144 -0.7881 0.0385
vn -0.1720 -0.9774 0.1226
vn 0.2113 -0.9758 0.0557
vn -0.3523 -0.9270 0.1285
vn -0.1336 -0.6976 0.7039
vn -0.5920 -0.6904 0.4157
vn -0.2989 -0.9398 0.1659
vn -0.5004 -0.8451 -0.1882
vn -0.6422 -0.5322 -0.5516
vn 0.4373 -0.7726 -0.4602
vn -0.1577 -0.9010 -0.4042
vn 0.2270 -0.7300 -0.6447
vn 0.6959 0.4282 0.5766
vn 0.6362 -0.4658 0.6151
vn -0.8440 -0.3408 -0.4143
vn 0.7246 0.2217 0.6525
vn -0.4924 0.1689 0.8538
vn -0.7250 0.2090 -0.6562
vn 0.9777 0.2026 -0.0559
vn 0.6520 0.3301 -0.6826
vn -0.3270 -0.3743 0.8677
vn 0.1773 0.9687 0.1736
vn -0.3098 0.0864 0.9469
vn -0.5492 0.7464 0.3757
vn -0.1181 0.6435 0.7563
vn 0.2318 0.4849 0.8433
vn 0.8683 0.3576 0.3438
vn 0.1911 0.0595 -0.9798
vn 0.9266 0.2466 -0.2839
vn -0.8525 0.3118 0.4196
vn 0.8872 0.4245 -0.1810
vn 0.2708 0.9574 -0.0999
vn 0.5775 -0.3319 0.7459
vn 0.3055 -0.3389 -0.8898
vn -0.6668 0.0144 -0.7451
vn 0.5792 0.8150 -0.0173
vn 0.1597 0.9759 0.1486
vn -0.6836 0.2005 0.7018
vn -0.5792 -0.8150 0.0172
vn -0.9619 0.2723 0.0240
vn 0.9619 -0.2723 -0.0239
vn 0.0648 -0.9925 -0.1035
vn -0.2469 -0.9689 0.0179
vn 0.1437 -0.8516 0.5040
vn -0.2708 -0.9601 0.0701
vn -0.2937 -0.9550 0.0418
vn -0.6280 -0.7650 0.1430
vn -0.2859 -0.9582 0.0053
vn -0.7420 -0.6321 -0.2233
vn -0.2676 -0.9350 -0.2326
vn 0.2219 -0.9624 -0.1569
vn 0.6275 -0.5131 0.5857
vn -0.9825 -0.1731 -0.0691
vn 0.8708 0.2310 0.4340
vn -0.8786 -0.1029 0.4663
vn -0.6518 0.2906 -0.7005
vn 0.9913 0.0811 0.1032
vn 0.4270 0.4755 -0.7691
vn -0.4174 -0.3094 0.8545
vn 0.3107 -0.8243 0.4734
vn 0.8111 -0.4956 0.3105
vn 0.1962 -0.7726 0.6039
vn 0.2411 -0.8397 -0.4866
vn -0.4749 -0.8096 -0.3450
vn 0.9352 -0.2208 0.2770
vn 0.0256 -0.2208 0.9750
vn -0.9194 -0.2208 0.3256
vn -0.5938 -0.2208 -0.7738
vn 0.5524 -0.2208 -0.8038
vn 0.8063 -0.0816 0.5858
vn -0.3080 -0.0816 0.9479
vn -0.9967 -0.0816 0.0000
vn -0.3080 -0.0816 -0.9479
vn 0.8063 -0.0816 -0.5858
vn 0.4737 0.4956 0.7280
vn -0.5460 0.4956 0.6755
vn -0.8111 0.4956 -0.3105
vn 0.0446 0.4956 -0.8674
vn 0.8387 0.4956 -0.2256
vn 0.3861 0.8788 -0.2805
vn 0.6175 0.6461 -0.4486
vn 0.4737 0.4956 -0.7280
vn -0.1475 0.8788 -0.4539
vn -0.2359 0.6461 -0.7259
vn -0.5460 0.4956 -0.6755
vn -0.4772 0.8788 0.0000
vn -0.7633 0.6461 0.0000
vn -0.8111 0.4956 0.3105
vn -0.1475 0.8788 0.4539
vn -0.2359 0.6461 0.7259
vn 0.0446 0.4956 0.8674
vn 0.3861 0.8788 0.2805
vn 0.6175 0.6461 0.4487
vn 0.8387 0.4956 0.2256
vn 0.9194 0.2208 -0.3256
vn 0.8029 0.1226 -0.5834
vn 0.5938 0.2208 -0.7738
vn -0.0256 0.2208 -0.9750
vn -0.3067 0.1226 -0.9439
vn -0.5524 0.2208 -0.8038
vn -0.9352 0.2208 -0.2770
vn -0.9925 0.1226 0.0000
vn -0.9352 0.2208 0.2770
vn -0.5524 0.2208 0.8038
vn -0.3067 0.1226 0.9439
vn -0.0256 0.2208 0.9750
vn 0.5938 0.2208 0.7738
vn 0.8029 0.1226 0.5834
vn 0.9194 0.2208 0.3256
vn 0.3080 0.0816 -0.9479
vn 0.3067 -0.1226 -0.9439
vn 0.0256 -0.2208 -0.9750
vn -0.8063 0.0816 -0.5858
vn -0.8029 -0.1226 -0.5834
vn -0.9194 -0.2208 -0.3256
vn -0.8063 0.0816 0.5858
vn -0.8029 -0.1226 0.5834
vn -0.5938 -0.2208 0.7738
vn 0.3080 0.0816 0.9479
vn 0.3067 -0.1226 0.9439
vn 0.5524 -0.2208 0.8038
vn 0.9967 0.0816 0.0000
vn 0.9925 -0.1226 0.0000
vn 0.9352 -0.2208 -0.2770
vn 0.5460 -0.4956 -0.6755
vn 0.2359 -0.6461 -0.7259
vn -0.0446 -0.4956 -0.8674
vn -0.4737 -0.4956 -0.7280
vn -0.6175 -0.6461 -0.4487
vn -0.8387 -0.4956 -0.2256
vn -0.8387 -0.4956 0.2256
vn -0.6175 -0.6461 0.4487
vn -0.4737 -0.4956 0.7280
vn 0.8111 -0.4956 -0.3105
vn 0.7633 -0.6461 0.0000
vn -0.5103 -0.8593 0.0334
vn -0.0446 -0.4956 0.8674
vn 0.2359 -0.6461 0.7259
vn 0.5460 -0.4956 0.6755
vn 0.8660 -0.0099 -0.5000
vn 0.0000 -1.0000 -0.0000
vn 0.0000 0.0025 1.0000
vn -0.8660 0.0070 -0.5000
vn 0.6195 -0.7850 0.0000
vn 0.1785 -0.8163 -0.5493
vn -0.5011 -0.7851 0.3641
vn 0.4440 -0.0001 -0.8960
vn 0.5487 0.0115 0.8360
vn -0.9979 -0.0052 0.0653
s off
f 48/1/1 60/2/1 59/3/1
f 49/4/2 60/2/2 62/5/2
f 48/1/3 59/3/3 64/6/3
f 48/7/4 64/8/4 66/9/4
f 48/7/5 66/9/5 63/10/5
f 49/4/6 62/5/6 69/11/6
f 50/12/7 61/13/7 71/14/7
f 51/15/8 65/16/8 73/17/8
f 52/18/9 67/19/9 75/20/9
f 53/21/10 68/22/10 77/23/10
f 49/4/11 69/11/11 72/24/11
f 50/12/12 71/14/12 74/25/12
f 51/15/13 73/17/13 76/26/13
f 52/18/14 75/20/14 78/27/14
f 53/21/15 77/23/15 70/28/15
f 151/29/16 156/30/16 152/31/16
f 174/32/17 147/33/17 148/34/17
f 56/35/18 81/36/18 87/37/18
f 57/38/19 82/39/19 88/40/19
f 58/41/20 83/42/20 85/43/20
f 85/43/21 83/42/21 88/40/21
f 83/42/22 57/38/22 88/40/22
f 88/40/23 82/39/23 87/37/23
f 82/39/24 56/35/24 87/37/24
f 87/44/25 81/45/25 86/46/25
f 81/45/26 145/47/26 86/46/26
f 146/48/27 84/49/27 86/46/27
f 80/50/28 151/51/28 84/49/28
f 152/52/29 85/53/29 84/49/29
f 79/54/30 58/55/30 85/53/30
f 70/28/31 83/42/31 58/41/31
f 70/28/32 77/23/32 83/42/32
f 77/23/33 57/38/33 83/42/33
f 78/27/34 82/39/34 57/38/34
f 78/27/35 75/20/35 82/39/35
f 75/20/36 56/35/36 82/39/36
f 76/56/37 81/36/37 56/35/37
f 76/26/38 73/17/38 81/45/38
f 73/17/39 55/57/39 81/45/39
f 74/25/40 80/50/40 55/57/40
f 74/25/41 71/14/41 80/50/41
f 71/14/42 54/58/42 80/50/42
f 72/24/43 79/54/43 54/58/43
f 72/24/44 69/11/44 79/54/44
f 69/11/45 58/55/45 79/54/45
f 77/23/46 78/27/46 57/38/46
f 77/23/47 68/22/47 78/27/47
f 68/22/48 52/18/48 78/27/48
f 75/20/49 76/56/49 56/35/49
f 75/20/50 67/19/50 76/56/50
f 67/19/51 51/59/51 76/56/51
f 73/17/52 74/25/52 55/57/52
f 73/17/53 65/16/53 74/25/53
f 65/16/54 50/12/54 74/25/54
f 71/14/55 72/24/55 54/58/55
f 71/14/56 61/13/56 72/24/56
f 61/13/57 49/4/57 72/24/57
f 69/11/58 70/60/58 58/55/58
f 69/11/59 62/5/59 70/60/59
f 62/61/60 53/21/60 70/28/60
f 63/10/61 68/22/61 53/21/61
f 63/10/62 66/9/62 68/22/62
f 66/9/63 52/18/63 68/22/63
f 66/9/64 67/19/64 52/18/64
f 66/9/65 64/8/65 67/19/65
f 64/8/66 51/59/66 67/19/66
f 64/6/67 65/16/67 51/15/67
f 64/6/68 59/3/68 65/16/68
f 59/3/69 50/12/69 65/16/69
f 62/61/70 63/10/70 53/21/70
f 62/5/71 60/2/71 63/62/71
f 60/2/72 48/1/72 63/62/72
f 59/3/73 61/13/73 50/12/73
f 59/3/74 60/2/74 61/13/74
f 60/2/75 49/4/75 61/13/75
f 89/63/76 84/64/76 100/65/76
f 89/63/77 100/65/77 104/66/77
f 90/67/78 99/68/78 106/69/78
f 91/70/79 101/71/79 108/72/79
f 92/73/80 102/74/80 110/75/80
f 93/76/81 103/77/81 112/78/81
f 89/63/82 104/66/82 107/79/82
f 90/67/83 106/69/83 109/80/83
f 91/70/84 108/72/84 111/81/84
f 92/73/85 110/75/85 113/82/85
f 93/76/86 112/78/86 105/83/86
f 105/83/87 118/84/87 98/85/87
f 105/83/88 112/78/88 118/84/88
f 112/78/89 97/86/89 118/84/89
f 113/82/90 117/87/90 97/86/90
f 113/82/91 110/75/91 117/87/91
f 110/75/92 96/88/92 117/87/92
f 111/81/93 116/89/93 96/88/93
f 111/81/94 108/72/94 116/89/94
f 108/72/95 95/90/95 116/89/95
f 109/91/96 115/92/96 95/90/96
f 109/80/97 106/69/97 115/93/97
f 106/69/98 94/94/98 115/93/98
f 107/79/99 114/95/99 94/94/99
f 107/79/100 104/66/100 114/95/100
f 104/66/101 98/96/101 114/95/101
f 112/78/102 113/82/102 97/86/102
f 112/78/103 103/77/103 113/82/103
f 103/77/104 92/73/104 113/82/104
f 110/75/105 111/81/105 96/88/105
f 110/75/106 102/74/106 111/81/106
f 102/74/107 91/70/107 111/81/107
f 108/72/108 109/91/108 95/90/108
f 108/72/109 101/71/109 109/91/109
f 101/97/110 90/67/110 109/80/110
f 106/69/111 107/79/111 94/94/111
f 106/69/112 99/68/112 107/79/112
f 99/68/113 89/63/113 107/79/113
f 104/66/114 105/98/114 98/96/114
f 104/66/115 100/65/115 105/98/115
f 100/65/116 93/99/116 105/98/116
f 85/100/117 103/77/117 93/76/117
f 85/100/118 88/101/118 103/77/118
f 88/101/119 92/73/119 103/77/119
f 88/101/120 102/74/120 92/73/120
f 88/101/121 87/102/121 102/74/121
f 87/102/122 91/70/122 102/74/122
f 87/102/123 101/71/123 91/70/123
f 87/103/124 86/104/124 101/97/124
f 86/104/125 90/67/125 101/97/125
f 100/65/126 85/105/126 93/99/126
f 100/65/127 84/64/127 85/105/127
f 86/104/128 99/68/128 90/67/128
f 86/104/129 84/64/129 99/68/129
f 84/64/130 89/63/130 99/68/130
f 132/106/131 131/107/131 140/108/131
f 134/109/132 140/108/132 133/110/132
f 126/111/133 135/112/133 137/113/133
f 135/112/134 139/114/134 137/113/134
f 128/115/135 120/116/135 127/117/135
f 128/115/136 127/117/136 141/118/136
f 137/113/137 133/110/137 138/119/137
f 120/116/138 142/120/138 127/117/138
f 132/106/139 136/121/139 131/107/139
f 137/113/140 134/109/140 133/110/140
f 130/122/141 122/123/141 138/119/141
f 127/117/142 142/120/142 122/123/142
f 122/123/143 123/124/143 126/111/143
f 144/125/144 123/124/144 142/120/144
f 129/126/145 143/127/145 123/124/145
f 136/121/146 141/118/146 131/107/146
f 130/122/147 127/117/147 122/123/147
f 122/123/148 126/111/148 138/119/148
f 123/124/149 143/127/149 126/111/149
f 144/125/150 129/126/150 123/124/150
f 133/110/151 130/122/151 138/119/151
f 121/128/152 139/114/152 135/112/152
f 119/129/153 135/112/153 143/127/153
f 125/130/154 124/131/154 134/109/154
f 131/107/155 141/118/155 130/122/155
f 120/116/156 144/125/156 142/120/156
f 124/131/157 132/106/157 140/108/157
f 121/128/158 125/130/158 139/114/158
f 136/121/159 128/115/159 141/118/159
f 142/120/160 123/124/160 122/123/160
f 141/118/161 127/117/161 130/122/161
f 139/114/162 134/109/162 137/113/162
f 143/127/163 135/112/163 126/111/163
f 140/108/164 131/107/164 133/110/164
f 124/131/165 140/108/165 134/109/165
f 119/129/166 121/128/166 135/112/166
f 126/111/167 137/113/167 138/119/167
f 133/110/168 131/107/168 130/122/168
f 125/130/169 134/109/169 139/114/169
f 129/126/170 119/129/170 143/127/170
f 176/132/171 150/133/171 173/134/171
f 173/134/172 147/135/172 175/136/172
f 151/29/173 154/137/173 155/138/173
f 145/47/174 146/48/174 86/46/174
f 79/139/175 156/30/175 153/140/175
f 148/141/176 150/133/176 149/142/176
f 54/143/177 153/144/177 154/145/177
f 151/51/178 152/52/178 84/49/178
f 153/140/179 172/146/179 169/147/179
f 176/132/180 148/141/180 149/142/180
f 129/148/181 157/149/181 144/150/181
f 129/148/182 160/151/182 119/152/182
f 144/150/183 159/153/183 157/149/183
f 158/154/184 161/155/184 157/149/184
f 160/151/185 163/156/185 164/157/185
f 159/153/186 161/155/186 157/149/186
f 161/158/187 165/159/187 166/160/187
f 164/161/188 165/159/188 168/162/188
f 162/163/189 166/160/189 161/158/189
f 167/164/190 159/153/190 120/165/190
f 160/151/191 168/166/191 119/152/191
f 115/167/192 128/115/192 95/168/192
f 95/168/193 136/121/193 116/169/193
f 116/169/194 132/106/194 96/170/194
f 96/170/195 124/131/195 117/171/195
f 124/131/196 97/172/196 117/171/196
f 125/130/197 118/173/197 97/172/197
f 121/128/198 98/174/198 118/173/198
f 168/162/199 114/175/199 98/176/199
f 119/152/200 168/166/200 98/177/200
f 165/159/201 94/178/201 114/175/201
f 94/178/202 167/179/202 115/180/202
f 120/165/203 167/164/203 115/181/203
f 170/182/204 172/146/204 171/183/204
f 153/144/205 170/184/205 154/145/205
f 155/138/206 172/146/206 156/30/206
f 154/137/207 171/183/207 155/138/207
f 145/185/208 174/186/208 176/132/208
f 146/187/209 175/136/209 80/188/209
f 145/185/210 173/134/210 146/187/210
f 55/189/211 175/190/211 174/32/211
f 151/29/212 155/138/212 156/30/212
f 174/32/213 175/190/213 147/33/213
f 81/45/214 55/57/214 145/47/214
f 146/48/215 80/50/215 84/49/215
f 80/50/216 54/58/216 151/51/216
f 152/52/217 79/54/217 85/53/217
f 176/132/218 149/142/218 150/133/218
f 173/134/219 150/133/219 147/135/219
f 151/29/220 54/191/220 154/137/220
f 79/139/221 152/31/221 156/30/221
f 148/141/222 147/135/222 150/133/222
f 54/143/223 79/192/223 153/144/223
f 153/140/224 156/30/224 172/146/224
f 176/132/225 174/186/225 148/141/225
f 129/148/181 158/154/181 157/149/181
f 129/148/226 158/154/226 160/151/226
f 144/150/227 120/165/227 159/153/227
f 158/154/184 163/156/184 161/155/184
f 160/151/185 158/154/185 163/156/185
f 159/153/228 162/193/228 161/155/228
f 161/158/187 163/194/187 165/159/187
f 164/161/229 163/194/229 165/159/229
f 162/163/189 167/179/189 166/160/189
f 167/164/230 162/193/230 159/153/230
f 160/151/231 164/157/231 168/166/231
f 115/167/232 120/116/232 128/115/232
f 95/168/233 128/115/233 136/121/233
f 116/169/234 136/121/234 132/106/234
f 96/170/235 132/106/235 124/131/235
f 124/131/236 125/130/236 97/172/236
f 125/130/237 121/128/237 118/173/237
f 121/128/238 119/129/238 98/174/238
f 168/162/239 165/159/239 114/175/239
f 165/159/240 166/160/240 94/178/240
f 94/178/241 166/160/241 167/179/241
f 170/182/242 169/147/242 172/146/242
f 153/144/243 169/195/243 170/184/243
f 155/138/244 171/183/244 172/146/244
f 154/137/245 170/182/245 171/183/245
f 145/185/246 55/196/246 174/186/246
f 146/187/247 173/134/247 175/136/247
f 145/185/248 176/132/248 173/134/248
f 55/189/249 80/197/249 175/190/249
s 1
f 1/198/250 2/199/250 3/200/250
f 4/201/251 2/199/251 5/202/251
f 3/200/252 2/199/252 6/203/252
f 7/204/253 8/205/253 1/198/253
f 7/206/254 9/207/254 10/208/254
f 4/201/255 5/202/255 11/209/255
f 12/210/256 13/211/256 14/212/256
f 15/213/257 16/214/257 17/215/257
f 18/216/258 19/217/258 20/218/258
f 21/219/259 22/220/259 23/221/259
f 4/201/260 11/209/260 24/222/260
f 12/210/261 14/212/261 25/223/261
f 15/213/262 17/215/262 26/224/262
f 18/225/263 20/226/263 27/227/263
f 21/219/264 23/221/264 28/228/264
f 29/229/265 30/230/265 31/231/265
f 32/232/266 33/233/266 34/234/266
f 35/235/267 36/236/267 37/237/267
f 38/238/268 39/239/268 40/240/268
f 41/241/269 42/242/269 43/243/269
f 43/243/270 40/240/270 44/244/270
f 43/243/271 42/242/271 40/240/271
f 42/242/272 38/238/272 40/240/272
f 40/245/273 37/237/273 44/246/273
f 40/245/274 39/247/274 37/237/274
f 39/247/275 35/235/275 37/237/275
f 37/237/276 34/234/276 44/246/276
f 37/237/277 36/236/277 34/234/277
f 36/236/278 32/232/278 34/234/278
f 34/234/279 31/248/279 44/246/279
f 34/234/280 33/233/280 31/248/280
f 33/249/281 29/229/281 31/231/281
f 31/231/282 43/243/282 44/244/282
f 31/231/283 30/230/283 43/243/283
f 30/230/284 41/241/284 43/243/284
f 28/228/285 42/242/285 41/241/285
f 28/228/286 23/221/286 42/242/286
f 23/221/287 38/238/287 42/242/287
f 27/227/288 39/239/288 38/238/288
f 27/227/289 20/226/289 39/239/289
f 20/218/290 35/235/290 39/247/290
f 26/224/291 36/236/291 35/235/291
f 26/224/292 17/215/292 36/236/292
f 17/215/293 32/232/293 36/236/293
f 25/250/294 33/233/294 32/232/294
f 25/223/295 14/212/295 33/249/295
f 14/212/296 29/229/296 33/249/296
f 24/222/297 30/230/297 29/229/297
f 24/222/298 11/209/298 30/230/298
f 11/209/299 41/241/299 30/230/299
f 23/221/300 27/227/300 38/238/300
f 23/221/301 22/220/301 27/227/301
f 22/220/302 18/225/302 27/227/302
f 20/218/303 26/224/303 35/235/303
f 20/218/304 19/217/304 26/224/304
f 19/217/305 15/213/305 26/224/305
f 17/215/306 25/250/306 32/232/306
f 17/215/307 16/214/307 25/250/307
f 16/214/308 12/251/308 25/250/308
f 14/212/309 24/222/309 29/229/309
f 14/212/310 13/211/310 24/222/310
f 13/211/311 4/201/311 24/222/311
f 11/209/312 28/228/312 41/241/312
f 11/209/313 5/202/313 28/228/313
f 5/202/314 21/219/314 28/228/314
f 8/205/315 22/220/315 21/219/315
f 8/205/316 10/252/316 22/220/316
f 10/252/317 18/225/317 22/220/317
f 10/208/318 19/217/318 18/216/318
f 10/208/319 9/207/319 19/217/319
f 9/207/320 15/213/320 19/217/320
f 9/207/321 16/214/321 15/213/321
f 9/207/322 6/253/322 16/214/322
f 6/253/323 12/251/323 16/214/323
f 5/202/324 8/205/324 21/219/324
f 5/202/325 2/199/325 8/205/325
f 3/254/326 9/207/326 7/206/326
f 6/203/327 13/211/327 12/210/327
f 6/203/328 2/199/328 13/211/328
f 2/199/329 4/201/329 13/211/329
f 45/255/330 1/256/330 46/257/330
f 1/258/331 3/259/331 7/260/331
f 46/257/332 3/261/332 47/262/332
f 3/263/333 45/255/333 47/264/333
f 45/265/331 46/266/331 47/267/331
f 1/198/334 8/205/334 2/199/334
f 7/204/335 10/252/335 8/205/335
f 3/254/336 6/253/336 9/207/336
f 45/255/337 7/268/337 1/256/337
f 46/257/338 1/256/338 3/261/338
f 3/263/339 7/268/339 45/255/339
