# Blender v2.78 (sub 0) OBJ File: 'Odar.blend'
# www.blender.org
o Cylinder
v -2.772121 8.002206 -4.905909
v -2.772121 9.452972 -4.905909
v -2.703368 8.002206 -4.948485
v -2.703368 9.452972 -4.948485
v -2.632120 8.002206 -4.910232
v -2.632120 9.452972 -4.910232
v -2.629624 8.002206 -4.829402
v -2.629624 9.452972 -4.829402
v -2.698377 8.002206 -4.786826
v -2.698377 9.452972 -4.786826
v -2.769625 8.002206 -4.825079
v -2.769625 9.452972 -4.825079
v -2.772121 8.727831 -4.905909
v -2.769625 8.726307 -4.825079
v -3.233788 8.578794 -4.891654
v -3.233788 9.303936 -4.891654
v -3.231293 9.303936 -4.810824
v -3.231293 8.577271 -4.810824
v -3.641469 8.578794 -4.879066
v -3.641469 9.303936 -4.879066
v -3.638974 9.303936 -4.798236
v -3.638974 8.577271 -4.798236
v -1.274668 6.122481 -5.092534
v -1.051051 7.952686 -5.092534
v -1.284585 5.900909 -5.092534
v -1.051050 0.064078 -4.859003
v -1.051050 0.064078 -5.092535
v -1.051051 7.952686 -4.859001
v -1.284585 5.914966 -4.859002
v -1.284584 0.064078 -4.859003
v -1.284584 0.064078 -5.092535
v -1.284585 7.952686 -4.859001
v -1.209931 1.573740 -4.834771
v -1.366337 1.689518 -4.567924
v -1.377711 1.731806 -4.797314
v -0.457267 2.293714 -4.501621
v -1.198557 1.531454 -4.605381
v -0.636422 2.494066 -4.693554
v -0.625048 2.451778 -4.464163
v -0.468641 2.336000 -4.731011
v -1.284585 2.540243 -3.012533
v -1.051050 0.064077 -3.012533
v -1.284584 0.064077 -3.012533
v -1.051050 2.540243 -3.012533
v -1.051050 0.064077 -2.779001
v -1.051050 2.540243 -2.779000
v -1.284584 0.064077 -2.779001
v -1.284585 2.540243 -2.779000
v -1.209931 1.573740 -2.754769
v -1.366337 1.689518 -2.487921
v -1.377711 1.731805 -2.717311
v -0.468641 2.335999 -2.651009
v -1.198557 1.531454 -2.525378
v -0.636421 2.494065 -2.613552
v -0.625047 2.451778 -2.384161
v -0.457267 2.293713 -2.421619
v -1.284585 6.058146 -1.065129
v -1.051050 0.064077 -1.065130
v -1.284584 0.064077 -1.065130
v -1.051051 6.058146 -1.065129
v -1.051050 0.064076 -0.831597
v -1.051051 6.058146 -0.831596
v -1.284584 0.064077 -0.831597
v -1.284585 6.058146 -0.831596
v -1.209931 1.573739 -0.807366
v -1.366337 1.689518 -0.540518
v -1.377711 1.731805 -0.769908
v -0.457267 2.293713 -0.474216
v -1.198557 1.531453 -0.577975
v -0.468641 2.335999 -0.703607
v -0.625047 2.451777 -0.436759
v -1.284585 6.200977 1.109000
v -1.051050 0.064076 1.108999
v -1.284584 0.064076 1.108999
v -1.051051 6.200977 1.109000
v -1.051050 0.064076 1.342532
v -1.051051 6.200976 1.342533
v -1.284584 0.064076 1.342532
v -1.284585 6.200976 1.342533
v -1.209931 1.573739 1.366763
v -1.366337 1.689517 1.633611
v -1.377711 1.731804 1.404221
v -0.457267 2.293712 1.699914
v -1.198557 1.531452 1.596155
v -0.468641 2.335998 1.470524
v -0.625047 2.451777 1.737371
v 2.670306 2.476535 1.621769
v 2.436774 0.064075 1.621768
v 2.670307 0.064075 1.621768
v 2.436774 2.476535 1.621769
v 2.436774 0.064075 1.388236
v 2.436774 2.476536 1.388237
v 2.670307 0.064075 1.388237
v 2.670306 2.476535 1.388237
v 2.595655 1.573739 1.364005
v 2.752060 1.689517 1.097157
v 2.763435 1.731803 1.326548
v 1.854365 2.335998 1.260246
v 2.584280 1.531451 1.134615
v 2.010770 2.451776 0.993398
v 1.842990 2.293712 1.030855
v 2.670306 6.019044 -0.458232
v 2.436774 0.064076 -0.458234
v 2.670307 0.064076 -0.458234
v 2.436773 6.019044 -0.458232
v 2.436774 0.064076 -0.691767
v 2.436773 6.019044 -0.691765
v 2.670307 0.064076 -0.691767
v 2.670306 6.019044 -0.691765
v 2.595654 1.573739 -0.715997
v 2.752060 1.689517 -0.982845
v 2.763434 1.731803 -0.753454
v 1.842990 2.293713 -1.049147
v 2.584280 1.531452 -0.945388
v 2.022145 2.494064 -0.857214
v 2.010770 2.451777 -1.086604
v 1.854365 2.335998 -0.819757
v 2.670306 2.540242 -2.405635
v 2.436774 0.064076 -2.405636
v 2.670307 0.064076 -2.405636
v 2.436774 2.540243 -2.405635
v 2.436774 0.064076 -2.639169
v 2.436774 2.540243 -2.639168
v 2.670307 0.064076 -2.639169
v 2.670306 2.540242 -2.639168
v 2.595654 1.573739 -2.663400
v 2.752060 1.689517 -2.930248
v 2.763434 1.731804 -2.700858
v 1.842990 2.293713 -2.996551
v 2.584280 1.531453 -2.892791
v 2.022145 2.494065 -2.804616
v 2.010770 2.451777 -3.034008
v 1.854365 2.335999 -2.767159
v 2.670306 6.138295 -4.579763
v 2.436773 0.064077 -4.579765
v 2.670307 0.064077 -4.579765
v 2.436772 6.138295 -4.579763
v 2.436773 0.064077 -4.813298
v 2.436772 6.138295 -4.813297
v 2.670307 0.064077 -4.813298
v 2.670306 6.138295 -4.813297
v 2.595654 1.573740 -4.837530
v 2.752060 1.689518 -5.104378
v 2.763434 1.731805 -4.874988
v 1.842990 2.293714 -5.170680
v 2.584280 1.531454 -5.066919
v 1.854364 2.335999 -4.941288
v 2.010770 2.451778 -5.208138
v -1.361705 2.596260 -5.320341
v 2.682477 2.508111 -5.320341
v -1.361705 2.508112 -5.320341
v 2.682477 2.596258 -5.320341
v 2.682477 2.508109 1.707900
v 2.682477 2.596256 1.707900
v -1.361705 2.508110 1.707900
v -1.361705 2.596257 1.707900
v -1.361706 5.055108 -5.330777
v 2.682476 4.966959 -5.330776
v -1.361706 4.966960 -5.330777
v 2.682476 5.055108 -5.330776
v 2.682476 4.966958 -0.307465
v 2.682476 5.055107 -0.307465
v -1.361706 4.966959 -0.307465
v -1.361706 5.055107 -0.307465
v -1.361706 4.966959 -1.076966
v -1.361706 5.055108 -4.815423
v -1.361706 5.055107 -1.082338
v -1.200125 5.441190 1.868241
v -1.135511 5.441193 -5.562881
v -1.200125 5.441193 -5.562881
v -1.135511 5.441190 1.868241
v -1.135511 5.376578 -5.562881
v -1.135511 5.376575 1.868241
v -1.200125 5.376578 -5.562881
v -1.200125 5.376575 1.868241
v -1.200125 5.719585 1.868241
v -1.135511 5.719587 -5.562881
v -1.200125 5.719587 -5.562881
v -1.135511 5.719585 1.868241
v -1.135511 5.654974 -5.562881
v -1.135511 5.654971 1.868241
v -1.200125 5.654974 -5.562881
v -1.200125 5.654971 1.868241
v -1.200125 2.906603 1.868240
v -1.135511 2.906605 -5.562881
v -1.200125 2.906605 -5.562881
v -1.135510 2.906603 1.868240
v -1.135510 2.841991 -5.562881
v -1.135510 2.841989 1.868240
v -1.200125 2.841991 -5.562881
v -1.200125 2.841989 1.868240
v -1.200125 3.214648 1.868241
v -1.135511 3.214650 -5.562881
v -1.200125 3.214650 -5.562881
v -1.135510 3.214648 1.868241
v -1.135511 3.150035 -5.562881
v -1.135510 3.150033 1.868241
v -1.200125 3.150035 -5.562881
v -1.200125 3.150033 1.868241
v 2.921874 3.214649 -4.921886
v -1.642058 3.214650 -4.986502
v -1.642058 3.214650 -4.921887
v 2.921874 3.214649 -4.986501
v -1.642058 3.150035 -4.986502
v 2.921874 3.150034 -4.986501
v -1.642058 3.150035 -4.921887
v 2.921874 3.150034 -4.921886
v 2.921874 2.883826 -4.921886
v -1.642057 2.883827 -4.986502
v -1.642057 2.883827 -4.921887
v 2.921874 2.883826 -4.986501
v -1.642057 2.819212 -4.986502
v 2.921874 2.819211 -4.986501
v -1.642057 2.819212 -4.921887
v 2.921874 2.819211 -4.921886
v 1.620535 2.826086 1.620862
v 1.780650 0.064625 2.811091
v 1.620536 0.064625 2.811091
v 1.780650 2.826086 1.620862
v 1.780650 0.128000 2.958129
v 1.780650 2.889461 1.767901
v 1.620536 0.128000 2.958129
v 1.620535 2.889461 1.767901
v 0.940340 2.826086 1.620862
v 1.100455 0.064626 2.811091
v 0.940340 0.064626 2.811091
v 1.100455 2.826086 1.620862
v 1.100455 0.128000 2.958129
v 1.100455 2.889461 1.767901
v 0.940340 0.128000 2.958129
v 0.940340 2.889461 1.767901
v 1.992762 2.377743 1.928625
v 0.771273 2.356406 1.879119
v 0.771273 2.377744 1.928625
v 1.992762 2.356405 1.879119
v 0.771273 2.306900 1.900457
v 1.992762 2.306899 1.900457
v 0.771273 2.328238 1.949963
v 1.992762 2.328237 1.949963
v 1.992762 2.093659 2.051069
v 0.771273 2.072322 2.001563
v 0.771273 2.093660 2.051069
v 1.992762 2.072321 2.001563
v 0.771273 2.022815 2.022901
v 1.992762 2.022815 2.022901
v 0.771273 2.044154 2.072407
v 1.992762 2.044153 2.072407
v 1.992762 1.812939 2.172064
v 0.771273 1.791602 2.122558
v 0.771273 1.812940 2.172064
v 1.992762 1.791602 2.122558
v 0.771273 1.742096 2.143895
v 1.992762 1.742095 2.143895
v 0.771273 1.763433 2.193401
v 1.992762 1.763433 2.193402
v 1.992762 1.525823 2.295814
v 0.771273 1.504487 2.246307
v 0.771273 1.525824 2.295814
v 1.992762 1.504487 2.246308
v 0.771273 1.454980 2.267645
v 1.992762 1.454979 2.267645
v 0.771273 1.476317 2.317152
v 1.992762 1.476317 2.317152
v 1.992762 1.200380 2.436085
v 0.771273 1.179044 2.386579
v 0.771273 1.200380 2.436084
v 1.992762 1.179044 2.386579
v 0.771273 1.129538 2.407917
v 1.992762 1.129537 2.407917
v 0.771273 1.150876 2.457422
v 1.992762 1.150875 2.457422
v 1.992762 0.891699 2.569131
v 0.771273 0.870361 2.519625
v 0.771273 0.891699 2.569130
v 1.992762 0.870361 2.519625
v 0.771273 0.820856 2.540962
v 1.992762 0.820855 2.540963
v 0.771273 0.842194 2.590469
v 1.992762 0.842193 2.590469
v 1.992762 0.587303 2.700329
v 0.771273 0.565966 2.650824
v 0.771273 0.587304 2.700329
v 1.992762 0.565966 2.650824
v 0.771273 0.516459 2.672160
v 1.992762 0.516459 2.672160
v 0.771273 0.537798 2.721667
v 1.992762 0.537797 2.721667
v 1.992762 2.632082 1.819002
v 0.771273 2.610744 1.769496
v 0.771273 2.632082 1.819002
v 1.992762 2.610744 1.769496
v 0.771273 2.561237 1.790833
v 1.992762 2.561237 1.790833
v 0.771273 2.582575 1.840339
v 1.992762 2.582575 1.840339
v 0.133372 5.461256 -0.475990
v 0.293488 2.699796 0.714238
v 0.133373 2.699796 0.714238
v 0.293487 5.461256 -0.475990
v 0.293488 2.763172 0.861276
v 0.293487 5.524632 -0.328952
v 0.133373 2.763172 0.861276
v 0.133372 5.524632 -0.328952
v -0.546823 5.461256 -0.475990
v -0.386708 2.699796 0.714238
v -0.546822 2.699796 0.714238
v -0.386709 5.461256 -0.475990
v -0.386708 2.763173 0.861276
v -0.386709 5.524632 -0.328952
v -0.546822 2.763173 0.861276
v -0.546823 5.524632 -0.328952
v 0.505599 5.012916 -0.168229
v -0.715890 4.991578 -0.217734
v -0.715890 5.012916 -0.168229
v 0.505599 4.991578 -0.217734
v -0.715890 4.942070 -0.196397
v 0.505599 4.942070 -0.196397
v -0.715890 4.963408 -0.146890
v 0.505599 4.963408 -0.146890
v 0.505599 4.728831 -0.045784
v -0.715890 4.707493 -0.095290
v -0.715890 4.728831 -0.045784
v 0.505599 4.707493 -0.095290
v -0.715890 4.657988 -0.073953
v 0.505599 4.657988 -0.073953
v -0.715890 4.679325 -0.024447
v 0.505599 4.679325 -0.024447
v 0.505599 4.448111 0.075210
v -0.715890 4.426772 0.025704
v -0.715890 4.448111 0.075210
v 0.505599 4.426772 0.025704
v -0.715890 4.377266 0.047042
v 0.505599 4.377266 0.047042
v -0.715890 4.398604 0.096548
v 0.505599 4.398604 0.096548
v 0.505599 4.160995 0.198961
v -0.715890 4.139657 0.149455
v -0.715890 4.160995 0.198961
v 0.505599 4.139657 0.149455
v -0.715890 4.090151 0.170793
v 0.505599 4.090151 0.170793
v -0.715890 4.111489 0.220299
v 0.505599 4.111489 0.220299
v 0.505599 3.835552 0.339231
v -0.715890 3.814214 0.289725
v -0.715890 3.835552 0.339231
v 0.505599 3.814214 0.289725
v -0.715890 3.764709 0.311063
v 0.505599 3.764709 0.311063
v -0.715890 3.786047 0.360569
v 0.505599 3.786047 0.360569
v 0.505599 3.526870 0.472277
v -0.715890 3.505533 0.422771
v -0.715890 3.526870 0.472277
v 0.505599 3.505533 0.422771
v -0.715890 3.456028 0.444108
v 0.505599 3.456028 0.444109
v -0.715890 3.477365 0.493615
v 0.505599 3.477365 0.493615
v 0.505599 3.222476 0.603476
v -0.715890 3.201137 0.553970
v -0.715890 3.222476 0.603476
v 0.505599 3.201137 0.553970
v -0.715889 3.151631 0.575307
v 0.505599 3.151631 0.575308
v -0.715890 3.172969 0.624814
v 0.505599 3.172969 0.624814
v 0.505599 5.267253 -0.277852
v -0.715890 5.245915 -0.327358
v -0.715890 5.267253 -0.277852
v 0.505599 5.245915 -0.327358
v -0.715890 5.196409 -0.306020
v 0.505599 5.196409 -0.306020
v -0.715890 5.217748 -0.256514
v 0.505599 5.217748 -0.256514
v -1.568310 5.900909 -5.092534
v -1.692294 5.914967 -4.859002
v -1.692294 6.138296 -5.092534
v -1.692294 5.900909 -5.092534
v -1.284585 7.952686 -5.092534
v -1.275513 6.128211 -4.859002
v -1.692294 6.138296 -4.859002
v -1.583493 5.914967 -4.859002
v -1.423907 5.345007 -4.969544
v -1.584649 5.169180 -4.817276
v -1.496736 5.169180 -4.969545
v -1.496736 5.520832 -4.969544
v -1.672562 5.593660 -4.969544
v -1.584649 5.520832 -4.817276
v -1.672562 5.096353 -4.969545
v -1.548234 5.345007 -4.754203
v -1.760474 5.169180 -4.817276
v -1.760474 5.520832 -4.817276
v -1.796889 5.345007 -4.754203
v -1.848387 5.169180 -4.969545
v -1.848387 5.520832 -4.969544
v -1.921216 5.345007 -4.969545
v -1.760474 5.169180 -5.121815
v -1.760474 5.520832 -5.121815
v -1.796889 5.345007 -5.184886
v -1.584649 5.520832 -5.121815
v -1.548234 5.345007 -5.184886
v -1.584649 5.169180 -5.121815
v -1.659476 5.904872 -5.026688
v -1.659476 5.508903 -4.902501
v -1.659476 5.911004 -4.924850
v -1.605409 5.904872 -5.026688
v -1.612030 5.911004 -4.924850
v -1.612030 5.508903 -4.902501
v -1.659476 5.502772 -5.004339
v -1.605409 5.502772 -5.004339
v -2.782430 4.966959 -1.076967
v -2.782430 5.055109 -4.815423
v -2.782430 4.966960 -4.821806
v -1.361706 4.966960 -4.821806
v -2.782430 5.055108 -1.082338
v -1.127790 4.078561 -1.083184
v -0.971384 4.243248 -1.322958
v -0.960010 4.240873 -1.089715
v -1.869080 4.846592 -1.039217
v -1.139164 4.080935 -1.316427
v -1.701300 5.008904 -1.045746
v -1.712674 5.011280 -1.278991
v -1.880454 4.848968 -1.272460
v -1.139164 4.080936 -4.846535
v -0.960010 4.240874 -4.619821
v -1.127790 4.078562 -4.613290
v -1.869080 4.846593 -4.569324
v -1.701300 5.008905 -4.575852
v -0.971384 4.243249 -4.853065
v -1.712674 5.011281 -4.809096
v -1.880454 4.848969 -4.802567
v 0.439068 5.082575 -2.066839
v 0.651466 5.441557 -2.457577
v 0.439068 5.441557 -2.066839
v 0.651466 5.082575 -2.457577
v 1.076262 5.441557 -2.457578
v 1.076262 5.082575 -2.457578
v 1.288660 5.441557 -2.066839
v 1.288660 5.082575 -2.066839
v 1.076262 5.441556 -1.676102
v 1.076262 5.082574 -1.676102
v 0.651466 5.441557 -1.676102
v 0.651466 5.082575 -1.676102
v 1.004685 5.278024 -1.807779
v 1.145506 5.278024 -2.066839
v 0.723043 5.278025 -2.325901
v 0.582222 5.278025 -2.066839
v 1.004685 5.278024 -2.325901
v 0.723043 5.278024 -1.807779
v -1.060604 1.016874 -5.179005
v -0.981056 0.929798 -5.179005
v -1.060604 0.929798 -5.179005
v -0.981056 1.016874 -5.179005
v -0.981056 0.929796 1.501223
v -0.981056 1.016872 1.501223
v -1.060604 0.929796 1.501223
v -1.060604 1.016872 1.501223
v 2.358865 1.016873 -5.029986
v 2.438412 0.929797 -5.029986
v 2.358865 0.929797 -5.029986
v 2.438412 1.016873 -5.029986
v 2.438412 0.929796 1.650241
v 2.438412 1.016871 1.650241
v 2.358865 0.929796 1.650241
v 2.358865 1.016871 1.650241
v -2.671392 7.924827 -4.698193
v -2.483975 5.015820 -4.698194
v -2.671392 5.015820 -4.698194
v -2.483975 7.924827 -4.698193
v -2.483975 5.015820 -4.510777
v -2.483975 7.924827 -4.510776
v -2.671392 5.015820 -4.510777
v -2.671392 7.924827 -4.510776
v -2.671392 8.019440 -3.263525
v -2.483975 5.015819 -3.263525
v -2.671392 5.015819 -3.263525
v -2.483975 8.019440 -3.263525
v -2.483975 5.015819 -3.076108
v -2.483975 8.019440 -3.076108
v -2.671392 5.015819 -3.076108
v -2.671392 8.019440 -3.076108
v -2.838270 8.021438 -5.197443
v -0.838270 7.962269 -5.197443
v -2.838270 7.962269 -5.197443
v -0.838270 8.021438 -5.197443
v -0.838270 7.962269 -2.992391
v -0.838270 8.021437 -2.992391
v -2.838270 7.962269 -2.992391
v -2.838270 8.021438 -2.992391
v -0.859894 8.155369 -4.280070
v 0.330334 4.996854 -4.440186
v 0.330334 4.996853 -4.280070
v -0.859894 8.155369 -4.440185
v 0.477372 5.069342 -4.440186
v -0.712856 8.227856 -4.440185
v 0.477372 5.069342 -4.280070
v -0.712856 8.227856 -4.280069
v -0.859894 8.155368 -3.599875
v 0.330334 4.996853 -3.759990
v 0.330334 4.996853 -3.599875
v -0.859894 8.155369 -3.759990
v 0.477372 5.069342 -3.759990
v -0.712856 8.227855 -3.599874
v 0.477372 5.069342 -3.599875
v -0.712856 8.227856 -3.759989
v -0.552132 7.642561 -4.652297
v -0.601638 7.618155 -3.430808
v -0.552132 7.642561 -3.430808
v -0.601638 7.618155 -4.652297
v -0.580300 7.561531 -3.430808
v -0.580301 7.561532 -4.652297
v -0.530794 7.585937 -3.430808
v -0.530794 7.585938 -4.652297
v -0.429688 7.317631 -4.652297
v -0.479194 7.293224 -3.430808
v -0.429688 7.317630 -3.430808
v -0.479194 7.293225 -4.652297
v -0.457857 7.236600 -3.430808
v -0.457857 7.236600 -4.652297
v -0.408350 7.261006 -3.430808
v -0.408351 7.261006 -4.652297
v -0.308694 6.996548 -4.652297
v -0.358200 6.972140 -3.430808
v -0.308694 6.996547 -3.430808
v -0.358200 6.972141 -4.652297
v -0.336862 6.915516 -3.430808
v -0.336862 6.915516 -4.652297
v -0.287356 6.939922 -3.430808
v -0.287356 6.939922 -4.652297
v -0.184943 6.668149 -4.652297
v -0.234449 6.643743 -3.430808
v -0.184943 6.668149 -3.430808
v -0.234449 6.643744 -4.652297
v -0.213111 6.587120 -3.430808
v -0.213111 6.587120 -4.652297
v -0.163605 6.611526 -3.430808
v -0.163605 6.611526 -4.652297
v -0.044673 6.295912 -4.652297
v -0.094179 6.271507 -3.430808
v -0.044672 6.295912 -3.430808
v -0.072841 6.214882 -4.652297
v -0.072841 6.214882 -3.430808
v -0.023335 6.239287 -3.430808
v -0.023335 6.239288 -4.652297
v -0.094179 6.271508 -4.652297
v 0.088374 5.942847 -4.652297
v 0.038868 5.918442 -3.430808
v 0.088374 5.942847 -3.430808
v 0.038867 5.918443 -4.652297
v 0.060205 5.861816 -3.430808
v 0.060205 5.861817 -4.652297
v 0.109711 5.886224 -3.430808
v 0.109711 5.886225 -4.652297
v 0.219572 5.594686 -4.652297
v 0.170066 5.570279 -3.430808
v 0.219572 5.594686 -3.430808
v 0.170066 5.570280 -4.652297
v 0.191404 5.513656 -3.430808
v 0.191404 5.513656 -4.652297
v 0.240910 5.538062 -3.430808
v 0.240910 5.538062 -4.652297
v -0.661756 7.933469 -4.652297
v -0.711262 7.909062 -3.430808
v -0.661755 7.933468 -3.430808
v -0.711262 7.909063 -4.652297
v -0.689924 7.852439 -3.430808
v -0.689924 7.852440 -4.652297
v -0.640418 7.876845 -3.430808
v -0.640418 7.876846 -4.652297
v -0.636421 2.494065 -0.666149
v -0.636421 2.494064 1.507981
v 2.022145 2.494063 1.222788
v 2.022144 2.494065 -4.978745
vt 0.2650 0.7111
vt 0.2274 0.8798
vt 0.3278 0.4277
vt 0.3415 0.3863
vt 0.2347 0.9127
vt 0.3395 0.4199
vt 0.2570 0.8964
vt 0.3415 0.4504
vt 0.2411 0.8312
vt 0.2683 0.8743
vt 0.2925 0.7166
vt 0.3328 0.4410
vt 0.3371 0.4486
vt 0.2726 0.7360
vt 0.2757 0.7443
vt 0.2767 0.7368
vt 0.6111 0.0420
vt 0.7369 0.3118
vt 0.5418 0.3261
vt 0.9352 0.0632
vt 0.7696 0.3001
vt 0.7513 0.0167
vt 0.2635 0.7764
vt 0.2693 0.8327
vt 0.2657 0.7689
vt 0.2711 0.7700
vt 0.2701 0.7782
vt 0.5923 0.0270
vt 0.8062 0.0278
vt 0.8967 0.3508
vt 0.2708 0.7434
vt 0.9535 0.3466
vt 0.6106 0.3104
vt 0.9660 0.0668
vt 0.6098 0.5054
vt 0.1183 0.5054
vt 0.6098 0.7892
vt 0.6479 0.3635
vt 0.0802 0.9311
vt 0.0802 0.3635
vt 0.6098 0.7892
vt 0.1183 0.5054
vt 0.3640 0.9311
vt 0.0802 0.3635
vt 0.6479 0.9311
vt 0.0802 0.9311
vt 0.6479 0.3635
vt 0.0802 0.9311
vt 0.0802 0.3635
vt 0.0802 0.3635
vt 0.6479 0.9311
vt 0.0802 0.9311
vt 0.6479 0.9311
vt 0.0802 0.9311
vt 0.6479 0.3635
vt 0.0802 0.9311
vt 0.0802 0.3635
vt 0.6479 0.3635
vt 0.0802 0.3635
vt 0.6479 0.3635
vt 0.0802 0.9311
vt 0.0802 0.3635
vt 0.6479 0.3635
vt 0.0802 0.9311
vt 0.0802 0.3635
vt 0.6479 0.3635
vt 0.0802 0.9311
vt 0.0802 0.3635
vt 0.6479 0.3635
vt 0.0802 0.9311
vt 0.0802 0.3635
vt 0.6479 0.3635
vt 0.0802 0.9311
vt 0.0802 0.3635
vt 0.6479 0.3635
vt 0.0802 0.9311
vt 0.0802 0.3635
vt 0.6479 0.3635
vt 0.0802 0.9311
vt 0.0802 0.3635
vt 0.0802 0.3635
vt 0.6479 0.9311
vt 0.0802 0.9311
vt 0.6479 0.3635
vt 0.0802 0.9311
vt 0.6479 0.3635
vt 0.0802 0.9311
vt 0.0802 0.3635
vt 0.6479 0.3635
vt 0.0802 0.3635
vt 0.0802 0.9311
vt 0.0802 0.3635
vt 0.6479 0.3635
vt 0.0802 0.9311
vt 0.0802 0.3635
vt 0.6479 0.3635
vt 0.0802 0.9311
vt 0.0802 0.3635
vt 0.6479 0.3635
vt 0.0802 0.9311
vt 0.0802 0.3635
vt 0.6479 0.3635
vt 0.0802 0.9311
vt 0.0802 0.3635
vt 0.6479 0.3635
vt 0.0802 0.9311
vt 0.0802 0.3635
vt 0.6479 0.3635
vt 0.0802 0.9311
vt 0.0802 0.3635
vt 0.0802 0.3635
vt 0.6479 0.9311
vt 0.0802 0.9311
vt 0.6479 0.9311
vt 0.0802 0.9311
vt 0.0802 0.3635
vt 0.6479 0.9311
vt 0.0802 0.9311
vt 0.6479 0.3635
vt 0.0802 0.3635
vt 0.6479 0.3635
vt 0.0802 0.9311
vt 0.0802 0.3635
vt 0.6479 0.3635
vt 0.0802 0.9311
vt 0.0802 0.3635
vt 0.6479 0.3635
vt 0.0802 0.9311
vt 0.0802 0.3635
vt 0.6479 0.3635
vt 0.0802 0.9311
vt 0.0802 0.3635
vt 0.6479 0.3635
vt 0.0802 0.9311
vt 0.0802 0.3635
vt 0.6479 0.3635
vt 0.0802 0.9311
vt 0.0802 0.3635
vt 0.6479 0.3635
vt 0.0802 0.9311
vt 0.0802 0.3635
vt 0.0802 0.3635
vt 0.6479 0.9311
vt 0.0802 0.9311
vt 0.6479 0.9311
vt 0.0802 0.9311
vt 0.0802 0.3635
vt 0.6479 0.9311
vt 0.0802 0.9311
vt 0.6479 0.3635
vt 0.0802 0.3635
vt 0.6479 0.3635
vt 0.0802 0.9311
vt 0.0802 0.3635
vt 0.6479 0.3635
vt 0.0802 0.9311
vt 0.0802 0.3635
vt 0.6479 0.3635
vt 0.0802 0.9311
vt 0.0802 0.3635
vt 0.6479 0.3635
vt 0.0802 0.9311
vt 0.0802 0.3635
vt 0.6479 0.3635
vt 0.0802 0.9311
vt 0.0802 0.3635
vt 0.6479 0.3635
vt 0.0802 0.9311
vt 0.0802 0.3635
vt 0.6479 0.3635
vt 0.0802 0.9311
vt 0.0802 0.3635
vt 0.0802 0.3635
vt 0.6479 0.9311
vt 0.0802 0.9311
vt 0.6479 0.3635
vt 0.0802 0.9311
vt 0.0802 0.3635
vt 0.6479 0.9311
vt 0.0802 0.9311
vt 0.6479 0.3635
vt 0.0802 0.3635
vt 0.0802 0.9311
vt 0.0802 0.3635
vt 0.6479 0.3635
vt 0.0802 0.9311
vt 0.0802 0.3635
vt 0.6479 0.3635
vt 0.0802 0.9311
vt 0.0802 0.3635
vt 0.6479 0.3635
vt 0.0802 0.9311
vt 0.0802 0.3635
vt 0.6479 0.3635
vt 0.0802 0.9311
vt 0.0802 0.3635
vt 0.6479 0.3635
vt 0.0802 0.9311
vt 0.0802 0.3635
vt 0.6479 0.3635
vt 0.0802 0.9311
vt 0.0802 0.3635
vt 0.0802 0.3635
vt 0.6479 0.9311
vt 0.0802 0.9311
vt 0.6479 0.9311
vt 0.0802 0.9311
vt 0.6479 0.3635
vt 0.0802 0.9311
vt 0.0802 0.3635
vt 0.6479 0.3635
vt 0.0802 0.3635
vt 0.6479 0.3635
vt 0.0802 0.9311
vt 0.0802 0.3635
vt 0.6479 0.3635
vt 0.0802 0.9311
vt 0.0802 0.3635
vt 0.6479 0.3635
vt 0.0802 0.9311
vt 0.0802 0.3635
vt 0.6479 0.3635
vt 0.0802 0.9311
vt 0.0802 0.3635
vt 0.6479 0.3635
vt 0.0802 0.9311
vt 0.0802 0.3635
vt 0.6479 0.3635
vt 0.0802 0.9311
vt 0.0802 0.3635
vt 0.6479 0.3635
vt 0.0802 0.9311
vt 0.0802 0.3635
vt 0.0802 0.3635
vt 0.6479 0.9311
vt 0.0802 0.9311
vt 0.6479 0.9311
vt 0.0802 0.9311
vt 0.6479 0.3635
vt 0.0802 0.9311
vt 0.0802 0.3635
vt 0.6479 0.3635
vt 0.0802 0.3635
vt 0.6479 0.3635
vt 0.0802 0.9311
vt 0.0802 0.3635
vt 0.6479 0.3635
vt 0.0802 0.9311
vt 0.0802 0.3635
vt 0.6479 0.3635
vt 0.0802 0.9311
vt 0.0802 0.3635
vt 0.6479 0.3635
vt 0.0802 0.9311
vt 0.0802 0.3635
vt 0.6479 0.3635
vt 0.0802 0.9311
vt 0.0802 0.3635
vt 0.6479 0.3635
vt 0.0802 0.9311
vt 0.0802 0.3635
vt 0.6479 0.3635
vt 0.0802 0.9311
vt 0.0802 0.3635
vt 0.0802 0.3635
vt 0.6479 0.9311
vt 0.0802 0.9311
vt 0.6479 0.9311
vt 0.0802 0.9311
vt 0.0802 0.3635
vt 0.6479 0.9311
vt 0.0802 0.9311
vt 0.6479 0.3635
vt 0.0802 0.3635
vt 0.6479 0.3635
vt 0.0802 0.9311
vt 0.0802 0.3635
vt 0.6479 0.3635
vt 0.0802 0.9311
vt 0.0802 0.3635
vt 0.6479 0.3635
vt 0.0802 0.9311
vt 0.0802 0.3635
vt 0.6479 0.3635
vt 0.0802 0.9311
vt 0.0802 0.3635
vt 0.6479 0.3635
vt 0.0802 0.9311
vt 0.0802 0.3635
vt 0.6479 0.3635
vt 0.0802 0.9311
vt 0.0802 0.3635
vt 0.5733 0.3635
vt 0.0803 0.6472
vt 0.0803 0.3635
vt 0.0803 0.9310
vt 0.5733 0.6473
vt 0.5733 0.9310
vt 0.6479 0.3635
vt 0.0802 0.9311
vt 0.0802 0.3635
vt 0.6479 0.3635
vt 0.0802 0.9311
vt 0.0802 0.3635
vt 0.6479 0.3635
vt 0.0802 0.9311
vt 0.0802 0.3635
vt 0.6479 0.3635
vt 0.0802 0.9311
vt 0.0802 0.3635
vt 0.0803 0.3635
vt 0.5372 0.4504
vt 0.0803 0.9310
vt 0.0803 0.8204
vt 0.1385 0.3635
vt 0.5603 0.3635
vt 0.6479 0.3635
vt 0.0802 0.9311
vt 0.0802 0.3635
vt 0.6479 0.3635
vt 0.0802 0.9311
vt 0.0802 0.3635
vt 0.6479 0.3635
vt 0.0802 0.9311
vt 0.0802 0.3635
vt 0.6479 0.3635
vt 0.0802 0.9311
vt 0.0802 0.3635
vt 0.6479 0.3635
vt 0.0802 0.9311
vt 0.0802 0.3635
vt 0.6479 0.3635
vt 0.0802 0.9311
vt 0.0802 0.3635
vt 0.6479 0.3635
vt 0.0802 0.9311
vt 0.0802 0.3635
vt 0.6479 0.3635
vt 0.0802 0.9311
vt 0.0802 0.3635
vt 0.6479 0.3635
vt 0.0802 0.9311
vt 0.0802 0.3635
vt 0.6479 0.3635
vt 0.0802 0.9311
vt 0.0802 0.3635
vt 0.6479 0.3635
vt 0.0802 0.9311
vt 0.0802 0.3635
vt 0.6479 0.3635
vt 0.0802 0.9311
vt 0.0802 0.3635
vt 0.6479 0.3635
vt 0.0802 0.9311
vt 0.0802 0.3635
vt 0.6479 0.3635
vt 0.0802 0.9311
vt 0.0802 0.3635
vt 0.6479 0.3635
vt 0.0802 0.9311
vt 0.0802 0.3635
vt 0.6479 0.3635
vt 0.0802 0.9311
vt 0.0802 0.3635
vt 0.6479 0.3635
vt 0.0802 0.9311
vt 0.0802 0.3635
vt 0.6479 0.3635
vt 0.0802 0.9311
vt 0.0802 0.3635
vt 0.6479 0.3635
vt 0.0802 0.9311
vt 0.0802 0.3635
vt 0.6479 0.3635
vt 0.0802 0.9311
vt 0.0802 0.3635
vt 0.6479 0.3635
vt 0.0802 0.9311
vt 0.0802 0.3635
vt 0.6479 0.3635
vt 0.0802 0.9311
vt 0.0802 0.3635
vt 0.6479 0.3635
vt 0.0802 0.9311
vt 0.0802 0.3635
vt 0.6479 0.3635
vt 0.0802 0.9311
vt 0.0802 0.3635
vt 0.6479 0.3635
vt 0.0802 0.9311
vt 0.0802 0.3635
vt 0.6479 0.3635
vt 0.0802 0.9311
vt 0.0802 0.3635
vt 0.6479 0.3635
vt 0.0802 0.9311
vt 0.0802 0.3635
vt 0.6479 0.3635
vt 0.0802 0.9311
vt 0.0802 0.3635
vt 0.6479 0.3635
vt 0.0802 0.9311
vt 0.0802 0.3635
vt 0.6479 0.3635
vt 0.0802 0.9311
vt 0.0802 0.3635
vt 0.6479 0.3635
vt 0.0802 0.9311
vt 0.0802 0.3635
vt 0.6479 0.3635
vt 0.0802 0.9311
vt 0.0802 0.3635
vt 0.6479 0.3635
vt 0.0802 0.9311
vt 0.0802 0.3635
vt 0.6479 0.3635
vt 0.0802 0.9311
vt 0.0802 0.3635
vt 0.6479 0.3635
vt 0.0802 0.9311
vt 0.0802 0.3635
vt 0.6479 0.3635
vt 0.0802 0.9311
vt 0.0802 0.3635
vt 0.6479 0.3635
vt 0.0802 0.9311
vt 0.0802 0.3635
vt 0.6479 0.3635
vt 0.0802 0.9311
vt 0.0802 0.3635
vt 0.6479 0.3635
vt 0.0802 0.9311
vt 0.0802 0.3635
vt 0.6479 0.3635
vt 0.0802 0.9311
vt 0.0802 0.3635
vt 0.6479 0.3635
vt 0.0802 0.9311
vt 0.0802 0.3635
vt 0.6479 0.3635
vt 0.0802 0.9311
vt 0.0802 0.3635
vt 0.6479 0.3635
vt 0.0802 0.9311
vt 0.0802 0.3635
vt 0.6479 0.3635
vt 0.0802 0.9311
vt 0.0802 0.3635
vt 0.6479 0.9311
vt 0.0802 0.9311
vt 0.0802 0.3635
vt 0.6479 0.3635
vt 0.0802 0.9311
vt 0.0802 0.3635
vt 0.6479 0.3635
vt 0.0802 0.9311
vt 0.0802 0.3635
vt 0.6479 0.3635
vt 0.0802 0.9311
vt 0.0802 0.3635
vt 0.6479 0.3635
vt 0.0802 0.9311
vt 0.0802 0.3635
vt 0.6479 0.9311
vt 0.0802 0.9311
vt 0.0802 0.3635
vt 0.6479 0.3635
vt 0.0802 0.9311
vt 0.0802 0.3635
vt 0.6479 0.3635
vt 0.0802 0.9311
vt 0.0802 0.3635
vt 0.6479 0.3635
vt 0.0802 0.9311
vt 0.0802 0.3635
vt 0.6479 0.3635
vt 0.0802 0.9311
vt 0.0802 0.3635
vt 0.6479 0.9311
vt 0.0802 0.9311
vt 0.0802 0.3635
vt 0.6479 0.3635
vt 0.0802 0.9311
vt 0.0802 0.3635
vt 0.6479 0.3635
vt 0.0802 0.9311
vt 0.0802 0.3635
vt 0.6479 0.3635
vt 0.0802 0.9311
vt 0.0802 0.3635
vt 0.6479 0.3635
vt 0.0802 0.9311
vt 0.0802 0.3635
vt 0.6479 0.3635
vt 0.0802 0.3635
vt 0.6479 0.9311
vt 0.0802 0.9311
vt 0.6479 0.3635
vt 0.0802 0.9311
vt 0.0802 0.3635
vt 0.6479 0.3635
vt 0.0802 0.9311
vt 0.0802 0.3635
vt 0.6479 0.3635
vt 0.0802 0.9311
vt 0.0802 0.3635
vt 0.6479 0.3635
vt 0.0802 0.9311
vt 0.0802 0.3635
vt 0.6479 0.3635
vt 0.0802 0.3635
vt 0.6479 0.9311
vt 0.0802 0.9311
vt 0.6479 0.3635
vt 0.0802 0.9311
vt 0.0802 0.3635
vt 0.6479 0.3635
vt 0.0802 0.9311
vt 0.0802 0.3635
vt 0.6479 0.3635
vt 0.0802 0.9311
vt 0.0802 0.3635
vt 0.6479 0.3635
vt 0.0802 0.9311
vt 0.0802 0.3635
vt 0.6479 0.9311
vt 0.0802 0.9311
vt 0.0802 0.3635
vt 0.6479 0.3635
vt 0.0802 0.9311
vt 0.0802 0.3635
vt 0.6479 0.3635
vt 0.0802 0.9311
vt 0.0802 0.3635
vt 0.6479 0.3635
vt 0.0802 0.9311
vt 0.0802 0.3635
vt 0.6479 0.3635
vt 0.0802 0.9311
vt 0.0802 0.3635
vt 0.6479 0.3635
vt 0.0802 0.3635
vt 0.6479 0.9311
vt 0.0802 0.9311
vt 0.6479 0.3635
vt 0.0802 0.9311
vt 0.0802 0.3635
vt 0.6479 0.3635
vt 0.0802 0.9311
vt 0.0802 0.3635
vt 0.6479 0.3635
vt 0.0802 0.9311
vt 0.0802 0.3635
vt 0.6479 0.3635
vt 0.0802 0.9311
vt 0.0802 0.3635
vt 0.6479 0.9311
vt 0.0802 0.9311
vt 0.0802 0.3635
vt 0.6479 0.3635
vt 0.0802 0.9311
vt 0.0802 0.3635
vt 0.6479 0.3635
vt 0.0802 0.9311
vt 0.0802 0.3635
vt 0.6479 0.3635
vt 0.0802 0.9311
vt 0.0802 0.3635
vt 0.0802 0.3635
vt 0.6479 0.9311
vt 0.0802 0.9311
vt 0.6479 0.3635
vt 0.0802 0.9311
vt 0.0802 0.3635
vt 0.6479 0.3635
vt 0.0802 0.9311
vt 0.0802 0.3635
vt 0.6479 0.3635
vt 0.0802 0.9311
vt 0.0802 0.3635
vt 0.6479 0.3635
vt 0.0802 0.9311
vt 0.0802 0.3635
vt 0.0802 0.3635
vt 0.6479 0.9311
vt 0.0802 0.9311
vt 0.6479 0.3635
vt 0.0802 0.9311
vt 0.0802 0.3635
vt 0.6479 0.3635
vt 0.0802 0.9311
vt 0.0802 0.3635
vt 0.6479 0.3635
vt 0.0802 0.9311
vt 0.0802 0.3635
vt 0.6479 0.3635
vt 0.0802 0.9311
vt 0.0802 0.3635
vt 0.6479 0.3635
vt 0.0802 0.9311
vt 0.0802 0.3635
vt 0.6479 0.9311
vt 0.0802 0.9311
vt 0.0802 0.3635
vt 0.6479 0.3635
vt 0.0802 0.9311
vt 0.0802 0.3635
vt 0.6479 0.3635
vt 0.0802 0.9311
vt 0.0802 0.3635
vt 0.6479 0.3635
vt 0.0802 0.9311
vt 0.0802 0.3635
vt 0.6479 0.3635
vt 0.0802 0.9311
vt 0.0802 0.3635
vt 0.6479 0.9311
vt 0.0802 0.9311
vt 0.0802 0.3635
vt 0.6479 0.3635
vt 0.0802 0.9311
vt 0.0802 0.3635
vt 0.6479 0.3635
vt 0.0802 0.9311
vt 0.0802 0.3635
vt 0.6479 0.3635
vt 0.0802 0.9311
vt 0.0802 0.3635
vt 0.6479 0.3635
vt 0.0802 0.9311
vt 0.0802 0.3635
vt 0.6479 0.9311
vt 0.0802 0.9311
vt 0.0802 0.3635
vt 0.6479 0.3635
vt 0.0802 0.9311
vt 0.0802 0.3635
vt 0.6479 0.3635
vt 0.0802 0.9311
vt 0.0802 0.3635
vt 0.6479 0.3635
vt 0.0802 0.9311
vt 0.0802 0.3635
vt 0.6479 0.3635
vt 0.0802 0.9311
vt 0.0802 0.3635
vt 0.6479 0.3635
vt 0.0802 0.3635
vt 0.6479 0.9311
vt 0.0802 0.9311
vt 0.6479 0.3635
vt 0.0802 0.9311
vt 0.0802 0.3635
vt 0.6479 0.3635
vt 0.0802 0.9311
vt 0.0802 0.3635
vt 0.6479 0.3635
vt 0.0802 0.9311
vt 0.0802 0.3635
vt 0.6479 0.3635
vt 0.0802 0.9311
vt 0.0802 0.3635
vt 0.6479 0.9311
vt 0.0802 0.9311
vt 0.0802 0.3635
vt 0.6479 0.3635
vt 0.0802 0.9311
vt 0.0802 0.3635
vt 0.6479 0.3635
vt 0.0802 0.9311
vt 0.0802 0.3635
vt 0.6479 0.3635
vt 0.0802 0.9311
vt 0.0802 0.3635
vt 0.6479 0.3635
vt 0.0802 0.9311
vt 0.0802 0.3635
vt 0.6479 0.3635
vt 0.0802 0.3635
vt 0.6479 0.9311
vt 0.0802 0.9311
vt 0.6479 0.3635
vt 0.0802 0.9311
vt 0.0802 0.3635
vt 0.6479 0.3635
vt 0.0802 0.9311
vt 0.0802 0.3635
vt 0.6479 0.3635
vt 0.0802 0.9311
vt 0.0802 0.3635
vt 0.6479 0.3635
vt 0.0802 0.9311
vt 0.0802 0.3635
vt 0.6479 0.9311
vt 0.0802 0.9311
vt 0.0802 0.3635
vt 0.6479 0.3635
vt 0.0802 0.9311
vt 0.0802 0.3635
vt 0.6479 0.3635
vt 0.0802 0.9311
vt 0.0802 0.3635
vt 0.6479 0.3635
vt 0.0802 0.9311
vt 0.0802 0.3635
vt 0.6479 0.3635
vt 0.0802 0.9311
vt 0.0802 0.3635
vt 0.6479 0.9311
vt 0.0802 0.9311
vt 0.0802 0.3635
vt 0.6479 0.3635
vt 0.0802 0.9311
vt 0.0802 0.3635
vt 0.6479 0.3635
vt 0.0802 0.9311
vt 0.0802 0.3635
vt 0.6479 0.3635
vt 0.0802 0.9311
vt 0.0802 0.3635
vt 0.5309 0.4177
vt 0.1972 0.4177
vt 0.0941 0.7350
vt 0.6479 0.3635
vt 0.0802 0.9311
vt 0.0802 0.3635
vt 0.0802 0.3635
vt 0.6479 0.3635
vt 0.6479 0.9311
vt 0.0802 0.3635
vt 0.6479 0.3635
vt 0.6479 0.9311
vt 0.0802 0.3635
vt 0.0802 0.9311
vt 0.6479 0.3635
vt 0.0802 0.9311
vt 0.0802 0.3635
vt 0.0802 0.3635
vt 0.6479 0.9311
vt 0.6479 0.3635
vt 0.6479 0.9311
vt 0.6479 0.3635
vt 0.0802 0.9311
vt 0.0802 0.3635
vt 0.6479 0.3635
vt 0.0802 0.9311
vt 0.0802 0.3635
vt 0.0802 0.3635
vt 0.6479 0.9311
vt 0.6479 0.3635
vt 0.6479 0.9311
vt 0.6479 0.3635
vt 0.0802 0.9311
vt 0.0802 0.3635
vt 0.6479 0.3635
vt 0.0802 0.9311
vt 0.0802 0.3635
vt 0.0802 0.3635
vt 0.6479 0.9311
vt 0.6479 0.3635
vt 0.6479 0.9311
vt 0.6479 0.3635
vt 0.0802 0.9311
vt 0.0802 0.3635
vt 0.0802 0.3635
vt 0.6479 0.9311
vt 0.0802 0.9311
vt 0.6479 0.3635
vt 0.0802 0.9311
vt 0.0802 0.3635
vt 0.0802 0.3635
vt 0.6479 0.3635
vt 0.6479 0.9311
vt 0.6479 0.3635
vt 0.6479 0.9311
vt 0.6479 0.3635
vt 0.0802 0.9311
vt 0.0802 0.3635
vt 0.6479 0.3635
vt 0.0802 0.9311
vt 0.0802 0.3635
vt 0.0802 0.3635
vt 0.6479 0.9311
vt 0.6479 0.3635
vt 0.0802 0.9311
vt 0.0802 0.3635
vt 0.6479 0.9311
vt 0.0802 0.9311
vt 0.0802 0.3635
vt 0.6479 0.9311
vt 0.0802 0.9311
vt 0.0802 0.3635
vt 0.6479 0.9311
vt 0.0802 0.9311
vt 0.6479 0.3635
vt 0.0802 0.9311
vt 0.0802 0.3635
vt 0.6479 0.3635
vt 0.0802 0.9311
vt 0.0802 0.3635
vt 0.0802 0.3635
vt 0.6479 0.9311
vt 0.0802 0.9311
vt 0.6479 0.3635
vt 0.0802 0.3635
vt 0.6479 0.3635
vt 0.0802 0.9311
vt 0.0802 0.3635
vt 0.0802 0.3635
vt 0.6479 0.9311
vt 0.0802 0.9311
vt 0.6479 0.3635
vt 0.0802 0.9311
vt 0.0802 0.3635
vt 0.0802 0.3635
vt 0.6479 0.9311
vt 0.0802 0.9311
vt 0.6479 0.3635
vt 0.0802 0.9311
vt 0.0802 0.3635
vt 0.6479 0.3635
vt 0.0802 0.9311
vt 0.0802 0.3635
vt 0.6479 0.3635
vt 0.0802 0.3635
vt 0.6479 0.9311
vt 0.0802 0.9311
vt 0.6479 0.3635
vt 0.0802 0.9311
vt 0.0802 0.3635
vt 0.6479 0.9311
vt 0.0802 0.9311
vt 0.0802 0.3635
vt 0.6479 0.9311
vt 0.0802 0.9311
vt 0.0802 0.3635
vt 0.6479 0.3635
vt 0.0802 0.9311
vt 0.0802 0.3635
vt 0.6479 0.3635
vt 0.0802 0.9311
vt 0.0802 0.3635
vt 0.6479 0.3635
vt 0.0802 0.9311
vt 0.6479 0.3635
vt 0.0802 0.9311
vt 0.0802 0.3635
vt 0.0802 0.3635
vt 0.6479 0.9311
vt 0.0802 0.9311
vt 0.0802 0.3635
vt 0.6479 0.3635
vt 0.0802 0.9311
vt 0.0802 0.3635
vt 0.6479 0.3635
vt 0.0802 0.9311
vt 0.0802 0.3635
vt 0.6479 0.3635
vt 0.0802 0.9311
vt 0.0802 0.3635
vt 0.6479 0.3635
vt 0.0802 0.9311
vt 0.0802 0.3635
vt 0.6479 0.3635
vt 0.0802 0.9311
vt 0.0802 0.3635
vt 0.6098 0.7892
vt 0.1183 0.5054
vt 0.3640 0.9311
vt 0.6479 0.3635
vt 0.0802 0.9311
vt 0.0802 0.3635
vt 0.6479 0.3635
vt 0.0802 0.9311
vt 0.0802 0.3635
vt 0.6479 0.9311
vt 0.0802 0.9311
vt 0.6098 0.7892
vt 0.3640 0.3635
vt 0.3640 0.9311
vt 0.6479 0.9311
vt 0.0802 0.9311
vt 0.6479 0.3635
vt 0.0802 0.9311
vt 0.6479 0.9311
vt 0.0802 0.9311
vt 0.6479 0.3635
vt 0.0802 0.9311
vt 0.6479 0.3635
vt 0.0802 0.9311
vt 0.6479 0.3635
vt 0.0802 0.9311
vt 0.0802 0.3635
vt 0.6479 0.3635
vt 0.0802 0.9311
vt 0.0802 0.3635
vt 0.6479 0.3635
vt 0.0802 0.9311
vt 0.0802 0.3635
vt 0.6479 0.3635
vt 0.0802 0.9311
vt 0.0802 0.3635
vt 0.6479 0.3635
vt 0.0802 0.9311
vt 0.0802 0.3635
vt 0.6479 0.3635
vt 0.0802 0.9311
vt 0.0802 0.3635
vt 0.6479 0.3635
vt 0.0802 0.9311
vt 0.0802 0.3635
vt 0.6479 0.3635
vt 0.0802 0.9311
vt 0.0802 0.3635
vt 0.6479 0.3635
vt 0.0802 0.9311
vt 0.0802 0.3635
vt 0.6479 0.3635
vt 0.0802 0.9311
vt 0.0802 0.3635
vt 0.6479 0.3635
vt 0.0802 0.9311
vt 0.0802 0.3635
vt 0.6479 0.3635
vt 0.0802 0.9311
vt 0.0802 0.3635
vt 0.6479 0.3635
vt 0.0802 0.9311
vt 0.0802 0.3635
vt 0.6479 0.3635
vt 0.0802 0.9311
vt 0.0802 0.3635
vt 0.6479 0.3635
vt 0.0802 0.9311
vt 0.0802 0.3635
vt 0.6479 0.3635
vt 0.0802 0.9311
vt 0.0802 0.3635
vt 0.6479 0.3635
vt 0.0802 0.9311
vt 0.0802 0.3635
vt 0.6479 0.3635
vt 0.0802 0.9311
vt 0.0802 0.3635
vt 0.6479 0.3635
vt 0.0802 0.9311
vt 0.0802 0.3635
vt 0.6479 0.3635
vt 0.0802 0.9311
vt 0.0802 0.3635
vt 0.6479 0.3635
vt 0.0802 0.9311
vt 0.0802 0.3635
vt 0.6479 0.3635
vt 0.0802 0.9311
vt 0.0802 0.3635
vt 0.6479 0.3635
vt 0.0802 0.9311
vt 0.0802 0.3635
vt 0.6479 0.3635
vt 0.0802 0.9311
vt 0.0802 0.3635
vt 0.6479 0.3635
vt 0.0802 0.9311
vt 0.0802 0.3635
vt 0.6340 0.7350
vt 0.1972 0.4177
vt 0.3640 0.9311
vt 0.0802 0.3635
vt 0.6479 0.9311
vt 0.0802 0.9311
vt 0.6479 0.3635
vt 0.0802 0.9311
vt 0.0802 0.3635
vt 0.6479 0.3635
vt 0.0802 0.9311
vt 0.0802 0.3635
vt 0.6479 0.3635
vt 0.0802 0.9311
vt 0.0802 0.3635
vt 0.0802 0.3635
vt 0.6479 0.9311
vt 0.0802 0.9311
vt 0.6479 0.3635
vt 0.0802 0.9311
vt 0.0802 0.3635
vt 0.6479 0.3635
vt 0.0802 0.9311
vt 0.0802 0.3635
vt 0.6479 0.3635
vt 0.0802 0.9311
vt 0.0802 0.3635
vt 0.0802 0.3635
vt 0.6479 0.9311
vt 0.0802 0.9311
vt 0.0802 0.3635
vt 0.6479 0.9311
vt 0.0802 0.9311
vt 0.6479 0.9311
vt 0.0802 0.9311
vt 0.0802 0.3635
vt 0.6479 0.3635
vt 0.0802 0.9311
vt 0.0802 0.3635
vt 0.6479 0.3635
vt 0.0802 0.9311
vt 0.0802 0.3635
vt 0.6479 0.3635
vt 0.0802 0.9311
vt 0.0802 0.3635
vt 0.6479 0.3635
vt 0.0802 0.9311
vt 0.0802 0.3635
vt 0.6479 0.9311
vt 0.0802 0.9311
vt 0.0802 0.3635
vt 0.6479 0.3635
vt 0.0802 0.9311
vt 0.0802 0.3635
vt 0.6479 0.3635
vt 0.0802 0.9311
vt 0.0802 0.3635
vt 0.6479 0.3635
vt 0.0802 0.9311
vt 0.0802 0.3635
vt 0.6479 0.3635
vt 0.0802 0.9311
vt 0.0802 0.3635
vt 0.6479 0.9311
vt 0.0802 0.9311
vt 0.0802 0.3635
vt 0.6479 0.3635
vt 0.0802 0.9311
vt 0.0802 0.3635
vt 0.6479 0.3635
vt 0.0802 0.9311
vt 0.0802 0.3635
vt 0.6479 0.3635
vt 0.0802 0.9311
vt 0.0802 0.3635
vt 0.6479 0.3635
vt 0.0802 0.9311
vt 0.0802 0.3635
vt 0.6479 0.9311
vt 0.0802 0.9311
vt 0.0802 0.3635
vt 0.6479 0.3635
vt 0.0802 0.9311
vt 0.0802 0.3635
vt 0.6479 0.3635
vt 0.0802 0.9311
vt 0.0802 0.3635
vt 0.6479 0.3635
vt 0.0802 0.9311
vt 0.0802 0.3635
vt 0.6479 0.3635
vt 0.0802 0.9311
vt 0.0802 0.3635
vt 0.6479 0.9311
vt 0.0802 0.9311
vt 0.0802 0.3635
vt 0.6479 0.3635
vt 0.0802 0.9311
vt 0.0802 0.3635
vt 0.0802 0.3635
vt 0.6479 0.9311
vt 0.0802 0.9311
vt 0.6479 0.3635
vt 0.0802 0.9311
vt 0.0802 0.3635
vt 0.6479 0.3635
vt 0.0802 0.9311
vt 0.0802 0.3635
vt 0.6479 0.9311
vt 0.6479 0.3635
vt 0.0802 0.9311
vt 0.0802 0.3635
vt 0.6479 0.3635
vt 0.0802 0.9311
vt 0.0802 0.3635
vt 0.6479 0.3635
vt 0.0802 0.9311
vt 0.0802 0.3635
vt 0.6479 0.3635
vt 0.0802 0.9311
vt 0.0802 0.3635
vt 0.6479 0.3635
vt 0.0802 0.9311
vt 0.0802 0.3635
vt 0.6479 0.9311
vt 0.0802 0.9311
vt 0.0802 0.3635
vt 0.6479 0.3635
vt 0.0802 0.9311
vt 0.0802 0.3635
vt 0.6479 0.3635
vt 0.0802 0.9311
vt 0.0802 0.3635
vt 0.6479 0.3635
vt 0.0802 0.9311
vt 0.0802 0.3635
vt 0.6479 0.3635
vt 0.0802 0.9311
vt 0.0802 0.3635
vt 0.6479 0.9311
vt 0.0802 0.9311
vt 0.0802 0.3635
vt 0.6479 0.3635
vt 0.0802 0.9311
vt 0.0802 0.3635
vt 0.6479 0.3635
vt 0.0802 0.9311
vt 0.0802 0.3635
vt 0.6479 0.3635
vt 0.0802 0.9311
vt 0.0802 0.3635
vt 0.6479 0.3635
vt 0.0802 0.9311
vt 0.0802 0.3635
vt 0.6479 0.9311
vt 0.0802 0.9311
vt 0.0802 0.3635
vt 0.1183 0.7892
vt 0.3640 0.9311
vt 0.3640 0.3635
vt 0.6479 0.9311
vt 0.1183 0.7892
vt 0.6098 0.5054
vt 0.3640 0.3635
vt 0.6479 0.9311
vt 0.6479 0.9311
vt 0.6479 0.3635
vt 0.6479 0.9311
vt 0.6479 0.9311
vt 0.6479 0.9311
vt 0.6479 0.9311
vt 0.6479 0.9311
vt 0.6479 0.9311
vt 0.6479 0.9311
vt 0.6479 0.9311
vt 0.6479 0.3635
vt 0.6479 0.9311
vt 0.6479 0.9311
vt 0.6479 0.9311
vt 0.6479 0.9311
vt 0.6479 0.9311
vt 0.6479 0.9311
vt 0.6479 0.9311
vt 0.6479 0.9311
vt 0.6479 0.9311
vt 0.6479 0.3635
vt 0.6479 0.3635
vt 0.6479 0.9311
vt 0.6479 0.9311
vt 0.6479 0.9311
vt 0.6479 0.9311
vt 0.6479 0.9311
vt 0.6479 0.9311
vt 0.6479 0.9311
vt 0.6479 0.3635
vt 0.6479 0.3635
vt 0.6479 0.9311
vt 0.6479 0.9311
vt 0.6479 0.9311
vt 0.6479 0.9311
vt 0.6479 0.9311
vt 0.6479 0.9311
vt 0.6479 0.9311
vt 0.6479 0.3635
vt 0.6479 0.9311
vt 0.6479 0.3635
vt 0.6479 0.9311
vt 0.6479 0.9311
vt 0.6479 0.9311
vt 0.6479 0.9311
vt 0.6479 0.9311
vt 0.6479 0.9311
vt 0.6479 0.9311
vt 0.6479 0.3635
vt 0.6479 0.9311
vt 0.6479 0.9311
vt 0.6479 0.9311
vt 0.6479 0.9311
vt 0.6479 0.9311
vt 0.6479 0.9311
vt 0.6479 0.9311
vt 0.6479 0.9311
vt 0.6479 0.3635
vt 0.6479 0.9311
vt 0.6479 0.9311
vt 0.6479 0.9311
vt 0.6479 0.9311
vt 0.6479 0.9311
vt 0.6479 0.9311
vt 0.6479 0.9311
vt 0.6479 0.9311
vt 0.6479 0.3635
vt 0.6479 0.3635
vt 0.6479 0.9311
vt 0.6479 0.9311
vt 0.6479 0.9311
vt 0.6479 0.9311
vt 0.6479 0.9311
vt 0.6479 0.9311
vt 0.5733 0.6472
vt 0.0803 0.6473
vt 0.6479 0.9311
vt 0.6479 0.9311
vt 0.6479 0.9311
vt 0.6479 0.9311
vt 0.5372 0.9310
vt 0.5372 0.8735
vt 0.5372 0.3635
vt 0.6478 0.3635
vt 0.6478 0.8204
vt 0.0803 0.3635
vt 0.6479 0.9311
vt 0.6479 0.9311
vt 0.6479 0.9311
vt 0.6479 0.9311
vt 0.6479 0.9311
vt 0.6479 0.9311
vt 0.6479 0.9311
vt 0.6479 0.9311
vt 0.6479 0.9311
vt 0.6479 0.9311
vt 0.6479 0.9311
vt 0.6479 0.9311
vt 0.6479 0.9311
vt 0.6479 0.9311
vt 0.6479 0.9311
vt 0.6479 0.9311
vt 0.6479 0.9311
vt 0.6479 0.9311
vt 0.6479 0.9311
vt 0.6479 0.9311
vt 0.6479 0.9311
vt 0.6479 0.9311
vt 0.6479 0.9311
vt 0.6479 0.9311
vt 0.6479 0.9311
vt 0.6479 0.9311
vt 0.6479 0.9311
vt 0.6479 0.9311
vt 0.6479 0.9311
vt 0.6479 0.9311
vt 0.6479 0.9311
vt 0.6479 0.9311
vt 0.6479 0.9311
vt 0.6479 0.9311
vt 0.6479 0.9311
vt 0.6479 0.9311
vt 0.6479 0.9311
vt 0.6479 0.9311
vt 0.6479 0.9311
vt 0.6479 0.9311
vt 0.6479 0.9311
vt 0.6479 0.9311
vt 0.6479 0.9311
vt 0.6479 0.9311
vt 0.6479 0.3635
vt 0.6479 0.9311
vt 0.6479 0.9311
vt 0.6479 0.9311
vt 0.6479 0.9311
vt 0.6479 0.3635
vt 0.6479 0.9311
vt 0.6479 0.9311
vt 0.6479 0.9311
vt 0.6479 0.9311
vt 0.6479 0.3635
vt 0.6479 0.9311
vt 0.6479 0.9311
vt 0.6479 0.9311
vt 0.6479 0.9311
vt 0.6479 0.9311
vt 0.6479 0.9311
vt 0.6479 0.9311
vt 0.6479 0.9311
vt 0.6479 0.9311
vt 0.6479 0.9311
vt 0.6479 0.9311
vt 0.6479 0.9311
vt 0.6479 0.3635
vt 0.6479 0.9311
vt 0.6479 0.9311
vt 0.6479 0.9311
vt 0.6479 0.9311
vt 0.6479 0.9311
vt 0.6479 0.9311
vt 0.6479 0.9311
vt 0.6479 0.9311
vt 0.6479 0.3635
vt 0.6479 0.9311
vt 0.6479 0.9311
vt 0.6479 0.9311
vt 0.6479 0.3635
vt 0.6479 0.9311
vt 0.6479 0.9311
vt 0.6479 0.9311
vt 0.6479 0.9311
vt 0.6479 0.3635
vt 0.6479 0.9311
vt 0.6479 0.9311
vt 0.6479 0.9311
vt 0.6479 0.9311
vt 0.6479 0.9311
vt 0.6479 0.3635
vt 0.6479 0.9311
vt 0.6479 0.9311
vt 0.6479 0.9311
vt 0.6479 0.9311
vt 0.6479 0.3635
vt 0.6479 0.9311
vt 0.6479 0.9311
vt 0.6479 0.9311
vt 0.6479 0.9311
vt 0.6479 0.3635
vt 0.6479 0.9311
vt 0.6479 0.9311
vt 0.6479 0.9311
vt 0.6479 0.9311
vt 0.6479 0.9311
vt 0.6479 0.9311
vt 0.6479 0.9311
vt 0.6479 0.9311
vt 0.6479 0.3635
vt 0.6479 0.9311
vt 0.6479 0.9311
vt 0.6479 0.9311
vt 0.6479 0.9311
vt 0.6479 0.9311
vt 0.6479 0.9311
vt 0.6479 0.9311
vt 0.6479 0.9311
vt 0.6479 0.3635
vt 0.6479 0.9311
vt 0.6479 0.9311
vt 0.6479 0.9311
vt 0.6479 0.9311
vt 0.6479 0.3635
vt 0.6479 0.9311
vt 0.6479 0.9311
vt 0.6479 0.9311
vt 0.3640 0.9311
vt 0.6340 0.7350
vt 0.6479 0.9311
vt 0.6479 0.3635
vt 0.6479 0.9311
vt 0.6479 0.9311
vt 0.6479 0.9311
vt 0.6479 0.3635
vt 0.6479 0.9311
vt 0.6479 0.9311
vt 0.6479 0.9311
vt 0.6479 0.3635
vt 0.6479 0.3635
vt 0.6479 0.9311
vt 0.6479 0.9311
vt 0.6479 0.3635
vt 0.6479 0.9311
vt 0.6479 0.3635
vt 0.6479 0.9311
vt 0.6479 0.9311
vt 0.6479 0.9311
vt 0.6479 0.3635
vt 0.6479 0.9311
vt 0.6479 0.3635
vt 0.6479 0.3635
vt 0.6479 0.9311
vt 0.6479 0.9311
vt 0.6479 0.9311
vt 0.6479 0.9311
vt 0.6479 0.3635
vt 0.6479 0.9311
vt 0.6479 0.9311
vt 0.6479 0.9311
vt 0.6479 0.9311
vt 0.6479 0.9311
vt 0.1183 0.7892
vt 0.6098 0.5054
vt 0.3640 0.3635
vt 0.6479 0.9311
vt 0.6479 0.9311
vt 0.6479 0.3635
vt 0.1183 0.7892
vt 0.6098 0.5054
vt 0.1183 0.5054
vt 0.6479 0.3635
vt 0.6479 0.9311
vt 0.6479 0.3635
vt 0.6479 0.9311
vt 0.6479 0.9311
vt 0.6479 0.9311
vt 0.6479 0.9311
vt 0.6479 0.9311
vt 0.6479 0.9311
vt 0.6479 0.9311
vt 0.6479 0.9311
vt 0.6479 0.9311
vt 0.6479 0.9311
vt 0.6479 0.9311
vt 0.6479 0.9311
vt 0.6479 0.9311
vt 0.6479 0.9311
vt 0.6479 0.9311
vt 0.6479 0.9311
vt 0.6479 0.9311
vt 0.6479 0.9311
vt 0.6479 0.9311
vt 0.6479 0.9311
vt 0.6479 0.9311
vt 0.6479 0.9311
vt 0.6479 0.9311
vt 0.6479 0.9311
vt 0.6479 0.9311
vt 0.6479 0.9311
vt 0.6479 0.9311
vt 0.0941 0.7350
vt 0.5309 0.4177
vt 0.6479 0.3635
vt 0.6479 0.9311
vt 0.6479 0.9311
vt 0.6479 0.9311
vt 0.6479 0.3635
vt 0.6479 0.9311
vt 0.6479 0.9311
vt 0.6479 0.9311
vt 0.6479 0.3635
vt 0.6479 0.3635
vt 0.6479 0.3635
vt 0.6479 0.9311
vt 0.6479 0.9311
vt 0.6479 0.9311
vt 0.6479 0.9311
vt 0.6479 0.3635
vt 0.6479 0.9311
vt 0.6479 0.9311
vt 0.6479 0.9311
vt 0.6479 0.9311
vt 0.6479 0.3635
vt 0.6479 0.9311
vt 0.6479 0.9311
vt 0.6479 0.9311
vt 0.6479 0.9311
vt 0.6479 0.3635
vt 0.6479 0.9311
vt 0.6479 0.9311
vt 0.6479 0.9311
vt 0.6479 0.9311
vt 0.6479 0.3635
vt 0.6479 0.9311
vt 0.6479 0.9311
vt 0.6479 0.9311
vt 0.6479 0.3635
vt 0.6479 0.9311
vt 0.6479 0.9311
vt 0.6479 0.9311
vt 0.6479 0.9311
vt 0.6479 0.3635
vt 0.6479 0.9311
vt 0.6479 0.9311
vt 0.6479 0.9311
vt 0.6479 0.9311
vt 0.6479 0.3635
vt 0.6479 0.9311
vt 0.6479 0.9311
vt 0.6479 0.9311
vt 0.6479 0.9311
vt 0.6479 0.3635
vn -0.5265 0.0000 -0.8502
vn 0.4730 0.0000 -0.8810
vn 0.9995 0.0000 -0.0309
vn 0.5265 0.0000 0.8502
vn 0.0000 1.0000 -0.0000
vn -0.4730 0.0000 0.8810
vn -0.9995 0.0000 0.0309
vn -0.0006 -0.9998 -0.0188
vn -0.0309 0.0000 -0.9995
vn 0.3063 -0.9515 -0.0274
vn 0.0309 0.0000 0.9995
vn -0.3069 0.9517 0.0095
vn -0.2827 0.2959 -0.9124
vn 0.5773 0.5773 -0.5773
vn -0.3171 -0.3049 -0.8980
vn 0.5773 -0.5773 0.5773
vn 0.5773 -0.5773 -0.5773
vn 0.5773 0.5773 0.5773
vn -0.2863 -0.2971 0.9109
vn -0.5773 -0.5773 0.5773
vn -0.5773 -0.5773 -0.5773
vn -0.5789 0.5760 0.5771
vn -0.0139 -0.6982 -0.7158
vn -0.7873 -0.1257 0.6036
vn -0.8435 0.0833 -0.5306
vn 0.8435 -0.0833 0.5306
vn 0.0423 -0.9073 0.4184
vn -0.0423 0.9073 -0.4184
vn 0.0139 0.6982 0.7158
vn 0.7873 0.1257 -0.6036
vn -0.5773 0.5773 -0.5773
vn -0.5773 0.5773 0.5773
vn 0.0139 -0.6982 0.7158
vn 0.7873 -0.1257 -0.6036
vn 0.8435 0.0833 0.5306
vn -0.7873 0.1257 0.6036
vn -0.0423 -0.9073 -0.4184
vn -0.0139 0.6982 -0.7158
vn -0.8435 -0.0833 -0.5306
vn 0.0423 0.9073 0.4184
vn -0.3173 -0.8979 0.3049
vn -0.2832 0.9122 -0.2961
vn -0.2861 0.9110 0.2971
vn -0.5773 0.3017 -0.7587
vn 0.5773 -0.7587 -0.3017
vn -0.5773 -0.7587 -0.3017
vn 0.5773 0.3017 -0.7587
vn 0.5773 -0.3017 0.7587
vn 0.5773 0.7587 0.3017
vn -0.5773 -0.3016 0.7587
vn -0.5773 0.7587 0.3017
vn -0.5773 -0.3017 0.7587
vn 0.5773 0.7587 0.3016
vn -0.5773 0.3016 -0.7587
vn -0.5773 0.7587 0.3016
vn 0.5773 0.3016 -0.7587
vn -0.5773 -0.7587 -0.3016
vn 0.5773 -0.7587 -0.3016
vn 0.5773 -0.3016 0.7587
vn 0.0000 -0.7280 -0.6855
vn -0.5806 -0.5582 0.5928
vn -0.5694 0.5859 -0.5766
vn -0.5742 -0.5960 -0.5612
vn -0.5789 0.5760 -0.5771
vn -0.2968 0.3011 0.9062
vn -0.5709 0.5849 0.5761
vn 0.0000 -0.6855 0.7280
vn 1.0000 0.0000 0.0000
vn 0.3798 -0.6503 0.6579
vn 0.7597 -0.6503 0.0000
vn 0.7597 0.6503 0.0000
vn 0.3798 0.6503 0.6579
vn 0.0000 -1.0000 0.0000
vn 0.5000 0.0000 0.8660
vn -0.3798 -0.6503 0.6579
vn -0.3798 0.6503 0.6579
vn -0.5000 0.0000 0.8660
vn -0.7597 -0.6503 0.0000
vn -0.7597 0.6503 0.0000
vn -1.0000 0.0000 0.0000
vn -0.3798 -0.6503 -0.6579
vn -0.3798 0.6503 -0.6579
vn -0.5000 0.0000 -0.8660
vn 0.3798 0.6503 -0.6579
vn 0.5000 0.0000 -0.8660
vn 0.3798 -0.6503 -0.6579
vn -0.3027 -0.9205 -0.2469
vn -0.5776 -0.5429 0.6096
vn -0.3003 -0.8853 0.3550
vn 0.3004 -0.9268 -0.2254
vn 0.3012 -0.8764 0.3757
vn 0.5568 -0.5454 0.6264
vn -0.5771 -0.6099 -0.5431
vn 0.5972 -0.6055 -0.5260
vn -0.5742 -0.5610 0.5962
vn -0.5812 0.5958 -0.5542
vn -0.5736 -0.5579 -0.5997
vn -0.3204 -0.8967 -0.3055
vn -0.5806 0.5929 0.5579
vn 0.0139 -0.8222 0.5690
vn 0.7873 -0.0079 -0.6165
vn 0.8435 -0.0197 0.5367
vn -0.7873 0.0079 0.6165
vn -0.0423 -0.8104 -0.5842
vn 0.0423 0.8104 0.5842
vn -0.0139 0.8222 -0.5690
vn -0.8435 0.0197 -0.5367
vn 0.7895 0.6138 0.0000
vn 0.2980 -0.8193 0.4898
vn 0.5552 -0.8317 0.0000
vn 0.4057 0.6081 0.6823
vn -0.2979 -0.8193 0.4898
vn -0.4057 0.6081 0.6823
vn -0.5552 -0.8317 0.0000
vn -0.7895 0.6138 0.0000
vn -0.2980 -0.8193 -0.4898
vn -0.4057 0.6081 -0.6823
vn 0.2979 -0.8193 -0.4898
vn 0.4057 0.6081 -0.6823
vn 0.2633 -0.8634 0.4303
vn 0.5092 -0.8606 0.0000
vn -0.2633 -0.8634 -0.4303
vn -0.5092 -0.8606 0.0000
vn 0.2633 -0.8634 -0.4303
vn -0.2633 -0.8634 0.4303
vn -0.7559 0.2986 0.5826
vn -0.3012 -0.7626 -0.5724
vn -0.3012 -0.7626 0.5724
vn -0.7559 0.2986 -0.5827
vn 0.7559 -0.2986 -0.5827
vn 0.3012 0.7626 -0.5724
vn 0.7559 -0.2986 0.5826
vn 0.3012 0.7626 0.5724
vn -0.7559 0.2986 0.5827
vn -0.7559 0.2986 -0.5826
vn 0.7559 -0.2986 0.5827
vn 0.7559 -0.2986 -0.5826
s off
f 13/1/1 4/2/1 3/3/1
f 4/2/2 5/4/2 3/3/2
f 6/5/3 7/6/3 5/4/3
f 8/7/4 9/8/4 7/6/4
f 2/9/5 10/10/5 4/2/5
f 10/10/6 14/11/6 9/8/6
f 14/11/7 1/12/7 11/13/7
f 18/14/8 19/15/8 15/16/8
f 13/17/9 16/18/9 2/19/9
f 14/11/10 15/16/10 13/1/10
f 14/20/11 17/21/11 18/22/11
f 2/9/12 17/23/12 12/24/12
f 19/15/7 21/25/7 20/26/7
f 16/27/5 21/25/5 17/23/5
f 17/21/11 22/28/11 18/22/11
f 15/29/9 20/30/9 16/18/9
f 3/3/1 1/12/1 13/1/1
f 13/1/1 2/9/1 4/2/1
f 4/2/2 6/5/2 5/4/2
f 6/5/3 8/7/3 7/6/3
f 8/7/4 10/10/4 9/8/4
f 6/5/5 4/2/5 10/10/5
f 2/9/5 12/24/5 10/10/5
f 10/10/5 8/7/5 6/5/5
f 11/13/6 9/8/6 14/11/6
f 10/10/6 12/24/6 14/11/6
f 14/11/7 13/1/7 1/12/7
f 18/14/8 22/31/8 19/15/8
f 13/17/9 15/29/9 16/18/9
f 14/11/10 18/14/10 15/16/10
f 14/20/11 12/32/11 17/21/11
f 2/9/12 16/27/12 17/23/12
f 19/15/7 22/31/7 21/25/7
f 16/27/5 20/26/5 21/25/5
f 17/21/11 21/33/11 22/28/11
f 15/29/9 19/34/9 20/30/9
s 1
f 23/35/13 24/36/14 25/37/15
f 24/38/14 26/39/16 27/40/17
f 28/41/18 29/42/19 26/43/16
f 30/44/20 25/45/15 31/46/21
f 26/47/16 31/46/21 27/40/17
f 24/38/14 32/48/22 28/49/18
f 33/50/23 34/51/24 35/52/25
f 33/50/23 36/53/26 37/54/27
f 38/55/28 33/56/23 35/57/25
f 39/58/29 35/52/25 34/59/24
f 40/60/30 39/61/29 36/62/26
f 36/63/26 34/64/24 37/65/27
f 41/66/31 42/67/17 43/68/21
f 44/69/14 45/70/16 42/71/17
f 46/72/18 47/73/20 45/74/16
f 48/75/32 43/76/21 47/77/20
f 45/78/16 43/76/21 42/71/17
f 44/69/14 48/79/32 46/80/18
f 49/81/23 50/82/24 51/83/25
f 52/84/30 53/85/27 49/81/23
f 54/86/28 49/87/23 51/88/25
f 55/89/29 51/83/25 50/90/24
f 52/84/30 55/91/29 56/92/26
f 56/93/26 50/94/24 53/95/27
f 57/96/31 58/97/17 59/98/21
f 60/99/14 61/100/16 58/101/17
f 62/102/18 63/103/20 61/104/16
f 64/105/32 59/106/21 63/107/20
f 61/108/16 59/106/21 58/101/17
f 60/99/14 64/109/32 62/110/18
f 65/111/23 66/112/24 67/113/25
f 65/111/23 68/114/26 69/115/27
f 67/116/25 70/117/30 65/118/23
f 71/119/29 67/113/25 66/120/24
f 70/121/30 71/122/29 68/123/26
f 68/124/26 66/125/24 69/126/27
f 72/127/31 73/128/17 74/129/21
f 75/130/14 76/131/16 73/132/17
f 77/133/18 78/134/20 76/135/16
f 79/136/32 74/137/21 78/138/20
f 76/139/16 74/137/21 73/132/17
f 75/130/14 79/140/32 77/141/18
f 80/142/23 81/143/24 82/144/25
f 80/142/23 83/145/26 84/146/27
f 82/147/25 85/148/30 80/149/23
f 86/150/29 82/144/25 81/151/24
f 85/152/30 86/153/29 83/154/26
f 83/155/26 81/156/24 84/157/27
f 87/158/18 88/159/20 89/160/16
f 90/161/32 91/162/21 88/163/20
f 92/164/31 93/165/17 91/166/21
f 94/167/14 89/168/16 93/169/17
f 91/170/21 89/168/16 88/163/20
f 90/161/32 94/171/14 92/172/31
f 95/173/33 96/174/34 97/175/35
f 98/176/36 99/177/37 95/173/33
f 97/178/35 98/179/36 95/180/33
f 100/181/38 97/175/35 96/182/34
f 98/176/36 100/183/38 101/184/39
f 101/185/39 96/186/34 99/187/37
f 102/188/18 103/189/20 104/190/16
f 105/191/32 106/192/21 103/193/20
f 107/194/31 108/195/17 106/196/21
f 109/197/14 104/198/16 108/199/17
f 106/200/21 104/198/16 103/193/20
f 105/191/32 109/201/14 107/202/31
f 110/203/33 111/204/34 112/205/35
f 110/203/33 113/206/39 114/207/37
f 115/208/40 110/209/33 112/210/35
f 116/211/38 112/205/35 111/212/34
f 117/213/36 116/214/38 113/215/39
f 113/216/39 111/217/34 114/218/37
f 118/219/18 119/220/20 120/221/16
f 121/222/32 122/223/21 119/224/20
f 123/225/31 124/226/17 122/227/21
f 125/228/14 120/229/16 124/230/17
f 122/231/21 120/229/16 119/224/20
f 121/222/32 125/232/14 123/233/31
f 126/234/33 127/235/34 128/236/35
f 126/234/33 129/237/39 130/238/37
f 131/239/40 126/240/33 128/241/35
f 132/242/38 128/236/35 127/243/34
f 133/244/36 132/245/38 129/246/39
f 129/247/39 127/248/34 130/249/37
f 134/250/18 135/251/20 136/252/16
f 137/253/32 138/254/21 135/255/20
f 139/256/31 140/257/17 138/258/21
f 141/259/14 136/260/16 140/261/17
f 138/262/21 136/260/16 135/255/20
f 137/253/32 141/263/14 139/264/31
f 142/265/33 143/266/34 144/267/35
f 142/265/33 145/268/39 146/269/37
f 144/270/35 147/271/36 142/272/33
f 148/273/38 144/267/35 143/274/34
f 147/275/36 148/276/38 145/277/39
f 145/278/39 143/279/34 146/280/37
f 149/281/31 150/282/17 151/283/21
f 152/284/14 153/285/16 150/286/17
f 154/287/18 155/288/20 153/289/16
f 156/290/32 151/291/21 155/292/20
f 153/293/16 151/294/21 150/295/17
f 152/296/14 156/297/32 154/298/18
f 157/299/31 158/300/17 159/301/21
f 160/302/14 161/303/16 158/304/17
f 162/305/18 163/306/20 161/307/16
f 164/308/32 165/309/41 163/310/20
f 161/311/16 165/312/41 158/313/17
f 160/314/14 166/315/42 167/316/43
f 168/317/32 169/318/14 170/319/31
f 171/320/18 172/321/17 169/322/14
f 173/323/16 174/324/21 172/325/17
f 175/326/20 170/327/31 174/328/21
f 172/329/17 170/327/31 169/322/14
f 171/320/18 175/330/20 173/331/16
f 176/332/32 177/333/14 178/334/31
f 179/335/18 180/336/17 177/337/14
f 181/338/16 182/339/21 180/340/17
f 183/341/20 178/342/31 182/343/21
f 180/344/17 178/342/31 177/337/14
f 179/335/18 183/345/20 181/346/16
f 184/347/32 185/348/14 186/349/31
f 187/350/18 188/351/17 185/352/14
f 189/353/16 190/354/21 188/355/17
f 191/356/20 186/357/31 190/358/21
f 188/359/17 186/357/31 185/352/14
f 187/350/18 191/360/20 189/361/16
f 192/362/32 193/363/14 194/364/31
f 195/365/18 196/366/17 193/367/14
f 197/368/16 198/369/21 196/370/17
f 199/371/20 194/372/31 198/373/21
f 196/374/17 194/372/31 193/367/14
f 195/365/18 199/375/20 197/376/16
f 200/377/18 201/378/31 202/379/32
f 203/380/14 204/381/21 201/382/31
f 205/383/17 206/384/20 204/385/21
f 207/386/16 202/387/32 206/388/20
f 204/389/21 202/387/32 201/382/31
f 203/380/14 207/390/16 205/391/17
f 208/392/18 209/393/31 210/394/32
f 211/395/14 212/396/21 209/397/31
f 213/398/17 214/399/20 212/400/21
f 215/401/16 210/402/32 214/403/20
f 212/404/21 210/402/32 209/397/31
f 211/395/14 215/405/16 213/406/17
f 216/407/44 217/408/45 218/409/46
f 219/410/47 220/411/48 217/412/45
f 221/413/49 222/414/50 220/415/48
f 223/416/51 218/417/46 222/418/50
f 220/419/48 218/417/46 217/412/45
f 219/410/47 223/420/51 221/421/49
f 224/422/44 225/423/45 226/424/46
f 227/425/47 228/426/48 225/427/45
f 229/428/49 230/429/52 228/430/48
f 231/431/51 226/432/46 230/433/52
f 228/434/48 226/432/46 225/427/45
f 227/425/47 231/435/51 229/436/49
f 232/437/53 233/438/54 234/439/55
f 235/440/56 236/441/57 233/442/54
f 237/443/58 238/444/50 236/445/57
f 239/446/59 234/447/55 238/448/50
f 233/442/54 238/449/50 234/447/55
f 235/440/56 239/450/59 237/451/58
f 240/452/53 241/453/54 242/454/55
f 243/455/56 244/456/57 241/457/54
f 245/458/58 246/459/50 244/460/57
f 247/461/59 242/462/55 246/463/50
f 241/457/54 246/464/50 242/462/55
f 243/455/56 247/465/59 245/466/58
f 248/467/49 249/468/44 250/469/51
f 251/470/47 252/471/46 249/472/44
f 253/473/45 254/474/52 252/475/46
f 255/476/48 250/477/51 254/478/52
f 249/472/44 254/479/52 250/477/51
f 251/470/47 255/480/48 253/481/45
f 256/482/49 257/483/44 258/484/51
f 259/485/47 260/486/46 257/487/44
f 261/488/45 262/489/52 260/490/46
f 263/491/48 258/492/51 262/493/52
f 260/494/46 258/492/51 257/487/44
f 261/495/45 256/496/49 263/497/48
f 264/498/49 265/499/44 266/500/51
f 267/501/47 268/502/57 265/503/44
f 269/504/58 270/505/50 268/506/57
f 271/507/48 266/508/51 270/509/50
f 268/510/57 266/508/51 265/503/44
f 269/511/58 264/512/49 271/513/48
f 272/514/53 273/515/54 274/516/55
f 275/517/56 276/518/46 273/519/54
f 277/520/58 278/521/50 276/522/46
f 279/523/59 274/524/55 278/525/50
f 273/519/54 278/526/50 274/524/55
f 275/517/56 279/527/59 277/528/58
f 280/529/49 281/530/44 282/531/55
f 283/532/47 284/533/46 281/534/44
f 285/535/45 286/536/50 284/537/46
f 287/538/48 282/539/55 286/540/50
f 284/541/46 282/539/55 281/534/44
f 285/542/45 280/543/49 287/544/48
f 288/545/53 289/546/44 290/547/51
f 291/548/56 292/549/46 289/550/44
f 293/551/45 294/552/52 292/553/46
f 295/554/59 290/555/51 294/556/52
f 289/550/44 294/557/52 290/555/51
f 291/548/56 295/558/59 293/559/45
f 296/560/44 297/561/58 298/562/57
f 299/563/47 300/564/59 297/565/58
f 301/566/49 302/567/50 300/568/59
f 302/569/50 296/570/44 298/571/57
f 300/572/59 298/571/57 297/565/58
f 299/563/47 303/573/51 301/574/49
f 304/575/54 305/576/58 306/577/57
f 307/578/56 308/579/59 305/580/58
f 309/581/53 310/582/50 308/583/59
f 310/584/50 304/585/54 306/586/57
f 308/587/59 306/586/57 305/580/58
f 307/578/56 311/588/55 309/589/53
f 312/590/53 313/591/44 314/592/55
f 315/593/56 316/594/46 313/595/44
f 317/596/45 318/597/50 316/598/46
f 319/599/59 314/600/55 318/601/50
f 313/595/44 318/602/50 314/600/55
f 315/593/56 319/603/59 317/604/45
f 320/605/49 321/606/54 322/607/51
f 323/608/56 324/609/46 321/610/54
f 325/611/45 326/612/52 324/613/46
f 327/614/48 322/615/51 326/616/52
f 321/610/54 326/617/52 322/615/51
f 323/608/56 327/618/48 325/619/45
f 328/620/53 329/621/54 330/622/55
f 331/623/56 332/624/57 329/625/54
f 333/626/45 334/627/50 332/628/57
f 335/629/59 330/630/55 334/631/50
f 329/625/54 334/632/50 330/630/55
f 331/623/56 335/633/59 333/634/45
f 336/635/53 337/636/44 338/637/55
f 339/638/56 340/639/57 337/640/44
f 341/641/45 342/642/50 340/643/57
f 343/644/48 338/645/55 342/646/50
f 340/647/57 338/645/55 337/640/44
f 341/648/45 336/649/53 343/650/48
f 344/651/49 345/652/54 346/653/55
f 347/654/56 348/655/57 345/656/54
f 349/657/58 350/658/50 348/659/57
f 351/660/48 346/661/55 350/662/50
f 345/656/54 350/663/50 346/661/55
f 347/654/56 351/664/48 349/665/58
f 352/666/49 353/667/44 354/668/51
f 355/669/47 356/670/46 353/671/44
f 357/672/45 358/673/52 356/674/46
f 359/675/48 354/676/51 358/677/52
f 356/678/46 354/676/51 353/671/44
f 357/679/45 352/680/49 359/681/48
f 360/682/53 361/683/54 362/684/55
f 363/685/56 364/686/46 361/687/54
f 365/688/58 366/689/52 364/690/46
f 367/691/48 362/692/55 366/693/52
f 361/687/54 366/694/52 362/692/55
f 363/685/56 367/695/48 365/696/58
f 368/697/53 369/698/54 370/699/55
f 371/700/56 372/701/57 369/702/54
f 373/703/58 374/704/50 372/705/57
f 375/706/59 370/707/55 374/708/50
f 369/702/54 374/709/50 370/707/55
f 371/700/56 375/710/59 373/711/58
f 29/712/19 376/713/60 25/714/15
f 377/715/61 378/716/62 379/717/63
f 380/718/64 381/719/65 32/720/22
f 382/721/66 377/722/61 383/723/67
f 384/724/68 385/725/69 386/726/70
f 387/727/71 388/728/5 389/729/72
f 390/730/73 386/731/70 385/732/69
f 384/733/68 389/729/72 391/734/74
f 391/735/74 392/736/75 385/737/69
f 389/738/72 388/728/5 393/739/76
f 390/730/73 385/740/69 392/741/75
f 389/742/72 394/743/77 391/744/74
f 394/745/77 395/746/78 392/747/75
f 393/748/76 388/728/5 396/749/79
f 390/730/73 392/750/75 395/751/78
f 393/752/76 397/753/80 394/754/77
f 397/755/80 398/756/81 395/757/78
f 396/758/79 388/728/5 399/759/82
f 390/730/73 395/760/78 398/761/81
f 396/762/79 400/763/83 397/764/80
f 400/765/83 401/766/84 402/767/85
f 400/768/83 403/769/86 398/770/81
f 399/771/82 388/728/5 401/766/84
f 390/730/73 398/772/81 403/773/86
f 390/730/73 403/774/86 386/775/70
f 401/776/84 384/777/68 402/778/85
f 402/779/85 386/780/70 403/781/86
f 401/782/84 388/728/5 387/783/71
f 404/784/87 405/785/88 406/786/89
f 379/717/63 407/787/90 404/788/87
f 377/789/61 404/790/87 406/791/89
f 383/792/67 406/793/89 408/794/91
f 383/795/67 407/796/90 376/797/60
f 409/798/92 410/799/93 411/800/94
f 407/801/90 409/802/92 411/803/94
f 407/804/90 410/799/93 404/805/87
f 406/806/89 409/807/92 408/808/91
f 412/809/95 413/810/96 414/811/97
f 167/812/43 412/813/95 165/814/41
f 415/815/98 157/816/31 159/817/21
f 415/818/98 413/819/96 166/820/42
f 166/821/42 416/822/99 167/823/43
f 165/824/41 414/811/97 415/815/98
f 417/825/100 418/826/101 419/827/102
f 420/828/103 421/829/104 417/825/100
f 419/830/102 420/831/103 417/832/100
f 418/833/101 422/834/105 419/827/102
f 420/828/103 423/835/106 424/836/107
f 424/837/107 418/838/101 421/839/104
f 425/840/104 426/841/102 427/842/100
f 428/843/103 425/844/104 427/842/100
f 429/845/105 427/846/100 426/847/102
f 430/848/101 429/849/105 426/841/102
f 428/843/103 431/850/106 432/851/107
f 432/852/107 430/853/101 425/854/104
f 433/855/108 434/856/109 435/857/110
f 436/858/111 437/859/112 434/860/109
f 438/861/113 439/862/114 437/863/112
f 440/864/115 441/865/116 439/866/114
f 433/867/108 440/868/115 436/869/111
f 442/870/117 443/871/118 441/872/116
f 444/873/119 435/874/110 443/875/118
f 439/866/114 445/876/120 446/877/121
f 447/878/122 446/879/121 448/880/123
f 434/860/109 449/881/124 447/882/122
f 443/883/118 445/884/120 441/872/116
f 435/857/110 447/885/122 448/886/123
f 439/887/114 449/888/124 437/863/112
f 435/889/110 450/890/125 443/875/118
f 451/891/31 452/892/17 453/893/21
f 454/894/14 455/895/16 452/896/17
f 456/897/18 457/898/20 455/899/16
f 458/900/32 453/901/21 457/902/20
f 455/903/16 453/901/21 452/896/17
f 454/894/14 458/904/32 456/905/18
f 459/906/31 460/907/17 461/908/21
f 462/909/14 463/910/16 460/911/17
f 464/912/18 465/913/20 463/914/16
f 466/915/32 461/916/21 465/917/20
f 463/918/16 461/916/21 460/911/17
f 462/909/14 466/919/32 464/920/18
f 467/921/31 468/922/17 469/923/21
f 470/924/14 471/925/16 468/926/17
f 472/927/18 473/928/20 471/929/16
f 474/930/32 469/931/21 473/932/20
f 471/933/16 469/931/21 468/926/17
f 470/924/14 474/934/32 472/935/18
f 475/936/31 476/937/17 477/938/21
f 478/939/14 479/940/16 476/941/17
f 480/942/18 481/943/20 479/944/16
f 482/945/32 477/946/21 481/947/20
f 479/948/16 477/946/21 476/941/17
f 478/939/14 482/949/32 480/950/18
f 483/951/31 484/952/17 485/953/21
f 486/954/14 487/955/16 484/956/17
f 488/957/18 489/958/20 487/959/16
f 490/960/32 485/961/21 489/962/20
f 487/963/16 485/961/21 484/956/17
f 486/954/14 490/964/32 488/965/18
f 23/966/13 376/967/60 378/968/62
f 381/969/65 378/970/62 382/971/66
f 491/972/126 492/973/127 493/974/128
f 494/975/129 495/976/130 492/977/127
f 496/978/131 497/979/132 495/980/130
f 497/981/132 491/982/126 493/983/128
f 495/984/130 493/983/128 492/977/127
f 494/975/129 498/985/133 496/986/131
f 499/987/134 500/988/127 501/989/128
f 502/990/135 503/991/130 500/992/127
f 503/993/130 504/994/133 505/995/136
f 505/996/136 499/997/134 501/998/128
f 500/992/127 505/999/136 501/998/128
f 502/990/135 504/1000/133 506/1001/131
f 507/1002/131 508/1003/126 509/1004/133
f 510/1005/129 511/1006/128 508/1007/126
f 512/1008/127 513/1009/132 511/1010/128
f 514/1011/137 509/1012/133 513/1013/132
f 508/1007/126 513/1014/132 509/1012/133
f 510/1005/129 514/1015/137 512/1016/127
f 515/1017/131 516/1018/134 517/1019/133
f 518/1020/129 519/1021/128 516/1022/134
f 520/1023/127 521/1024/136 519/1025/128
f 522/1026/130 517/1027/133 521/1028/136
f 516/1022/134 521/1029/136 517/1027/133
f 518/1020/129 522/1030/130 520/1031/127
f 523/1032/131 524/1033/126 525/1034/133
f 526/1035/129 527/1036/128 524/1037/126
f 528/1038/127 529/1039/136 527/1040/128
f 530/1041/137 525/1042/133 529/1043/136
f 524/1037/126 529/1044/136 525/1042/133
f 526/1035/129 530/1045/137 528/1046/127
f 531/1047/131 532/1048/126 533/1049/133
f 534/1050/135 535/1051/128 532/1052/126
f 536/1053/127 537/1054/132 535/1055/128
f 538/1056/130 533/1057/133 537/1058/132
f 532/1052/126 537/1059/132 533/1057/133
f 534/1050/135 538/1060/130 536/1061/127
f 539/1062/131 540/1063/126 541/1064/133
f 540/1065/126 542/1066/127 543/1067/128
f 542/1068/127 544/1069/132 543/1070/128
f 545/1071/130 541/1072/133 544/1073/132
f 540/1065/126 544/1074/132 541/1072/133
f 546/1075/135 545/1076/130 542/1077/127
f 547/1078/131 548/1079/134 549/1080/133
f 550/1081/135 551/1082/128 548/1083/134
f 552/1084/127 553/1085/136 551/1086/128
f 554/1087/130 549/1088/133 553/1089/136
f 548/1083/134 553/1090/136 549/1088/133
f 550/1081/135 554/1091/130 552/1092/127
f 555/1093/131 556/1094/134 557/1095/133
f 558/1096/135 559/1097/128 556/1098/134
f 560/1099/127 561/1100/132 559/1101/128
f 562/1102/130 557/1103/133 561/1104/132
f 556/1098/134 561/1105/132 557/1103/133
f 558/1096/135 562/1106/130 560/1107/127
f 563/1108/131 564/1109/126 565/1110/133
f 566/1111/135 567/1112/128 564/1113/126
f 568/1114/127 569/1115/136 567/1116/128
f 570/1117/130 565/1118/133 569/1119/136
f 564/1113/126 569/1120/136 565/1118/133
f 566/1111/135 570/1121/130 568/1122/127
f 27/1123/17 31/1124/21 25/37/15
f 23/35/13 380/1125/64 24/36/14
f 27/1123/17 25/37/15 24/36/14
f 24/38/14 28/1126/18 26/39/16
f 30/1127/20 26/43/16 29/42/19
f 28/41/18 32/1128/22 381/1129/65
f 381/1129/65 29/42/19 28/41/18
f 30/44/20 29/712/19 25/45/15
f 26/47/16 30/1130/20 31/46/21
f 24/38/14 380/1131/64 32/48/22
f 33/50/23 37/1132/27 34/51/24
f 33/50/23 40/60/30 36/53/26
f 38/55/28 40/1133/30 33/56/23
f 39/58/29 38/1134/28 35/52/25
f 40/60/30 38/1134/28 39/61/29
f 36/63/26 39/1135/29 34/64/24
f 41/66/31 44/1136/14 42/67/17
f 44/69/14 46/1137/18 45/70/16
f 46/72/18 48/1138/32 47/73/20
f 48/75/32 41/1139/31 43/76/21
f 45/78/16 47/1140/20 43/76/21
f 44/69/14 41/1139/31 48/79/32
f 49/81/23 53/1141/27 50/82/24
f 52/84/30 56/1142/26 53/85/27
f 54/86/28 52/1143/30 49/87/23
f 55/89/29 54/1144/28 51/83/25
f 52/84/30 54/1144/28 55/91/29
f 56/93/26 55/1145/29 50/94/24
f 57/96/31 60/1146/14 58/97/17
f 60/99/14 62/1147/18 61/100/16
f 62/102/18 64/1148/32 63/103/20
f 64/105/32 57/1149/31 59/106/21
f 61/108/16 63/1150/20 59/106/21
f 60/99/14 57/1149/31 64/109/32
f 65/111/23 69/1151/27 66/112/24
f 65/111/23 70/121/30 68/114/26
f 67/116/25 571/1152/28 70/117/30
f 71/119/29 571/1153/28 67/113/25
f 70/121/30 571/1153/28 71/122/29
f 68/124/26 71/1154/29 66/125/24
f 72/127/31 75/1155/14 73/128/17
f 75/130/14 77/1156/18 76/131/16
f 77/133/18 79/1157/32 78/134/20
f 79/136/32 72/1158/31 74/137/21
f 76/139/16 78/1159/20 74/137/21
f 75/130/14 72/1158/31 79/140/32
f 80/142/23 84/1160/27 81/143/24
f 80/142/23 85/152/30 83/145/26
f 82/147/25 572/1161/28 85/148/30
f 86/150/29 572/1162/28 82/144/25
f 85/152/30 572/1162/28 86/153/29
f 83/155/26 86/1163/29 81/156/24
f 87/158/18 90/1164/32 88/159/20
f 90/161/32 92/1165/31 91/162/21
f 92/164/31 94/1166/14 93/165/17
f 94/167/14 87/1167/18 89/168/16
f 91/170/21 93/1168/17 89/168/16
f 90/161/32 87/1167/18 94/171/14
f 95/173/33 99/1169/37 96/174/34
f 98/176/36 101/1170/39 99/177/37
f 97/178/35 573/1171/40 98/179/36
f 100/181/38 573/1172/40 97/175/35
f 98/176/36 573/1172/40 100/183/38
f 101/185/39 100/1173/38 96/186/34
f 102/188/18 105/1174/32 103/189/20
f 105/191/32 107/1175/31 106/192/21
f 107/194/31 109/1176/14 108/195/17
f 109/197/14 102/1177/18 104/198/16
f 106/200/21 108/1178/17 104/198/16
f 105/191/32 102/1177/18 109/201/14
f 110/203/33 114/1179/37 111/204/34
f 110/203/33 117/213/36 113/206/39
f 115/208/40 117/1180/36 110/209/33
f 116/211/38 115/1181/40 112/205/35
f 117/213/36 115/1181/40 116/214/38
f 113/216/39 116/1182/38 111/217/34
f 118/219/18 121/1183/32 119/220/20
f 121/222/32 123/1184/31 122/223/21
f 123/225/31 125/1185/14 124/226/17
f 125/228/14 118/1186/18 120/229/16
f 122/231/21 124/1187/17 120/229/16
f 121/222/32 118/1186/18 125/232/14
f 126/234/33 130/1188/37 127/235/34
f 126/234/33 133/244/36 129/237/39
f 131/239/40 133/1189/36 126/240/33
f 132/242/38 131/1190/40 128/236/35
f 133/244/36 131/1190/40 132/245/38
f 129/247/39 132/1191/38 127/248/34
f 134/250/18 137/1192/32 135/251/20
f 137/253/32 139/1193/31 138/254/21
f 139/256/31 141/1194/14 140/257/17
f 141/259/14 134/1195/18 136/260/16
f 138/262/21 140/1196/17 136/260/16
f 137/253/32 134/1195/18 141/263/14
f 142/265/33 146/1197/37 143/266/34
f 142/265/33 147/275/36 145/268/39
f 144/270/35 574/1198/40 147/271/36
f 148/273/38 574/1199/40 144/267/35
f 147/275/36 574/1199/40 148/276/38
f 145/278/39 148/1200/38 143/279/34
f 149/281/31 152/1201/14 150/282/17
f 152/284/14 154/1202/18 153/285/16
f 154/287/18 156/1203/32 155/288/20
f 156/290/32 149/1204/31 151/291/21
f 153/293/16 155/1205/20 151/294/21
f 152/296/14 149/1206/31 156/297/32
f 157/299/31 160/1207/14 158/300/17
f 160/302/14 162/1208/18 161/303/16
f 162/305/18 164/1209/32 163/306/20
f 164/308/32 167/1210/43 165/309/41
f 159/1211/21 158/313/17 415/1212/98
f 161/311/16 163/1213/20 165/312/41
f 415/1212/98 158/313/17 165/312/41
f 164/1214/32 162/1215/18 167/316/43
f 160/314/14 157/1216/31 166/315/42
f 167/316/43 162/1215/18 160/314/14
f 168/317/32 171/1217/18 169/318/14
f 171/320/18 173/1218/16 172/321/17
f 173/323/16 175/1219/20 174/324/21
f 175/326/20 168/1220/32 170/327/31
f 172/329/17 174/1221/21 170/327/31
f 171/320/18 168/1220/32 175/330/20
f 176/332/32 179/1222/18 177/333/14
f 179/335/18 181/1223/16 180/336/17
f 181/338/16 183/1224/20 182/339/21
f 183/341/20 176/1225/32 178/342/31
f 180/344/17 182/1226/21 178/342/31
f 179/335/18 176/1225/32 183/345/20
f 184/347/32 187/1227/18 185/348/14
f 187/350/18 189/1228/16 188/351/17
f 189/353/16 191/1229/20 190/354/21
f 191/356/20 184/1230/32 186/357/31
f 188/359/17 190/1231/21 186/357/31
f 187/350/18 184/1230/32 191/360/20
f 192/362/32 195/1232/18 193/363/14
f 195/365/18 197/1233/16 196/366/17
f 197/368/16 199/1234/20 198/369/21
f 199/371/20 192/1235/32 194/372/31
f 196/374/17 198/1236/21 194/372/31
f 195/365/18 192/1235/32 199/375/20
f 200/377/18 203/1237/14 201/378/31
f 203/380/14 205/1238/17 204/381/21
f 205/383/17 207/1239/16 206/384/20
f 207/386/16 200/1240/18 202/387/32
f 204/389/21 206/1241/20 202/387/32
f 203/380/14 200/1240/18 207/390/16
f 208/392/18 211/1242/14 209/393/31
f 211/395/14 213/1243/17 212/396/21
f 213/398/17 215/1244/16 214/399/20
f 215/401/16 208/1245/18 210/402/32
f 212/404/21 214/1246/20 210/402/32
f 211/395/14 208/1245/18 215/405/16
f 216/407/44 219/1247/47 217/408/45
f 219/410/47 221/1248/49 220/411/48
f 221/413/49 223/1249/51 222/414/50
f 223/416/51 216/1250/44 218/417/46
f 220/419/48 222/1251/50 218/417/46
f 219/410/47 216/1250/44 223/420/51
f 224/422/44 227/1252/47 225/423/45
f 227/425/47 229/1253/49 228/426/48
f 229/428/49 231/1254/51 230/429/52
f 231/431/51 224/1255/44 226/432/46
f 228/434/48 230/1256/52 226/432/46
f 227/425/47 224/1255/44 231/435/51
f 232/437/53 235/1257/56 233/438/54
f 235/440/56 237/1258/58 236/441/57
f 237/443/58 239/1259/59 238/444/50
f 239/446/59 232/1260/53 234/447/55
f 233/442/54 236/1261/57 238/449/50
f 235/440/56 232/1260/53 239/450/59
f 240/452/53 243/1262/56 241/453/54
f 243/455/56 245/1263/58 244/456/57
f 245/458/58 247/1264/59 246/459/50
f 247/461/59 240/1265/53 242/462/55
f 241/457/54 244/1266/57 246/464/50
f 243/455/56 240/1265/53 247/465/59
f 248/467/49 251/1267/47 249/468/44
f 251/470/47 253/1268/45 252/471/46
f 253/473/45 255/1269/48 254/474/52
f 255/476/48 248/1270/49 250/477/51
f 249/472/44 252/1271/46 254/479/52
f 251/470/47 248/1270/49 255/480/48
f 256/482/49 259/1272/47 257/483/44
f 259/485/47 261/1273/45 260/486/46
f 261/488/45 263/1274/48 262/489/52
f 263/491/48 256/496/49 258/492/51
f 260/494/46 262/1275/52 258/492/51
f 261/495/45 259/485/47 256/496/49
f 264/498/49 267/1276/47 265/499/44
f 267/501/47 269/1277/58 268/502/57
f 269/504/58 271/1278/48 270/505/50
f 271/507/48 264/512/49 266/508/51
f 268/510/57 270/1279/50 266/508/51
f 269/511/58 267/501/47 264/512/49
f 272/514/53 275/1280/56 273/515/54
f 275/517/56 277/1281/58 276/518/46
f 277/520/58 279/1282/59 278/521/50
f 279/523/59 272/1283/53 274/524/55
f 273/519/54 276/1284/46 278/526/50
f 275/517/56 272/1283/53 279/527/59
f 280/529/49 283/1285/47 281/530/44
f 283/532/47 285/1286/45 284/533/46
f 285/535/45 287/1287/48 286/536/50
f 287/538/48 280/543/49 282/539/55
f 284/541/46 286/1288/50 282/539/55
f 285/542/45 283/532/47 280/543/49
f 288/545/53 291/1289/56 289/546/44
f 291/548/56 293/1290/45 292/549/46
f 293/551/45 295/1291/59 294/552/52
f 295/554/59 288/1292/53 290/555/51
f 289/550/44 292/1293/46 294/557/52
f 291/548/56 288/1292/53 295/558/59
f 296/560/44 299/1294/47 297/561/58
f 299/563/47 301/1295/49 300/564/59
f 301/566/49 303/1296/51 302/567/50
f 302/569/50 303/1297/51 296/570/44
f 300/572/59 302/1298/50 298/571/57
f 299/563/47 296/570/44 303/573/51
f 304/575/54 307/1299/56 305/576/58
f 307/578/56 309/1300/53 308/579/59
f 309/581/53 311/1301/55 310/582/50
f 310/584/50 311/1302/55 304/585/54
f 308/587/59 310/1303/50 306/586/57
f 307/578/56 304/585/54 311/588/55
f 312/590/53 315/1304/56 313/591/44
f 315/593/56 317/1305/45 316/594/46
f 317/596/45 319/1306/59 318/597/50
f 319/599/59 312/1307/53 314/600/55
f 313/595/44 316/1308/46 318/602/50
f 315/593/56 312/1307/53 319/603/59
f 320/605/49 323/1309/56 321/606/54
f 323/608/56 325/1310/45 324/609/46
f 325/611/45 327/1311/48 326/612/52
f 327/614/48 320/1312/49 322/615/51
f 321/610/54 324/1313/46 326/617/52
f 323/608/56 320/1312/49 327/618/48
f 328/620/53 331/1314/56 329/621/54
f 331/623/56 333/1315/45 332/624/57
f 333/626/45 335/1316/59 334/627/50
f 335/629/59 328/1317/53 330/630/55
f 329/625/54 332/1318/57 334/632/50
f 331/623/56 328/1317/53 335/633/59
f 336/635/53 339/1319/56 337/636/44
f 339/638/56 341/1320/45 340/639/57
f 341/641/45 343/1321/48 342/642/50
f 343/644/48 336/649/53 338/645/55
f 340/647/57 342/1322/50 338/645/55
f 341/648/45 339/638/56 336/649/53
f 344/651/49 347/1323/56 345/652/54
f 347/654/56 349/1324/58 348/655/57
f 349/657/58 351/1325/48 350/658/50
f 351/660/48 344/1326/49 346/661/55
f 345/656/54 348/1327/57 350/663/50
f 347/654/56 344/1326/49 351/664/48
f 352/666/49 355/1328/47 353/667/44
f 355/669/47 357/1329/45 356/670/46
f 357/672/45 359/1330/48 358/673/52
f 359/675/48 352/680/49 354/676/51
f 356/678/46 358/1331/52 354/676/51
f 357/679/45 355/669/47 352/680/49
f 360/682/53 363/1332/56 361/683/54
f 363/685/56 365/1333/58 364/686/46
f 365/688/58 367/1334/48 366/689/52
f 367/691/48 360/1335/53 362/692/55
f 361/687/54 364/1336/46 366/694/52
f 363/685/56 360/1335/53 367/695/48
f 368/697/53 371/1337/56 369/698/54
f 371/700/56 373/1338/58 372/701/57
f 373/703/58 375/1339/59 374/704/50
f 375/706/59 368/1340/53 370/707/55
f 369/702/54 372/1341/57 374/709/50
f 371/700/56 368/1340/53 375/710/59
f 29/712/19 383/1342/67 376/713/60
f 377/715/61 382/1343/66 378/716/62
f 380/718/64 23/1344/13 381/719/65
f 383/723/67 29/1345/19 381/1346/65
f 381/1346/65 382/721/66 383/723/67
f 384/724/68 391/1347/74 385/725/69
f 384/733/68 387/1348/71 389/729/72
f 391/735/74 394/1349/77 392/736/75
f 389/742/72 393/739/76 394/743/77
f 394/745/77 397/1350/80 395/746/78
f 393/752/76 396/749/79 397/753/80
f 397/755/80 400/1351/83 398/756/81
f 396/762/79 399/759/82 400/763/83
f 400/765/83 399/1352/82 401/766/84
f 400/768/83 402/1353/85 403/769/86
f 401/776/84 387/783/71 384/777/68
f 402/779/85 384/1354/68 386/780/70
f 404/784/87 410/1355/93 405/785/88
f 379/717/63 376/1356/60 407/787/90
f 377/789/61 379/1357/63 404/790/87
f 383/792/67 377/715/61 406/793/89
f 383/795/67 408/1358/91 407/796/90
f 409/798/92 405/1359/88 410/799/93
f 407/801/90 408/1360/91 409/802/92
f 407/804/90 411/1361/94 410/799/93
f 406/806/89 405/1359/88 409/807/92
f 412/809/95 416/1362/99 413/810/96
f 167/812/43 416/1363/99 412/813/95
f 415/815/98 166/821/42 157/816/31
f 415/818/98 414/1364/97 413/819/96
f 166/821/42 413/810/96 416/822/99
f 165/824/41 412/1365/95 414/811/97
f 417/825/100 421/1366/104 418/826/101
f 420/828/103 424/1367/107 421/829/104
f 419/830/102 422/1368/105 420/831/103
f 418/833/101 423/1369/106 422/834/105
f 420/828/103 422/834/105 423/835/106
f 424/837/107 423/1370/106 418/838/101
f 425/840/104 430/1371/101 426/841/102
f 428/843/103 432/1372/107 425/844/104
f 429/845/105 428/1373/103 427/846/100
f 430/848/101 431/1374/106 429/849/105
f 428/843/103 429/849/105 431/850/106
f 432/852/107 431/1375/106 430/853/101
f 433/855/108 436/1376/111 434/856/109
f 436/858/111 438/1377/113 437/859/112
f 438/861/113 440/1378/115 439/862/114
f 440/864/115 442/1379/117 441/865/116
f 438/1380/113 436/869/111 440/868/115
f 433/867/108 444/1381/119 442/1382/117
f 442/1382/117 440/868/115 433/867/108
f 442/870/117 444/1383/119 443/871/118
f 444/873/119 433/1384/108 435/874/110
f 439/866/114 441/1385/116 445/876/120
f 450/1386/125 448/880/123 446/879/121
f 447/878/122 449/1387/124 446/879/121
f 446/879/121 445/1388/120 450/1386/125
f 434/860/109 437/1389/112 449/881/124
f 443/883/118 450/1390/125 445/884/120
f 435/857/110 434/1391/109 447/885/122
f 439/887/114 446/1392/121 449/888/124
f 435/889/110 448/1393/123 450/890/125
f 451/891/31 454/1394/14 452/892/17
f 454/894/14 456/1395/18 455/895/16
f 456/897/18 458/1396/32 457/898/20
f 458/900/32 451/1397/31 453/901/21
f 455/903/16 457/1398/20 453/901/21
f 454/894/14 451/1397/31 458/904/32
f 459/906/31 462/1399/14 460/907/17
f 462/909/14 464/1400/18 463/910/16
f 464/912/18 466/1401/32 465/913/20
f 466/915/32 459/1402/31 461/916/21
f 463/918/16 465/1403/20 461/916/21
f 462/909/14 459/1402/31 466/919/32
f 467/921/31 470/1404/14 468/922/17
f 470/924/14 472/1405/18 471/925/16
f 472/927/18 474/1406/32 473/928/20
f 474/930/32 467/1407/31 469/931/21
f 471/933/16 473/1408/20 469/931/21
f 470/924/14 467/1407/31 474/934/32
f 475/936/31 478/1409/14 476/937/17
f 478/939/14 480/1410/18 479/940/16
f 480/942/18 482/1411/32 481/943/20
f 482/945/32 475/1412/31 477/946/21
f 479/948/16 481/1413/20 477/946/21
f 478/939/14 475/1412/31 482/949/32
f 483/951/31 486/1414/14 484/952/17
f 486/954/14 488/1415/18 487/955/16
f 488/957/18 490/1416/32 489/958/20
f 490/960/32 483/1417/31 485/961/21
f 487/963/16 489/1418/20 485/961/21
f 486/954/14 483/1417/31 490/964/32
f 379/1419/63 378/968/62 376/967/60
f 23/966/13 25/1420/15 376/967/60
f 381/969/65 23/1421/13 378/970/62
f 491/972/126 494/1422/129 492/973/127
f 494/975/129 496/1423/131 495/976/130
f 496/978/131 498/1424/133 497/979/132
f 497/981/132 498/1425/133 491/982/126
f 495/984/130 497/1426/132 493/983/128
f 494/975/129 491/982/126 498/985/133
f 499/987/134 502/1427/135 500/988/127
f 502/990/135 506/1428/131 503/991/130
f 503/993/130 506/1429/131 504/994/133
f 505/996/136 504/1430/133 499/997/134
f 500/992/127 503/1431/130 505/999/136
f 502/990/135 499/997/134 504/1000/133
f 507/1002/131 510/1432/129 508/1003/126
f 510/1005/129 512/1433/127 511/1006/128
f 512/1008/127 514/1434/137 513/1009/132
f 514/1011/137 507/1435/131 509/1012/133
f 508/1007/126 511/1436/128 513/1014/132
f 510/1005/129 507/1435/131 514/1015/137
f 515/1017/131 518/1437/129 516/1018/134
f 518/1020/129 520/1438/127 519/1021/128
f 520/1023/127 522/1439/130 521/1024/136
f 522/1026/130 515/1440/131 517/1027/133
f 516/1022/134 519/1441/128 521/1029/136
f 518/1020/129 515/1440/131 522/1030/130
f 523/1032/131 526/1442/129 524/1033/126
f 526/1035/129 528/1443/127 527/1036/128
f 528/1038/127 530/1444/137 529/1039/136
f 530/1041/137 523/1445/131 525/1042/133
f 524/1037/126 527/1446/128 529/1044/136
f 526/1035/129 523/1445/131 530/1045/137
f 531/1047/131 534/1447/135 532/1048/126
f 534/1050/135 536/1448/127 535/1051/128
f 536/1053/127 538/1449/130 537/1054/132
f 538/1056/130 531/1450/131 533/1057/133
f 532/1052/126 535/1451/128 537/1059/132
f 534/1050/135 531/1450/131 538/1060/130
f 539/1062/131 546/1452/135 540/1063/126
f 540/1065/126 546/1075/135 542/1066/127
f 542/1068/127 545/1453/130 544/1069/132
f 545/1071/130 539/1454/131 541/1072/133
f 540/1065/126 543/1455/128 544/1074/132
f 546/1075/135 539/1454/131 545/1076/130
f 547/1078/131 550/1456/135 548/1079/134
f 550/1081/135 552/1457/127 551/1082/128
f 552/1084/127 554/1458/130 553/1085/136
f 554/1087/130 547/1459/131 549/1088/133
f 548/1083/134 551/1460/128 553/1090/136
f 550/1081/135 547/1459/131 554/1091/130
f 555/1093/131 558/1461/135 556/1094/134
f 558/1096/135 560/1462/127 559/1097/128
f 560/1099/127 562/1463/130 561/1100/132
f 562/1102/130 555/1464/131 557/1103/133
f 556/1098/134 559/1465/128 561/1105/132
f 558/1096/135 555/1464/131 562/1106/130
f 563/1108/131 566/1466/135 564/1109/126
f 566/1111/135 568/1467/127 567/1112/128
f 568/1114/127 570/1468/130 569/1115/136
f 570/1117/130 563/1469/131 565/1118/133
f 564/1113/126 567/1470/128 569/1120/136
f 566/1111/135 563/1469/131 570/1121/130
