# Blender v2.78 (sub 0) OBJ File: 'MexicanBalloon.blend'
# www.blender.org
o Icosphere_Icosphere.001
v -0.148183 0.681579 0.124488
v -0.168683 0.538203 0.075618
v -0.119994 0.576376 0.061605
v 0.087876 0.711359 0.105821
v 0.098363 0.672219 0.082427
v 0.079508 0.742588 -0.127040
v 0.224421 0.962368 -0.102186
v 0.269658 0.793539 -0.203097
v -0.119994 0.576376 -0.064157
v -0.168683 0.538203 -0.078170
v 0.051319 0.847791 0.061605
v 0.079508 0.742588 0.124488
v 0.051319 0.847791 -0.064157
v 0.224421 0.962368 -0.024540
v -0.176372 0.786782 -0.064157
v -0.203154 0.666849 -0.155063
v -0.237625 0.795496 -0.078170
v 0.224421 0.962368 0.099634
v 0.269658 0.793539 0.200545
v -0.367933 0.782512 -0.090401
v 0.090582 0.701260 -0.102337
v -0.148183 0.681579 -0.127040
v 0.287483 0.727016 0.160783
v 0.051319 0.847791 -0.016542
v -0.176372 0.786782 0.061605
v -0.237625 0.795496 0.075618
v 0.314895 0.624712 0.099634
v 0.107697 0.637385 -0.064157
v 0.314895 0.624712 -0.102186
v 0.107697 0.637385 0.061605
v 0.299917 0.680611 -0.135599
v 0.224421 0.962368 0.046742
v -0.203154 0.666849 0.152511
v -0.579474 0.687816 0.066650
v -0.367933 0.782512 0.087849
v -0.327979 0.633402 0.176973
v -0.288026 0.484295 -0.090401
v -0.288026 0.484295 0.087849
v -0.327980 0.633402 -0.179525
v -0.549024 0.574174 0.134574
v -0.678631 0.539446 -0.001274
v -0.518575 0.460534 0.066650
v -0.549024 0.574174 -0.137126
v -0.579474 0.687815 -0.069202
v -0.518575 0.460534 -0.069202
v 0.121027 0.669467 0.186300
v 0.315922 0.703863 -0.248678
v 0.286102 0.732171 -0.166418
v 0.528613 0.774868 -0.150365
v 0.300076 0.680019 0.132692
v 0.320635 0.685121 0.241260
v 0.131516 0.630325 0.162903
v 0.333228 0.638127 0.213171
v 0.218831 1.042041 -0.024540
v 0.045725 0.927467 0.021753
v 0.218831 1.042041 0.046742
v 0.051319 0.847791 0.021753
v 0.045725 0.927467 -0.016542
v 0.460819 1.018380 0.009301
v 0.329736 0.652306 -0.217860
v 0.120402 0.672953 -0.184601
v 0.130051 0.636943 -0.163075
v 0.100231 0.665250 -0.080811
v 0.530526 0.767274 0.147472
vt 0.6643 0.6023
vt 0.2130 0.6108
vt 0.1966 0.6005
vt 0.4361 0.5614
vt 0.3117 0.5608
vt 1.0176 0.5534
vt 0.8727 0.5199
vt 1.0216 0.5171
vt 0.1044 0.5963
vt 0.1101 0.6056
vt 0.7807 0.5594
vt 0.5482 0.5619
vt 0.9065 0.5551
vt 0.8184 0.5225
vt 0.9270 0.5955
vt 1.0162 0.6026
vt 0.9227 0.6047
vt 0.7144 0.5267
vt 0.5287 0.5308
vt 0.9243 0.6263
vt 0.0572 0.5544
vt 0.0156 0.5938
vt 0.4515 0.5297
vt 0.8709 0.5568
vt 0.8366 0.5998
vt 0.8240 0.6099
vt 0.3366 0.5280
vt 0.1301 0.5559
vt 0.1721 0.5212
vt 0.0162 0.6026
vt 0.2663 0.5602
vt 0.1219 0.5198
vt 0.7575 0.5250
vt 0.6021 0.6130
vt 0.8912 0.6709
vt 0.8284 0.6323
vt 0.6166 0.6359
vt 0.1083 0.6274
vt 0.2075 0.6335
vt 0.0162 0.6239
vt 0.9680 0.6737
vt 1.0066 0.6920
vt 1.2075 0.6335
vt 1.1276 0.6718
vt 0.0139 0.6645
vt 1.0162 0.6239
vt 0.9459 0.6663
vt 0.0808 0.6672
vt 0.4381 0.5607
vt 0.1276 0.6718
vt 0.0066 0.6920
vt 1.0139 0.6645
vt 0.0789 0.5123
vt 0.0726 0.5186
vt 0.1190 0.4772
vt 0.3918 0.5289
vt 0.4465 0.5290
vt 0.3879 0.5600
vt 0.4101 0.5282
vt 0.8036 0.5197
vt 0.8070 0.5552
vt 0.7607 0.5221
vt 0.8312 0.5580
vt 0.8350 0.5539
vt 0.7466 0.4821
vt 0.1134 0.5135
vt 0.0693 0.5481
vt 0.0176 0.5534
vt 0.0216 0.5171
vt 0.0963 0.5489
vt 0.0977 0.5553
vt 0.4423 0.4873
vt 1.0156 0.5938
vt 1.0726 0.5186
vt 1.3366 0.5280
vt 1.1721 0.5212
vt 1.1219 0.5198
vn 0.4979 -0.3427 0.7966
vn 0.4980 -0.3427 0.7966
vn 0.1294 -0.4830 0.8660
vn -0.4292 0.3759 -0.8213
vn 0.6170 -0.7870 -0.0000
vn -0.1294 0.4830 0.8660
vn -0.5519 0.8339 0.0000
vn 0.2599 0.5458 -0.7966
vn -0.1294 0.4830 -0.8660
vn -0.4292 0.3759 0.8213
vn 0.0286 0.5185 -0.8546
vn 0.1294 -0.4830 -0.8660
vn -0.1838 -0.5401 0.8213
vn -0.2588 0.9659 -0.0000
vn 0.1408 0.9900 0.0000
vn -0.0610 -0.9981 0.0000
vn 0.4979 -0.3427 -0.7966
vn 0.2588 -0.9659 0.0000
vn -0.1838 -0.5401 -0.8213
vn -0.1838 -0.5402 -0.8213
vn 0.9659 0.2588 0.0000
vn 0.2599 0.5458 0.7966
vn 0.2598 0.5458 0.7966
vn -0.4086 0.9127 -0.0000
vn 0.0286 0.5185 0.8546
vn 0.4117 -0.9113 0.0000
vn -0.0991 0.9951 0.0000
vn 0.2840 -0.4347 0.8546
vn 0.2840 -0.4347 -0.8546
vn -0.7341 0.1925 0.6512
vn -0.0253 -0.5179 0.8551
vn -0.0253 -0.5179 -0.8551
vn -0.2808 0.4359 -0.8551
vn -0.2808 0.4359 0.8551
vn 0.1025 -0.9947 0.0000
vn -0.9140 -0.3584 0.1899
vn -0.4422 -0.8969 0.0000
vn -0.8314 0.5556 0.0000
vn -0.5395 -0.5338 0.6512
vn -0.5395 -0.5338 -0.6512
vn -0.7341 0.1925 -0.6512
vn -0.1377 0.9201 -0.3666
vn 0.1590 -0.8474 -0.5066
vn -0.2076 0.8300 0.5176
vn -0.1367 -0.0096 0.9906
vn -0.0441 -0.0031 -0.9990
vn -0.9975 -0.0700 0.0000
vn 0.2306 -0.9731 0.0000
vn -0.9084 -0.3651 -0.2036
vn -0.2694 0.8764 -0.3992
vn 0.4923 -0.3456 0.7989
vn 0.1732 -0.9103 0.3760
vn 0.3283 -0.7757 -0.5390
vn 0.0973 0.9953 0.0000
vn 0.1394 0.0098 -0.9902
vn 0.4866 -0.3485 -0.8011
vn 0.3690 -0.8295 0.4192
vn 0.1539 0.0108 0.9880
vn -0.1275 0.4835 -0.8660
vn -0.1154 0.8608 0.4957
vn -0.1418 0.4796 0.8660
vn 0.2598 0.5458 -0.7966
vn 0.1294 -0.4829 -0.8660
vn -0.1838 -0.5402 0.8213
vn 0.4980 -0.3427 -0.7966
s 1
f 1/1/1 2/2/1 3/3/2
f 4/4/3 1/1/3 5/5/3
f 6/6/4 7/7/4 8/8/4
f 9/9/5 2/2/5 10/10/5
f 11/11/6 1/1/6 12/12/6
f 13/13/7 14/14/7 7/7/7
f 15/15/8 16/16/8 17/17/8
f 6/6/9 15/15/9 13/13/9
f 18/18/10 12/12/10 19/19/10
f 16/16/11 20/20/11 17/17/11
f 21/21/12 9/9/12 22/22/12
f 12/12/13 23/23/13 19/19/13
f 24/24/14 15/15/14 25/25/14
f 15/15/15 26/26/15 25/25/15
f 27/27/16 28/28/16 29/29/16
f 22/22/17 10/10/17 16/30/17
f 30/31/18 9/9/18 28/28/18
f 28/28/19 31/32/19 29/29/20
f 32/33/21 23/23/21 14/14/21
f 25/25/22 33/34/22 1/1/23
f 20/20/24 34/35/24 35/36/24
f 26/26/25 36/37/25 33/34/25
f 2/2/26 37/38/26 10/10/26
f 17/17/27 35/36/27 26/26/27
f 33/34/28 38/39/28 2/2/28
f 16/30/29 37/38/29 39/40/29
f 40/41/30 34/35/30 41/42/30
f 38/43/31 40/41/31 42/44/31
f 37/38/32 43/45/32 39/40/32
f 39/46/33 44/47/33 20/20/33
f 36/37/34 34/35/34 40/41/34
f 38/39/35 45/48/35 37/38/35
f 5/5/36 46/49/36 4/4/36
f 45/48/37 42/50/37 41/51/37
f 34/35/38 44/47/38 41/42/38
f 42/44/39 40/41/39 41/42/39
f 43/45/40 45/48/40 41/51/40
f 44/47/41 43/52/41 41/42/41
f 47/53/42 48/54/42 49/55/42
f 50/56/13 30/31/13 27/27/13
f 51/57/13 52/58/13 53/59/13
f 50/56/43 52/58/43 5/5/43
f 23/23/44 46/49/44 51/57/44
f 54/60/7 55/61/7 56/62/7
f 32/33/7 11/11/7 18/18/7
f 32/33/45 55/61/45 57/63/45
f 14/14/46 58/64/46 54/60/46
f 57/63/47 58/64/47 24/24/47
f 32/33/48 14/14/48 59/65/48
f 60/66/20 61/67/20 47/53/19
f 48/54/19 6/68/19 8/69/19
f 21/21/49 62/70/49 63/71/49
f 48/54/50 61/67/50 21/21/50
f 51/57/51 53/59/51 64/72/51
f 31/32/52 62/70/52 60/66/52
f 53/59/53 50/56/53 64/72/53
f 54/60/54 56/62/54 59/65/54
f 14/14/55 54/60/55 59/65/55
f 60/66/56 47/53/56 49/55/56
f 31/32/57 60/66/57 49/55/57
f 56/62/58 32/33/58 59/65/58
f 50/56/59 23/23/59 64/72/59
f 23/23/60 51/57/60 64/72/60
f 48/54/61 31/32/61 49/55/61
f 1/1/1 33/34/1 2/2/1
f 3/3/3 30/31/3 5/5/3
f 4/4/3 12/12/3 1/1/3
f 3/3/3 5/5/3 1/1/3
f 6/6/4 13/13/4 7/7/4
f 9/9/5 3/3/5 2/2/5
f 11/11/6 25/25/6 1/1/6
f 13/13/7 24/24/7 14/14/7
f 15/15/8 22/73/62 16/16/8
f 6/6/9 22/73/9 15/15/9
f 18/18/10 11/11/10 12/12/10
f 16/16/11 39/46/11 20/20/11
f 22/22/12 6/68/12 21/21/12
f 21/21/12 63/71/12 9/9/12
f 28/28/63 9/9/12 63/71/12
f 12/12/13 4/4/64 23/23/13
f 25/25/14 11/11/14 57/63/14
f 24/24/14 13/13/14 15/15/14
f 25/25/14 57/63/14 24/24/14
f 15/15/15 17/17/15 26/26/15
f 27/27/16 30/31/16 28/28/16
f 22/22/17 9/9/65 10/10/17
f 30/31/18 3/3/18 9/9/18
f 28/28/19 63/71/19 31/32/19
f 48/74/21 8/8/21 7/7/21
f 48/74/21 7/7/21 14/14/21
f 27/75/21 29/76/21 50/56/21
f 31/77/21 48/74/21 23/23/21
f 32/33/21 18/18/21 19/19/21
f 48/74/21 14/14/21 23/23/21
f 50/56/21 29/76/21 31/77/21
f 32/33/21 19/19/21 23/23/21
f 23/23/21 50/56/21 31/77/21
f 25/25/22 26/26/22 33/34/22
f 20/20/24 44/47/24 34/35/24
f 26/26/25 35/36/25 36/37/25
f 2/2/26 38/39/26 37/38/26
f 17/17/27 20/20/27 35/36/27
f 33/34/28 36/37/28 38/39/28
f 16/30/29 10/10/29 37/38/29
f 38/43/31 36/37/31 40/41/31
f 37/38/32 45/48/32 43/45/32
f 39/46/33 43/52/33 44/47/33
f 36/37/34 35/36/34 34/35/34
f 38/39/35 42/50/35 45/48/35
f 5/5/36 52/58/36 46/49/36
f 50/56/13 5/5/13 30/31/13
f 51/57/13 46/49/13 52/58/13
f 50/56/43 53/59/43 52/58/43
f 23/23/44 4/4/44 46/49/44
f 54/60/7 58/64/7 55/61/7
f 32/33/7 57/63/7 11/11/7
f 32/33/45 56/62/45 55/61/45
f 14/14/46 24/24/46 58/64/46
f 57/63/47 55/61/47 58/64/47
f 60/66/20 62/70/20 61/67/20
f 48/54/19 21/21/19 6/68/19
f 21/21/49 61/67/49 62/70/49
f 48/54/50 47/53/50 61/67/50
f 31/32/52 63/71/52 62/70/52
