# Blender v2.78 (sub 0) OBJ File: 'SniperTower.blend'
# www.blender.org
o Cube_Cube.001
v 2.273990 -0.006251 2.644339
v 2.273990 8.354338 2.644339
v 2.273990 -0.006251 2.326422
v 2.273990 8.354338 2.326422
v 2.591907 -0.006251 2.644339
v 2.591907 8.354338 2.644339
v 2.591907 -0.006251 2.326422
v 2.591907 8.354338 2.326422
v 2.273990 -0.006251 -2.240008
v 2.273990 8.354338 -2.240008
v 2.273990 -0.006251 -2.557925
v 2.273990 8.354338 -2.557925
v 2.591907 -0.006251 -2.240008
v 2.591907 8.354338 -2.240008
v 2.591907 -0.006251 -2.557925
v 2.591907 8.354338 -2.557925
v -2.445560 -0.006251 2.644339
v -2.445560 8.354338 2.644339
v -2.445560 -0.006251 2.326422
v -2.445560 8.354338 2.326422
v -2.127643 -0.006251 2.644339
v -2.127643 8.354338 2.644339
v -2.127643 -0.006251 2.326422
v -2.127643 8.354338 2.326422
v -2.445560 -0.006251 -2.240008
v -2.445560 8.354338 -2.240008
v -2.445560 -0.006251 -2.557925
v -2.445560 8.354338 -2.557925
v -2.127643 -0.006251 -2.240008
v -2.127643 8.354338 -2.240008
v -2.127643 -0.006251 -2.557925
v -2.127643 8.354338 -2.557925
v 2.741734 7.382792 -2.630003
v 2.741734 7.203690 -2.630003
v 2.741734 7.382792 2.694268
v 2.741734 7.203690 2.694268
v -2.582538 7.382792 -2.630003
v -2.582538 7.203690 -2.630003
v -2.582538 7.382792 2.694268
v -2.582538 7.203690 2.694268
v 2.380628 7.891281 2.332889
v 2.380628 8.017067 2.332889
v 2.380628 7.891281 -2.255980
v 2.380628 8.017067 -2.255980
v 2.506414 7.891281 2.332889
v 2.506414 8.017067 2.332889
v 2.506414 7.891281 -2.255980
v 2.506414 8.017067 -2.255980
v 2.380628 7.604146 2.332889
v 2.380628 7.729931 2.332889
v 2.380628 7.604146 -2.255980
v 2.380628 7.729931 -2.255980
v 2.506414 7.604146 2.332889
v 2.506414 7.729931 2.332889
v 2.506414 7.604146 -2.255980
v 2.506414 7.729931 -2.255980
v -2.322882 7.604146 2.332889
v -2.322882 7.729931 2.332889
v -2.322882 7.604146 -2.255980
v -2.322882 7.729931 -2.255980
v -2.197097 7.604146 2.332889
v -2.197097 7.729931 2.332889
v -2.197097 7.604146 -2.255980
v -2.197097 7.729931 -2.255980
v -2.322882 7.969239 2.332889
v -2.322882 8.095024 2.332889
v -2.322882 7.969239 -2.255980
v -2.322882 8.095024 -2.255980
v -2.197097 7.969239 2.332889
v -2.197097 8.095024 2.332889
v -2.197097 7.969239 -2.255980
v -2.197097 8.095024 -2.255980
v 2.340533 7.969239 -2.366346
v 2.340533 8.095024 -2.366346
v -2.248336 7.969239 -2.366346
v -2.248336 8.095024 -2.366346
v 2.340533 7.969239 -2.492132
v 2.340533 8.095024 -2.492132
v -2.248336 7.969239 -2.492132
v -2.248336 8.095024 -2.492132
v 2.340533 7.648716 -2.366346
v 2.340533 7.774502 -2.366346
v -2.248336 7.648716 -2.366346
v -2.248336 7.774502 -2.366346
v 2.340533 7.648716 -2.492132
v 2.340533 7.774502 -2.492132
v -2.248336 7.648716 -2.492132
v -2.248336 7.774502 -2.492132
v -0.316965 7.648716 2.569850
v -0.316965 7.774502 2.569850
v -2.144961 7.648716 2.569851
v -2.144961 7.774502 2.569851
v -0.316965 7.648716 2.444065
v -0.316965 7.774502 2.444065
v -2.144961 7.648716 2.444065
v -2.144961 7.774502 2.444065
v -0.316965 8.010168 2.569850
v -0.316965 8.135954 2.569850
v -2.144961 8.010168 2.569851
v -2.144961 8.135954 2.569851
v -0.316965 8.010168 2.444065
v -0.316965 8.135954 2.444065
v -2.144961 8.010168 2.444065
v -2.144961 8.135954 2.444065
v 2.360866 8.010168 2.569850
v 2.360866 8.135954 2.569850
v 0.532871 8.010168 2.569851
v 0.532871 8.135954 2.569851
v 2.360866 8.010168 2.444065
v 2.360866 8.135954 2.444065
v 0.532871 8.010168 2.444065
v 0.532871 8.135954 2.444065
v 2.360866 7.637349 2.569850
v 2.360866 7.763134 2.569850
v 0.532871 7.637349 2.569851
v 0.532871 7.763134 2.569851
v 2.360866 7.637349 2.444065
v 2.360866 7.763134 2.444065
v 0.532871 7.637349 2.444065
v 0.532871 7.763134 2.444065
v 0.460982 7.368528 2.569850
v 0.586768 7.368528 2.569850
v 0.460982 8.174285 2.569851
v 0.586768 8.174285 2.569851
v 0.460982 7.368528 2.444065
v 0.586768 7.368528 2.444065
v 0.460982 8.174285 2.444065
v 0.586768 8.174285 2.444065
v -0.358170 7.368528 2.569850
v -0.232384 7.368528 2.569850
v -0.358170 8.174285 2.569851
v -0.232384 8.174285 2.569851
v -0.358170 7.368528 2.444065
v -0.232384 7.368528 2.444065
v -0.358170 8.174285 2.444065
v -0.232384 8.174285 2.444065
v -0.358170 0.187690 2.825609
v -0.232384 0.187690 2.825609
v -0.358170 7.552973 2.825609
v -0.232384 7.552973 2.825609
v -0.358170 0.187690 2.699823
v -0.232384 0.187690 2.699823
v -0.358170 7.552973 2.699823
v -0.232384 7.552973 2.699823
v 0.364645 0.187690 2.825609
v 0.490431 0.187690 2.825609
v 0.364645 7.552973 2.825609
v 0.490431 7.552973 2.825609
v 0.364645 0.187690 2.699823
v 0.490431 0.187690 2.699823
v 0.364645 7.552973 2.699823
v 0.490431 7.552973 2.699823
v -0.266792 0.626700 2.805641
v -0.266792 0.703899 2.805641
v -0.266792 0.626700 2.728441
v -0.266792 0.703899 2.728441
v 0.388925 0.626700 2.805641
v 0.388925 0.703899 2.805641
v 0.388925 0.626700 2.728441
v 0.388925 0.703899 2.728441
v -0.266792 1.010387 2.805641
v -0.266792 1.087587 2.805641
v -0.266792 1.010387 2.728441
v -0.266792 1.087587 2.728441
v 0.388925 1.010387 2.805641
v 0.388925 1.087587 2.805641
v 0.388925 1.010387 2.728441
v 0.388925 1.087587 2.728441
v -0.266792 1.467803 2.805641
v -0.266792 1.545003 2.805641
v -0.266792 1.467803 2.728441
v -0.266792 1.545003 2.728441
v 0.388925 1.467803 2.805641
v 0.388925 1.545003 2.805641
v 0.388925 1.467803 2.728441
v 0.388925 1.545003 2.728441
v -0.266792 1.861551 2.805641
v -0.266792 1.938751 2.805641
v -0.266792 1.861551 2.728441
v -0.266792 1.938751 2.728441
v 0.388925 1.861551 2.805641
v 0.388925 1.938751 2.805641
v 0.388925 1.861551 2.728441
v 0.388925 1.938751 2.728441
v -0.266792 2.281158 2.805641
v -0.266792 2.358358 2.805641
v -0.266792 2.281158 2.728441
v -0.266792 2.358358 2.728441
v 0.388925 2.281158 2.805641
v 0.388925 2.358358 2.805641
v 0.388925 2.281158 2.728441
v 0.388925 2.358358 2.728441
v -0.266792 2.715812 2.805641
v -0.266792 2.793012 2.805641
v -0.266792 2.715812 2.728441
v -0.266792 2.793012 2.728441
v 0.388925 2.715812 2.805641
v 0.388925 2.793012 2.805641
v 0.388925 2.715812 2.728441
v 0.388925 2.793012 2.728441
v -0.266792 3.128252 2.805641
v -0.266792 3.205451 2.805641
v -0.266792 3.128252 2.728441
v -0.266792 3.205451 2.728441
v 0.388925 3.128252 2.805641
v 0.388925 3.205451 2.805641
v 0.388925 3.128252 2.728441
v 0.388925 3.205451 2.728441
v -0.266792 3.488151 2.805641
v -0.266792 3.565351 2.805641
v -0.266792 3.488151 2.728441
v -0.266792 3.565351 2.728441
v 0.388925 3.488151 2.805641
v 0.388925 3.565351 2.805641
v 0.388925 3.488151 2.728441
v 0.388925 3.565351 2.728441
v -0.266792 3.851603 2.805641
v -0.266792 3.928803 2.805641
v -0.266792 3.851603 2.728441
v -0.266792 3.928803 2.728441
v 0.388925 3.851603 2.805641
v 0.388925 3.928803 2.805641
v 0.388925 3.851603 2.728441
v 0.388925 3.928803 2.728441
v -0.266792 4.170660 2.805641
v -0.266792 4.247860 2.805641
v -0.266792 4.170660 2.728441
v -0.266792 4.247860 2.728441
v 0.388925 4.170660 2.805641
v 0.388925 4.247860 2.805641
v 0.388925 4.170660 2.728441
v 0.388925 4.247860 2.728441
v -0.266792 4.452849 2.805641
v -0.266792 4.530048 2.805641
v -0.266792 4.452849 2.728441
v -0.266792 4.530048 2.728441
v 0.388925 4.452849 2.805641
v 0.388925 4.530048 2.805641
v 0.388925 4.452849 2.728441
v 0.388925 4.530048 2.728441
v -0.266792 4.724196 2.805641
v -0.266792 4.801396 2.805641
v -0.266792 4.724196 2.728441
v -0.266792 4.801396 2.728441
v 0.388925 4.724196 2.805641
v 0.388925 4.801396 2.805641
v 0.388925 4.724196 2.728441
v 0.388925 4.801396 2.728441
v -0.266792 4.997137 2.805641
v -0.266792 5.074337 2.805641
v -0.266792 4.997137 2.728441
v -0.266792 5.074337 2.728441
v 0.388925 4.997137 2.805641
v 0.388925 5.074337 2.805641
v 0.388925 4.997137 2.728441
v 0.388925 5.074337 2.728441
v -0.266792 5.265320 2.805641
v -0.266792 5.342520 2.805641
v -0.266792 5.265320 2.728441
v -0.266792 5.342520 2.728441
v 0.388925 5.265320 2.805641
v 0.388925 5.342520 2.805641
v 0.388925 5.265320 2.728441
v 0.388925 5.342520 2.728441
v -0.266792 5.551456 2.805641
v -0.266792 5.628656 2.805641
v -0.266792 5.551456 2.728441
v -0.266792 5.628656 2.728441
v 0.388925 5.551456 2.805641
v 0.388925 5.628656 2.805641
v 0.388925 5.551456 2.728441
v 0.388925 5.628656 2.728441
v -0.266792 5.856516 2.805641
v -0.266792 5.933716 2.805641
v -0.266792 5.856516 2.728441
v -0.266792 5.933716 2.728441
v 0.388925 5.856516 2.805641
v 0.388925 5.933716 2.805641
v 0.388925 5.856516 2.728441
v 0.388925 5.933716 2.728441
v -0.266792 6.199185 2.805641
v -0.266792 6.276384 2.805641
v -0.266792 6.199185 2.728441
v -0.266792 6.276384 2.728441
v 0.388925 6.199185 2.805641
v 0.388925 6.276384 2.805641
v 0.388925 6.199185 2.728441
v 0.388925 6.276384 2.728441
v -0.266792 6.527855 2.805641
v -0.266792 6.605054 2.805641
v -0.266792 6.527855 2.728441
v -0.266792 6.605054 2.728441
v 0.388925 6.527855 2.805641
v 0.388925 6.605054 2.805641
v 0.388925 6.527855 2.728441
v 0.388925 6.605054 2.728441
v -0.266792 6.827684 2.805641
v -0.266792 6.904883 2.805641
v -0.266792 6.827684 2.728441
v -0.266792 6.904883 2.728441
v 0.388925 6.827684 2.805641
v 0.388925 6.904883 2.805641
v 0.388925 6.827684 2.728441
v 0.388925 6.904883 2.728441
v -0.266792 7.164073 2.805641
v -0.266792 7.241272 2.805641
v -0.266792 7.164073 2.728441
v -0.266792 7.241272 2.728441
v 0.388925 7.164073 2.805641
v 0.388925 7.241272 2.805641
v 0.388925 7.164073 2.728441
v 0.388925 7.241272 2.728441
v 1.678194 7.382792 1.630729
v 1.678194 7.382792 -1.566463
v -1.518998 7.382792 1.630729
v -1.518998 7.382792 -1.566463
v 1.678194 9.811868 1.630729
v 1.678194 9.811868 -1.566463
v -1.518998 9.811868 1.630729
v -1.518998 9.811868 -1.566463
v 2.979783 9.811868 2.932318
v 2.979783 9.811868 -2.868053
v -2.820587 9.811868 2.932318
v -2.820587 9.811868 -2.868053
v 0.992783 10.813018 0.945317
v 0.992783 10.813018 -0.881052
v -0.833587 10.813018 0.945317
v -0.833587 10.813018 -0.881052
vt 0.9207 0.5220
vt 0.9383 0.9861
vt 0.9207 0.9861
vt 0.9207 0.5220
vt 0.9383 0.9861
vt 0.9207 0.9861
vt 0.9207 0.5220
vt 0.9383 0.9861
vt 0.9207 0.9861
vt 0.9207 0.5220
vt 0.9383 0.9861
vt 0.9207 0.9861
vt 0.6028 0.5333
vt 0.2308 0.9054
vt 0.2308 0.5333
vt 0.6028 0.5333
vt 0.2308 0.9054
vt 0.2308 0.5333
vt 0.9207 0.5220
vt 0.9383 0.9861
vt 0.9207 0.9861
vt 0.9207 0.5220
vt 0.9383 0.9861
vt 0.9207 0.9861
vt 0.9207 0.5220
vt 0.9383 0.9861
vt 0.9207 0.9861
vt 0.9207 0.5220
vt 0.9383 0.9861
vt 0.9207 0.9861
vt 0.6028 0.5333
vt 0.2308 0.9054
vt 0.2308 0.5333
vt 0.6028 0.5333
vt 0.2308 0.9054
vt 0.2308 0.5333
vt 0.9207 0.5220
vt 0.9383 0.9861
vt 0.9207 0.9861
vt 0.9207 0.5220
vt 0.9383 0.9861
vt 0.9207 0.9861
vt 0.9207 0.5220
vt 0.9383 0.9861
vt 0.9207 0.9861
vt 0.9207 0.5220
vt 0.9383 0.9861
vt 0.9207 0.9861
vt 0.3293 0.7951
vt 0.3304 0.7243
vt 0.3702 0.7602
vt 0.6028 0.5333
vt 0.2308 0.9054
vt 0.2308 0.5333
vt 0.9207 0.5220
vt 0.9383 0.9861
vt 0.9207 0.9861
vt 0.9207 0.5220
vt 0.9383 0.9861
vt 0.9207 0.9861
vt 0.9207 0.5220
vt 0.9383 0.9861
vt 0.9207 0.9861
vt 0.9207 0.5220
vt 0.9383 0.9861
vt 0.9207 0.9861
vt 0.6028 0.5333
vt 0.2308 0.9054
vt 0.2308 0.5333
vt 0.6028 0.5333
vt 0.2308 0.9054
vt 0.2308 0.5333
vt 0.2308 0.9054
vt 0.6028 0.5333
vt 0.2308 0.5333
vt 0.2308 0.9054
vt 0.6028 0.5333
vt 0.2308 0.5333
vt 0.2308 0.9054
vt 0.6028 0.5333
vt 0.2308 0.5333
vt 0.6028 0.5333
vt 0.2308 0.9054
vt 0.2308 0.5333
vt 0.5285 0.6077
vt 0.6028 0.9053
vt 0.6028 0.5334
vt 0.2308 0.9054
vt 0.2308 0.5333
vt 0.6028 0.5333
vt 0.2308 0.9054
vt 0.2308 0.5333
vt 0.5005 0.6131
vt 0.4563 0.6572
vt 0.4563 0.6131
vt 0.6028 0.5333
vt 0.2308 0.9054
vt 0.2308 0.5333
vt 0.6028 0.5333
vt 0.2308 0.9054
vt 0.2308 0.5333
vt 0.6028 0.5333
vt 0.2308 0.5333
vt 0.6028 0.5333
vt 0.2308 0.9054
vt 0.2308 0.5333
vt 0.6028 0.5333
vt 0.2308 0.9054
vt 0.2308 0.5333
vt 0.6028 0.5333
vt 0.2308 0.9054
vt 0.2308 0.5333
vt 0.6028 0.5333
vt 0.2308 0.9054
vt 0.2308 0.5333
vt 0.6028 0.5333
vt 0.2308 0.9054
vt 0.2308 0.5333
vt 0.6028 0.5333
vt 0.2308 0.9054
vt 0.2308 0.5333
vt 0.6028 0.5333
vt 0.2308 0.9054
vt 0.2308 0.5333
vt 0.6028 0.5333
vt 0.2308 0.9054
vt 0.2308 0.5333
vt 0.6028 0.5333
vt 0.2308 0.9054
vt 0.2308 0.5333
vt 0.6028 0.5333
vt 0.2308 0.9054
vt 0.2308 0.5333
vt 0.6028 0.5333
vt 0.2308 0.9054
vt 0.2308 0.5333
vt 0.6028 0.5333
vt 0.2308 0.9054
vt 0.2308 0.5333
vt 0.6028 0.5333
vt 0.2308 0.9054
vt 0.2308 0.5333
vt 0.6028 0.5333
vt 0.2308 0.9054
vt 0.2308 0.5333
vt 0.6028 0.5333
vt 0.2308 0.9054
vt 0.2308 0.5333
vt 0.6028 0.5333
vt 0.2308 0.9054
vt 0.2308 0.5333
vt 0.6028 0.5333
vt 0.2308 0.9054
vt 0.2308 0.5333
vt 0.6028 0.5333
vt 0.2308 0.9054
vt 0.2308 0.5333
vt 0.6028 0.5333
vt 0.2308 0.9054
vt 0.2308 0.5333
vt 0.6028 0.5333
vt 0.2308 0.9054
vt 0.2308 0.5333
vt 0.6028 0.5333
vt 0.2308 0.9054
vt 0.2308 0.5333
vt 0.6028 0.5333
vt 0.2308 0.9054
vt 0.2308 0.5333
vt 0.6028 0.5333
vt 0.2308 0.9054
vt 0.2308 0.5333
vt 0.6028 0.5333
vt 0.2308 0.9054
vt 0.2308 0.5333
vt 0.6028 0.5333
vt 0.2308 0.9054
vt 0.2308 0.5333
vt 0.6028 0.5333
vt 0.2308 0.9054
vt 0.2308 0.5333
vt 0.6028 0.5333
vt 0.2308 0.9054
vt 0.2308 0.5333
vt 0.6028 0.5333
vt 0.2308 0.9054
vt 0.2308 0.5333
vt 0.6028 0.5333
vt 0.2308 0.9054
vt 0.2308 0.5333
vt 0.6028 0.5333
vt 0.2308 0.9054
vt 0.2308 0.5333
vt 0.6028 0.5333
vt 0.2308 0.5333
vt 0.6028 0.9054
vt 0.2308 0.9054
vt 0.6028 0.5333
vt 0.2308 0.9054
vt 0.2308 0.5333
vt 0.6028 0.5333
vt 0.2308 0.9054
vt 0.2308 0.5333
vt 0.6028 0.5333
vt 0.2308 0.9054
vt 0.2308 0.5333
vt 0.6028 0.5333
vt 0.2308 0.9054
vt 0.2308 0.5333
vt 0.6028 0.5333
vt 0.2308 0.5333
vt 0.6028 0.9054
vt 0.2308 0.9054
vt 0.6028 0.5333
vt 0.2308 0.9054
vt 0.2308 0.5333
vt 0.6028 0.5333
vt 0.2308 0.9054
vt 0.2308 0.5333
vt 0.6028 0.5333
vt 0.2308 0.9054
vt 0.2308 0.5333
vt 0.6028 0.5333
vt 0.2308 0.9054
vt 0.2308 0.5333
vt 0.6028 0.5333
vt 0.2308 0.5333
vt 0.6028 0.9054
vt 0.2308 0.9054
vt 0.6028 0.5333
vt 0.2308 0.9054
vt 0.2308 0.5333
vt 0.6028 0.5333
vt 0.2308 0.9054
vt 0.2308 0.5333
vt 0.6028 0.5333
vt 0.2308 0.9054
vt 0.2308 0.5333
vt 0.6028 0.5333
vt 0.2308 0.9054
vt 0.2308 0.5333
vt 0.6028 0.5333
vt 0.2308 0.5333
vt 0.6028 0.9054
vt 0.2308 0.9054
vt 0.2308 0.5333
vt 0.6028 0.9054
vt 0.2308 0.9054
vt 0.6028 0.5333
vt 0.2308 0.9054
vt 0.2308 0.5333
vt 0.6028 0.5333
vt 0.2308 0.9054
vt 0.2308 0.5333
vt 0.6028 0.5333
vt 0.2308 0.9054
vt 0.2308 0.5333
vt 0.6028 0.5333
vt 0.2308 0.9054
vt 0.2308 0.5333
vt 0.2308 0.5333
vt 0.6028 0.9054
vt 0.2308 0.9054
vt 0.6028 0.5333
vt 0.2308 0.9054
vt 0.2308 0.5333
vt 0.6028 0.5333
vt 0.2308 0.9054
vt 0.2308 0.5333
vt 0.6028 0.5333
vt 0.2308 0.9054
vt 0.2308 0.5333
vt 0.6028 0.5333
vt 0.2308 0.9054
vt 0.2308 0.5333
vt 0.6028 0.5333
vt 0.2308 0.9054
vt 0.2308 0.5333
vt 0.6028 0.5333
vt 0.2308 0.9054
vt 0.2308 0.5333
vt 0.6028 0.5333
vt 0.2308 0.9054
vt 0.2308 0.5333
vt 0.6028 0.5333
vt 0.2308 0.9054
vt 0.2308 0.5333
vt 0.6028 0.5333
vt 0.2308 0.9054
vt 0.2308 0.5333
vt 0.6028 0.5333
vt 0.2308 0.9054
vt 0.2308 0.5333
vt 0.6028 0.5333
vt 0.2308 0.9054
vt 0.2308 0.5333
vt 0.6028 0.5333
vt 0.2308 0.9054
vt 0.2308 0.5333
vt 0.6028 0.5333
vt 0.2308 0.9054
vt 0.2308 0.5333
vt 0.6028 0.5333
vt 0.2308 0.9054
vt 0.2308 0.5333
vt 0.6028 0.5333
vt 0.2308 0.9054
vt 0.2308 0.5333
vt 0.6028 0.5333
vt 0.2308 0.9054
vt 0.2308 0.5333
vt 0.6028 0.5333
vt 0.2308 0.9054
vt 0.2308 0.5333
vt 0.6028 0.5333
vt 0.2308 0.9054
vt 0.2308 0.5333
vt 0.6028 0.5333
vt 0.2308 0.9054
vt 0.2308 0.5333
vt 0.6028 0.5333
vt 0.2308 0.9054
vt 0.2308 0.5333
vt 0.6028 0.5333
vt 0.2308 0.9054
vt 0.2308 0.5333
vt 0.6028 0.5333
vt 0.2308 0.9054
vt 0.2308 0.5333
vt 0.6028 0.5333
vt 0.2308 0.9054
vt 0.2308 0.5333
vt 0.6028 0.5333
vt 0.2308 0.9054
vt 0.2308 0.5333
vt 0.6028 0.5333
vt 0.2308 0.9054
vt 0.2308 0.5333
vt 0.6028 0.5333
vt 0.2308 0.9054
vt 0.2308 0.5333
vt 0.6028 0.5333
vt 0.2308 0.9054
vt 0.2308 0.5333
vt 0.6028 0.5333
vt 0.2308 0.9054
vt 0.2308 0.5333
vt 0.6028 0.5333
vt 0.2308 0.9054
vt 0.2308 0.5333
vt 0.6028 0.5333
vt 0.2308 0.9054
vt 0.2308 0.5333
vt 0.6028 0.5333
vt 0.2308 0.9054
vt 0.2308 0.5333
vt 0.6028 0.5333
vt 0.2308 0.9054
vt 0.2308 0.5333
vt 0.6028 0.5333
vt 0.2308 0.9054
vt 0.2308 0.5333
vt 0.6028 0.5333
vt 0.2308 0.9054
vt 0.2308 0.5333
vt 0.6028 0.5333
vt 0.2308 0.9054
vt 0.2308 0.5333
vt 0.6028 0.5333
vt 0.2308 0.9054
vt 0.2308 0.5333
vt 0.6028 0.5333
vt 0.2308 0.9054
vt 0.2308 0.5333
vt 0.6028 0.5333
vt 0.2308 0.9054
vt 0.2308 0.5333
vt 0.6028 0.5333
vt 0.2308 0.9054
vt 0.2308 0.5333
vt 0.6028 0.5333
vt 0.2308 0.9054
vt 0.2308 0.5333
vt 0.6028 0.5333
vt 0.2308 0.9054
vt 0.2308 0.5333
vt 0.6028 0.5333
vt 0.2308 0.9054
vt 0.2308 0.5333
vt 0.6028 0.5333
vt 0.2308 0.9054
vt 0.2308 0.5333
vt 0.6028 0.5333
vt 0.2308 0.9054
vt 0.2308 0.5333
vt 0.6028 0.5333
vt 0.2308 0.9054
vt 0.2308 0.5333
vt 0.6028 0.5333
vt 0.2308 0.9054
vt 0.2308 0.5333
vt 0.6028 0.5333
vt 0.2308 0.9054
vt 0.2308 0.5333
vt 0.6028 0.5333
vt 0.2308 0.9054
vt 0.2308 0.5333
vt 0.6028 0.5333
vt 0.2308 0.9054
vt 0.2308 0.5333
vt 0.6028 0.5333
vt 0.2308 0.9054
vt 0.2308 0.5333
vt 0.6028 0.5333
vt 0.2308 0.9054
vt 0.2308 0.5333
vt 0.6028 0.5333
vt 0.2308 0.9054
vt 0.2308 0.5333
vt 0.6028 0.5333
vt 0.2308 0.9054
vt 0.2308 0.5333
vt 0.6028 0.5333
vt 0.2308 0.9054
vt 0.2308 0.5333
vt 0.6028 0.5333
vt 0.2308 0.9054
vt 0.2308 0.5333
vt 0.6028 0.5333
vt 0.2308 0.9054
vt 0.2308 0.5333
vt 0.6028 0.5333
vt 0.2308 0.9054
vt 0.2308 0.5333
vt 0.6028 0.5333
vt 0.2308 0.9054
vt 0.2308 0.5333
vt 0.6028 0.5333
vt 0.2308 0.9054
vt 0.2308 0.5333
vt 0.6028 0.5333
vt 0.2308 0.9054
vt 0.2308 0.5333
vt 0.6028 0.5333
vt 0.2308 0.9054
vt 0.2308 0.5333
vt 0.6028 0.5333
vt 0.2308 0.9054
vt 0.2308 0.5333
vt 0.6028 0.5333
vt 0.2308 0.9054
vt 0.2308 0.5333
vt 0.6028 0.5333
vt 0.2308 0.9054
vt 0.2308 0.5333
vt 0.6028 0.5333
vt 0.2308 0.9054
vt 0.2308 0.5333
vt 0.6028 0.5333
vt 0.2308 0.9054
vt 0.2308 0.5333
vt 0.6028 0.5333
vt 0.2308 0.9054
vt 0.2308 0.5333
vt 0.6028 0.5333
vt 0.2308 0.9054
vt 0.2308 0.5333
vt 0.6028 0.5333
vt 0.2308 0.9054
vt 0.2308 0.5333
vt 0.6028 0.5333
vt 0.2308 0.9054
vt 0.2308 0.5333
vt 0.6028 0.5333
vt 0.2308 0.9054
vt 0.2308 0.5333
vt 0.6028 0.5333
vt 0.2308 0.9054
vt 0.2308 0.5333
vt 0.6028 0.5333
vt 0.2308 0.9054
vt 0.2308 0.5333
vt 0.6028 0.5333
vt 0.2308 0.9054
vt 0.2308 0.5333
vt 0.6028 0.5333
vt 0.2308 0.9054
vt 0.2308 0.5333
vt 0.6028 0.5333
vt 0.2308 0.9054
vt 0.2308 0.5333
vt 0.6028 0.5333
vt 0.2308 0.9054
vt 0.2308 0.5333
vt 0.6028 0.5333
vt 0.2308 0.9054
vt 0.2308 0.5333
vt 0.6028 0.5333
vt 0.2308 0.9054
vt 0.2308 0.5333
vt 0.6028 0.5333
vt 0.2308 0.9054
vt 0.2308 0.5333
vt 0.6028 0.5333
vt 0.2308 0.9054
vt 0.2308 0.5333
vt 0.6028 0.5333
vt 0.2308 0.9054
vt 0.2308 0.5333
vt 0.6028 0.5333
vt 0.2308 0.9054
vt 0.2308 0.5333
vt 0.6028 0.5333
vt 0.2308 0.9054
vt 0.2308 0.5333
vt 0.6028 0.5333
vt 0.2308 0.9054
vt 0.2308 0.5333
vt 0.6028 0.5333
vt 0.2308 0.9054
vt 0.2308 0.5333
vt 0.6028 0.5333
vt 0.2308 0.9054
vt 0.2308 0.5333
vt 0.6028 0.5333
vt 0.2308 0.9054
vt 0.2308 0.5333
vt 0.6028 0.5333
vt 0.2308 0.9054
vt 0.2308 0.5333
vt 0.6028 0.5333
vt 0.2308 0.9054
vt 0.2308 0.5333
vt 0.6028 0.5333
vt 0.2308 0.9054
vt 0.2308 0.5333
vt 0.6028 0.5333
vt 0.2308 0.9054
vt 0.2308 0.5333
vt 0.6028 0.5333
vt 0.2308 0.9054
vt 0.2308 0.5333
vt 0.6028 0.5333
vt 0.2308 0.9054
vt 0.2308 0.5333
vt 0.6028 0.5333
vt 0.2308 0.9054
vt 0.2308 0.5333
vt 0.6028 0.5333
vt 0.2308 0.9054
vt 0.2308 0.5333
vt 0.6028 0.5333
vt 0.2308 0.9054
vt 0.2308 0.5333
vt 0.6028 0.5333
vt 0.2308 0.9054
vt 0.2308 0.5333
vt 0.6028 0.5333
vt 0.2308 0.9054
vt 0.2308 0.5333
vt 0.6028 0.5333
vt 0.2308 0.9054
vt 0.2308 0.5333
vt 0.6028 0.5333
vt 0.2308 0.9054
vt 0.2308 0.5333
vt 0.6028 0.5333
vt 0.2308 0.9054
vt 0.2308 0.5333
vt 0.6028 0.5333
vt 0.2308 0.9054
vt 0.2308 0.5333
vt 0.6028 0.5333
vt 0.2308 0.9054
vt 0.2308 0.5333
vt 0.6028 0.5333
vt 0.2308 0.9054
vt 0.2308 0.5333
vt 0.6028 0.5333
vt 0.2308 0.9054
vt 0.2308 0.5333
vt 0.6028 0.5333
vt 0.2308 0.9054
vt 0.2308 0.5333
vt 0.6028 0.5333
vt 0.2308 0.9054
vt 0.2308 0.5333
vt 0.6028 0.5333
vt 0.2308 0.9054
vt 0.2308 0.5333
vt 0.6028 0.5333
vt 0.2308 0.9054
vt 0.2308 0.5333
vt 0.6028 0.5333
vt 0.2308 0.9054
vt 0.2308 0.5333
vt 0.6028 0.5333
vt 0.2308 0.9054
vt 0.2308 0.5333
vt 0.6028 0.5333
vt 0.2308 0.9054
vt 0.2308 0.5333
vt 0.6028 0.5333
vt 0.2308 0.9054
vt 0.2308 0.5333
vt 0.4882 0.9824
vt 0.9323 0.6450
vt 0.4882 0.6450
vt 0.5285 0.8310
vt 0.2308 0.9053
vt 0.3051 0.6077
vt 0.2308 0.5334
vt 0.3051 0.8310
vt 0.2308 0.5334
vt 0.3143 0.8219
vt 0.3143 0.6168
vt 0.4907 0.9824
vt 0.0465 0.6450
vt 0.4907 0.6450
vt 0.4727 0.9824
vt 0.9168 0.6450
vt 0.4727 0.6450
vt 0.4752 0.9824
vt 0.0310 0.6450
vt 0.4752 0.6450
vt 0.2070 0.1906
vt 0.0410 0.4943
vt 0.0410 0.0201
vt 0.6028 0.9053
vt 0.5193 0.6168
vt 0.5193 0.8219
vt 0.2308 0.9053
vt 0.6028 0.5334
vt 0.3497 0.3234
vt 0.3450 0.1853
vt 0.5157 0.0197
vt 0.5157 0.4939
vt 0.2117 0.3287
vt 0.9383 0.5220
vt 0.9383 0.5220
vt 0.9383 0.5220
vt 0.9383 0.5220
vt 0.6028 0.9054
vt 0.6028 0.9054
vt 0.9383 0.5220
vt 0.9383 0.5220
vt 0.9383 0.5220
vt 0.9383 0.5220
vt 0.6028 0.9054
vt 0.6028 0.9054
vt 0.9383 0.5220
vt 0.9383 0.5220
vt 0.9383 0.5220
vt 0.9383 0.5220
vt 0.2895 0.7591
vt 0.6028 0.9054
vt 0.9383 0.5220
vt 0.9383 0.5220
vt 0.9383 0.5220
vt 0.9383 0.5220
vt 0.6028 0.9054
vt 0.6028 0.9054
vt 0.6028 0.9054
vt 0.6028 0.9054
vt 0.6028 0.9054
vt 0.6028 0.9054
vt 0.6028 0.9054
vt 0.5005 0.6572
vt 0.6028 0.9054
vt 0.6028 0.9054
vt 0.6028 0.9054
vt 0.6028 0.9054
vt 0.6028 0.9054
vt 0.6028 0.9054
vt 0.6028 0.9054
vt 0.6028 0.9054
vt 0.6028 0.9054
vt 0.6028 0.9054
vt 0.6028 0.9054
vt 0.6028 0.9054
vt 0.6028 0.9054
vt 0.6028 0.9054
vt 0.6028 0.9054
vt 0.6028 0.9054
vt 0.6028 0.9054
vt 0.6028 0.9054
vt 0.6028 0.9054
vt 0.6028 0.9054
vt 0.6028 0.9054
vt 0.6028 0.9054
vt 0.6028 0.9054
vt 0.6028 0.9054
vt 0.6028 0.9054
vt 0.6028 0.9054
vt 0.6028 0.9054
vt 0.6028 0.9054
vt 0.6028 0.9054
vt 0.6028 0.9054
vt 0.6028 0.9054
vt 0.6028 0.9054
vt 0.6028 0.9054
vt 0.6028 0.9054
vt 0.6028 0.9054
vt 0.6028 0.9054
vt 0.6028 0.9054
vt 0.6028 0.9054
vt 0.6028 0.9054
vt 0.6028 0.9054
vt 0.6028 0.9054
vt 0.6028 0.9054
vt 0.6028 0.9054
vt 0.6028 0.9054
vt 0.6028 0.5333
vt 0.6028 0.9054
vt 0.6028 0.9054
vt 0.6028 0.9054
vt 0.6028 0.9054
vt 0.6028 0.5333
vt 0.6028 0.9054
vt 0.6028 0.9054
vt 0.6028 0.9054
vt 0.6028 0.9054
vt 0.6028 0.9054
vt 0.6028 0.9054
vt 0.6028 0.9054
vt 0.6028 0.9054
vt 0.6028 0.9054
vt 0.6028 0.9054
vt 0.6028 0.9054
vt 0.6028 0.9054
vt 0.6028 0.9054
vt 0.6028 0.9054
vt 0.6028 0.9054
vt 0.6028 0.9054
vt 0.6028 0.9054
vt 0.6028 0.9054
vt 0.6028 0.9054
vt 0.6028 0.9054
vt 0.6028 0.9054
vt 0.6028 0.9054
vt 0.6028 0.9054
vt 0.6028 0.9054
vt 0.6028 0.9054
vt 0.6028 0.9054
vt 0.6028 0.9054
vt 0.6028 0.9054
vt 0.6028 0.9054
vt 0.6028 0.9054
vt 0.6028 0.9054
vt 0.6028 0.9054
vt 0.6028 0.9054
vt 0.6028 0.9054
vt 0.6028 0.9054
vt 0.6028 0.9054
vt 0.6028 0.9054
vt 0.6028 0.9054
vt 0.6028 0.9054
vt 0.6028 0.9054
vt 0.6028 0.9054
vt 0.6028 0.9054
vt 0.6028 0.9054
vt 0.6028 0.9054
vt 0.6028 0.9054
vt 0.6028 0.9054
vt 0.6028 0.9054
vt 0.6028 0.9054
vt 0.6028 0.9054
vt 0.6028 0.9054
vt 0.6028 0.9054
vt 0.6028 0.9054
vt 0.6028 0.9054
vt 0.6028 0.9054
vt 0.6028 0.9054
vt 0.6028 0.9054
vt 0.6028 0.9054
vt 0.6028 0.9054
vt 0.6028 0.9054
vt 0.6028 0.9054
vt 0.6028 0.9054
vt 0.6028 0.9054
vt 0.6028 0.9054
vt 0.6028 0.9054
vt 0.6028 0.9054
vt 0.6028 0.9054
vt 0.6028 0.9054
vt 0.6028 0.9054
vt 0.6028 0.9054
vt 0.6028 0.9054
vt 0.6028 0.9054
vt 0.6028 0.9054
vt 0.6028 0.9054
vt 0.6028 0.9054
vt 0.6028 0.9054
vt 0.6028 0.9054
vt 0.6028 0.9054
vt 0.6028 0.9054
vt 0.6028 0.9054
vt 0.6028 0.9054
vt 0.6028 0.9054
vt 0.6028 0.9054
vt 0.6028 0.9054
vt 0.6028 0.9054
vt 0.6028 0.9054
vt 0.6028 0.9054
vt 0.6028 0.9054
vt 0.6028 0.9054
vt 0.6028 0.9054
vt 0.6028 0.9054
vt 0.6028 0.9054
vt 0.6028 0.9054
vt 0.6028 0.9054
vt 0.6028 0.9054
vt 0.6028 0.9054
vt 0.6028 0.9054
vt 0.6028 0.9054
vt 0.6028 0.9054
vt 0.6028 0.9054
vt 0.6028 0.9054
vt 0.6028 0.9054
vt 0.6028 0.9054
vt 0.6028 0.9054
vt 0.6028 0.9054
vt 0.6028 0.9054
vt 0.6028 0.9054
vt 0.6028 0.9054
vt 0.6028 0.9054
vt 0.6028 0.9054
vt 0.6028 0.9054
vt 0.6028 0.9054
vt 0.6028 0.9054
vt 0.6028 0.9054
vt 0.6028 0.9054
vt 0.9323 0.9824
vt 0.0465 0.9824
vt 0.9168 0.9824
vt 0.0310 0.9824
vn -1.0000 0.0000 0.0000
vn 0.0000 0.0000 -1.0000
vn 1.0000 0.0000 0.0000
vn 0.0000 0.0000 1.0000
vn 0.0000 -1.0000 0.0000
vn 0.0000 1.0000 0.0000
vn -0.4500 0.8930 0.0000
vn 0.4500 0.8930 0.0000
vn 0.0000 0.8930 -0.4500
vn 0.0000 0.8930 0.4500
s off
f 2/1/1 3/2/1 1/3/1
f 4/4/2 7/5/2 3/6/2
f 8/7/3 5/8/3 7/9/3
f 6/10/4 1/11/4 5/12/4
f 7/13/5 1/14/5 3/15/5
f 4/16/6 6/17/6 8/18/6
f 10/19/1 11/20/1 9/21/1
f 12/22/2 15/23/2 11/24/2
f 16/25/3 13/26/3 15/27/3
f 14/28/4 9/29/4 13/30/4
f 15/31/5 9/32/5 11/33/5
f 12/34/6 14/35/6 16/36/6
f 18/37/1 19/38/1 17/39/1
f 20/40/2 23/41/2 19/42/2
f 24/43/3 21/44/3 23/45/3
f 22/46/4 17/47/4 21/48/4
f 23/49/5 17/50/5 19/51/5
f 20/52/6 22/53/6 24/54/6
f 26/55/1 27/56/1 25/57/1
f 28/58/2 31/59/2 27/60/2
f 32/61/3 29/62/3 31/63/3
f 30/64/4 25/65/4 29/66/4
f 31/67/5 25/68/5 27/69/5
f 28/70/6 30/71/6 32/72/6
f 35/73/3 34/74/3 33/75/3
f 39/76/4 36/77/4 35/78/4
f 37/79/1 40/80/1 39/81/1
f 38/82/4 33/83/4 37/84/4
f 315/85/6 37/86/6 39/87/6
f 38/88/5 36/77/5 40/89/5
f 42/90/1 43/91/1 41/92/1
f 44/93/2 47/94/2 43/95/2
f 48/96/3 45/97/3 47/98/3
f 46/99/4 41/100/4 45/101/4
f 47/102/5 41/100/5 43/103/5
f 44/104/6 46/105/6 48/106/6
f 50/107/1 51/108/1 49/109/1
f 52/110/2 55/111/2 51/112/2
f 56/113/3 53/114/3 55/115/3
f 54/116/4 49/117/4 53/118/4
f 55/119/5 49/117/5 51/112/5
f 52/110/6 54/120/6 56/121/6
f 58/122/1 59/123/1 57/124/1
f 60/125/2 63/126/2 59/127/2
f 64/128/3 61/129/3 63/130/3
f 62/131/4 57/132/4 61/133/4
f 63/134/5 57/132/5 59/127/5
f 60/125/6 62/135/6 64/136/6
f 66/137/1 67/138/1 65/139/1
f 68/140/2 71/141/2 67/142/2
f 72/143/3 69/144/3 71/145/3
f 70/146/4 65/147/4 69/148/4
f 71/149/5 65/147/5 67/142/5
f 68/140/6 70/150/6 72/151/6
f 74/152/4 75/153/4 73/154/4
f 76/155/1 79/156/1 75/157/1
f 80/158/2 77/159/2 79/160/2
f 78/161/3 73/162/3 77/163/3
f 79/164/5 73/162/5 75/157/5
f 76/155/6 78/165/6 80/166/6
f 82/167/4 83/168/4 81/169/4
f 84/170/1 87/171/1 83/172/1
f 88/173/2 85/174/2 87/175/2
f 86/176/3 81/177/3 85/178/3
f 87/179/5 81/177/5 83/172/5
f 84/170/6 86/180/6 88/181/6
f 90/182/4 91/183/4 89/184/4
f 92/185/1 95/186/1 91/187/1
f 96/188/2 93/189/2 95/190/2
f 94/191/3 89/192/3 93/193/3
f 95/194/5 89/192/5 91/187/5
f 96/195/6 90/196/6 94/197/6
f 98/198/4 99/199/4 97/200/4
f 100/201/1 103/202/1 99/203/1
f 104/204/2 101/205/2 103/206/2
f 102/207/3 97/208/3 101/209/3
f 103/210/5 97/208/5 99/203/5
f 104/211/6 98/212/6 102/213/6
f 106/214/4 107/215/4 105/216/4
f 108/217/1 111/218/1 107/219/1
f 112/220/2 109/221/2 111/222/2
f 110/223/3 105/224/3 109/225/3
f 111/226/5 105/224/5 107/219/5
f 112/227/6 106/228/6 110/229/6
f 114/230/4 115/231/4 113/232/4
f 116/233/1 119/234/1 115/235/1
f 120/236/2 117/237/2 119/238/2
f 118/239/3 113/240/3 117/241/3
f 119/242/5 113/240/5 115/235/5
f 120/243/6 114/244/6 118/245/6
f 121/246/4 124/247/4 123/248/4
f 124/249/6 127/250/6 123/251/6
f 128/252/2 125/253/2 127/254/2
f 126/255/5 121/256/5 125/257/5
f 127/258/1 121/256/1 123/251/1
f 124/249/3 126/259/3 128/260/3
f 129/261/4 132/262/4 131/263/4
f 132/264/6 135/265/6 131/266/6
f 136/267/2 133/268/2 135/269/2
f 134/270/5 129/271/5 133/272/5
f 135/273/1 129/271/1 131/266/1
f 132/264/3 134/274/3 136/275/3
f 138/276/4 139/277/4 137/278/4
f 140/279/6 143/280/6 139/281/6
f 144/282/2 141/283/2 143/284/2
f 142/285/5 137/286/5 141/287/5
f 143/288/1 137/286/1 139/281/1
f 140/279/3 142/289/3 144/290/3
f 146/291/4 147/292/4 145/293/4
f 148/294/6 151/295/6 147/296/6
f 152/297/2 149/298/2 151/299/2
f 150/300/5 145/301/5 149/302/5
f 151/303/1 145/301/1 147/296/1
f 148/294/3 150/304/3 152/305/3
f 154/306/1 155/307/1 153/308/1
f 156/309/2 159/310/2 155/311/2
f 160/312/3 157/313/3 159/314/3
f 158/315/4 153/316/4 157/317/4
f 159/318/5 153/316/5 155/311/5
f 156/309/6 158/319/6 160/320/6
f 162/321/1 163/322/1 161/323/1
f 164/324/2 167/325/2 163/326/2
f 168/327/3 165/328/3 167/329/3
f 166/330/4 161/331/4 165/332/4
f 167/333/5 161/331/5 163/326/5
f 164/324/6 166/334/6 168/335/6
f 170/336/1 171/337/1 169/338/1
f 172/339/2 175/340/2 171/341/2
f 176/342/3 173/343/3 175/344/3
f 174/345/4 169/346/4 173/347/4
f 175/348/5 169/346/5 171/341/5
f 172/339/6 174/349/6 176/350/6
f 178/351/1 179/352/1 177/353/1
f 180/354/2 183/355/2 179/356/2
f 184/357/3 181/358/3 183/359/3
f 182/360/4 177/361/4 181/362/4
f 183/363/5 177/361/5 179/356/5
f 180/354/6 182/364/6 184/365/6
f 186/366/1 187/367/1 185/368/1
f 188/369/2 191/370/2 187/371/2
f 192/372/3 189/373/3 191/374/3
f 190/375/4 185/376/4 189/377/4
f 191/378/5 185/376/5 187/371/5
f 188/369/6 190/379/6 192/380/6
f 194/381/1 195/382/1 193/383/1
f 196/384/2 199/385/2 195/386/2
f 200/387/3 197/388/3 199/389/3
f 198/390/4 193/391/4 197/392/4
f 199/393/5 193/391/5 195/386/5
f 196/384/6 198/394/6 200/395/6
f 202/396/1 203/397/1 201/398/1
f 204/399/2 207/400/2 203/401/2
f 208/402/3 205/403/3 207/404/3
f 206/405/4 201/406/4 205/407/4
f 207/408/5 201/406/5 203/401/5
f 204/399/6 206/409/6 208/410/6
f 210/411/1 211/412/1 209/413/1
f 212/414/2 215/415/2 211/416/2
f 216/417/3 213/418/3 215/419/3
f 214/420/4 209/421/4 213/422/4
f 215/423/5 209/421/5 211/416/5
f 212/414/6 214/424/6 216/425/6
f 218/426/1 219/427/1 217/428/1
f 220/429/2 223/430/2 219/431/2
f 224/432/3 221/433/3 223/434/3
f 222/435/4 217/436/4 221/437/4
f 223/438/5 217/436/5 219/431/5
f 220/429/6 222/439/6 224/440/6
f 226/441/1 227/442/1 225/443/1
f 228/444/2 231/445/2 227/446/2
f 232/447/3 229/448/3 231/449/3
f 230/450/4 225/451/4 229/452/4
f 231/453/5 225/451/5 227/446/5
f 228/444/6 230/454/6 232/455/6
f 234/456/1 235/457/1 233/458/1
f 236/459/2 239/460/2 235/461/2
f 240/462/3 237/463/3 239/464/3
f 238/465/4 233/466/4 237/467/4
f 239/468/5 233/466/5 235/461/5
f 236/459/6 238/469/6 240/470/6
f 242/471/1 243/472/1 241/473/1
f 244/474/2 247/475/2 243/476/2
f 248/477/3 245/478/3 247/479/3
f 246/480/4 241/481/4 245/482/4
f 247/483/5 241/481/5 243/476/5
f 244/474/6 246/484/6 248/485/6
f 250/486/1 251/487/1 249/488/1
f 252/489/2 255/490/2 251/491/2
f 256/492/3 253/493/3 255/494/3
f 254/495/4 249/496/4 253/497/4
f 255/498/5 249/496/5 251/491/5
f 252/489/6 254/499/6 256/500/6
f 258/501/1 259/502/1 257/503/1
f 260/504/2 263/505/2 259/506/2
f 264/507/3 261/508/3 263/509/3
f 262/510/4 257/511/4 261/512/4
f 263/513/5 257/511/5 259/506/5
f 260/504/6 262/514/6 264/515/6
f 266/516/1 267/517/1 265/518/1
f 268/519/2 271/520/2 267/521/2
f 272/522/3 269/523/3 271/524/3
f 270/525/4 265/526/4 269/527/4
f 271/528/5 265/526/5 267/521/5
f 268/519/6 270/529/6 272/530/6
f 274/531/1 275/532/1 273/533/1
f 276/534/2 279/535/2 275/536/2
f 280/537/3 277/538/3 279/539/3
f 278/540/4 273/541/4 277/542/4
f 279/543/5 273/541/5 275/536/5
f 276/534/6 278/544/6 280/545/6
f 282/546/1 283/547/1 281/548/1
f 284/549/2 287/550/2 283/551/2
f 288/552/3 285/553/3 287/554/3
f 286/555/4 281/556/4 285/557/4
f 287/558/5 281/556/5 283/551/5
f 284/549/6 286/559/6 288/560/6
f 290/561/1 291/562/1 289/563/1
f 292/564/2 295/565/2 291/566/2
f 296/567/3 293/568/3 295/569/3
f 294/570/4 289/571/4 293/572/4
f 295/573/5 289/571/5 291/566/5
f 292/564/6 294/574/6 296/575/6
f 298/576/1 299/577/1 297/578/1
f 300/579/2 303/580/2 299/581/2
f 304/582/3 301/583/3 303/584/3
f 302/585/4 297/586/4 301/587/4
f 303/588/5 297/586/5 299/581/5
f 300/579/6 302/589/6 304/590/6
f 306/591/1 307/592/1 305/593/1
f 308/594/2 311/595/2 307/596/2
f 312/597/3 309/598/3 311/599/3
f 310/600/4 305/601/4 309/602/4
f 311/603/5 305/601/5 307/596/5
f 308/594/6 310/604/6 312/605/6
f 320/606/2 314/607/2 316/608/2
f 316/609/6 33/610/6 37/86/6
f 313/611/6 39/87/6 35/612/6
f 314/613/6 35/612/6 33/610/6
f 323/614/5 320/615/5 319/616/5
f 317/617/4 315/618/4 313/619/4
f 319/620/1 316/621/1 315/622/1
f 318/623/3 313/624/3 314/625/3
f 327/626/7 324/627/7 323/628/7
f 322/629/5 317/630/5 318/631/5
f 324/632/5 318/631/5 320/615/5
f 321/633/5 319/616/5 317/630/5
f 326/634/6 327/626/6 325/635/6
f 326/634/8 321/636/8 322/637/8
f 328/638/9 322/637/9 324/627/9
f 325/635/10 323/628/10 321/636/10
f 2/1/1 4/639/1 3/2/1
f 4/4/2 8/640/2 7/5/2
f 8/7/3 6/641/3 5/8/3
f 6/10/4 2/642/4 1/11/4
f 7/13/5 5/643/5 1/14/5
f 4/16/6 2/644/6 6/17/6
f 10/19/1 12/645/1 11/20/1
f 12/22/2 16/646/2 15/23/2
f 16/25/3 14/647/3 13/26/3
f 14/28/4 10/648/4 9/29/4
f 15/31/5 13/649/5 9/32/5
f 12/34/6 10/650/6 14/35/6
f 18/37/1 20/651/1 19/38/1
f 20/40/2 24/652/2 23/41/2
f 24/43/3 22/653/3 21/44/3
f 22/46/4 18/654/4 17/47/4
f 23/49/5 21/655/5 17/50/5
f 20/52/6 18/656/6 22/53/6
f 26/55/1 28/657/1 27/56/1
f 28/58/2 32/658/2 31/59/2
f 32/61/3 30/659/3 29/62/3
f 30/64/4 26/660/4 25/65/4
f 31/67/5 29/661/5 25/68/5
f 28/70/6 26/662/6 30/71/6
f 35/73/3 36/663/3 34/74/3
f 39/76/4 40/664/4 36/77/4
f 37/79/1 38/665/1 40/80/1
f 38/82/4 34/666/4 33/83/4
f 315/85/6 316/609/6 37/86/6
f 38/88/5 34/666/5 36/77/5
f 42/90/1 44/667/1 43/91/1
f 44/93/2 48/668/2 47/94/2
f 48/96/3 46/669/3 45/97/3
f 46/99/4 42/670/4 41/100/4
f 47/102/5 45/671/5 41/100/5
f 44/104/6 42/670/6 46/105/6
f 50/107/1 52/672/1 51/108/1
f 52/110/2 56/673/2 55/111/2
f 56/113/3 54/674/3 53/114/3
f 54/116/4 50/675/4 49/117/4
f 55/119/5 53/676/5 49/117/5
f 52/110/6 50/675/6 54/120/6
f 58/122/1 60/677/1 59/123/1
f 60/125/2 64/678/2 63/126/2
f 64/128/3 62/679/3 61/129/3
f 62/131/4 58/680/4 57/132/4
f 63/134/5 61/681/5 57/132/5
f 60/125/6 58/680/6 62/135/6
f 66/137/1 68/682/1 67/138/1
f 68/140/2 72/683/2 71/141/2
f 72/143/3 70/684/3 69/144/3
f 70/146/4 66/685/4 65/147/4
f 71/149/5 69/686/5 65/147/5
f 68/140/6 66/685/6 70/150/6
f 74/152/4 76/687/4 75/153/4
f 76/155/1 80/688/1 79/156/1
f 80/158/2 78/689/2 77/159/2
f 78/161/3 74/690/3 73/162/3
f 79/164/5 77/691/5 73/162/5
f 76/155/6 74/690/6 78/165/6
f 82/167/4 84/692/4 83/168/4
f 84/170/1 88/693/1 87/171/1
f 88/173/2 86/694/2 85/174/2
f 86/176/3 82/695/3 81/177/3
f 87/179/5 85/696/5 81/177/5
f 84/170/6 82/695/6 86/180/6
f 90/182/4 92/697/4 91/183/4
f 92/185/1 96/698/1 95/186/1
f 96/188/2 94/699/2 93/189/2
f 94/191/3 90/196/3 89/192/3
f 95/194/5 93/700/5 89/192/5
f 96/195/6 92/185/6 90/196/6
f 98/198/4 100/701/4 99/199/4
f 100/201/1 104/702/1 103/202/1
f 104/204/2 102/703/2 101/205/2
f 102/207/3 98/212/3 97/208/3
f 103/210/5 101/704/5 97/208/5
f 104/211/6 100/201/6 98/212/6
f 106/214/4 108/705/4 107/215/4
f 108/217/1 112/706/1 111/218/1
f 112/220/2 110/707/2 109/221/2
f 110/223/3 106/228/3 105/224/3
f 111/226/5 109/708/5 105/224/5
f 112/227/6 108/217/6 106/228/6
f 114/230/4 116/709/4 115/231/4
f 116/233/1 120/710/1 119/234/1
f 120/236/2 118/711/2 117/237/2
f 118/239/3 114/244/3 113/240/3
f 119/242/5 117/712/5 113/240/5
f 120/243/6 116/233/6 114/244/6
f 121/246/4 122/713/4 124/247/4
f 124/249/6 128/714/6 127/250/6
f 128/252/2 126/715/2 125/253/2
f 126/255/5 122/716/5 121/256/5
f 127/258/1 125/717/1 121/256/1
f 124/249/3 122/716/3 126/259/3
f 129/261/4 130/718/4 132/262/4
f 132/264/6 136/719/6 135/265/6
f 136/267/2 134/720/2 133/268/2
f 134/270/5 130/721/5 129/271/5
f 135/273/1 133/722/1 129/271/1
f 132/264/3 130/721/3 134/274/3
f 138/276/4 140/723/4 139/277/4
f 140/279/6 144/724/6 143/280/6
f 144/282/2 142/725/2 141/283/2
f 142/285/5 138/726/5 137/286/5
f 143/288/1 141/727/1 137/286/1
f 140/279/3 138/726/3 142/289/3
f 146/291/4 148/728/4 147/292/4
f 148/294/6 152/729/6 151/295/6
f 152/297/2 150/730/2 149/298/2
f 150/300/5 146/731/5 145/301/5
f 151/303/1 149/732/1 145/301/1
f 148/294/3 146/731/3 150/304/3
f 154/306/1 156/733/1 155/307/1
f 156/309/2 160/734/2 159/310/2
f 160/312/3 158/735/3 157/313/3
f 158/315/4 154/736/4 153/316/4
f 159/318/5 157/737/5 153/316/5
f 156/309/6 154/736/6 158/319/6
f 162/321/1 164/738/1 163/322/1
f 164/324/2 168/739/2 167/325/2
f 168/327/3 166/740/3 165/328/3
f 166/330/4 162/741/4 161/331/4
f 167/333/5 165/742/5 161/331/5
f 164/324/6 162/741/6 166/334/6
f 170/336/1 172/743/1 171/337/1
f 172/339/2 176/744/2 175/340/2
f 176/342/3 174/745/3 173/343/3
f 174/345/4 170/746/4 169/346/4
f 175/348/5 173/747/5 169/346/5
f 172/339/6 170/746/6 174/349/6
f 178/351/1 180/748/1 179/352/1
f 180/354/2 184/749/2 183/355/2
f 184/357/3 182/750/3 181/358/3
f 182/360/4 178/751/4 177/361/4
f 183/363/5 181/752/5 177/361/5
f 180/354/6 178/751/6 182/364/6
f 186/366/1 188/753/1 187/367/1
f 188/369/2 192/754/2 191/370/2
f 192/372/3 190/755/3 189/373/3
f 190/375/4 186/756/4 185/376/4
f 191/378/5 189/757/5 185/376/5
f 188/369/6 186/756/6 190/379/6
f 194/381/1 196/758/1 195/382/1
f 196/384/2 200/759/2 199/385/2
f 200/387/3 198/760/3 197/388/3
f 198/390/4 194/761/4 193/391/4
f 199/393/5 197/762/5 193/391/5
f 196/384/6 194/761/6 198/394/6
f 202/396/1 204/763/1 203/397/1
f 204/399/2 208/764/2 207/400/2
f 208/402/3 206/765/3 205/403/3
f 206/405/4 202/766/4 201/406/4
f 207/408/5 205/767/5 201/406/5
f 204/399/6 202/766/6 206/409/6
f 210/411/1 212/768/1 211/412/1
f 212/414/2 216/769/2 215/415/2
f 216/417/3 214/770/3 213/418/3
f 214/420/4 210/771/4 209/421/4
f 215/423/5 213/772/5 209/421/5
f 212/414/6 210/771/6 214/424/6
f 218/426/1 220/773/1 219/427/1
f 220/429/2 224/774/2 223/430/2
f 224/432/3 222/775/3 221/433/3
f 222/435/4 218/776/4 217/436/4
f 223/438/5 221/777/5 217/436/5
f 220/429/6 218/776/6 222/439/6
f 226/441/1 228/778/1 227/442/1
f 228/444/2 232/779/2 231/445/2
f 232/447/3 230/780/3 229/448/3
f 230/450/4 226/781/4 225/451/4
f 231/453/5 229/782/5 225/451/5
f 228/444/6 226/781/6 230/454/6
f 234/456/1 236/783/1 235/457/1
f 236/459/2 240/784/2 239/460/2
f 240/462/3 238/785/3 237/463/3
f 238/465/4 234/786/4 233/466/4
f 239/468/5 237/787/5 233/466/5
f 236/459/6 234/786/6 238/469/6
f 242/471/1 244/788/1 243/472/1
f 244/474/2 248/789/2 247/475/2
f 248/477/3 246/790/3 245/478/3
f 246/480/4 242/791/4 241/481/4
f 247/483/5 245/792/5 241/481/5
f 244/474/6 242/791/6 246/484/6
f 250/486/1 252/793/1 251/487/1
f 252/489/2 256/794/2 255/490/2
f 256/492/3 254/795/3 253/493/3
f 254/495/4 250/796/4 249/496/4
f 255/498/5 253/797/5 249/496/5
f 252/489/6 250/796/6 254/499/6
f 258/501/1 260/798/1 259/502/1
f 260/504/2 264/799/2 263/505/2
f 264/507/3 262/800/3 261/508/3
f 262/510/4 258/801/4 257/511/4
f 263/513/5 261/802/5 257/511/5
f 260/504/6 258/801/6 262/514/6
f 266/516/1 268/803/1 267/517/1
f 268/519/2 272/804/2 271/520/2
f 272/522/3 270/805/3 269/523/3
f 270/525/4 266/806/4 265/526/4
f 271/528/5 269/807/5 265/526/5
f 268/519/6 266/806/6 270/529/6
f 274/531/1 276/808/1 275/532/1
f 276/534/2 280/809/2 279/535/2
f 280/537/3 278/810/3 277/538/3
f 278/540/4 274/811/4 273/541/4
f 279/543/5 277/812/5 273/541/5
f 276/534/6 274/811/6 278/544/6
f 282/546/1 284/813/1 283/547/1
f 284/549/2 288/814/2 287/550/2
f 288/552/3 286/815/3 285/553/3
f 286/555/4 282/816/4 281/556/4
f 287/558/5 285/817/5 281/556/5
f 284/549/6 282/816/6 286/559/6
f 290/561/1 292/818/1 291/562/1
f 292/564/2 296/819/2 295/565/2
f 296/567/3 294/820/3 293/568/3
f 294/570/4 290/821/4 289/571/4
f 295/573/5 293/822/5 289/571/5
f 292/564/6 290/821/6 294/574/6
f 298/576/1 300/823/1 299/577/1
f 300/579/2 304/824/2 303/580/2
f 304/582/3 302/825/3 301/583/3
f 302/585/4 298/826/4 297/586/4
f 303/588/5 301/827/5 297/586/5
f 300/579/6 298/826/6 302/589/6
f 306/591/1 308/828/1 307/592/1
f 308/594/2 312/829/2 311/595/2
f 312/597/3 310/830/3 309/598/3
f 310/600/4 306/831/4 305/601/4
f 311/603/5 309/832/5 305/601/5
f 308/594/6 306/831/6 310/604/6
f 320/606/2 318/833/2 314/607/2
f 316/609/6 314/613/6 33/610/6
f 313/611/6 315/85/6 39/87/6
f 314/613/6 313/611/6 35/612/6
f 323/614/5 324/632/5 320/615/5
f 317/617/4 319/834/4 315/618/4
f 319/620/1 320/835/1 316/621/1
f 318/623/3 317/836/3 313/624/3
f 327/626/7 328/638/7 324/627/7
f 322/629/5 321/633/5 317/630/5
f 324/632/5 322/629/5 318/631/5
f 321/633/5 323/614/5 319/616/5
f 326/634/6 328/638/6 327/626/6
f 326/634/8 325/635/8 321/636/8
f 328/638/9 326/634/9 322/637/9
f 325/635/10 327/626/10 323/628/10
