# Blender v2.78 (sub 0) OBJ File: 'SniperTower2.blend'
# www.blender.org
o Cube_Cube.001
v 2.273990 8.354338 2.644341
v 2.273990 -0.006251 2.326422
v 2.273990 -0.006251 2.644339
v 2.273990 8.354338 2.326423
v 2.591907 -0.006251 2.326422
v 2.591907 8.354338 2.326423
v 2.591907 -0.006251 2.644339
v 2.591907 8.354338 2.644341
v 2.273990 8.354338 -2.240007
v 2.273990 -0.006251 -2.557925
v 2.273990 -0.006251 -2.240008
v 2.273990 8.354338 -2.557924
v 2.591907 -0.006251 -2.557925
v 2.591907 8.354338 -2.557924
v 2.591907 -0.006251 -2.240008
v 2.591907 8.354338 -2.240007
v -2.445560 8.354338 2.644341
v -2.445560 -0.006251 2.326422
v -2.445560 -0.006251 2.644339
v -2.445560 8.354338 2.326423
v -2.127643 -0.006251 2.326422
v -2.127643 8.354338 2.326423
v -2.127643 -0.006251 2.644339
v -2.127643 8.354338 2.644341
v -2.445560 8.354338 -2.240007
v -2.445560 -0.006251 -2.557925
v -2.445560 -0.006251 -2.240008
v -2.445560 8.354338 -2.557924
v -2.127643 -0.006251 -2.557925
v -2.127643 8.354338 -2.557924
v -2.127643 -0.006251 -2.240008
v -2.127643 8.354338 -2.240007
v 2.741734 7.382792 2.694269
v 2.741734 7.203691 -2.630002
v 2.741734 7.382792 -2.630002
v -2.582538 7.382792 2.694269
v 2.741734 7.203690 2.694269
v -2.582538 7.382792 -2.630002
v -2.582538 7.203690 2.694269
v -2.582538 7.203691 -2.630002
v -1.518998 7.382792 1.630730
v 2.380628 8.017067 2.332890
v 2.380628 7.891282 -2.255979
v 2.380628 7.891281 2.332890
v 2.380628 8.017067 -2.255979
v 2.506414 7.891282 -2.255979
v 2.506414 8.017067 -2.255979
v 2.506414 7.891281 2.332890
v 2.506414 8.017067 2.332890
v 2.380628 7.729930 2.332890
v 2.380628 7.604146 -2.255979
v 2.380628 7.604146 2.332890
v 2.380628 7.729931 -2.255979
v 2.506414 7.604146 -2.255979
v 2.506414 7.729931 -2.255979
v 2.506414 7.604146 2.332890
v 2.506414 7.729930 2.332890
v -2.322882 7.729930 2.332890
v -2.322882 7.604146 -2.255979
v -2.322882 7.604146 2.332890
v -2.322882 7.729931 -2.255979
v -2.197097 7.604146 -2.255979
v -2.197097 7.729931 -2.255979
v -2.197097 7.604146 2.332890
v -2.197097 7.729930 2.332890
v -2.322882 8.095024 2.332891
v -2.322882 7.969240 -2.255979
v -2.322882 7.969239 2.332890
v -2.322882 8.095024 -2.255979
v -2.197097 7.969240 -2.255979
v -2.197097 8.095024 -2.255979
v -2.197097 7.969239 2.332890
v -2.197097 8.095024 2.332891
v 2.340533 8.095024 -2.366344
v -2.248336 7.969240 -2.366345
v 2.340533 7.969240 -2.366345
v -2.248336 8.095024 -2.366344
v -2.248336 7.969240 -2.492131
v -2.248336 8.095024 -2.492131
v 2.340533 7.969240 -2.492131
v 2.340533 8.095024 -2.492131
v 2.340533 7.774502 -2.366345
v -2.248336 7.648716 -2.366345
v 2.340533 7.648716 -2.366345
v -2.248336 7.774502 -2.366345
v -2.248336 7.648716 -2.492131
v -2.248336 7.774502 -2.492131
v 2.340533 7.648716 -2.492131
v 2.340533 7.774502 -2.492131
v -0.316965 7.774501 2.569851
v -2.144961 7.648715 2.569852
v -0.316965 7.648715 2.569851
v -2.144961 7.774501 2.569852
v -2.144961 7.648715 2.444066
v -2.144961 7.774501 2.444066
v -0.316965 7.648715 2.444066
v -0.316965 7.774501 2.444066
v -0.316965 8.135954 2.569851
v -2.144961 8.010168 2.569852
v -0.316965 8.010168 2.569851
v -2.144961 8.135954 2.569852
v -2.144961 8.010168 2.444066
v -2.144961 8.135954 2.444067
v -0.316965 8.010168 2.444066
v -0.316965 8.135954 2.444067
v 2.360866 8.135954 2.569851
v 0.532871 8.010168 2.569852
v 2.360866 8.010168 2.569851
v 0.532871 8.135954 2.569852
v 0.532871 8.010168 2.444066
v 0.532871 8.135954 2.444067
v 2.360866 8.010168 2.444066
v 2.360866 8.135954 2.444067
v 2.360866 7.763134 2.569851
v 0.532871 7.637349 2.569852
v 2.360866 7.637349 2.569851
v 0.532871 7.763134 2.569852
v 0.532871 7.637349 2.444066
v 0.532871 7.763134 2.444066
v 2.360866 7.637349 2.444066
v 2.360866 7.763134 2.444066
v 0.460982 7.368527 2.569851
v 0.586768 8.174285 2.569852
v 0.460982 8.174285 2.569852
v 0.460982 8.174285 2.444067
v 0.586768 8.174285 2.444067
v 0.460982 7.368527 2.444066
v 0.586768 7.368527 2.444066
v -0.358170 7.368527 2.569851
v -0.232384 8.174285 2.569852
v -0.358170 8.174285 2.569852
v -0.358170 8.174285 2.444067
v -0.232384 8.174285 2.444067
v -0.358170 7.368527 2.444066
v -0.232384 7.368527 2.444066
v -0.232384 0.187690 2.825609
v -0.358170 7.552972 2.825610
v -0.358170 0.187690 2.825609
v -0.232384 7.552972 2.825610
v -0.358170 7.552972 2.699824
v -0.232384 7.552972 2.699824
v -0.358170 0.187690 2.699823
v -0.232384 0.187690 2.699823
v 0.490431 0.187690 2.825609
v 0.364645 7.552972 2.825610
v 0.364645 0.187690 2.825609
v 0.490431 7.552972 2.825610
v 0.364645 7.552972 2.699824
v 0.490431 7.552972 2.699824
v 0.364645 0.187690 2.699823
v 0.490431 0.187690 2.699823
v -0.266792 0.703899 2.805641
v -0.266792 0.626700 2.728441
v -0.266792 0.626700 2.805641
v -0.266792 0.703899 2.728441
v 0.388925 0.626700 2.728441
v 0.388925 0.703899 2.728441
v 0.388925 0.626700 2.805641
v 0.388925 0.703899 2.805641
v -0.266792 1.087587 2.805641
v -0.266792 1.010386 2.728441
v -0.266792 1.010386 2.805641
v -0.266792 1.087587 2.728441
v 0.388925 1.010386 2.728441
v 0.388925 1.087587 2.728441
v 0.388925 1.010386 2.805641
v 0.388925 1.087587 2.805641
v -0.266792 1.545003 2.805641
v -0.266792 1.467803 2.728441
v -0.266792 1.467803 2.805641
v -0.266792 1.545003 2.728441
v 0.388925 1.467803 2.728441
v 0.388925 1.545003 2.728441
v 0.388925 1.467803 2.805641
v 0.388925 1.545003 2.805641
v -0.266792 1.938751 2.805641
v -0.266792 1.861551 2.728441
v -0.266792 1.861551 2.805641
v -0.266792 1.938751 2.728441
v 0.388925 1.861551 2.728441
v 0.388925 1.938751 2.728441
v 0.388925 1.861551 2.805641
v 0.388925 1.938751 2.805641
v -0.266792 2.358357 2.805641
v -0.266792 2.281157 2.728441
v -0.266792 2.281157 2.805641
v -0.266792 2.358357 2.728441
v 0.388925 2.281157 2.728441
v 0.388925 2.358357 2.728441
v 0.388925 2.281157 2.805641
v 0.388925 2.358357 2.805641
v -0.266792 2.793011 2.805641
v -0.266792 2.715811 2.728441
v -0.266792 2.715811 2.805641
v -0.266792 2.793011 2.728441
v 0.388925 2.715811 2.728441
v 0.388925 2.793011 2.728441
v 0.388925 2.715811 2.805641
v 0.388925 2.793011 2.805641
v -0.266792 3.205451 2.805641
v -0.266792 3.128252 2.728441
v -0.266792 3.128252 2.805641
v -0.266792 3.205451 2.728441
v 0.388925 3.128252 2.728441
v 0.388925 3.205451 2.728441
v 0.388925 3.128252 2.805641
v 0.388925 3.205451 2.805641
v -0.266792 3.565351 2.805641
v -0.266792 3.488151 2.728441
v -0.266792 3.488151 2.805641
v -0.266792 3.565351 2.728441
v 0.388925 3.488151 2.728441
v 0.388925 3.565351 2.728441
v 0.388925 3.488151 2.805641
v 0.388925 3.565351 2.805641
v -0.266792 3.928802 2.805642
v -0.266792 3.851603 2.728442
v -0.266792 3.851603 2.805642
v -0.266792 3.928802 2.728442
v 0.388925 3.851603 2.728442
v 0.388925 3.928802 2.728442
v 0.388925 3.851603 2.805642
v 0.388925 3.928802 2.805642
v -0.266792 4.247859 2.805642
v -0.266792 4.170660 2.728442
v -0.266792 4.170660 2.805642
v -0.266792 4.247859 2.728442
v 0.388925 4.170660 2.728442
v 0.388925 4.247859 2.728442
v 0.388925 4.170660 2.805642
v 0.388925 4.247859 2.805642
v -0.266792 4.530047 2.805642
v -0.266792 4.452848 2.728442
v -0.266792 4.452848 2.805642
v -0.266792 4.530047 2.728442
v 0.388925 4.452848 2.728442
v 0.388925 4.530047 2.728442
v 0.388925 4.452848 2.805642
v 0.388925 4.530047 2.805642
v -0.266792 4.801395 2.805642
v -0.266792 4.724195 2.728442
v -0.266792 4.724195 2.805642
v -0.266792 4.801395 2.728442
v 0.388925 4.724195 2.728442
v 0.388925 4.801395 2.728442
v 0.388925 4.724195 2.805642
v 0.388925 4.801395 2.805642
v -0.266792 5.074337 2.805642
v -0.266792 4.997137 2.728442
v -0.266792 4.997137 2.805642
v -0.266792 5.074337 2.728442
v 0.388925 4.997137 2.728442
v 0.388925 5.074337 2.728442
v 0.388925 4.997137 2.805642
v 0.388925 5.074337 2.805642
v -0.266792 5.342520 2.805642
v -0.266792 5.265319 2.728442
v -0.266792 5.265319 2.805642
v -0.266792 5.342520 2.728442
v 0.388925 5.265319 2.728442
v 0.388925 5.342520 2.728442
v 0.388925 5.265319 2.805642
v 0.388925 5.342520 2.805642
v -0.266792 5.628655 2.805642
v -0.266792 5.551455 2.728442
v -0.266792 5.551455 2.805642
v -0.266792 5.628655 2.728442
v 0.388925 5.551455 2.728442
v 0.388925 5.628655 2.728442
v 0.388925 5.551455 2.805642
v 0.388925 5.628655 2.805642
v -0.266792 5.933715 2.805642
v -0.266792 5.856515 2.728442
v -0.266792 5.856515 2.805642
v -0.266792 5.933715 2.728442
v 0.388925 5.856515 2.728442
v 0.388925 5.933715 2.728442
v 0.388925 5.856515 2.805642
v 0.388925 5.933715 2.805642
v -0.266792 6.276383 2.805642
v -0.266792 6.199184 2.728442
v -0.266792 6.199184 2.805642
v -0.266792 6.276383 2.728442
v 0.388925 6.199184 2.728442
v 0.388925 6.276383 2.728442
v 0.388925 6.199184 2.805642
v 0.388925 6.276383 2.805642
v -0.266792 6.605053 2.805642
v -0.266792 6.527854 2.728442
v -0.266792 6.527854 2.805642
v -0.266792 6.605053 2.728442
v 0.388925 6.527854 2.728442
v 0.388925 6.605053 2.728442
v 0.388925 6.527854 2.805642
v 0.388925 6.605053 2.805642
v -0.266792 6.904882 2.805642
v -0.266792 6.827683 2.728442
v -0.266792 6.827683 2.805642
v -0.266792 6.904882 2.728442
v 0.388925 6.827683 2.728442
v 0.388925 6.904882 2.728442
v 0.388925 6.827683 2.805642
v 0.388925 6.904882 2.805642
v -0.266792 7.241271 2.805642
v -0.266792 7.164073 2.728442
v -0.266792 7.164073 2.805642
v -0.266792 7.241271 2.728442
v 0.388925 7.164073 2.728442
v 0.388925 7.241271 2.728442
v 0.388925 7.164073 2.805642
v 0.388925 7.241271 2.805642
v -1.518998 9.811868 -1.566461
v 1.678194 7.382792 -1.566462
v -1.518998 7.382792 -1.566462
v 1.678194 7.382792 1.630730
v -2.820587 9.811867 2.932320
v -1.518998 9.811868 1.630731
v 1.678194 9.811868 1.630731
v 1.678194 9.811868 -1.566461
v -1.675905 10.370276 1.787636
v -2.820587 9.811868 -2.868051
v 2.979783 9.811868 -2.868051
v 2.979783 9.811867 2.932320
v 1.835100 10.370276 -1.723367
v 1.835100 10.370276 1.787636
v -1.675905 10.370276 -1.723367
v 0.586768 7.368527 2.569851
v -0.232384 7.368527 2.569851
v -1.913009 10.489286 2.024740
v 2.072205 10.489286 -1.960471
v 2.072205 10.489286 2.024740
v -1.913009 10.489286 -1.960471
v -1.078150 10.826785 1.189882
v 1.237346 10.826785 -1.125613
v 1.237346 10.826785 1.189882
v -1.078150 10.826785 -1.125613
v 1.430392 10.929420 -1.318658
v 1.430392 10.929420 1.382928
v -1.271196 10.929420 -1.318658
v -1.271196 10.929420 1.382928
v 0.352444 11.072149 -0.240711
v 0.352444 11.072149 0.304981
v -0.193248 11.072149 -0.240711
v -0.193248 11.072149 0.304981
v 2.215712 9.811867 2.932320
v 2.567222 10.013126 2.519758
v 2.797769 9.900660 2.192027
v 2.979783 9.811868 1.933297
v 2.895149 10.329483 2.740343
v 2.017958 9.811868 -2.868051
v 2.608179 9.993147 -2.496446
v 2.979783 9.811868 -2.060897
v 2.288077 9.894832 -2.697983
v 2.912728 10.509578 -2.969130
v -2.476398 9.979774 -2.523861
v -2.669507 9.885569 -2.253576
v -1.968215 9.811868 -2.868051
v -2.820587 9.811868 -2.042120
v -2.823383 10.518950 -2.857057
v -2.820587 9.811868 1.744063
v -2.357112 10.037964 2.468844
v -2.065951 9.902380 2.746779
v -1.871582 9.811867 2.932320
v -2.758469 10.495149 2.963905
v -0.731071 8.266288 1.630730
v 0.671445 9.284834 1.630730
v 0.674942 9.049644 1.630730
v -0.325818 8.289313 1.630730
v -0.572405 9.255584 1.630730
v 0.685343 8.346692 1.630729
v 0.685342 8.346692 1.271783
v -0.325818 8.289313 1.271784
v 0.674942 9.049644 1.271784
v -0.572405 9.255584 1.271784
v 0.671445 9.284834 1.271784
v -0.731071 8.266288 1.271783
v 1.678194 8.185610 0.574048
v 1.678194 9.170355 -0.722091
v 1.678194 8.225365 -0.731646
v 1.678193 9.071109 0.585675
v 1.221382 8.185610 0.574047
v 1.221382 9.170355 -0.722091
v 1.221382 8.225365 -0.731646
v 1.221381 9.071109 0.585675
v -0.569697 9.090633 -1.566462
v 0.554827 8.236273 -1.566462
v -0.636736 8.305380 -1.566461
v 0.614193 9.122473 -1.566460
v -0.569697 9.090632 -1.062444
v 0.554827 8.236272 -1.062444
v -0.636736 8.305379 -1.062444
v 0.614193 9.122472 -1.062443
v -1.518998 8.211226 -0.476062
v -1.518998 9.068844 0.652749
v -1.518998 8.268368 0.758528
v -1.518998 9.056144 -0.550162
v -0.958759 8.211226 -0.476062
v -0.958759 9.068844 0.652749
v -0.958760 8.268368 0.758528
v -0.958760 9.056144 -0.550162
v 0.079598 12.006366 0.032135
vt 0.9207 0.5220
vt 0.9383 0.9861
vt 0.9207 0.9861
vt 0.9207 0.5220
vt 0.9383 0.9861
vt 0.9207 0.9861
vt 0.9207 0.5220
vt 0.9383 0.9861
vt 0.9207 0.9861
vt 0.9207 0.5220
vt 0.9383 0.9861
vt 0.9207 0.9861
vt 0.6028 0.5333
vt 0.2308 0.9054
vt 0.2308 0.5333
vt 0.6028 0.5333
vt 0.2308 0.9054
vt 0.2308 0.5333
vt 0.9207 0.5220
vt 0.9383 0.9861
vt 0.9207 0.9861
vt 0.9207 0.5220
vt 0.9383 0.9861
vt 0.9207 0.9861
vt 0.9207 0.5220
vt 0.9383 0.9861
vt 0.9207 0.9861
vt 0.9207 0.5220
vt 0.9383 0.9861
vt 0.9207 0.9861
vt 0.6028 0.5333
vt 0.2308 0.9054
vt 0.2308 0.5333
vt 0.6028 0.5333
vt 0.2308 0.9054
vt 0.2308 0.5333
vt 0.9207 0.5220
vt 0.9383 0.9861
vt 0.9207 0.9861
vt 0.9207 0.5220
vt 0.9383 0.9861
vt 0.9207 0.9861
vt 0.9207 0.5220
vt 0.9383 0.9861
vt 0.9207 0.9861
vt 0.9207 0.5220
vt 0.9383 0.9861
vt 0.9207 0.9861
vt 0.3293 0.7951
vt 0.3304 0.7243
vt 0.3702 0.7602
vt 0.6028 0.5333
vt 0.2308 0.9054
vt 0.2308 0.5333
vt 0.9207 0.5220
vt 0.9383 0.9861
vt 0.9207 0.9861
vt 0.9207 0.5220
vt 0.9383 0.9861
vt 0.9207 0.9861
vt 0.9207 0.5220
vt 0.9383 0.9861
vt 0.9207 0.9861
vt 0.9207 0.5220
vt 0.9383 0.9861
vt 0.9207 0.9861
vt 0.6028 0.5333
vt 0.2308 0.9054
vt 0.2308 0.5333
vt 0.6028 0.5333
vt 0.2308 0.9054
vt 0.2308 0.5333
vt 0.2308 0.9054
vt 0.6028 0.5333
vt 0.2308 0.5333
vt 0.2308 0.9054
vt 0.6028 0.5333
vt 0.2308 0.5333
vt 0.2308 0.9054
vt 0.6028 0.5333
vt 0.2308 0.5333
vt 0.6028 0.5333
vt 0.2308 0.9054
vt 0.2308 0.5333
vt 0.5285 0.6077
vt 0.6028 0.9053
vt 0.6028 0.5334
vt 0.2308 0.9054
vt 0.2308 0.5333
vt 0.6028 0.5333
vt 0.2308 0.9054
vt 0.2308 0.5333
vt 0.5005 0.6131
vt 0.4563 0.6572
vt 0.4563 0.6131
vt 0.6028 0.5333
vt 0.2308 0.9054
vt 0.2308 0.5333
vt 0.6028 0.5333
vt 0.2308 0.9054
vt 0.2308 0.5333
vt 0.6028 0.5333
vt 0.2308 0.5333
vt 0.6028 0.5333
vt 0.2308 0.9054
vt 0.2308 0.5333
vt 0.6028 0.5333
vt 0.2308 0.9054
vt 0.2308 0.5333
vt 0.6028 0.5333
vt 0.2308 0.9054
vt 0.2308 0.5333
vt 0.6028 0.5333
vt 0.2308 0.9054
vt 0.2308 0.5333
vt 0.6028 0.5333
vt 0.2308 0.9054
vt 0.2308 0.5333
vt 0.6028 0.5333
vt 0.2308 0.9054
vt 0.2308 0.5333
vt 0.6028 0.5333
vt 0.2308 0.9054
vt 0.2308 0.5333
vt 0.6028 0.5333
vt 0.2308 0.9054
vt 0.2308 0.5333
vt 0.6028 0.5333
vt 0.2308 0.9054
vt 0.2308 0.5333
vt 0.6028 0.5333
vt 0.2308 0.9054
vt 0.2308 0.5333
vt 0.6028 0.5333
vt 0.2308 0.9054
vt 0.2308 0.5333
vt 0.6028 0.5333
vt 0.2308 0.9054
vt 0.2308 0.5333
vt 0.6028 0.5333
vt 0.2308 0.9054
vt 0.2308 0.5333
vt 0.6028 0.5333
vt 0.2308 0.9054
vt 0.2308 0.5333
vt 0.6028 0.5333
vt 0.2308 0.9054
vt 0.2308 0.5333
vt 0.6028 0.5333
vt 0.2308 0.9054
vt 0.2308 0.5333
vt 0.6028 0.5333
vt 0.2308 0.9054
vt 0.2308 0.5333
vt 0.6028 0.5333
vt 0.2308 0.9054
vt 0.2308 0.5333
vt 0.6028 0.5333
vt 0.2308 0.9054
vt 0.2308 0.5333
vt 0.6028 0.5333
vt 0.2308 0.9054
vt 0.2308 0.5333
vt 0.6028 0.5333
vt 0.2308 0.9054
vt 0.2308 0.5333
vt 0.6028 0.5333
vt 0.2308 0.9054
vt 0.2308 0.5333
vt 0.6028 0.5333
vt 0.2308 0.9054
vt 0.2308 0.5333
vt 0.6028 0.5333
vt 0.2308 0.9054
vt 0.2308 0.5333
vt 0.6028 0.5333
vt 0.2308 0.9054
vt 0.2308 0.5333
vt 0.6028 0.5333
vt 0.2308 0.9054
vt 0.2308 0.5333
vt 0.6028 0.5333
vt 0.2308 0.9054
vt 0.2308 0.5333
vt 0.6028 0.5333
vt 0.2308 0.9054
vt 0.2308 0.5333
vt 0.6028 0.5333
vt 0.2308 0.9054
vt 0.2308 0.5333
vt 0.6028 0.5333
vt 0.2308 0.9054
vt 0.2308 0.5333
vt 0.6028 0.5333
vt 0.2308 0.5333
vt 0.6028 0.9054
vt 0.2308 0.9054
vt 0.6028 0.5333
vt 0.2308 0.9054
vt 0.2308 0.5333
vt 0.6028 0.5333
vt 0.2308 0.9054
vt 0.2308 0.5333
vt 0.6028 0.5333
vt 0.2308 0.9054
vt 0.2308 0.5333
vt 0.6028 0.5333
vt 0.2308 0.9054
vt 0.2308 0.5333
vt 0.6028 0.5333
vt 0.2308 0.5333
vt 0.6028 0.9054
vt 0.2308 0.9054
vt 0.6028 0.5333
vt 0.2308 0.9054
vt 0.2308 0.5333
vt 0.6028 0.5333
vt 0.2308 0.9054
vt 0.2308 0.5333
vt 0.6028 0.5333
vt 0.2308 0.9054
vt 0.2308 0.5333
vt 0.6028 0.5333
vt 0.2308 0.9054
vt 0.2308 0.5333
vt 0.6028 0.5333
vt 0.2308 0.5333
vt 0.6028 0.9054
vt 0.2308 0.9054
vt 0.6028 0.5333
vt 0.2308 0.9054
vt 0.2308 0.5333
vt 0.6028 0.5333
vt 0.2308 0.9054
vt 0.2308 0.5333
vt 0.6028 0.5333
vt 0.2308 0.9054
vt 0.2308 0.5333
vt 0.6028 0.5333
vt 0.2308 0.9054
vt 0.2308 0.5333
vt 0.6028 0.5333
vt 0.2308 0.5333
vt 0.6028 0.9054
vt 0.2308 0.9054
vt 0.2308 0.5333
vt 0.6028 0.9054
vt 0.2308 0.9054
vt 0.6028 0.5333
vt 0.2308 0.9054
vt 0.2308 0.5333
vt 0.6028 0.5333
vt 0.2308 0.9054
vt 0.2308 0.5333
vt 0.6028 0.5333
vt 0.2308 0.9054
vt 0.2308 0.5333
vt 0.6028 0.5333
vt 0.2308 0.9054
vt 0.2308 0.5333
vt 0.2308 0.5333
vt 0.6028 0.9054
vt 0.2308 0.9054
vt 0.6028 0.5333
vt 0.2308 0.9054
vt 0.2308 0.5333
vt 0.6028 0.5333
vt 0.2308 0.9054
vt 0.2308 0.5333
vt 0.6028 0.5333
vt 0.2308 0.9054
vt 0.2308 0.5333
vt 0.6028 0.5333
vt 0.2308 0.9054
vt 0.2308 0.5333
vt 0.6028 0.5333
vt 0.2308 0.9054
vt 0.2308 0.5333
vt 0.6028 0.5333
vt 0.2308 0.9054
vt 0.2308 0.5333
vt 0.6028 0.5333
vt 0.2308 0.9054
vt 0.2308 0.5333
vt 0.6028 0.5333
vt 0.2308 0.9054
vt 0.2308 0.5333
vt 0.6028 0.5333
vt 0.2308 0.9054
vt 0.2308 0.5333
vt 0.6028 0.5333
vt 0.2308 0.9054
vt 0.2308 0.5333
vt 0.6028 0.5333
vt 0.2308 0.9054
vt 0.2308 0.5333
vt 0.6028 0.5333
vt 0.2308 0.9054
vt 0.2308 0.5333
vt 0.6028 0.5333
vt 0.2308 0.9054
vt 0.2308 0.5333
vt 0.6028 0.5333
vt 0.2308 0.9054
vt 0.2308 0.5333
vt 0.6028 0.5333
vt 0.2308 0.9054
vt 0.2308 0.5333
vt 0.6028 0.5333
vt 0.2308 0.9054
vt 0.2308 0.5333
vt 0.6028 0.5333
vt 0.2308 0.9054
vt 0.2308 0.5333
vt 0.6028 0.5333
vt 0.2308 0.9054
vt 0.2308 0.5333
vt 0.6028 0.5333
vt 0.2308 0.9054
vt 0.2308 0.5333
vt 0.6028 0.5333
vt 0.2308 0.9054
vt 0.2308 0.5333
vt 0.6028 0.5333
vt 0.2308 0.9054
vt 0.2308 0.5333
vt 0.6028 0.5333
vt 0.2308 0.9054
vt 0.2308 0.5333
vt 0.6028 0.5333
vt 0.2308 0.9054
vt 0.2308 0.5333
vt 0.6028 0.5333
vt 0.2308 0.9054
vt 0.2308 0.5333
vt 0.6028 0.5333
vt 0.2308 0.9054
vt 0.2308 0.5333
vt 0.6028 0.5333
vt 0.2308 0.9054
vt 0.2308 0.5333
vt 0.6028 0.5333
vt 0.2308 0.9054
vt 0.2308 0.5333
vt 0.6028 0.5333
vt 0.2308 0.9054
vt 0.2308 0.5333
vt 0.6028 0.5333
vt 0.2308 0.9054
vt 0.2308 0.5333
vt 0.6028 0.5333
vt 0.2308 0.9054
vt 0.2308 0.5333
vt 0.6028 0.5333
vt 0.2308 0.9054
vt 0.2308 0.5333
vt 0.6028 0.5333
vt 0.2308 0.9054
vt 0.2308 0.5333
vt 0.6028 0.5333
vt 0.2308 0.9054
vt 0.2308 0.5333
vt 0.6028 0.5333
vt 0.2308 0.9054
vt 0.2308 0.5333
vt 0.6028 0.5333
vt 0.2308 0.9054
vt 0.2308 0.5333
vt 0.6028 0.5333
vt 0.2308 0.9054
vt 0.2308 0.5333
vt 0.6028 0.5333
vt 0.2308 0.9054
vt 0.2308 0.5333
vt 0.6028 0.5333
vt 0.2308 0.9054
vt 0.2308 0.5333
vt 0.6028 0.5333
vt 0.2308 0.9054
vt 0.2308 0.5333
vt 0.6028 0.5333
vt 0.2308 0.9054
vt 0.2308 0.5333
vt 0.6028 0.5333
vt 0.2308 0.9054
vt 0.2308 0.5333
vt 0.6028 0.5333
vt 0.2308 0.9054
vt 0.2308 0.5333
vt 0.6028 0.5333
vt 0.2308 0.9054
vt 0.2308 0.5333
vt 0.6028 0.5333
vt 0.2308 0.9054
vt 0.2308 0.5333
vt 0.6028 0.5333
vt 0.2308 0.9054
vt 0.2308 0.5333
vt 0.6028 0.5333
vt 0.2308 0.9054
vt 0.2308 0.5333
vt 0.6028 0.5333
vt 0.2308 0.9054
vt 0.2308 0.5333
vt 0.6028 0.5333
vt 0.2308 0.9054
vt 0.2308 0.5333
vt 0.6028 0.5333
vt 0.2308 0.9054
vt 0.2308 0.5333
vt 0.6028 0.5333
vt 0.2308 0.9054
vt 0.2308 0.5333
vt 0.6028 0.5333
vt 0.2308 0.9054
vt 0.2308 0.5333
vt 0.6028 0.5333
vt 0.2308 0.9054
vt 0.2308 0.5333
vt 0.6028 0.5333
vt 0.2308 0.9054
vt 0.2308 0.5333
vt 0.6028 0.5333
vt 0.2308 0.9054
vt 0.2308 0.5333
vt 0.6028 0.5333
vt 0.2308 0.9054
vt 0.2308 0.5333
vt 0.6028 0.5333
vt 0.2308 0.9054
vt 0.2308 0.5333
vt 0.6028 0.5333
vt 0.2308 0.9054
vt 0.2308 0.5333
vt 0.6028 0.5333
vt 0.2308 0.9054
vt 0.2308 0.5333
vt 0.6028 0.5333
vt 0.2308 0.9054
vt 0.2308 0.5333
vt 0.6028 0.5333
vt 0.2308 0.9054
vt 0.2308 0.5333
vt 0.6028 0.5333
vt 0.2308 0.9054
vt 0.2308 0.5333
vt 0.6028 0.5333
vt 0.2308 0.9054
vt 0.2308 0.5333
vt 0.6028 0.5333
vt 0.2308 0.9054
vt 0.2308 0.5333
vt 0.6028 0.5333
vt 0.2308 0.9054
vt 0.2308 0.5333
vt 0.6028 0.5333
vt 0.2308 0.9054
vt 0.2308 0.5333
vt 0.6028 0.5333
vt 0.2308 0.9054
vt 0.2308 0.5333
vt 0.6028 0.5333
vt 0.2308 0.9054
vt 0.2308 0.5333
vt 0.6028 0.5333
vt 0.2308 0.9054
vt 0.2308 0.5333
vt 0.6028 0.5333
vt 0.2308 0.9054
vt 0.2308 0.5333
vt 0.6028 0.5333
vt 0.2308 0.9054
vt 0.2308 0.5333
vt 0.6028 0.5333
vt 0.2308 0.9054
vt 0.2308 0.5333
vt 0.6028 0.5333
vt 0.2308 0.9054
vt 0.2308 0.5333
vt 0.6028 0.5333
vt 0.2308 0.9054
vt 0.2308 0.5333
vt 0.6028 0.5333
vt 0.2308 0.9054
vt 0.2308 0.5333
vt 0.6028 0.5333
vt 0.2308 0.9054
vt 0.2308 0.5333
vt 0.6028 0.5333
vt 0.2308 0.9054
vt 0.2308 0.5333
vt 0.6028 0.5333
vt 0.2308 0.9054
vt 0.2308 0.5333
vt 0.6028 0.5333
vt 0.2308 0.9054
vt 0.2308 0.5333
vt 0.6028 0.5333
vt 0.2308 0.9054
vt 0.2308 0.5333
vt 0.6028 0.5333
vt 0.2308 0.9054
vt 0.2308 0.5333
vt 0.6028 0.5333
vt 0.2308 0.9054
vt 0.2308 0.5333
vt 0.6028 0.5333
vt 0.2308 0.9054
vt 0.2308 0.5333
vt 0.6028 0.5333
vt 0.2308 0.9054
vt 0.2308 0.5333
vt 0.6028 0.5333
vt 0.2308 0.9054
vt 0.2308 0.5333
vt 0.6028 0.5333
vt 0.2308 0.9054
vt 0.2308 0.5333
vt 0.6028 0.5333
vt 0.2308 0.9054
vt 0.2308 0.5333
vt 0.6028 0.5333
vt 0.2308 0.9054
vt 0.2308 0.5333
vt 0.6028 0.5333
vt 0.2308 0.9054
vt 0.2308 0.5333
vt 0.6028 0.5333
vt 0.2308 0.9054
vt 0.2308 0.5333
vt 0.6028 0.5333
vt 0.2308 0.9054
vt 0.2308 0.5333
vt 0.6028 0.5333
vt 0.2308 0.9054
vt 0.2308 0.5333
vt 0.6028 0.5333
vt 0.2308 0.9054
vt 0.2308 0.5333
vt 0.6028 0.5333
vt 0.2308 0.9054
vt 0.2308 0.5333
vt 0.6028 0.5333
vt 0.2308 0.9054
vt 0.2308 0.5333
vt 0.6028 0.5333
vt 0.2308 0.9054
vt 0.2308 0.5333
vt 0.6028 0.5333
vt 0.2308 0.9054
vt 0.2308 0.5333
vt 0.6028 0.5333
vt 0.2308 0.9054
vt 0.2308 0.5333
vt 0.6028 0.5333
vt 0.2308 0.9054
vt 0.2308 0.5333
vt 0.6028 0.5333
vt 0.2308 0.9054
vt 0.2308 0.5333
vt 0.6028 0.5333
vt 0.2308 0.9054
vt 0.2308 0.5333
vt 0.6028 0.5333
vt 0.2308 0.9054
vt 0.2308 0.5333
vt 0.6028 0.5333
vt 0.2308 0.9054
vt 0.2308 0.5333
vt 0.6028 0.5333
vt 0.2308 0.9054
vt 0.2308 0.5333
vt 0.6028 0.5333
vt 0.2308 0.9054
vt 0.2308 0.5333
vt 0.6028 0.5333
vt 0.2308 0.9054
vt 0.2308 0.5333
vt 0.6028 0.5333
vt 0.2308 0.9054
vt 0.2308 0.5333
vt 0.6028 0.5333
vt 0.2308 0.9054
vt 0.2308 0.5333
vt 0.6028 0.5333
vt 0.2308 0.9054
vt 0.2308 0.5333
vt 0.6028 0.5333
vt 0.2308 0.9054
vt 0.2308 0.5333
vt 0.6028 0.5333
vt 0.2308 0.9054
vt 0.2308 0.5333
vt 0.6028 0.5333
vt 0.2308 0.9054
vt 0.2308 0.5333
vt 0.6028 0.5333
vt 0.2308 0.9054
vt 0.2308 0.5333
vt 0.6028 0.5333
vt 0.2308 0.9054
vt 0.2308 0.5333
vt 0.6028 0.5333
vt 0.2308 0.9054
vt 0.2308 0.5333
vt 0.7763 0.7635
vt 0.9323 0.6450
vt 0.4882 0.6450
vt 0.5285 0.8310
vt 0.2308 0.9053
vt 0.3051 0.6077
vt 0.2308 0.5334
vt 0.3051 0.8310
vt 0.1280 0.1629
vt 0.1072 0.2237
vt 0.1076 0.1671
vt 0.2123 0.7709
vt 0.0465 0.6450
vt 0.4907 0.6450
vt 0.7653 0.7601
vt 0.9168 0.6450
vt 0.4727 0.6450
vt 0.1778 0.7565
vt 0.0310 0.6450
vt 0.4752 0.6450
vt 0.1334 0.2133
vt 0.1293 0.1749
vt 0.1596 0.1588
vt 0.1401 0.2817
vt 0.0795 0.3837
vt 0.1023 0.2851
vt 0.1343 0.2216
vt 0.1075 0.0192
vt 0.0795 0.0701
vt 0.1578 0.2790
vt 0.1721 0.4178
vt 0.1651 0.4119
vt 0.1404 0.4138
vt 0.1402 0.3039
vt 0.1391 0.2717
vt 0.1352 0.2305
vt 0.1565 0.2200
vt 0.1246 0.1394
vt 0.1102 0.0381
vt 0.1718 0.0579
vt 0.9383 0.5220
vt 0.9383 0.5220
vt 0.9383 0.5220
vt 0.9383 0.5220
vt 0.6028 0.9054
vt 0.6028 0.9054
vt 0.9383 0.5220
vt 0.9383 0.5220
vt 0.9383 0.5220
vt 0.9383 0.5220
vt 0.6028 0.9054
vt 0.6028 0.9054
vt 0.9383 0.5220
vt 0.9383 0.5220
vt 0.9383 0.5220
vt 0.9383 0.5220
vt 0.2895 0.7591
vt 0.6028 0.9054
vt 0.9383 0.5220
vt 0.9383 0.5220
vt 0.9383 0.5220
vt 0.9383 0.5220
vt 0.6028 0.9054
vt 0.6028 0.9054
vt 0.6028 0.9054
vt 0.6028 0.9054
vt 0.6028 0.9054
vt 0.6028 0.9054
vt 0.6028 0.9054
vt 0.5005 0.6572
vt 0.6028 0.9054
vt 0.6028 0.9054
vt 0.6028 0.9054
vt 0.6028 0.9054
vt 0.6028 0.9054
vt 0.6028 0.9054
vt 0.6028 0.9054
vt 0.6028 0.9054
vt 0.6028 0.9054
vt 0.6028 0.9054
vt 0.6028 0.9054
vt 0.6028 0.9054
vt 0.6028 0.9054
vt 0.6028 0.9054
vt 0.6028 0.9054
vt 0.6028 0.9054
vt 0.6028 0.9054
vt 0.6028 0.9054
vt 0.6028 0.9054
vt 0.6028 0.9054
vt 0.6028 0.9054
vt 0.6028 0.9054
vt 0.6028 0.9054
vt 0.6028 0.9054
vt 0.6028 0.9054
vt 0.6028 0.9054
vt 0.6028 0.9054
vt 0.6028 0.9054
vt 0.6028 0.9054
vt 0.6028 0.9054
vt 0.6028 0.9054
vt 0.6028 0.9054
vt 0.6028 0.9054
vt 0.6028 0.9054
vt 0.6028 0.9054
vt 0.6028 0.9054
vt 0.6028 0.9054
vt 0.6028 0.9054
vt 0.6028 0.9054
vt 0.6028 0.9054
vt 0.6028 0.9054
vt 0.6028 0.9054
vt 0.6028 0.9054
vt 0.6028 0.9054
vt 0.6028 0.5333
vt 0.6028 0.9054
vt 0.6028 0.9054
vt 0.6028 0.9054
vt 0.6028 0.9054
vt 0.6028 0.5333
vt 0.6028 0.9054
vt 0.6028 0.9054
vt 0.6028 0.9054
vt 0.6028 0.9054
vt 0.6028 0.9054
vt 0.6028 0.9054
vt 0.6028 0.9054
vt 0.6028 0.9054
vt 0.6028 0.9054
vt 0.6028 0.9054
vt 0.6028 0.9054
vt 0.6028 0.9054
vt 0.6028 0.9054
vt 0.6028 0.9054
vt 0.6028 0.9054
vt 0.6028 0.9054
vt 0.6028 0.9054
vt 0.6028 0.9054
vt 0.6028 0.9054
vt 0.6028 0.9054
vt 0.6028 0.9054
vt 0.6028 0.9054
vt 0.6028 0.9054
vt 0.6028 0.9054
vt 0.6028 0.9054
vt 0.6028 0.9054
vt 0.6028 0.9054
vt 0.6028 0.9054
vt 0.6028 0.9054
vt 0.6028 0.9054
vt 0.6028 0.9054
vt 0.6028 0.9054
vt 0.6028 0.9054
vt 0.6028 0.9054
vt 0.6028 0.9054
vt 0.6028 0.9054
vt 0.6028 0.9054
vt 0.6028 0.9054
vt 0.6028 0.9054
vt 0.6028 0.9054
vt 0.6028 0.9054
vt 0.6028 0.9054
vt 0.6028 0.9054
vt 0.6028 0.9054
vt 0.6028 0.9054
vt 0.6028 0.9054
vt 0.6028 0.9054
vt 0.6028 0.9054
vt 0.6028 0.9054
vt 0.6028 0.9054
vt 0.6028 0.9054
vt 0.6028 0.9054
vt 0.6028 0.9054
vt 0.6028 0.9054
vt 0.6028 0.9054
vt 0.6028 0.9054
vt 0.6028 0.9054
vt 0.6028 0.9054
vt 0.6028 0.9054
vt 0.6028 0.9054
vt 0.6028 0.9054
vt 0.6028 0.9054
vt 0.6028 0.9054
vt 0.6028 0.9054
vt 0.6028 0.9054
vt 0.6028 0.9054
vt 0.6028 0.9054
vt 0.6028 0.9054
vt 0.6028 0.9054
vt 0.6028 0.9054
vt 0.6028 0.9054
vt 0.6028 0.9054
vt 0.6028 0.9054
vt 0.6028 0.9054
vt 0.6028 0.9054
vt 0.6028 0.9054
vt 0.6028 0.9054
vt 0.6028 0.9054
vt 0.6028 0.9054
vt 0.6028 0.9054
vt 0.6028 0.9054
vt 0.6028 0.9054
vt 0.6028 0.9054
vt 0.6028 0.9054
vt 0.6028 0.9054
vt 0.6028 0.9054
vt 0.6028 0.9054
vt 0.6028 0.9054
vt 0.6028 0.9054
vt 0.6028 0.9054
vt 0.6028 0.9054
vt 0.6028 0.9054
vt 0.6028 0.9054
vt 0.6028 0.9054
vt 0.6028 0.9054
vt 0.6028 0.9054
vt 0.6028 0.9054
vt 0.6028 0.9054
vt 0.6028 0.9054
vt 0.6028 0.9054
vt 0.6028 0.9054
vt 0.6028 0.9054
vt 0.6028 0.9054
vt 0.6028 0.9054
vt 0.6028 0.9054
vt 0.6028 0.9054
vt 0.6028 0.9054
vt 0.6028 0.9054
vt 0.6028 0.9054
vt 0.6028 0.9054
vt 0.6028 0.9054
vt 0.6028 0.9054
vt 0.6028 0.9054
vt 0.6028 0.9054
vt 0.9323 0.9824
vt 0.7845 0.8866
vt 0.4907 0.9824
vt 0.0465 0.9824
vt 0.3508 0.9092
vt 0.7756 0.8774
vt 0.0310 0.9824
vt 0.1762 0.8795
vt 0.1377 0.2133
vt 0.1404 0.4413
vt 0.1619 0.2201
vt 0.1432 0.4155
vt 0.1425 0.2725
vt 0.1351 0.1459
vt 0.1619 0.2789
vt 0.1854 0.2208
vt 0.1971 0.2783
vt 0.1877 0.0483
vt 0.1820 0.1633
vt 0.1673 0.1600
vt 0.2308 0.3766
vt 0.2231 0.3725
vt 0.1919 0.2200
vt 0.2019 0.2772
vt 0.2619 0.3348
vt 0.1907 0.1648
vt 0.2166 0.2174
vt 0.2053 0.0797
vt 0.2309 0.2712
vt 0.2619 0.3348
vt 0.2055 0.1672
vt 0.2166 0.2174
vt 0.2232 0.0729
vt 0.1401 0.2817
vt 0.1493 0.4307
vt 0.1432 0.4155
vt 0.1404 0.4138
vt 0.1307 0.0331
vt 0.1307 0.0331
vt 0.1459 0.2808
vt 0.1459 0.2808
vt 0.1410 0.2211
vt 0.1410 0.2211
vt 0.1404 0.4413
vt 0.1102 0.0381
vt 0.1402 0.3039
vt 0.1343 0.2216
vt 0.1246 0.1394
vt 0.1425 0.2725
vt 0.1391 0.2717
vt 0.1352 0.2305
vt 0.1408 0.1613
vt 0.1408 0.1613
vt 0.1560 0.7677
vt 0.2123 0.7709
vt 0.1560 0.7677
vt 0.1334 0.2133
vt 0.1377 0.2133
vt 0.1280 0.1629
vt 0.3528 0.7789
vt 0.3513 0.8765
vt 0.3528 0.7789
vt 0.1351 0.1459
vt 0.1293 0.1749
vt 0.1780 0.9051
vt 0.1780 0.9051
vt 0.3508 0.9092
vt 0.3513 0.8765
vt 0.1778 0.7565
vt 0.3592 0.7620
vt 0.3579 0.8933
vt 0.3592 0.7620
vt 0.1762 0.8795
vt 0.3579 0.8933
vt 0.7763 0.7635
vt 0.6107 0.7731
vt 0.6201 0.8822
vt 0.6107 0.7731
vt 0.6201 0.8822
vt 0.7845 0.8866
vt 0.7653 0.7601
vt 0.5939 0.7680
vt 0.6085 0.8792
vt 0.7756 0.8774
vt 0.6085 0.8792
vt 0.5939 0.7680
vt 0.2366 0.1139
vt 0.2055 0.1672
vt 0.2309 0.2712
vt 0.4882 0.9824
vt 0.4727 0.9824
vt 0.4752 0.9824
vt 0.9168 0.9824
vn -1.0000 0.0000 0.0000
vn 0.0000 0.0000 -1.0000
vn 1.0000 0.0000 0.0000
vn 0.0000 -0.0000 1.0000
vn 0.0000 -1.0000 -0.0000
vn 0.0000 1.0000 0.0000
vn -0.2836 0.3214 -0.9035
vn -0.0401 0.7060 0.7071
vn -0.8997 0.3286 0.2874
vn 0.9066 0.3049 -0.2919
vn -0.4758 0.8700 0.1295
vn -0.4597 0.8843 -0.0820
vn -0.4384 0.8988 -0.0000
vn 0.2365 -0.9424 -0.2365
vn 0.2365 -0.9424 0.2365
vn 0.4658 0.8800 -0.0927
vn 0.4793 0.8687 0.1247
vn 0.4384 0.8988 0.0000
vn -0.1198 0.8763 -0.4666
vn 0.1194 0.8734 -0.4721
vn 0.0000 0.8988 -0.4384
vn 0.1466 0.8622 0.4850
vn -0.1179 0.8639 0.4897
vn -0.0000 0.8988 0.4384
vn -0.2904 -0.2790 -0.9153
vn -0.2942 -0.3057 0.9055
vn -0.9134 -0.2734 0.3016
vn 0.8971 -0.2982 -0.3260
vn 0.0248 0.9383 0.3448
vn -0.2365 -0.9424 0.2365
vn -0.2365 -0.9424 -0.2365
vn 0.0342 0.9524 -0.3028
vn -0.3012 0.9535 0.0133
vn 0.3293 0.9375 0.1123
vn 0.1943 0.9615 -0.1943
vn -0.1943 0.9615 -0.1943
vn 0.1943 0.9615 0.1943
vn -0.1943 0.9615 0.1943
vn 0.2488 -0.9360 -0.2488
vn 0.2488 -0.9360 0.2488
vn -0.2488 -0.9360 0.2488
vn -0.2488 -0.9360 -0.2488
vn 0.0659 0.9956 -0.0659
vn 0.0659 0.9956 0.0659
vn -0.0659 0.9956 0.0659
vn -0.0659 0.9956 -0.0659
vn 0.6536 0.3818 0.6536
vn 0.6536 0.3818 -0.6536
vn -0.6536 0.3818 -0.6536
vn -0.6536 0.3818 0.6536
vn 0.0000 -0.1434 -0.9897
vn -0.4128 0.4116 -0.8125
vn 0.0020 0.9463 -0.3233
vn 0.7093 0.6248 -0.3263
vn -0.3602 0.9219 0.1428
vn -0.3267 0.6744 0.6621
vn 0.0126 0.9269 0.3750
vn 0.7501 0.5500 0.3672
vn 0.3756 0.9208 0.1053
vn 0.4087 0.5061 -0.7595
vn 0.9869 0.1614 0.0000
vn 0.0000 0.3477 0.9376
vn 0.9954 0.0957 0.0000
vn -1.0000 -0.0040 0.0000
vn -0.7638 0.4862 0.4245
vn 0.3806 0.4568 0.8040
vn -0.3288 0.9423 0.0626
vn 0.0000 0.0155 -0.9999
vn 0.0126 0.9522 -0.3051
vn -0.7663 0.5764 -0.2838
vn 0.2755 0.2486 0.9286
vn 0.6115 0.5520 0.5668
vn 0.0835 0.9209 0.3806
vn 0.0000 -0.0462 0.9989
vn -0.3197 0.2976 0.8996
vn -0.7070 -0.0105 0.7071
vn -0.5965 0.5553 0.5796
vn 0.3333 0.9366 0.1077
vn -0.9959 0.0905 0.0000
vn 0.5321 -0.6096 0.5876
vn 0.3093 -0.3544 0.8825
vn -0.5664 -0.5886 0.5769
vn 0.5764 0.5903 -0.5651
vn 0.5784 0.5650 0.5884
vn 0.5740 -0.6033 0.5536
vn 0.9021 0.2988 0.3112
vn 0.5807 -0.5495 -0.6007
vn 0.9121 -0.3020 0.2772
vn -0.5400 0.6120 -0.5778
vn 0.6179 0.5353 -0.5759
vn 0.5573 -0.5908 -0.5835
vn 0.3172 0.2747 -0.9077
vn 0.3114 -0.3301 -0.8911
vn -0.5912 -0.5680 -0.5726
vn -0.5795 0.6135 0.5365
vn -0.5730 0.5258 -0.6286
vn -0.5840 -0.6133 -0.5319
vn -0.5734 -0.5502 0.6070
vn -0.8901 -0.3444 -0.2987
vn -0.9143 0.2598 -0.3106
s 1
f 1/1/1 2/2/1 3/3/1
f 4/4/2 5/5/2 2/6/2
f 6/7/3 7/8/3 5/9/3
f 8/10/4 3/11/4 7/12/4
f 5/13/5 3/14/5 2/15/5
f 4/16/6 8/17/6 6/18/6
f 9/19/1 10/20/1 11/21/1
f 12/22/2 13/23/2 10/24/2
f 14/25/3 15/26/3 13/27/3
f 16/28/4 11/29/4 15/30/4
f 13/31/5 11/32/5 10/33/5
f 12/34/6 16/35/6 14/36/6
f 17/37/1 18/38/1 19/39/1
f 20/40/2 21/41/2 18/42/2
f 22/43/3 23/44/3 21/45/3
f 24/46/4 19/47/4 23/48/4
f 21/49/5 19/50/5 18/51/5
f 20/52/6 24/53/6 22/54/6
f 25/55/1 26/56/1 27/57/1
f 28/58/2 29/59/2 26/60/2
f 30/61/3 31/62/3 29/63/3
f 32/64/4 27/65/4 31/66/4
f 29/67/5 27/68/5 26/69/5
f 28/70/6 32/71/6 30/72/6
f 33/73/3 34/74/3 35/75/3
f 36/76/4 37/77/4 33/78/4
f 38/79/1 39/80/1 36/81/1
f 40/82/4 35/83/4 38/84/4
f 41/85/6 38/86/6 36/87/6
f 40/88/5 37/77/5 39/89/5
f 42/90/1 43/91/1 44/92/1
f 45/93/2 46/94/2 43/95/2
f 47/96/3 48/97/3 46/98/3
f 49/99/4 44/100/4 48/101/4
f 46/102/5 44/100/5 43/103/5
f 45/104/6 49/105/6 47/106/6
f 50/107/1 51/108/1 52/109/1
f 53/110/2 54/111/2 51/112/2
f 55/113/3 56/114/3 54/115/3
f 57/116/4 52/117/4 56/118/4
f 54/119/5 52/117/5 51/112/5
f 53/110/6 57/120/6 55/121/6
f 58/122/1 59/123/1 60/124/1
f 61/125/2 62/126/2 59/127/2
f 63/128/3 64/129/3 62/130/3
f 65/131/4 60/132/4 64/133/4
f 62/134/5 60/132/5 59/127/5
f 61/125/6 65/135/6 63/136/6
f 66/137/1 67/138/1 68/139/1
f 69/140/2 70/141/2 67/142/2
f 71/143/3 72/144/3 70/145/3
f 73/146/4 68/147/4 72/148/4
f 70/149/5 68/147/5 67/142/5
f 69/140/6 73/150/6 71/151/6
f 74/152/4 75/153/4 76/154/4
f 77/155/1 78/156/1 75/157/1
f 79/158/2 80/159/2 78/160/2
f 81/161/3 76/162/3 80/163/3
f 78/164/5 76/162/5 75/157/5
f 77/155/6 81/165/6 79/166/6
f 82/167/4 83/168/4 84/169/4
f 85/170/1 86/171/1 83/172/1
f 87/173/2 88/174/2 86/175/2
f 89/176/3 84/177/3 88/178/3
f 86/179/5 84/177/5 83/172/5
f 85/170/6 89/180/6 87/181/6
f 90/182/4 91/183/4 92/184/4
f 93/185/1 94/186/1 91/187/1
f 95/188/2 96/189/2 94/190/2
f 97/191/3 92/192/3 96/193/3
f 94/194/5 92/192/5 91/187/5
f 95/195/6 90/196/6 97/197/6
f 98/198/4 99/199/4 100/200/4
f 101/201/1 102/202/1 99/203/1
f 103/204/2 104/205/2 102/206/2
f 105/207/3 100/208/3 104/209/3
f 102/210/5 100/208/5 99/203/5
f 103/211/6 98/212/6 105/213/6
f 106/214/4 107/215/4 108/216/4
f 109/217/1 110/218/1 107/219/1
f 111/220/2 112/221/2 110/222/2
f 113/223/3 108/224/3 112/225/3
f 110/226/5 108/224/5 107/219/5
f 111/227/6 106/228/6 113/229/6
f 114/230/4 115/231/4 116/232/4
f 117/233/1 118/234/1 115/235/1
f 119/236/2 120/237/2 118/238/2
f 121/239/3 116/240/3 120/241/3
f 118/242/5 116/240/5 115/235/5
f 119/243/6 114/244/6 121/245/6
f 122/246/4 123/247/4 124/248/4
f 123/249/6 125/250/6 124/251/6
f 126/252/2 127/253/2 125/254/2
f 128/255/5 122/256/5 127/257/5
f 125/258/1 122/256/1 124/251/1
f 123/249/3 128/259/3 126/260/3
f 129/261/4 130/262/4 131/263/4
f 130/264/6 132/265/6 131/266/6
f 133/267/2 134/268/2 132/269/2
f 135/270/5 129/271/5 134/272/5
f 132/273/1 129/271/1 131/266/1
f 130/264/3 135/274/3 133/275/3
f 136/276/4 137/277/4 138/278/4
f 139/279/6 140/280/6 137/281/6
f 141/282/2 142/283/2 140/284/2
f 143/285/5 138/286/5 142/287/5
f 140/288/1 138/286/1 137/281/1
f 139/279/3 143/289/3 141/290/3
f 144/291/4 145/292/4 146/293/4
f 147/294/6 148/295/6 145/296/6
f 149/297/2 150/298/2 148/299/2
f 151/300/5 146/301/5 150/302/5
f 148/303/1 146/301/1 145/296/1
f 147/294/3 151/304/3 149/305/3
f 152/306/1 153/307/1 154/308/1
f 155/309/2 156/310/2 153/311/2
f 157/312/3 158/313/3 156/314/3
f 159/315/4 154/316/4 158/317/4
f 156/318/5 154/316/5 153/311/5
f 155/309/6 159/319/6 157/320/6
f 160/321/1 161/322/1 162/323/1
f 163/324/2 164/325/2 161/326/2
f 165/327/3 166/328/3 164/329/3
f 167/330/4 162/331/4 166/332/4
f 164/333/5 162/331/5 161/326/5
f 163/324/6 167/334/6 165/335/6
f 168/336/1 169/337/1 170/338/1
f 171/339/2 172/340/2 169/341/2
f 173/342/3 174/343/3 172/344/3
f 175/345/4 170/346/4 174/347/4
f 172/348/5 170/346/5 169/341/5
f 171/339/6 175/349/6 173/350/6
f 176/351/1 177/352/1 178/353/1
f 179/354/2 180/355/2 177/356/2
f 181/357/3 182/358/3 180/359/3
f 183/360/4 178/361/4 182/362/4
f 180/363/5 178/361/5 177/356/5
f 179/354/6 183/364/6 181/365/6
f 184/366/1 185/367/1 186/368/1
f 187/369/2 188/370/2 185/371/2
f 189/372/3 190/373/3 188/374/3
f 191/375/4 186/376/4 190/377/4
f 188/378/5 186/376/5 185/371/5
f 187/369/6 191/379/6 189/380/6
f 192/381/1 193/382/1 194/383/1
f 195/384/2 196/385/2 193/386/2
f 197/387/3 198/388/3 196/389/3
f 199/390/4 194/391/4 198/392/4
f 196/393/5 194/391/5 193/386/5
f 195/384/6 199/394/6 197/395/6
f 200/396/1 201/397/1 202/398/1
f 203/399/2 204/400/2 201/401/2
f 205/402/3 206/403/3 204/404/3
f 207/405/4 202/406/4 206/407/4
f 204/408/5 202/406/5 201/401/5
f 203/399/6 207/409/6 205/410/6
f 208/411/1 209/412/1 210/413/1
f 211/414/2 212/415/2 209/416/2
f 213/417/3 214/418/3 212/419/3
f 215/420/4 210/421/4 214/422/4
f 212/423/5 210/421/5 209/416/5
f 211/414/6 215/424/6 213/425/6
f 216/426/1 217/427/1 218/428/1
f 219/429/2 220/430/2 217/431/2
f 221/432/3 222/433/3 220/434/3
f 223/435/4 218/436/4 222/437/4
f 220/438/5 218/436/5 217/431/5
f 219/429/6 223/439/6 221/440/6
f 224/441/1 225/442/1 226/443/1
f 227/444/2 228/445/2 225/446/2
f 229/447/3 230/448/3 228/449/3
f 231/450/4 226/451/4 230/452/4
f 228/453/5 226/451/5 225/446/5
f 227/444/6 231/454/6 229/455/6
f 232/456/1 233/457/1 234/458/1
f 235/459/2 236/460/2 233/461/2
f 237/462/3 238/463/3 236/464/3
f 239/465/4 234/466/4 238/467/4
f 236/468/5 234/466/5 233/461/5
f 235/459/6 239/469/6 237/470/6
f 240/471/1 241/472/1 242/473/1
f 243/474/2 244/475/2 241/476/2
f 245/477/3 246/478/3 244/479/3
f 247/480/4 242/481/4 246/482/4
f 244/483/5 242/481/5 241/476/5
f 243/474/6 247/484/6 245/485/6
f 248/486/1 249/487/1 250/488/1
f 251/489/2 252/490/2 249/491/2
f 253/492/3 254/493/3 252/494/3
f 255/495/4 250/496/4 254/497/4
f 252/498/5 250/496/5 249/491/5
f 251/489/6 255/499/6 253/500/6
f 256/501/1 257/502/1 258/503/1
f 259/504/2 260/505/2 257/506/2
f 261/507/3 262/508/3 260/509/3
f 263/510/4 258/511/4 262/512/4
f 260/513/5 258/511/5 257/506/5
f 259/504/6 263/514/6 261/515/6
f 264/516/1 265/517/1 266/518/1
f 267/519/2 268/520/2 265/521/2
f 269/522/3 270/523/3 268/524/3
f 271/525/4 266/526/4 270/527/4
f 268/528/5 266/526/5 265/521/5
f 267/519/6 271/529/6 269/530/6
f 272/531/1 273/532/1 274/533/1
f 275/534/2 276/535/2 273/536/2
f 277/537/3 278/538/3 276/539/3
f 279/540/4 274/541/4 278/542/4
f 276/543/5 274/541/5 273/536/5
f 275/534/6 279/544/6 277/545/6
f 280/546/1 281/547/1 282/548/1
f 283/549/2 284/550/2 281/551/2
f 285/552/3 286/553/3 284/554/3
f 287/555/4 282/556/4 286/557/4
f 284/558/5 282/556/5 281/551/5
f 283/549/6 287/559/6 285/560/6
f 288/561/1 289/562/1 290/563/1
f 291/564/2 292/565/2 289/566/2
f 293/567/3 294/568/3 292/569/3
f 295/570/4 290/571/4 294/572/4
f 292/573/5 290/571/5 289/566/5
f 291/564/6 295/574/6 293/575/6
f 296/576/1 297/577/1 298/578/1
f 299/579/2 300/580/2 297/581/2
f 301/582/3 302/583/3 300/584/3
f 303/585/4 298/586/4 302/587/4
f 300/588/5 298/586/5 297/581/5
f 299/579/6 303/589/6 301/590/6
f 304/591/1 305/592/1 306/593/1
f 307/594/2 308/595/2 305/596/2
f 309/597/3 310/598/3 308/599/3
f 311/600/4 306/601/4 310/602/4
f 308/603/5 306/601/5 305/596/5
f 307/594/6 311/604/6 309/605/6
f 386/606/7 313/607/2 314/608/2
f 314/609/6 35/610/6 38/86/6
f 315/611/6 36/87/6 33/612/6
f 313/613/6 33/612/6 35/610/6
f 316/614/5 312/615/5 317/616/5
f 368/617/8 41/618/4 315/619/4
f 393/620/9 314/621/1 41/622/1
f 377/623/10 315/624/3 313/625/3
f 358/626/11 360/627/12 320/628/13
f 322/629/5 318/630/5 319/631/5
f 321/632/5 319/631/5 312/615/5
f 323/633/5 317/616/5 318/634/5
f 324/635/14 331/636/15 325/637/15
f 348/638/16 352/639/17 324/635/18
f 350/640/19 357/641/20 326/642/21
f 363/643/22 345/644/23 325/645/24
f 1/1/1 4/646/1 2/2/1
f 4/4/2 6/647/2 5/5/2
f 6/7/3 8/648/3 7/8/3
f 8/10/4 1/649/4 3/11/4
f 5/13/5 7/650/5 3/14/5
f 4/16/6 1/651/6 8/17/6
f 9/19/1 12/652/1 10/20/1
f 12/22/2 14/653/2 13/23/2
f 14/25/3 16/654/3 15/26/3
f 16/28/4 9/655/4 11/29/4
f 13/31/5 15/656/5 11/32/5
f 12/34/6 9/657/6 16/35/6
f 17/37/1 20/658/1 18/38/1
f 20/40/2 22/659/2 21/41/2
f 22/43/3 24/660/3 23/44/3
f 24/46/4 17/661/4 19/47/4
f 21/49/5 23/662/5 19/50/5
f 20/52/6 17/663/6 24/53/6
f 25/55/1 28/664/1 26/56/1
f 28/58/2 30/665/2 29/59/2
f 30/61/3 32/666/3 31/62/3
f 32/64/4 25/667/4 27/65/4
f 29/67/5 31/668/5 27/68/5
f 28/70/6 25/669/6 32/71/6
f 33/73/3 37/670/3 34/74/3
f 36/76/4 39/671/4 37/77/4
f 38/79/1 40/672/1 39/80/1
f 40/82/4 34/673/4 35/83/4
f 41/85/6 314/609/6 38/86/6
f 40/88/5 34/673/5 37/77/5
f 42/90/1 45/674/1 43/91/1
f 45/93/2 47/675/2 46/94/2
f 47/96/3 49/676/3 48/97/3
f 49/99/4 42/677/4 44/100/4
f 46/102/5 48/678/5 44/100/5
f 45/104/6 42/677/6 49/105/6
f 50/107/1 53/679/1 51/108/1
f 53/110/2 55/680/2 54/111/2
f 55/113/3 57/681/3 56/114/3
f 57/116/4 50/682/4 52/117/4
f 54/119/5 56/683/5 52/117/5
f 53/110/6 50/682/6 57/120/6
f 58/122/1 61/684/1 59/123/1
f 61/125/2 63/685/2 62/126/2
f 63/128/3 65/686/3 64/129/3
f 65/131/4 58/687/4 60/132/4
f 62/134/5 64/688/5 60/132/5
f 61/125/6 58/687/6 65/135/6
f 66/137/1 69/689/1 67/138/1
f 69/140/2 71/690/2 70/141/2
f 71/143/3 73/691/3 72/144/3
f 73/146/4 66/692/4 68/147/4
f 70/149/5 72/693/5 68/147/5
f 69/140/6 66/692/6 73/150/6
f 74/152/4 77/694/4 75/153/4
f 77/155/1 79/695/1 78/156/1
f 79/158/2 81/696/2 80/159/2
f 81/161/3 74/697/3 76/162/3
f 78/164/5 80/698/5 76/162/5
f 77/155/6 74/697/6 81/165/6
f 82/167/4 85/699/4 83/168/4
f 85/170/1 87/700/1 86/171/1
f 87/173/2 89/701/2 88/174/2
f 89/176/3 82/702/3 84/177/3
f 86/179/5 88/703/5 84/177/5
f 85/170/6 82/702/6 89/180/6
f 90/182/4 93/704/4 91/183/4
f 93/185/1 95/705/1 94/186/1
f 95/188/2 97/706/2 96/189/2
f 97/191/3 90/196/3 92/192/3
f 94/194/5 96/707/5 92/192/5
f 95/195/6 93/185/6 90/196/6
f 98/198/4 101/708/4 99/199/4
f 101/201/1 103/709/1 102/202/1
f 103/204/2 105/710/2 104/205/2
f 105/207/3 98/212/3 100/208/3
f 102/210/5 104/711/5 100/208/5
f 103/211/6 101/201/6 98/212/6
f 106/214/4 109/712/4 107/215/4
f 109/217/1 111/713/1 110/218/1
f 111/220/2 113/714/2 112/221/2
f 113/223/3 106/228/3 108/224/3
f 110/226/5 112/715/5 108/224/5
f 111/227/6 109/217/6 106/228/6
f 114/230/4 117/716/4 115/231/4
f 117/233/1 119/717/1 118/234/1
f 119/236/2 121/718/2 120/237/2
f 121/239/3 114/244/3 116/240/3
f 118/242/5 120/719/5 116/240/5
f 119/243/6 117/233/6 114/244/6
f 122/246/4 327/720/4 123/247/4
f 123/249/6 126/721/6 125/250/6
f 126/252/2 128/722/2 127/253/2
f 128/255/5 327/723/5 122/256/5
f 125/258/1 127/724/1 122/256/1
f 123/249/3 327/723/3 128/259/3
f 129/261/4 328/725/4 130/262/4
f 130/264/6 133/726/6 132/265/6
f 133/267/2 135/727/2 134/268/2
f 135/270/5 328/728/5 129/271/5
f 132/273/1 134/729/1 129/271/1
f 130/264/3 328/728/3 135/274/3
f 136/276/4 139/730/4 137/277/4
f 139/279/6 141/731/6 140/280/6
f 141/282/2 143/732/2 142/283/2
f 143/285/5 136/733/5 138/286/5
f 140/288/1 142/734/1 138/286/1
f 139/279/3 136/733/3 143/289/3
f 144/291/4 147/735/4 145/292/4
f 147/294/6 149/736/6 148/295/6
f 149/297/2 151/737/2 150/298/2
f 151/300/5 144/738/5 146/301/5
f 148/303/1 150/739/1 146/301/1
f 147/294/3 144/738/3 151/304/3
f 152/306/1 155/740/1 153/307/1
f 155/309/2 157/741/2 156/310/2
f 157/312/3 159/742/3 158/313/3
f 159/315/4 152/743/4 154/316/4
f 156/318/5 158/744/5 154/316/5
f 155/309/6 152/743/6 159/319/6
f 160/321/1 163/745/1 161/322/1
f 163/324/2 165/746/2 164/325/2
f 165/327/3 167/747/3 166/328/3
f 167/330/4 160/748/4 162/331/4
f 164/333/5 166/749/5 162/331/5
f 163/324/6 160/748/6 167/334/6
f 168/336/1 171/750/1 169/337/1
f 171/339/2 173/751/2 172/340/2
f 173/342/3 175/752/3 174/343/3
f 175/345/4 168/753/4 170/346/4
f 172/348/5 174/754/5 170/346/5
f 171/339/6 168/753/6 175/349/6
f 176/351/1 179/755/1 177/352/1
f 179/354/2 181/756/2 180/355/2
f 181/357/3 183/757/3 182/358/3
f 183/360/4 176/758/4 178/361/4
f 180/363/5 182/759/5 178/361/5
f 179/354/6 176/758/6 183/364/6
f 184/366/1 187/760/1 185/367/1
f 187/369/2 189/761/2 188/370/2
f 189/372/3 191/762/3 190/373/3
f 191/375/4 184/763/4 186/376/4
f 188/378/5 190/764/5 186/376/5
f 187/369/6 184/763/6 191/379/6
f 192/381/1 195/765/1 193/382/1
f 195/384/2 197/766/2 196/385/2
f 197/387/3 199/767/3 198/388/3
f 199/390/4 192/768/4 194/391/4
f 196/393/5 198/769/5 194/391/5
f 195/384/6 192/768/6 199/394/6
f 200/396/1 203/770/1 201/397/1
f 203/399/2 205/771/2 204/400/2
f 205/402/3 207/772/3 206/403/3
f 207/405/4 200/773/4 202/406/4
f 204/408/5 206/774/5 202/406/5
f 203/399/6 200/773/6 207/409/6
f 208/411/1 211/775/1 209/412/1
f 211/414/2 213/776/2 212/415/2
f 213/417/3 215/777/3 214/418/3
f 215/420/4 208/778/4 210/421/4
f 212/423/5 214/779/5 210/421/5
f 211/414/6 208/778/6 215/424/6
f 216/426/1 219/780/1 217/427/1
f 219/429/2 221/781/2 220/430/2
f 221/432/3 223/782/3 222/433/3
f 223/435/4 216/783/4 218/436/4
f 220/438/5 222/784/5 218/436/5
f 219/429/6 216/783/6 223/439/6
f 224/441/1 227/785/1 225/442/1
f 227/444/2 229/786/2 228/445/2
f 229/447/3 231/787/3 230/448/3
f 231/450/4 224/788/4 226/451/4
f 228/453/5 230/789/5 226/451/5
f 227/444/6 224/788/6 231/454/6
f 232/456/1 235/790/1 233/457/1
f 235/459/2 237/791/2 236/460/2
f 237/462/3 239/792/3 238/463/3
f 239/465/4 232/793/4 234/466/4
f 236/468/5 238/794/5 234/466/5
f 235/459/6 232/793/6 239/469/6
f 240/471/1 243/795/1 241/472/1
f 243/474/2 245/796/2 244/475/2
f 245/477/3 247/797/3 246/478/3
f 247/480/4 240/798/4 242/481/4
f 244/483/5 246/799/5 242/481/5
f 243/474/6 240/798/6 247/484/6
f 248/486/1 251/800/1 249/487/1
f 251/489/2 253/801/2 252/490/2
f 253/492/3 255/802/3 254/493/3
f 255/495/4 248/803/4 250/496/4
f 252/498/5 254/804/5 250/496/5
f 251/489/6 248/803/6 255/499/6
f 256/501/1 259/805/1 257/502/1
f 259/504/2 261/806/2 260/505/2
f 261/507/3 263/807/3 262/508/3
f 263/510/4 256/808/4 258/511/4
f 260/513/5 262/809/5 258/511/5
f 259/504/6 256/808/6 263/514/6
f 264/516/1 267/810/1 265/517/1
f 267/519/2 269/811/2 268/520/2
f 269/522/3 271/812/3 270/523/3
f 271/525/4 264/813/4 266/526/4
f 268/528/5 270/814/5 266/526/5
f 267/519/6 264/813/6 271/529/6
f 272/531/1 275/815/1 273/532/1
f 275/534/2 277/816/2 276/535/2
f 277/537/3 279/817/3 278/538/3
f 279/540/4 272/818/4 274/541/4
f 276/543/5 278/819/5 274/541/5
f 275/534/6 272/818/6 279/544/6
f 280/546/1 283/820/1 281/547/1
f 283/549/2 285/821/2 284/550/2
f 285/552/3 287/822/3 286/553/3
f 287/555/4 280/823/4 282/556/4
f 284/558/5 286/824/5 282/556/5
f 283/549/6 280/823/6 287/559/6
f 288/561/1 291/825/1 289/562/1
f 291/564/2 293/826/2 292/565/2
f 293/567/3 295/827/3 294/568/3
f 295/570/4 288/828/4 290/571/4
f 292/573/5 294/829/5 290/571/5
f 291/564/6 288/828/6 295/574/6
f 296/576/1 299/830/1 297/577/1
f 299/579/2 301/831/2 300/580/2
f 301/582/3 303/832/3 302/583/3
f 303/585/4 296/833/4 298/586/4
f 300/588/5 302/834/5 298/586/5
f 299/579/6 296/833/6 303/589/6
f 304/591/1 307/835/1 305/592/1
f 307/594/2 309/836/2 308/595/2
f 309/597/3 311/837/3 310/598/3
f 311/600/4 304/838/4 306/601/4
f 308/603/5 310/839/5 306/601/5
f 307/594/6 304/838/6 311/604/6
f 319/840/2 386/606/7 388/841/25
f 314/609/6 313/613/6 35/610/6
f 315/611/6 41/85/6 36/87/6
f 313/613/6 315/611/6 33/612/6
f 360/627/5 358/626/5 312/615/5
f 318/842/4 317/843/4 366/844/26
f 314/621/1 393/620/9 396/845/27
f 318/846/3 377/623/10 380/847/28
f 326/642/13 356/848/29 320/628/13
f 348/638/5 323/849/5 318/630/5
f 357/641/5 350/640/5 319/631/5
f 345/644/5 363/643/5 317/616/5
f 320/628/30 332/850/31 326/642/31
f 325/637/18 347/851/32 324/635/18
f 324/635/21 353/852/33 326/642/21
f 320/628/24 362/853/34 325/645/24
f 330/854/35 336/855/36 334/856/35
f 331/857/37 333/858/38 329/859/38
f 325/645/15 329/859/30 320/628/30
f 326/642/31 330/854/14 324/635/14
f 334/856/39 338/860/40 335/861/40
f 333/858/41 339/862/42 336/855/42
f 329/859/38 336/855/36 332/850/36
f 331/636/37 334/856/35 335/861/37
f 337/863/43 342/864/44 338/860/44
f 340/865/45 343/866/46 339/862/46
f 335/867/40 340/865/41 333/858/41
f 336/855/42 337/863/39 334/856/39
f 342/864/47 341/868/48 401/869/6
f 343/866/49 344/870/50 401/871/6
f 338/872/44 344/870/45 340/865/45
f 339/862/46 341/868/43 337/863/43
f 322/629/51 350/640/19 354/873/52
f 347/851/32 346/874/53 349/875/54
f 348/638/16 347/851/32 349/876/54
f 346/877/55 345/644/23 349/878/56
f 351/879/57 352/639/17 354/880/58
f 355/881/59 357/641/20 359/882/60
f 323/849/61 348/638/16 349/883/54
f 345/644/23 323/633/62 349/884/56
f 352/639/17 322/629/63 354/885/58
f 321/632/64 358/626/11 359/886/65
f 363/643/22 362/853/34 364/887/66
f 353/852/33 351/879/67 354/888/52
f 350/640/19 353/852/33 354/889/52
f 357/641/20 321/632/68 359/890/60
f 361/891/69 360/627/12 364/892/70
f 365/893/71 372/894/8 376/895/72
f 358/626/11 356/848/29 359/896/65
f 356/848/29 355/881/73 359/897/65
f 316/614/74 363/643/22 364/898/66
f 370/899/75 373/900/76 371/901/77
f 372/894/8 371/901/77 373/900/76
f 362/853/34 361/891/78 364/902/66
f 360/627/12 316/614/79 364/903/70
f 374/904/80 376/895/72 372/894/8
f 369/905/81 375/906/82 366/844/26
f 366/844/26 373/900/76 367/907/76
f 370/899/75 372/894/8 368/617/8
f 365/893/71 374/904/80 369/905/81
f 381/908/83 383/909/84 382/910/85
f 379/911/86 381/908/83 377/623/10
f 380/847/28 381/908/83 384/912/87
f 382/910/85 384/912/87 381/908/83
f 380/847/28 382/910/85 378/913/88
f 378/913/88 383/909/84 379/911/86
f 390/914/89 391/915/90 389/916/91
f 387/917/92 389/916/91 391/915/90
f 388/841/25 389/916/91 385/918/93
f 389/916/91 392/919/94 390/914/89
f 386/606/7 392/919/94 388/841/25
f 387/917/92 390/914/89 386/606/7
f 397/920/95 399/921/96 398/922/97
f 393/620/9 399/921/96 397/920/95
f 393/620/9 400/923/98 396/845/27
f 398/922/97 400/923/98 397/920/95
f 394/924/99 400/923/98 398/922/97
f 394/924/99 399/921/96 395/925/100
f 344/870/50 342/926/47 401/927/6
f 341/868/48 343/866/49 401/928/6
f 314/608/2 312/929/2 387/917/92
f 387/917/92 386/606/7 314/608/2
f 312/929/2 385/918/93 387/917/92
f 315/619/4 318/842/4 370/899/75
f 370/899/75 368/617/8 315/619/4
f 318/842/4 367/907/76 370/899/75
f 41/622/1 317/930/1 395/925/100
f 395/925/100 393/620/9 41/622/1
f 317/930/1 394/924/99 395/925/100
f 313/625/3 319/931/3 379/911/86
f 379/911/86 377/623/10 313/625/3
f 319/931/3 378/913/88 379/911/86
f 361/891/69 320/628/13 360/627/12
f 356/848/29 358/626/11 320/628/13
f 324/635/14 330/854/14 331/636/15
f 351/879/57 324/635/18 352/639/17
f 347/851/32 348/638/16 324/635/18
f 355/881/59 326/642/21 357/641/20
f 353/852/33 350/640/19 326/642/21
f 346/877/55 325/645/24 345/644/23
f 362/853/34 363/643/22 325/645/24
f 385/918/93 312/929/2 388/841/25
f 319/840/2 313/607/2 386/606/7
f 388/841/25 312/929/2 319/840/2
f 312/615/5 316/614/5 360/627/5
f 358/626/5 321/632/5 312/615/5
f 41/618/4 368/617/8 365/893/71
f 41/618/4 365/893/71 317/843/4
f 366/844/26 367/907/76 318/842/4
f 317/843/4 365/893/71 369/905/81
f 369/905/81 366/844/26 317/843/4
f 394/924/99 317/930/1 312/932/1
f 312/932/1 314/621/1 396/845/27
f 396/845/27 394/924/99 312/932/1
f 378/913/88 319/931/3 318/846/3
f 318/846/3 315/624/3 377/623/10
f 380/847/28 378/913/88 318/846/3
f 326/642/13 355/881/73 356/848/29
f 318/630/5 322/629/5 352/639/5
f 352/639/5 348/638/5 318/630/5
f 319/631/5 321/632/5 357/641/5
f 350/640/5 322/629/5 319/631/5
f 317/616/5 323/633/5 345/644/5
f 363/643/5 316/614/5 317/616/5
f 320/628/30 329/859/30 332/850/31
f 325/637/18 346/874/53 347/851/32
f 324/635/21 351/879/67 353/852/33
f 320/628/24 361/891/78 362/853/34
f 330/854/35 332/850/36 336/855/36
f 331/857/37 335/867/37 333/858/38
f 325/645/15 331/857/15 329/859/30
f 326/642/31 332/850/31 330/854/14
f 334/856/39 337/863/39 338/860/40
f 333/858/41 340/865/41 339/862/42
f 329/859/38 333/858/38 336/855/36
f 331/636/37 330/854/35 334/856/35
f 337/863/43 341/868/43 342/864/44
f 340/865/45 344/870/45 343/866/46
f 335/867/40 338/872/40 340/865/41
f 336/855/42 339/862/42 337/863/39
f 338/872/44 342/926/44 344/870/45
f 339/862/46 343/866/46 341/868/43
f 365/893/71 368/617/8 372/894/8
f 370/899/75 367/907/76 373/900/76
f 372/894/8 373/900/76 374/904/80
f 375/906/82 374/904/80 373/900/76
f 369/905/81 374/904/80 375/906/82
f 366/844/26 375/906/82 373/900/76
f 370/899/75 371/901/77 372/894/8
f 365/893/71 376/895/72 374/904/80
f 379/911/86 383/909/84 381/908/83
f 380/847/28 377/623/10 381/908/83
f 380/847/28 384/912/87 382/910/85
f 378/913/88 382/910/85 383/909/84
f 387/917/92 385/918/93 389/916/91
f 388/841/25 392/919/94 389/916/91
f 386/606/7 390/914/89 392/919/94
f 387/917/92 391/915/90 390/914/89
f 393/620/9 395/925/100 399/921/96
f 393/620/9 397/920/95 400/923/98
f 394/924/99 396/845/27 400/923/98
f 394/924/99 398/922/97 399/921/96
