# Blender v2.78 (sub 0) OBJ File: 'Builder.blend'
# www.blender.org
o Cube
v -1.933861 3.667626 64.517311
v -1.933861 -37.147793 -63.482693
v -1.933861 -37.147816 64.517303
v -1.933861 3.667647 -63.482685
v 1.933861 -37.147793 -63.482693
v 1.933861 3.667647 -63.482685
v 1.933861 -37.147816 64.517303
v 1.933861 3.667626 64.517311
vt 0.9285 0.9641
vt 0.6305 0.0257
vt 0.6294 0.9637
vt 0.3667 0.6766
vt 0.3858 0.2860
vt 0.3667 0.2860
vt 0.9187 0.0222
vt 0.6405 0.9722
vt 0.6181 0.0293
vt 0.3667 0.6766
vt 0.3475 0.2860
vt 0.3667 0.2860
vt 0.1594 0.7370
vt 0.1486 0.0472
vt 0.1486 0.7370
vt 0.1379 0.7370
vt 0.1486 0.0472
vt 0.1486 0.7370
vt 0.9296 0.0261
vt 0.3858 0.6766
vt 0.9412 0.9650
vt 0.3475 0.6766
vt 0.1594 0.0472
vt 0.1379 0.0472
vn -1.0000 0.0000 0.0000
vn 0.0000 0.0000 -1.0000
vn 1.0000 0.0000 0.0000
vn 0.0000 -0.0000 1.0000
vn 0.0000 -1.0000 -0.0000
vn 0.0000 1.0000 0.0000
s 1
f 1/1/1 2/2/1 3/3/1
f 4/4/2 5/5/2 2/6/2
f 6/7/3 7/8/3 5/9/3
f 8/10/4 3/11/4 7/12/4
f 5/13/5 3/14/5 2/15/5
f 4/16/6 8/17/6 6/18/6
f 1/1/1 4/19/1 2/2/1
f 4/4/2 6/20/2 5/5/2
f 6/7/3 8/21/3 7/8/3
f 8/10/4 1/22/4 3/11/4
f 5/13/5 7/23/5 3/14/5
f 4/16/6 1/24/6 8/17/6
