# Blender v2.78 (sub 0) OBJ File: 'WhiteHouse.blend'
# www.blender.org
o Icosphere_Icosphere.001
v 4.114232 23.277412 0.110508
v 4.114232 27.464329 0.110508
v 4.146285 23.277412 0.385352
v 4.146285 27.464329 0.385352
v 0.174723 23.277412 0.569943
v 0.174723 27.464329 0.569943
v 0.206776 23.277412 0.844787
v 0.206776 27.464329 0.844787
v -1.797754 27.171299 0.491505
v -1.797754 22.984383 0.491505
v -1.829807 22.984383 0.216661
v -1.829807 27.171299 0.216661
v -3.580050 27.449821 1.259108
v -3.580050 23.262905 1.259108
v -3.612103 23.262905 0.984265
v -3.612103 27.449821 0.984265
v -2.977983 15.268230 -31.082001
v -2.977983 0.471672 -31.082001
v 11.818577 15.268230 -31.082003
v 11.818577 0.471672 -31.082003
v -2.977982 15.268230 30.998253
v -2.977982 0.471672 30.998253
v 11.818581 15.268230 30.998255
v 11.818581 0.471672 30.998255
v 11.818577 15.268230 8.309341
v 11.818579 0.471672 8.882914
v 11.818578 0.471672 -8.113298
v 11.818578 15.268230 -7.555189
v 14.754268 15.268230 -7.555191
v 14.754269 15.268230 8.309341
v 14.754267 0.471672 8.882914
v 14.754268 0.471672 -8.113297
v 21.243969 15.192219 6.788466
v 21.243969 1.263082 6.788466
v 15.991549 1.263082 6.788467
v 15.991549 15.192219 6.788467
v 16.718576 1.263082 5.529214
v 16.718576 15.192219 5.529214
v 18.172638 1.263082 5.529214
v 18.172638 15.192219 5.529214
v 18.899668 1.263082 6.788466
v 18.899668 15.192219 6.788466
v 18.172638 1.263082 8.047719
v 18.172638 15.192219 8.047719
v 16.718578 1.263082 8.047719
v 16.718578 15.192219 8.047719
v 21.970999 1.263082 5.529213
v 21.970999 15.192219 5.529213
v 23.425060 1.263082 5.529215
v 23.425060 15.192219 5.529215
v 24.152090 1.263082 6.788467
v 24.152090 15.192219 6.788467
v 23.425060 1.263082 8.047719
v 23.425060 15.192219 8.047719
v 21.971001 1.263082 8.047719
v 21.971001 15.192219 8.047719
v 21.243969 15.192219 -5.636507
v 21.243969 1.263082 -5.636507
v 15.991549 1.263082 -5.636507
v 15.991549 15.192219 -5.636507
v 16.718576 1.263082 -6.895761
v 16.718576 15.192219 -6.895761
v 18.172638 1.263082 -6.895761
v 18.172638 15.192219 -6.895761
v 18.899668 1.263082 -5.636509
v 18.899668 15.192219 -5.636509
v 18.172638 1.263082 -4.377256
v 18.172638 15.192219 -4.377256
v 16.718576 1.263082 -4.377254
v 16.718576 15.192219 -4.377254
v 21.970999 1.263082 -6.895761
v 21.970999 15.192219 -6.895761
v 23.425060 1.263082 -6.895761
v 23.425060 15.192219 -6.895761
v 24.152090 1.263082 -5.636509
v 24.152090 15.192219 -5.636509
v 23.425060 1.263082 -4.377256
v 23.425060 15.192219 -4.377256
v 21.970999 1.263082 -4.377254
v 21.970999 15.192219 -4.377254
v 4.278097 18.496368 -31.082001
v 4.147717 18.496368 30.998255
v 25.086636 15.150927 8.518373
v 10.239615 15.150927 8.518373
v 25.086636 14.982464 -8.573999
v 10.239616 14.982464 -8.573997
v 10.239616 22.226791 -0.701396
v 25.086636 22.226791 -0.193346
v -7.046590 15.192219 6.788468
v -7.046590 1.263082 6.788468
v -6.563341 1.263082 5.889238
v -6.563341 15.192219 5.889238
v -5.596840 1.263082 5.889238
v -5.596840 15.192219 5.889238
v -5.113591 1.263082 6.788467
v -5.113591 15.192219 6.788467
v -5.596840 1.263082 7.687698
v -5.596840 15.192219 7.687698
v -6.563341 1.263082 7.687698
v -6.563341 15.192219 7.687698
v -7.046591 15.192219 -6.931883
v -7.046591 1.263082 -6.931883
v -6.563343 1.263082 -7.831112
v -6.563343 15.192219 -7.831112
v -5.596841 1.263082 -7.831112
v -5.596841 15.192219 -7.831112
v -5.113592 1.263082 -6.931883
v -5.113592 15.192219 -6.931883
v -5.596840 1.263082 -6.032653
v -5.596840 15.192219 -6.032653
v -6.563342 1.263082 -6.032653
v -6.563342 15.192219 -6.032653
v -12.340165 15.192219 -5.840848
v -12.340165 1.263082 -5.840848
v -11.856916 1.263082 -6.740078
v -11.856916 15.192219 -6.740078
v -10.890415 1.263082 -6.740078
v -10.890415 15.192219 -6.740078
v -10.407166 1.263082 -5.840848
v -10.407166 15.192219 -5.840848
v -10.890415 1.263082 -4.941618
v -10.890415 15.192219 -4.941618
v -11.856916 1.263082 -4.941618
v -11.856916 15.192219 -4.941618
v -12.340165 15.192219 5.285261
v -12.340165 1.263082 5.285261
v -11.856916 1.263082 4.386031
v -11.856916 15.192219 4.386031
v -10.890415 1.263082 4.386031
v -10.890415 15.192219 4.386031
v -10.407166 1.263082 5.285261
v -10.407166 15.192219 5.285261
v -10.890415 1.263082 6.184491
v -10.890415 15.192219 6.184491
v -11.856916 1.263082 6.184489
v -11.856916 15.192219 6.184489
v -16.131037 15.192219 2.767391
v -16.131037 1.263082 2.767391
v -15.647788 1.263082 1.868160
v -15.647788 15.192219 1.868160
v -14.681285 1.263082 1.868160
v -14.681285 15.192219 1.868160
v -14.198039 1.263082 2.767391
v -14.198039 15.192219 2.767391
v -14.681285 1.263082 3.666620
v -14.681285 15.192219 3.666620
v -15.647788 1.263082 3.666620
v -15.647788 15.192219 3.666620
v -16.131037 15.192219 -3.408323
v -16.131037 1.263082 -3.408323
v -15.647787 1.263082 -4.307554
v -15.647787 15.192219 -4.307554
v -14.681284 1.263082 -4.307554
v -14.681284 15.192219 -4.307554
v -14.198040 1.263082 -3.408323
v -14.198040 15.192219 -3.408323
v -14.681284 1.263082 -2.509094
v -14.681284 15.192219 -2.509094
v -15.647787 1.263082 -2.509094
v -15.647787 15.192219 -2.509094
v -2.977982 0.471672 6.363939
v -2.977982 15.268230 6.408232
v -2.977983 0.471672 -7.853160
v -2.977983 15.268230 -6.209754
v -2.977982 8.297739 -6.983944
v -2.977982 7.997829 6.385132
v -2.977982 9.149399 6.391708
v -2.977983 9.473978 -6.799097
v -6.472307 9.473978 -6.799096
v -6.472308 8.297739 -6.983943
v -6.472306 9.267453 6.391709
v -6.472306 8.115885 6.385133
v -10.823700 9.473978 -5.610195
v -10.823701 8.297739 -5.761477
v -10.823701 9.378149 5.185429
v -10.823701 8.226581 5.180046
v -14.650555 9.473978 -3.665826
v -14.650557 8.297739 -3.762217
v -14.650557 9.260094 3.212639
v -14.650556 8.108526 3.209209
v -2.690077 14.429058 -8.819344
v -2.690076 14.129149 8.194441
v -3.181768 15.280718 8.202807
v -2.690077 15.605297 -8.584103
v -6.986045 15.605297 -8.584103
v -6.986045 14.429058 -8.819344
v -6.986044 15.398773 8.202807
v -6.986044 14.247204 8.194440
v -12.335705 15.605297 -7.071081
v -12.335705 14.429058 -7.263607
v -12.335705 15.509468 6.667668
v -12.335705 14.357901 6.660821
v -17.040489 15.605297 -4.596634
v -17.040491 14.429058 -4.719303
v -17.040491 15.391415 4.157053
v -17.040491 14.239845 4.152689
v -6.986044 15.424995 7.208639
v -6.986045 15.577902 -7.133919
v -3.152564 15.299997 7.205700
v -2.733416 15.576689 -7.603708
v -12.339992 15.504282 5.668468
v -12.335705 15.590477 -5.942179
v -10.006387 15.581856 -6.952470
v -16.193539 15.459988 3.471857
v -16.186867 15.594257 -3.872108
v -2.726871 16.564569 -7.584506
v -2.683532 16.593178 -8.564900
v -6.979501 16.565783 -7.114717
v -6.979501 16.593178 -8.564900
v -6.979500 16.386654 8.222010
v -3.175224 16.268599 8.222010
v -12.329161 16.578358 -5.922977
v -12.329162 16.593178 -7.051879
v -12.329161 16.497349 6.686872
v -17.033947 16.379295 4.176254
v -17.033947 16.593178 -4.577433
v -6.979500 16.412876 7.227840
v -3.146019 16.287878 7.224902
v -12.333447 16.492163 5.687672
v -9.999843 16.569736 -6.933269
v -16.186995 16.447868 3.491060
v -16.180325 16.582138 -3.852907
v 4.215122 17.676571 0.732365
v 4.215122 27.639427 0.732365
v 3.815732 17.676571 0.559963
v 3.815732 27.639427 0.559963
v 3.765341 17.676571 0.127878
v 3.765341 27.639427 0.127878
v 4.114341 17.676571 -0.131804
v 4.114341 27.639427 -0.131804
v 4.513732 17.676571 0.040599
v 4.513732 27.639427 0.040599
v 4.564123 17.676571 0.472684
v 4.564123 27.639427 0.472684
vt 0.0602 0.7344
vt 0.0602 0.7344
vt 0.0602 0.7344
vt 0.6017 0.3052
vt 0.3569 0.0420
vt 0.6041 0.0442
vt 0.2083 0.7739
vt 0.2565 0.7621
vt 0.2089 0.7575
vt 0.3358 0.3110
vt 0.0758 0.0365
vt 0.3358 0.0365
vt 0.1818 0.7865
vt 0.1152 0.7687
vt 0.0602 0.7740
vt 0.1428 0.7344
vt 0.2278 0.2835
vt 0.1091 0.0388
vt 0.2302 0.0226
vt 0.4693 0.2918
vt 0.1877 0.7693
vt 0.2161 0.7826
vt 0.2167 0.7734
vt 0.3373 0.7690
vt 0.2326 0.7731
vt 0.2354 0.7890
vt 0.5965 0.0355
vt 0.5965 0.3100
vt 0.3064 0.7660
vt 0.1796 0.8552
vt 0.1104 0.8260
vt 0.2146 0.8514
vt 0.2851 0.8382
vt 0.2950 0.8170
vt 0.3373 0.8062
vt 0.8713 0.6022
vt 0.5579 0.4004
vt 0.8713 0.4004
vt 0.2344 0.9127
vt 0.2171 0.9089
vt 0.2227 0.8993
vt 0.1022 0.8157
vt 0.1099 0.8381
vt 0.0832 0.8616
vt 0.7949 0.9684
vt 0.8819 0.6781
vt 0.9689 0.9684
vt 0.7135 0.7013
vt 0.4152 0.9701
vt 0.4047 0.7013
vt 0.8745 0.3740
vt 0.5660 0.5804
vt 0.5660 0.3740
vt 0.2287 0.7906
vt 0.2366 0.7344
vt 0.2576 0.7426
vt 0.2282 0.9166
vt 0.2342 0.8993
vt 0.1408 0.7421
vt 0.1722 0.7866
vt 0.1693 0.7920
vt 0.2370 0.9355
vt 0.2237 0.9231
vt 0.2198 0.9294
vt 0.2270 0.9409
vt 0.2310 0.9233
vt 0.2171 0.9353
vt 0.2338 0.9301
vt 0.2222 0.9125
vt 0.2401 0.9089
vt 0.2171 0.9243
vt 0.2304 0.9366
vt 0.2289 0.9012
vt 0.2345 0.9185
vt 0.2230 0.9185
vt 0.2227 0.9051
vt 0.2270 0.9186
vt 0.2231 0.9361
vt 0.2370 0.9242
vt 0.2350 0.9053
vt 0.2536 0.9049
vt 0.2498 0.9223
vt 0.2402 0.9167
vt 0.2576 0.9111
vt 0.2402 0.9052
vt 0.2032 0.9169
vt 0.2073 0.8993
vt 0.2170 0.9052
vt 0.2106 0.9170
vt 0.1977 0.9049
vt 0.2151 0.9111
vt 0.1977 0.9164
vt 0.2534 0.9172
vt 0.2499 0.8993
vt 0.2115 0.9047
vt 0.2074 0.9223
vt 0.2421 0.9104
vt 0.2595 0.9049
vt 0.2595 0.9164
vt 0.2461 0.9166
vt 0.2041 0.9046
vt 0.2170 0.9167
vt 0.1996 0.9105
vt 0.2463 0.9044
vt 0.2856 0.8258
vt 0.0602 0.7344
vt 0.0602 0.7344
vt 0.0602 0.7344
vt 0.4514 0.4653
vt 0.2681 0.6207
vt 0.0806 0.4653
vt 0.0602 0.7344
vt 0.0602 0.7344
vt 0.0602 0.7344
vt 0.2605 0.9224
vt 0.2647 0.9369
vt 0.2699 0.9338
vt 0.2556 0.9301
vt 0.2698 0.9271
vt 0.2602 0.9375
vt 0.2644 0.9230
vt 0.2734 0.9299
vt 0.2591 0.9262
vt 0.2592 0.9329
vt 0.2686 0.9375
vt 0.2688 0.9224
vt 0.2644 0.8993
vt 0.2686 0.9138
vt 0.2738 0.9106
vt 0.2596 0.9069
vt 0.2737 0.9039
vt 0.2641 0.9144
vt 0.2683 0.8999
vt 0.2773 0.9068
vt 0.2631 0.9030
vt 0.2632 0.9097
vt 0.2725 0.9144
vt 0.2728 0.8993
vt 0.2107 0.9376
vt 0.2065 0.9231
vt 0.2012 0.9262
vt 0.2155 0.9299
vt 0.2013 0.9329
vt 0.2109 0.9224
vt 0.2067 0.9369
vt 0.1977 0.9301
vt 0.2120 0.9338
vt 0.2119 0.9271
vt 0.2025 0.9224
vt 0.2023 0.9376
vt 0.2647 0.9521
vt 0.2605 0.9376
vt 0.2688 0.9376
vt 0.2592 0.9481
vt 0.2734 0.9451
vt 0.2591 0.9414
vt 0.2686 0.9528
vt 0.2698 0.9423
vt 0.2602 0.9528
vt 0.2556 0.9453
vt 0.2644 0.9383
vt 0.2699 0.9490
vt 0.2547 0.9311
vt 0.2402 0.9351
vt 0.2403 0.9267
vt 0.2505 0.9363
vt 0.2478 0.9224
vt 0.2439 0.9367
vt 0.2555 0.9273
vt 0.2450 0.9256
vt 0.2555 0.9356
vt 0.2478 0.9400
vt 0.2413 0.9312
vt 0.2517 0.9257
vt 0.2067 0.9521
vt 0.2025 0.9377
vt 0.2109 0.9377
vt 0.2013 0.9481
vt 0.2155 0.9451
vt 0.2012 0.9414
vt 0.2107 0.9528
vt 0.2119 0.9423
vt 0.2023 0.9528
vt 0.1977 0.9453
vt 0.2065 0.9383
vt 0.2120 0.9490
vt 0.1667 0.8957
vt 0.2164 0.8732
vt 0.2242 0.8992
vt 0.8957 0.9546
vt 0.7915 0.6850
vt 0.9576 0.6850
vt 0.2161 0.8683
vt 0.1888 0.8664
vt 0.1836 0.8650
vt 0.2099 0.8692
vt 0.1935 0.8678
vt 0.1882 0.8671
vt 0.1808 0.8665
vt 0.2098 0.8706
vt 0.1934 0.8677
vt 0.2022 0.8682
vt 0.2050 0.8690
vt 0.2049 0.8689
vt 0.1963 0.8680
vt 0.2021 0.8687
vt 0.1962 0.8685
vt 0.1281 0.9261
vt 0.1349 0.9270
vt 0.1350 0.9287
vt 0.1769 0.9060
vt 0.1620 0.9055
vt 0.1583 0.8993
vt 0.0705 0.9052
vt 0.0930 0.9347
vt 0.0602 0.9110
vt 0.1976 0.9182
vt 0.1462 0.9324
vt 0.1045 0.9280
vt 0.1282 0.9258
vt 0.1350 0.9307
vt 0.0928 0.9270
vt 0.1452 0.9414
vt 0.1119 0.9252
vt 0.0952 0.9132
vt 0.0788 0.9042
vt 0.0840 0.8993
vt 0.1117 0.9256
vt 0.1442 0.9154
vt 0.1378 0.9218
vt 0.1055 0.9236
vt 0.1044 0.9265
vt 0.0930 0.9217
vt 0.1045 0.9253
vt 0.1336 0.9247
vt 0.1121 0.9273
vt 0.1272 0.9274
vt 0.1339 0.9258
vt 0.1275 0.9271
vt 0.0710 0.9057
vt 0.0940 0.9173
vt 0.1281 0.9265
vt 0.1116 0.9261
vt 0.1386 0.9241
vt 0.1467 0.9263
vt 0.1451 0.9198
vt 0.1119 0.9269
vt 0.1052 0.9246
vt 0.1687 0.9078
vt 0.0602 0.7344
vt 0.0602 0.7344
vt 0.0602 0.7344
vt 0.0602 0.7344
vt 0.0602 0.7344
vt 0.0602 0.7344
vt 0.0602 0.7344
vt 0.0602 0.7344
vt 0.0602 0.7344
vt 0.0602 0.7344
vt 0.0602 0.7344
vt 0.0602 0.7344
vt 0.0602 0.7344
vt 0.3545 0.3030
vt 0.2519 0.7736
vt 0.0758 0.3110
vt 0.1538 0.7740
vt 0.1067 0.2998
vt 0.4693 0.0173
vt 0.3104 0.8660
vt 0.5503 0.6022
vt 0.0602 0.8019
vt 0.9689 0.6786
vt 0.7949 0.6791
vt 0.8819 0.6766
vt 0.7034 0.9701
vt 0.8825 0.5804
vt 0.2258 0.7857
vt 0.1617 0.7344
vt 0.9576 0.9458
vt 0.8565 0.9576
vt 0.7915 0.9643
vn 0.9933 0.0000 -0.1158
vn 0.1158 0.0000 0.9933
vn -0.1476 0.9889 0.0172
vn -0.1158 0.0000 -0.9933
vn 0.0000 -1.0000 0.0000
vn 0.0000 1.0000 0.0000
vn 0.3956 0.0000 0.9184
vn -0.1736 0.0000 0.9848
vn 0.1736 0.0000 -0.9848
vn 0.1476 -0.9889 -0.0172
vn -0.9933 0.0000 0.1158
vn -0.3956 0.0000 -0.9184
vn -0.1472 -0.9890 0.0172
vn 0.1472 0.9890 -0.0172
vn -0.4127 0.9109 0.0000
vn -0.0000 0.0000 -1.0000
vn 1.0000 0.0000 -0.0000
vn 0.0000 0.0000 1.0000
vn -1.0000 0.0000 0.0000
vn 0.0000 0.0377 -0.9993
vn -0.8660 0.0000 -0.5000
vn 0.0000 0.0387 0.9992
vn 0.8660 0.0000 -0.5000
vn -0.8660 0.0000 0.5000
vn 0.8660 0.0000 0.5000
vn 0.3914 0.9202 0.0008
vn 0.0000 -1.0000 0.0099
vn -0.0000 0.7359 -0.6771
vn 0.0000 0.7762 0.6305
vn -0.8809 0.0000 -0.4734
vn -0.8809 0.0000 0.4734
vn 0.8809 0.0000 0.4734
vn 0.8809 0.0000 -0.4734
vn 0.0338 0.9991 0.0246
vn 0.0211 0.9997 0.0157
vn -0.0002 -0.0057 1.0000
vn -0.0000 -0.9999 -0.0136
vn -0.0000 0.1552 -0.9879
vn -0.0034 -1.0000 -0.0065
vn -0.2670 -0.0055 0.9637
vn -0.0038 -0.9999 -0.0136
vn -0.2616 0.1231 -0.9573
vn -0.4518 0.0729 -0.8892
vn -0.0354 0.9993 0.0089
vn -0.4578 -0.0026 0.8891
vn -0.4654 0.0203 -0.8849
vn 0.9990 -0.0075 0.0439
vn -0.0002 -0.0074 1.0000
vn 0.0000 0.1961 -0.9806
vn -0.0028 -1.0000 -0.0051
vn -0.2757 -0.0070 0.9612
vn -0.0031 -0.9999 -0.0107
vn -0.2688 0.1556 -0.9505
vn -0.4635 0.0919 -0.8813
vn -0.0001 0.0194 -0.9998
vn -0.4704 -0.0033 0.8825
vn 0.0017 1.0000 0.0065
vn -0.2761 -0.0169 0.9610
vn -0.0157 0.9998 0.0074
vn 0.0326 0.9994 0.0107
vn 0.4733 -0.0203 0.8806
vn 0.0310 0.9992 0.0264
vn 0.0131 0.9996 0.0264
vn -0.0078 0.9997 0.0244
vn 0.0085 0.9995 0.0301
vn 0.0024 0.9998 0.0189
vn 0.1098 -0.0200 0.9938
vn 0.2766 0.0168 -0.9608
vn -0.4705 -0.0140 0.8823
vn 0.3978 -0.0205 0.9173
vn 0.0599 -0.0198 0.9980
vn 0.4951 0.0136 -0.8688
vn 0.9995 -0.0072 0.0291
vn 0.0000 0.0194 -0.9998
vn -1.0000 0.0066 0.0002
vn 1.0000 -0.0066 0.0008
vn -0.2721 0.0205 -0.9621
vn -0.0006 -0.0194 0.9998
vn -0.3963 0.0000 0.9181
vn -0.5970 0.0000 -0.8023
vn 0.3963 0.0000 -0.9181
vn 0.5970 0.0000 0.8023
vn -0.4065 0.9137 0.0000
vn -0.4089 0.9126 -0.0009
vn 0.3936 0.9193 0.0000
vn 0.3879 0.9217 -0.0000
vn 0.0224 0.7563 -0.6538
vn -0.0208 0.7931 0.6087
vn 0.0000 0.9999 0.0157
vn 0.0024 1.0000 0.0089
vn -0.0338 -0.9992 -0.0224
vn 0.0448 -0.9986 -0.0271
vn -0.2672 -0.0045 0.9636
vn -0.0236 -0.9997 -0.0065
vn -0.2674 0.1496 -0.9519
vn -0.4601 0.1133 -0.8806
vn 0.0158 0.9994 0.0311
vn -0.4581 -0.0042 0.8889
vn -0.0002 -0.0073 1.0000
vn 0.0364 -0.9991 -0.0213
vn -0.2759 -0.0057 0.9612
vn -0.0192 -0.9998 -0.0051
vn -0.2742 0.1886 -0.9430
vn -0.4708 0.1425 -0.8706
vn -0.4707 -0.0052 0.8823
vn 0.0069 0.9999 0.0074
vn 0.0117 0.9999 0.0107
vn 0.0108 0.9998 0.0183
vn 0.0024 0.9998 0.0187
vn 0.0326 0.9993 0.0203
vn 0.0163 0.9999 -0.0053
vn -0.0224 0.9997 -0.0051
vn -0.0401 0.9979 0.0503
vn 0.0069 0.9999 0.0131
vn -0.0661 0.9976 0.0182
vn 0.0056 0.9999 0.0086
vn 0.0094 0.9999 0.0131
vn 0.0000 0.9996 0.0292
s off
f 2/1/1 3/2/1 1/3/1
f 4/4/2 7/5/2 3/6/2
f 6/7/3 9/8/3 8/9/3
f 6/10/4 1/11/4 5/12/4
f 7/13/5 1/14/5 3/15/5
f 4/16/6 6/7/6 8/9/6
f 9/17/7 14/18/7 10/19/7
f 7/5/8 9/17/8 10/19/8
f 5/12/9 12/20/9 6/10/9
f 5/21/10 10/22/10 11/23/10
f 13/24/11 15/25/11 14/26/11
f 12/20/12 15/27/12 16/28/12
f 10/22/13 15/25/13 11/23/13
f 9/8/14 16/29/14 13/24/14
f 162/30/15 82/31/15 164/32/15
f 17/33/16 19/34/16 20/35/16
f 19/36/17 27/37/17 20/38/17
f 48/39/16 49/40/16 47/41/16
f 23/42/18 21/43/18 22/44/18
f 21/45/19 166/46/19 22/47/19
f 32/48/17 30/49/17 31/50/17
f 26/51/17 23/52/17 24/53/17
f 28/54/20 32/55/20 27/56/20
f 33/57/21 47/41/21 34/58/21
f 26/59/22 30/60/22 25/61/22
f 36/62/21 37/63/21 35/64/21
f 38/65/16 39/66/16 37/63/16
f 40/67/23 41/68/23 39/66/23
f 56/69/24 34/58/24 55/70/24
f 42/71/25 43/72/25 41/68/25
f 52/73/25 53/74/25 51/75/25
f 54/76/18 55/70/18 53/74/18
f 44/77/18 45/78/18 43/72/18
f 46/79/24 35/64/24 45/78/24
f 50/80/23 51/75/23 49/40/23
f 72/81/16 73/82/16 71/83/16
f 57/84/21 71/83/21 58/85/21
f 60/86/21 61/87/21 59/88/21
f 62/89/16 63/90/16 61/87/16
f 64/91/23 65/92/23 63/90/23
f 80/93/24 58/85/24 79/94/24
f 66/95/25 67/96/25 65/92/25
f 76/97/25 77/98/25 75/99/25
f 78/100/18 79/94/18 77/98/18
f 68/101/18 69/102/18 67/96/18
f 70/103/24 59/88/24 69/102/24
f 74/104/23 75/99/23 73/82/23
f 82/31/26 28/54/26 81/105/26
f 84/106/19 87/107/19 86/108/19
f 85/109/17 88/110/17 83/111/17
f 86/108/27 83/112/27 84/106/27
f 87/107/28 85/113/28 86/108/28
f 88/114/29 84/106/29 83/112/29
f 92/115/16 93/116/16 91/117/16
f 89/118/30 91/117/30 90/119/30
f 100/120/31 90/119/31 99/121/31
f 96/122/32 97/123/32 95/124/32
f 98/125/18 99/121/18 97/123/18
f 94/126/33 95/124/33 93/116/33
f 104/127/16 105/128/16 103/129/16
f 101/130/30 103/129/30 102/131/30
f 112/132/31 102/131/31 111/133/31
f 108/134/32 109/135/32 107/136/32
f 110/137/18 111/133/18 109/135/18
f 106/138/33 107/136/33 105/128/33
f 116/139/16 117/140/16 115/141/16
f 113/142/30 115/141/30 114/143/30
f 124/144/31 114/143/31 123/145/31
f 120/146/32 121/147/32 119/148/32
f 122/149/18 123/145/18 121/147/18
f 118/150/33 119/148/33 117/140/33
f 128/151/16 129/152/16 127/153/16
f 125/154/30 127/153/30 126/155/30
f 136/156/31 126/155/31 135/157/31
f 132/158/32 133/159/32 131/160/32
f 134/161/18 135/157/18 133/159/18
f 130/162/33 131/160/33 129/152/33
f 140/163/16 141/164/16 139/165/16
f 137/166/30 139/165/30 138/167/30
f 148/168/31 138/167/31 147/169/31
f 144/170/32 145/171/32 143/172/32
f 146/173/18 147/169/18 145/171/18
f 142/174/33 143/172/33 141/164/33
f 152/175/16 153/176/16 151/177/16
f 149/178/30 151/177/30 150/179/30
f 160/180/31 150/179/31 159/181/31
f 156/182/32 157/183/32 155/184/32
f 158/185/18 159/181/18 157/183/18
f 154/186/33 155/184/33 153/176/33
f 161/187/19 165/188/19 163/189/19
f 165/190/19 17/191/19 18/192/19
f 168/193/34 171/194/34 167/195/34
f 169/196/35 175/197/35 171/194/35
f 167/195/19 164/32/19 168/193/19
f 167/195/36 172/198/36 166/199/36
f 165/188/37 172/198/37 170/200/37
f 165/188/38 169/196/38 168/193/38
f 176/201/39 178/202/39 174/203/39
f 171/194/40 176/201/40 172/198/40
f 172/198/41 174/203/41 170/200/41
f 169/196/42 174/203/42 173/204/42
f 180/205/19 177/206/19 178/202/19
f 173/204/43 178/202/43 177/206/43
f 173/204/44 179/207/44 175/197/44
f 176/201/45 179/207/45 180/205/45
f 193/208/46 213/209/46 189/210/46
f 184/211/47 206/212/47 200/213/47
f 183/214/48 188/215/48 182/216/48
f 181/217/49 185/218/49 184/211/49
f 192/219/50 194/220/50 190/221/50
f 187/222/51 192/219/51 188/215/51
f 188/215/52 190/221/52 186/223/52
f 185/218/53 190/221/53 189/210/53
f 196/224/19 193/208/19 194/220/19
f 189/210/54 194/220/54 193/208/54
f 197/225/55 218/226/55 199/227/55
f 192/219/56 195/228/56 196/224/56
f 198/229/57 203/230/57 201/231/57
f 191/232/58 210/233/58 214/234/58
f 202/235/59 204/236/59 201/231/59
f 199/227/60 198/229/60 197/225/60
f 205/237/61 212/238/61 222/239/61
f 211/240/62 217/241/62 210/233/62
f 217/241/63 214/234/63 210/233/63
f 222/239/64 216/242/64 215/243/64
f 220/244/65 209/245/65 213/209/65
f 206/212/66 209/245/66 208/246/66
f 200/213/67 208/246/67 198/229/67
f 201/231/68 217/241/68 197/225/68
f 191/232/69 215/243/69 195/228/69
f 202/235/70 220/244/70 212/238/70
f 198/229/71 220/244/71 203/230/71
f 201/231/72 221/247/72 219/248/72
f 199/227/73 211/240/73 183/214/73
f 184/211/74 209/245/74 207/249/74
f 193/208/75 215/243/75 216/242/75
f 204/236/76 222/239/76 221/247/76
f 185/218/77 213/209/77 209/245/77
f 187/222/78 211/240/78 210/233/78
f 224/250/79 225/251/79 223/252/79
f 226/253/11 227/254/11 225/251/11
f 228/255/80 229/256/80 227/254/80
f 230/257/81 231/258/81 229/256/81
f 224/250/6 232/259/6 228/255/6
f 232/259/1 233/260/1 231/258/1
f 234/261/82 223/252/82 233/260/82
f 225/251/5 229/256/5 223/252/5
f 2/1/1 4/262/1 3/2/1
f 4/4/2 8/263/2 7/5/2
f 6/7/3 12/264/3 9/8/3
f 6/10/4 2/265/4 1/11/4
f 7/13/5 5/21/5 1/14/5
f 4/16/6 2/266/6 6/7/6
f 9/17/7 13/267/7 14/18/7
f 7/5/8 8/263/8 9/17/8
f 5/12/9 11/268/9 12/20/9
f 5/21/10 7/13/10 10/22/10
f 13/24/11 16/29/11 15/25/11
f 12/20/12 11/268/12 15/27/12
f 10/22/13 14/26/13 15/25/13
f 9/8/14 12/264/14 16/29/14
f 81/105/83 17/33/83 164/32/83
f 162/30/15 21/43/15 82/31/15
f 81/105/84 164/32/84 82/31/84
f 20/35/16 18/269/16 17/33/16
f 17/33/16 81/105/16 19/34/16
f 19/36/17 28/270/17 27/37/17
f 48/39/16 50/80/16 49/40/16
f 22/44/18 24/271/18 23/42/18
f 23/42/18 82/31/18 21/43/18
f 161/272/19 22/47/19 166/46/19
f 21/45/19 162/273/19 167/274/19
f 167/274/19 166/46/19 21/45/19
f 32/48/17 29/275/17 30/49/17
f 26/51/17 25/276/17 23/52/17
f 28/54/20 29/277/20 32/55/20
f 33/57/21 48/39/21 47/41/21
f 26/59/22 31/278/22 30/60/22
f 36/62/21 38/65/21 37/63/21
f 38/65/16 40/67/16 39/66/16
f 40/67/23 42/71/23 41/68/23
f 56/69/24 33/57/24 34/58/24
f 42/71/25 44/77/25 43/72/25
f 52/73/25 54/76/25 53/74/25
f 54/76/18 56/69/18 55/70/18
f 44/77/18 46/79/18 45/78/18
f 46/79/24 36/62/24 35/64/24
f 50/80/23 52/73/23 51/75/23
f 72/81/16 74/104/16 73/82/16
f 57/84/21 72/81/21 71/83/21
f 60/86/21 62/89/21 61/87/21
f 62/89/16 64/91/16 63/90/16
f 64/91/23 66/95/23 65/92/23
f 80/93/24 57/84/24 58/85/24
f 66/95/25 68/101/25 67/96/25
f 76/97/25 78/100/25 77/98/25
f 78/100/18 80/93/18 79/94/18
f 68/101/18 70/103/18 69/102/18
f 70/103/24 60/86/24 59/88/24
f 74/104/23 76/97/23 75/99/23
f 19/34/85 81/105/85 28/54/85
f 82/31/86 23/42/86 25/61/86
f 25/61/86 28/54/86 82/31/86
f 86/108/27 85/113/27 83/112/27
f 87/107/87 88/114/87 85/113/87
f 88/114/88 87/107/88 84/106/88
f 92/115/16 94/126/16 93/116/16
f 89/118/30 92/115/30 91/117/30
f 100/120/31 89/118/31 90/119/31
f 96/122/32 98/125/32 97/123/32
f 98/125/18 100/120/18 99/121/18
f 94/126/33 96/122/33 95/124/33
f 104/127/16 106/138/16 105/128/16
f 101/130/30 104/127/30 103/129/30
f 112/132/31 101/130/31 102/131/31
f 108/134/32 110/137/32 109/135/32
f 110/137/18 112/132/18 111/133/18
f 106/138/33 108/134/33 107/136/33
f 116/139/16 118/150/16 117/140/16
f 113/142/30 116/139/30 115/141/30
f 124/144/31 113/142/31 114/143/31
f 120/146/32 122/149/32 121/147/32
f 122/149/18 124/144/18 123/145/18
f 118/150/33 120/146/33 119/148/33
f 128/151/16 130/162/16 129/152/16
f 125/154/30 128/151/30 127/153/30
f 136/156/31 125/154/31 126/155/31
f 132/158/32 134/161/32 133/159/32
f 134/161/18 136/156/18 135/157/18
f 130/162/33 132/158/33 131/160/33
f 140/163/16 142/174/16 141/164/16
f 137/166/30 140/163/30 139/165/30
f 148/168/31 137/166/31 138/167/31
f 144/170/32 146/173/32 145/171/32
f 146/173/18 148/168/18 147/169/18
f 142/174/33 144/170/33 143/172/33
f 152/175/16 154/186/16 153/176/16
f 149/178/30 152/175/30 151/177/30
f 160/180/31 149/178/31 150/179/31
f 156/182/32 158/185/32 157/183/32
f 158/185/18 160/180/18 159/181/18
f 154/186/33 156/182/33 155/184/33
f 161/187/19 166/199/19 165/188/19
f 18/192/19 163/279/19 165/190/19
f 165/190/19 168/280/19 17/191/19
f 164/281/19 17/191/19 168/280/19
f 168/193/89 169/196/89 171/194/89
f 169/196/90 173/204/90 175/197/90
f 167/195/19 162/30/19 164/32/19
f 167/195/36 171/194/36 172/198/36
f 165/188/91 166/199/91 172/198/91
f 165/188/38 170/200/38 169/196/38
f 176/201/92 180/205/92 178/202/92
f 171/194/93 175/197/93 176/201/93
f 172/198/94 176/201/94 174/203/94
f 169/196/95 170/200/95 174/203/95
f 180/205/19 179/207/19 177/206/19
f 173/204/96 174/203/96 178/202/96
f 173/204/97 177/206/97 179/207/97
f 176/201/98 175/197/98 179/207/98
f 193/208/46 216/242/46 213/209/46
f 184/211/47 207/249/47 206/212/47
f 183/214/99 187/222/99 188/215/99
f 181/217/49 186/223/49 185/218/49
f 192/219/100 196/224/100 194/220/100
f 187/222/101 191/232/101 192/219/101
f 188/215/102 192/219/102 190/221/102
f 185/218/103 186/223/103 190/221/103
f 196/224/19 195/228/19 193/208/19
f 189/210/104 190/221/104 194/220/104
f 197/225/55 217/241/55 218/226/55
f 192/219/105 191/232/105 195/228/105
f 202/235/106 201/231/106 203/230/106
f 197/225/107 198/229/107 201/231/107
f 191/232/58 187/222/58 210/233/58
f 202/235/108 205/237/108 204/236/108
f 199/227/109 200/213/109 198/229/109
f 205/237/61 202/235/61 212/238/61
f 211/240/110 218/226/110 217/241/110
f 217/241/111 219/248/111 214/234/111
f 215/243/112 214/234/112 219/248/112
f 215/243/113 219/248/113 221/247/113
f 212/238/114 213/209/114 216/242/114
f 215/243/115 221/247/115 222/239/115
f 222/239/116 212/238/116 216/242/116
f 213/209/117 212/238/117 220/244/117
f 220/244/66 208/246/66 209/245/66
f 206/212/118 207/249/118 209/245/118
f 200/213/67 206/212/67 208/246/67
f 201/231/68 219/248/68 217/241/68
f 191/232/69 214/234/69 215/243/69
f 202/235/70 203/230/70 220/244/70
f 198/229/71 208/246/71 220/244/71
f 201/231/72 204/236/72 221/247/72
f 199/227/73 218/226/73 211/240/73
f 184/211/74 185/218/74 209/245/74
f 193/208/75 195/228/75 215/243/75
f 204/236/76 205/237/76 222/239/76
f 185/218/77 189/210/77 213/209/77
f 187/222/78 183/214/78 211/240/78
f 224/250/79 226/253/79 225/251/79
f 226/253/11 228/255/11 227/254/11
f 228/255/80 230/257/80 229/256/80
f 230/257/81 232/259/81 231/258/81
f 228/255/6 226/253/6 224/250/6
f 224/250/6 234/261/6 232/259/6
f 232/259/6 230/257/6 228/255/6
f 232/259/1 234/261/1 233/260/1
f 234/261/82 224/250/82 223/252/82
f 233/260/5 223/252/5 229/256/5
f 225/251/5 227/254/5 229/256/5
f 229/256/5 231/258/5 233/260/5
