<?xml version="1.0" encoding="utf-8"?>
<svg viewBox="0 0 500 500" width="500" height="500" xmlns="http://www.w3.org/2000/svg">
  <defs>
    <linearGradient gradientUnits="userSpaceOnUse" x1="256.418" y1="60.739" x2="256.418" y2="474.842" id="gradient-0" gradientTransform="matrix(0.800328, 0.76951, -0.927113, 0.964243, 256.753671, -255.431147)" spreadMethod="pad">
      <stop offset="0" style="stop-color: rgb(173, 223, 6);"/>
      <stop offset="1" style="stop-color: rgb(229, 73, 0);"/>
    </linearGradient>
    <radialGradient gradientUnits="userSpaceOnUse" cx="158.439" cy="303.264" r="102.182" id="gradient-3" gradientTransform="matrix(2.781022, 0.357078, -0.141466, 1.101781, -266.151465, -78.277879)">
      <stop offset="0" style="stop-color: rgba(0, 0, 0, 0.54);"/>
      <stop offset="1" style="stop-color: rgba(135, 108, 44, 0.54);"/>
    </radialGradient>
    <linearGradient gradientUnits="userSpaceOnUse" x1="284.622" y1="190.349" x2="284.622" y2="230.421" id="gradient-1" gradientTransform="matrix(0.060419, -1.048372, 12.439435, 0.716911, -2369.165409, 352.549066)">
      <stop offset="0" style="stop-color: rgb(176, 228, 8);"/>
      <stop offset="1" style="stop-color: rgb(232, 120, 0);"/>
    </linearGradient>
  </defs>
  <path d="M 289.139 85.573 C 299.597 86.616 307.997 88.41 317.316 91.443 C 323.714 93.526 330.352 96.034 336.687 99.131 C 336.919 98.911 337.119 98.716 337.275 98.55 C 337.753 98.044 337.472 98.212 338.156 97.669 C 340.014 96.195 359.667 76.338 363.558 71.995 C 367.964 67.079 374.913 61.942 380.524 58.935 C 385.448 56.297 389.393 54.811 395.196 54.126 C 402.273 53.29 413.338 53.365 420.5 55.713 C 426.948 57.828 433.139 61.559 436.752 66.481 C 440.369 71.407 442.764 79.802 442.178 85.266 C 441.655 90.131 438.143 95.372 434.914 97.963 C 432.034 100.274 427.678 101.022 424.347 100.978 C 421.232 100.937 417.885 99.527 415.504 98.099 C 413.371 96.82 411.616 94.902 410.47 93.135 C 409.447 91.561 410.151 89.08 408.67 88.148 C 406.738 86.931 402.104 86.68 398.377 88.22 C 396.508 88.992 390.962 96.38 389.815 98.257 C 387.182 102.562 381.358 108.01 376.607 112.052 C 373.039 115.087 368.528 117.088 364.792 119.708 C 367.652 122.393 369.917 124.64 371.03 125.784 C 372.176 126.964 371.911 127.252 372.497 127.84 C 373.084 128.427 374.036 128.874 374.552 129.307 C 374.942 129.633 374.754 129.414 375.432 130.188 C 378.324 133.487 396.75 153.557 405.077 166.29 C 410.138 174.028 414.663 182.402 418.58 190.707 C 424.173 189.099 429.862 187.208 433.549 185.541 C 439.651 182.782 443.634 177.466 447.638 176.148 C 450.548 175.19 452.675 175.39 455.269 176.148 C 458.236 177.015 462.24 179.445 464.368 181.725 C 466.252 183.743 467.307 186.307 467.89 188.769 C 468.466 191.202 469.007 193.448 467.89 196.401 C 466.26 200.713 460.524 208.149 455.856 211.957 C 451.528 215.489 447.942 216.747 441.181 219.002 C 438.488 219.9 434.812 220.964 430.708 222.05 C 432.472 228.069 433.883 234.07 435.017 240.256 C 437.166 251.989 439.042 265.491 437.952 276.065 C 437.38 281.606 435.987 286.635 434.228 291.399 C 439.651 292.567 445.218 294.005 449.399 295.144 C 456.855 297.177 463.991 299.616 468.771 302.189 C 472.356 304.117 474.888 305.587 476.696 308.353 C 478.606 311.276 480.18 315.735 479.631 319.506 C 479.028 323.65 475.828 329.541 472.293 332.127 C 468.835 334.657 464.172 335.533 458.792 335.062 C 451.707 334.443 440.915 327.847 432.961 325.669 C 428.921 324.564 424.647 324.24 420.841 323.765 C 419.063 327.485 417.131 330.938 415.059 333.594 C 405.485 345.867 398.746 360.418 389.385 370.935 C 389.63 371.111 389.871 371.285 390.109 371.459 C 398.912 377.879 408.147 386.033 412.122 391.123 C 414.527 394.204 415.069 396.161 415.645 398.755 C 416.198 401.252 416.403 403.793 415.645 406.387 C 414.777 409.354 412.418 413.365 410.068 415.486 C 407.931 417.413 404.967 418.441 402.436 419.008 C 400.077 419.536 398.451 420.249 395.391 419.008 C 389.983 416.816 381.343 406.711 372.497 400.81 C 369.56 398.851 365.971 396.801 362.186 394.756 C 358.6 397.621 356.275 399.418 355.766 399.93 C 351.458 404.271 339.991 410.439 329.644 419.595 C 328.667 420.46 327.71 421.266 326.768 422.023 C 330.022 427.832 332.882 433.087 334.634 436.325 C 337.533 441.683 338.983 444.03 339.918 447.479 C 340.711 450.413 341.258 452.689 340.504 455.698 C 339.558 459.48 336.407 465.756 333.166 468.318 C 330.276 470.604 326.286 471.74 322.6 471.254 C 318.409 470.701 313.648 468.555 309.391 463.916 C 304.609 458.706 299.845 446.175 295.485 436.897 C 291.002 438.005 286.551 438.839 282.682 439.554 C 276.393 440.716 274.265 440.937 265.657 441.315 C 262.593 441.449 258.359 441.649 253.426 441.86 C 255.166 449.159 256.896 458.452 255.971 463.916 C 255.041 469.416 251.874 473.974 248.633 476.538 C 245.743 478.824 241.753 479.959 238.067 479.472 C 233.876 478.919 228.336 477.205 224.858 472.134 C 221.268 466.897 215.931 454.625 214.381 444.109 C 203.352 439.804 194.522 436.538 186.516 438.91 C 177.442 441.597 167.083 454.364 160.75 457.752 C 154.587 461.051 148.6 467.687 143.726 469.493 C 140.169 470.811 137.36 470.764 134.334 470.08 C 131.187 469.369 127.459 467.308 125.235 465.09 C 123.164 463.027 121.793 460.07 121.126 457.459 C 120.491 454.976 120.471 452.443 121.126 449.827 C 121.862 446.885 123.174 443.701 125.821 440.729 C 129.222 436.91 135.133 433.038 141.378 429.575 C 144.93 427.605 148.67 425.716 152.823 423.91 C 151.731 423.409 150.608 422.946 149.424 422.53 C 143.299 420.382 139.218 418.673 133.575 414.898 C 130.21 412.648 126.232 409.438 122.342 406.023 C 116.443 407.99 110.623 410.13 106.572 412.55 C 98.271 417.51 90.916 425.93 86.906 429.868 C 84.587 432.144 84.609 433.583 82.502 434.858 C 79.932 436.415 75.623 438.279 71.936 437.793 C 67.746 437.24 61.385 433.795 58.728 430.455 C 56.344 427.458 55.631 422.81 55.793 419.302 C 55.946 415.983 57.416 412.924 59.315 409.909 C 61.44 406.535 65.933 402.457 68.414 400.223 C 70.153 398.659 71.258 398.409 72.817 396.994 C 74.733 395.256 76.133 392.555 78.981 390.243 C 82.709 387.218 87.371 384.173 94.243 380.851 C 95.42 380.282 96.786 379.643 98.29 378.959 C 96.195 375.347 93.85 370.921 91.534 366.139 C 87.567 367.435 84.152 368.472 81.916 369.11 C 77.479 370.377 76.325 370.952 73.111 370.284 C 69.135 369.458 62.559 366.286 59.902 362.946 C 57.517 359.949 56.419 355.563 56.967 351.793 C 57.569 347.649 59.09 343.282 64.305 339.171 C 67.179 336.906 72.575 334.141 78.842 331.395 C 76.7 321.882 75.512 312.23 74.579 302.482 C 74.472 301.368 74.374 300.258 74.285 299.15 C 69.31 299.564 64.117 300.06 60.782 299.84 C 57.146 299.601 55.169 299.306 52.564 298.08 C 49.768 296.762 46.447 294.681 44.639 291.915 C 42.729 288.992 41.155 284.532 41.704 280.762 C 42.307 276.618 45.561 270.722 49.042 268.14 C 52.39 265.658 57.573 265.6 61.957 265.205 C 65.774 264.862 70.191 265.679 73.81 265.797 C 73.864 264.343 73.925 262.876 73.991 261.39 C 74.438 251.525 75.44 240.187 76.691 229.298 C 68.643 226.637 57.682 224.593 51.977 221.765 C 47.365 219.479 44.393 217.555 42.291 214.427 C 40.233 211.363 38.807 207.044 39.356 203.274 C 39.959 199.13 43.663 193.205 46.694 190.652 C 49.222 188.523 51.074 187.564 55.5 187.717 C 60.86 187.903 71.837 191.17 81.475 194.639 C 82.67 187.009 84.129 179.793 86.906 172.161 C 90.484 162.324 97.015 150.319 102.674 141.116 C 101.94 140.172 101.005 139.142 99.699 137.991 C 90.228 129.635 53.121 109.227 45.985 100.715 C 42.64 96.723 42.769 94.744 43.051 91.322 C 43.379 87.317 46.627 80.888 49.214 78.113 C 51.236 75.945 53.588 75.121 56.258 74.592 C 59.196 74.008 61.96 73.774 66.238 75.179 C 73.034 77.409 83.803 84.094 93.828 91.028 C 102.8 97.233 116.632 106.999 126.051 115.378 C 130.814 112.205 136.272 109.109 141.793 106.12 C 150.93 101.172 162.171 95.376 172.319 92.03 C 181.931 88.862 189.883 87.307 201.083 86.16 C 204.344 85.826 207.929 85.623 211.704 85.508 C 201.636 71.009 190.822 54.764 187.288 47.709 C 184.203 41.553 183.237 39.435 183.767 35.382 C 184.323 31.113 188.073 25.313 191.104 22.76 C 193.632 20.631 196.801 19.888 199.91 19.825 C 203.233 19.758 207.471 21.013 210.476 22.76 C 213.416 24.47 214.348 25.63 217.814 30.098 C 224.988 39.344 248.259 79.301 252.449 83.812 C 253.491 84.934 253.461 83.939 254.21 84.693 C 254.41 84.894 254.649 85.163 254.915 85.49 C 267.018 85.23 278.83 84.546 289.139 85.573 Z" style="fill: url(#gradient-0); fill-rule: nonzero; paint-order: fill; stroke-width: 17px; stroke-linecap: round; stroke-linejoin: round; stroke: rgb(41, 47, 19);" transform="matrix(0.999975, 0.007029, -0.007029, 0.999975, 1.761572, -1.817785)"/>
  <path d="M 205.792 162.418 C 213.813 161.457 222.568 163.364 228.317 165.468 C 232.853 167.128 235.502 168.825 238.64 172.482 C 242.69 177.201 247.081 185.794 249.278 193.221 C 251.523 200.817 252.512 211.22 251.781 217.62 C 251.225 222.485 249.497 225.862 247.401 229.21 C 245.384 232.432 243.015 235.233 239.579 237.444 C 235.655 239.969 229.867 241.618 224.563 242.933 C 219.046 244.303 211.266 245.235 207.042 245.373 C 204.251 245.465 202.931 244.77 200.786 244.764 C 198.556 244.756 196.74 245.744 193.904 245.373 C 189.951 244.858 182.859 242.619 178.886 240.494 C 175.551 238.71 173.262 236.757 171.065 234.09 C 168.719 231.24 166.773 228.039 165.433 223.72 C 163.766 218.345 162.35 210.314 162.93 203.591 C 163.527 196.692 166.556 188.143 169.187 182.852 C 171.251 178.703 172.249 176.282 176.384 173.397 C 182.449 169.164 196.655 163.512 205.792 162.418 Z M 351.58 169.127 C 357.873 168.401 365.612 168.098 370.977 169.738 C 375.682 171.175 379.369 173.335 382.553 177.362 C 386.517 182.378 389.866 191.833 391.313 199.322 C 392.735 206.681 392.388 215.037 391.313 221.89 C 390.33 228.141 388.43 234.213 385.681 238.969 C 383.173 243.307 380.14 246.568 375.983 249.643 C 371.311 253.1 364.683 256.451 358.462 258.183 C 352.178 259.932 344.697 260.899 338.441 260.012 C 332.423 259.16 326.201 256.287 321.547 253.303 C 317.288 250.574 314.167 247.083 311.223 243.239 C 308.194 239.283 305.164 234.475 303.714 229.82 C 302.311 225.314 302.028 220.962 302.463 215.79 C 302.972 209.755 304.743 201.192 307.468 195.661 C 309.877 190.777 313.086 187.268 317.167 183.767 C 321.593 179.97 327.68 176.449 333.435 174.008 C 339.155 171.58 345.364 169.846 351.58 169.127 Z" style="stroke-linecap: round; stroke-miterlimit: 9; stroke: rgb(62, 50, 36); fill: rgb(255, 255, 255); stroke-width: 6px;"/>
  <path d="M 172.445 276.334 C 182.948 276.496 217.646 288.364 231.178 291.016 C 239.574 292.663 242.236 292.931 249.386 293.366 C 258.284 293.906 268.879 294.972 281.102 293.366 C 296.35 291.362 321.309 282.191 334.549 279.857 C 343.486 278.282 349.051 277.11 355.106 278.095 C 360.545 278.981 366.172 281.639 369.496 284.556 C 372.324 287.037 373.785 290.227 374.782 293.659 C 375.846 297.318 375.955 301.469 375.369 305.993 C 374.682 311.299 372.388 318.448 370.083 323.614 C 367.987 328.31 364.303 331.486 362.447 335.948 C 360.561 340.48 360.973 346.237 358.924 350.631 C 356.921 354.926 355.249 358.512 350.407 362.083 C 343.331 367.305 326.576 370.247 316.342 376.18 C 306.494 381.889 296.839 393.122 289.912 396.737 C 285.39 399.097 283.438 399.112 278.752 399.673 C 272.465 400.426 264.126 400.626 254.671 399.673 C 242.678 398.466 222.727 394.888 211.796 391.451 C 203.677 388.898 198.227 386.067 193.002 382.64 C 188.366 379.6 185.379 376.398 181.549 372.363 C 177.257 367.841 172.834 362.741 168.627 356.504 C 163.797 349.34 157.85 338.555 154.532 331.25 C 151.902 325.461 150.095 320.938 149.245 315.978 C 148.454 311.362 148.612 306.299 149.245 302.469 C 149.778 299.254 150.429 297.382 152.183 294.246 C 154.567 289.982 159.772 282.156 163.635 279.269 C 166.545 277.096 167.483 276.256 172.445 276.334 Z" style="stroke-linejoin: round; stroke: rgb(69, 50, 34); fill: url(#gradient-3); stroke-width: 7px;"/>
  <path d="M 213.827 192.496 C 217.539 192.086 223.05 192.214 226.623 193.608 C 229.893 194.884 232.882 197.132 234.69 200.006 C 236.613 203.062 238.059 207.856 237.472 211.689 C 236.85 215.745 233.868 221.199 230.517 223.65 C 227.239 226.047 221.898 226.712 217.721 226.431 C 213.554 226.151 208.306 223.71 205.482 221.981 C 203.425 220.721 202.408 219.796 201.31 217.809 C 199.904 215.264 198.008 210.812 198.528 207.238 C 199.099 203.312 202.61 197.696 205.482 195.277 C 207.878 193.258 210.637 192.846 213.827 192.496 Z M 342.34 195.277 C 345.479 194.791 348.531 195.263 351.241 196.389 C 354.015 197.544 356.828 199.97 358.751 202.231 C 360.566 204.363 361.808 206.78 362.646 209.463 C 363.534 212.31 364.523 215.601 363.759 218.921 C 362.852 222.859 359.638 228.912 356.248 231.439 C 353.112 233.774 348.457 234.783 344.565 234.22 C 340.39 233.617 334.917 230.028 332.048 227.266 C 329.668 224.976 328.525 222.259 327.597 219.477 C 326.67 216.695 326.03 213.625 326.484 210.576 C 326.981 207.242 328.393 202.818 330.935 200.284 C 333.586 197.64 338.761 195.832 342.34 195.277 Z" style="fill-rule: nonzero; paint-order: fill; fill: url(#gradient-1); stroke: rgb(64, 58, 55); stroke-width: 3px;"/>
</svg>